<?xml version="1.0" encoding="utf-8"?>
<!-- Generator: Adobe Illustrator 21.0.2, SVG Export Plug-In . SVG Version: 6.00 Build 0)  -->
<svg version="1.1" id="Layer_1" xmlns="http://www.w3.org/2000/svg" xmlns:xlink="http://www.w3.org/1999/xlink" x="0px" y="0px"
	 viewBox="0 0 1600 715" style="enable-background:new 0 0 1600 715;" xml:space="preserve">
<style type="text/css">
	.st0{fill:#C4B7B5;}
	.st1{fill:#00006C;}
	.st2{fill:none;}
	.st3{fill:#FFD773;}
	.st4{fill:none;stroke:#FFF7DF;stroke-miterlimit:10;}
	.st5{fill:#FFDC85;}
</style>
<g>
	<path class="st0" d="M1462.6,627.7c-44.7,0-126.3-24.5-157.9-24.5c-31.6,0-130.7,67.7-165.8,67.7c-71.3,0-4.3,5.8,0,5.8
		c36.9,0,132-45.4,162.7-45.4c1.4,0,33.3,5.2,34.9,5.3c-6.8,0.2-37.6,0.9-42.7,2.6c-20,6.8-86.8,44.6-108.6,52.1
		c-21.8,7.5-90.5,4.1-116.6,13c-26.2,9-37,15.2-12.1,6.7s127.7,1.9,150.1-5.8c22.4-7.7,59.8-34.7,91.6-45.6
		c27.7-9.5,101.9-8.9,105.3-12c27.4,3.8,75.2,7,87.1,7c28.1,0,44.9-26.9,81.8-26.9s36.9,0,36.9,0l5.3-20.5
		C1576.2,572.8,1507.3,627.7,1462.6,627.7z"/>
	<g>
		<path class="st1" d="M1594.1,619c-16.2-4.2-33.5-3.6-49.4,1.3l-1.5,0.5l-1.5,0.5c-1,0.4-2,0.7-2.9,1.1c-1.9,0.8-3.9,1.6-5.7,2.5
			c-1.9,0.8-3.7,1.9-5.5,2.9c-1.8,1-3.6,2.1-5.3,3.3c-3.5,2.3-7,4.6-10.6,6.8c-3.6,2.1-7.4,4-11.5,5.3c-8.1,2.6-16.7,3-25.1,2.5
			c-8.4-0.5-16.7-1.9-25-3.1c-16.5-2.3-33.2-3.6-49.9-3.8c-33.3-0.5-66.8,3.3-99.1,11.4c-4,1.1-7.9,2.5-11.6,4.3
			c-3.7,1.9-7.2,4.2-10.6,6.5c-7,4.6-14.1,9-21.4,13.2c-14.5,8.3-29.5,15.8-44.9,22.3c15.2-6.9,30.1-14.6,44.4-23.1
			c7.2-4.3,14.2-8.7,21.1-13.4c3.5-2.3,7-4.7,10.7-6.7c3.7-2,7.8-3.4,11.8-4.6c4-1.2,8.1-2.1,12.2-3c4.1-1,8.2-1.7,12.3-2.5
			c8.2-1.5,16.5-2.8,24.9-3.8c8.3-0.9,16.7-1.7,25-2.1c2.1-0.1,4.2-0.2,6.3-0.3l6.3-0.2c4.2,0,8.4-0.1,12.6,0
			c16.8,0.2,33.5,1.6,50.1,4c8.3,1.2,16.5,2.6,24.8,3.1c8.3,0.5,16.7,0.2,24.5-2.2c7.9-2.4,14.8-7.2,21.9-11.7
			c1.8-1.1,3.6-2.2,5.4-3.2c1.9-1,3.7-2,5.6-2.9c3.8-1.8,7.8-3.3,11.8-4.4c8.1-2.4,16.5-3.5,24.8-3.6c4.2-0.1,8.4,0.3,12.5,0.7
			C1585.9,617.1,1590,617.9,1594.1,619z"/>
	</g>
	<g>
		<path class="st1" d="M1180.2,662.6c8.4-3.5,16.8-6.8,25.2-10.2l25.2-10c8.4-3.4,16.9-6.6,25.3-9.9l12.7-4.9
			c4.2-1.6,8.4-3.3,12.7-4.8c2.2-0.7,4.4-1.3,6.7-1.7c2.3-0.4,4.6-0.6,6.9-0.6c2.3,0,4.6,0.1,6.9,0.3c2.3,0.3,4.5,0.6,6.8,1
			c4.5,0.8,8.9,1.9,13.3,2.9c4.4,1,8.8,1.9,13.3,2.7c8.9,1.5,17.9,2.4,26.9,2.7c9,0.4,18.1,0.1,27.1-0.7c-9,1.2-18,1.7-27.1,1.6
			c-9.1-0.1-18.1-0.9-27.1-2.2c-2.2-0.3-4.5-0.7-6.7-1.1c-2.2-0.4-4.5-0.9-6.7-1.4c-4.4-1-8.8-2-13.2-2.8c-2.2-0.4-4.4-0.7-6.6-0.9
			c-2.2-0.2-4.4-0.3-6.7-0.3c-2.2,0.1-4.4,0.3-6.6,0.6c-2.2,0.4-4.3,1-6.4,1.7c-4.2,1.4-8.4,3.1-12.7,4.7l-12.7,4.8
			c-8.5,3.2-16.9,6.5-25.4,9.6l-25.4,9.5C1197.2,656.4,1188.7,659.5,1180.2,662.6z"/>
	</g>
	<g>
		<path class="st2" d="M1120.5,702.7"/>
	</g>
	<g>
		<path class="st1" d="M1123.1,703.2c7.5,0.1,15.1,0.2,22.6,0.1c7.5-0.1,15-0.5,22.4-1.4c7.4-0.9,14.8-2.4,21.9-4.7
			c7.1-2.3,13.8-5.6,20.1-9.7c3.2-2,6.3-4.1,9.5-6c3.2-2,6.4-3.9,9.7-5.8c6.5-3.8,13.1-7.4,19.9-10.7c6.7-3.4,13.5-6.6,20.4-9.8
			c6.9-3.1,13.7-6.2,20.6-9.2l-20.2,10.1c-6.7,3.3-13.5,6.7-20.1,10.3c-6.6,3.6-13.2,7.1-19.7,10.9c-3.2,1.9-6.4,3.9-9.6,5.9
			c-3.2,2-6.3,4.1-9.5,6.1c-6.4,4.1-13.3,7.4-20.6,9.7c-7.2,2.3-14.7,3.8-22.2,4.5c-7.5,0.8-15.1,1-22.6,0.9
			C1138.2,704.1,1130.6,703.7,1123.1,703.2z"/>
	</g>
	<g>
		<path class="st1" d="M1455.9,633.6c3.6,0.7,7.2,1.3,10.8,1.5c3.6,0.2,7.2,0.2,10.8-0.1c3.6-0.3,7.1-0.9,10.6-1.7
			c3.5-0.8,7-1.9,10.4-3.3c-3,2.1-6.4,3.6-10,4.8c-3.5,1.2-7.2,1.9-10.9,2.2c-3.7,0.3-7.4,0.2-11.1-0.4
			C1462.8,636.1,1459.2,635.1,1455.9,633.6z"/>
	</g>
	<g>
		<path class="st2" d="M1574.5,627.7"/>
	</g>
	<g>
		<path class="st1" d="M1209.9,703.6c30.3-12.6,56.8-32.5,87.5-44.7c7.7-3,15.6-5.6,23.7-7.4c8.1-1.8,16.3-2.8,24.5-3.5
			c8.2-0.8,16.3-1.3,24.5-2c8.2-0.6,16.4-1.1,24.6-1.4c16.4-0.5,33-0.1,49.3,2.6c8.2,1.3,16.2,3.3,24.1,4.9c8,1.6,16,2.8,24,2.5
			c4-0.2,7.9-0.7,11.8-1.7c3.8-1,7.6-2.5,11.2-4.2c7.3-3.4,14.3-7.8,21.5-11.6c7.3-3.8,15.1-6.9,23.3-8.1c4.1-0.6,8.2-0.9,12.3-0.7
			c4.1,0.2,8.2,0.7,12.2,1.6c-4-0.7-8.1-1.1-12.2-1c-4.1,0-8.1,0.4-12.1,1.2c-8,1.5-15.5,4.8-22.6,8.8c-7.1,4-13.9,8.5-21.3,12.3
			c-3.7,1.9-7.6,3.5-11.6,4.7c-4,1.2-8.2,1.8-12.4,2.1c-8.4,0.5-16.7-0.7-24.8-2.2c-8.1-1.5-16-3.4-24-4.6
			c-16-2.5-32.3-2.9-48.6-2.3c-16.3,0.5-32.6,1.8-48.9,3.1c-8.1,0.7-16.2,1.6-24.1,3.2c-7.9,1.7-15.7,4-23.3,6.9
			c-7.6,2.8-15,6.3-22.3,9.8c-7.3,3.6-14.6,7.4-21.8,11.2C1239.9,690.4,1225.3,698.1,1209.9,703.6z"/>
	</g>
	<g>
		<path class="st3" d="M1376.1,614.6c-22.3-3.8-44.7-6.8-67.1-8.7c-2.8-0.2-5.5-0.3-8.2-0.2c-2.7,0.1-5.2,0.6-7.9,1.4
			c-5.3,1.6-10.6,3.5-15.8,5.5c-10.4,4.1-20.6,8.8-30.6,13.9c-10.1,5-20,10.4-30,15.6l-15.1,7.7c-5,2.6-10,5.2-15.2,7.7
			c-5.1,2.5-10.4,4.8-15.8,6.7c-5.4,1.9-10.9,3.5-16.5,4.7c-11.2,2.2-22.6,2.9-33.9,2.3c11.3-0.6,22.5-1.9,33.4-4.7
			c10.9-2.8,21.1-7.2,31.1-12.5l29.8-16.1c9.9-5.4,19.9-10.8,30-15.9c10.2-5.1,20.5-9.9,31.2-13.9c5.4-2,10.7-3.8,16.3-5.4
			c2.8-0.7,5.8-1.3,8.8-1.4c3-0.1,5.9,0.2,8.7,0.5C1331.9,604.7,1354.3,608.8,1376.1,614.6z"/>
	</g>
	<g>
		<g>
			<path class="st4" d="M1156.5,695.8"/>
		</g>
	</g>
	<g>
		<g>
			<g>
				<g>
					<g>
						<path class="st5" d="M1170.3,694.9c0-0.1,0-0.3-0.2-0.2l-0.1,0.3L1170.3,694.9z"/>
						<path class="st5" d="M1168.9,694.5c-0.2,0.2-0.4,0.5-0.2,0.8c0.1-0.4,0.2-0.2,0.4-0.6c0.2-0.1,0.3,0,0.3,0.2
							c0-0.1,0.3,0,0.3-0.2c-0.3-0.2-0.6-0.2-0.8,0.1C1168.9,694.7,1168.9,694.6,1168.9,694.5z"/>
						<path class="st5" d="M1151.5,696.6l0.1,0C1151.6,696.6,1151.5,696.6,1151.5,696.6z"/>
						<path class="st5" d="M1140.6,697.1c0.1,0,0.1,0,0.1-0.1C1140.6,697,1140.6,697.1,1140.6,697.1z"/>
						<path class="st5" d="M1138.7,696.8c0,0,0.1,0,0.1,0C1138.8,696.8,1138.8,696.8,1138.7,696.8z"/>
						<path class="st5" d="M1151.5,696.6l-0.3-0.1C1151.2,696.6,1151.3,696.6,1151.5,696.6z"/>
						<path class="st5" d="M1166.7,695.8c0.1,0,0.1-0.1,0.1-0.1C1166.8,695.7,1166.7,695.7,1166.7,695.8L1166.7,695.8z"/>
						<path class="st5" d="M1156.2,695.8L1156.2,695.8c0.1-0.1,0.1-0.1,0.1-0.2L1156.2,695.8z"/>
						<path class="st5" d="M1159.8,695.3c-0.1,0-0.1,0.3-0.1,0.4c0-0.1,0.1-0.2,0.2-0.2C1159.9,695.4,1159.9,695.4,1159.8,695.3z"/>
						<path class="st5" d="M1165.7,694.8L1165.7,694.8C1165.7,694.8,1165.7,694.8,1165.7,694.8z"/>
						<path class="st5" d="M1153.6,696C1153.6,696,1153.6,696,1153.6,696C1153.5,696,1153.6,696,1153.6,696z"/>
						<path class="st5" d="M1052.3,711C1052.3,711,1052.3,711,1052.3,711C1052.3,711,1052.3,711,1052.3,711z"/>
						<path class="st5" d="M1047.8,711.1L1047.8,711.1c0-0.1,0-0.1,0-0.2L1047.8,711.1z"/>
						<path class="st5" d="M1135.3,696.5C1135.3,696.5,1135.3,696.5,1135.3,696.5C1135.4,696.5,1135.4,696.5,1135.3,696.5z"/>
						<path class="st5" d="M1104,697.5c0.4,0.2-0.6,0.4,0,0.6C1104,698,1104.5,697.6,1104,697.5z"/>
						<path class="st5" d="M1166.6,695.8c0,0-0.1,0-0.1,0C1166.5,695.8,1166.6,695.8,1166.6,695.8z"/>
						<path class="st5" d="M1104,698.1L1104,698.1L1104,698.1C1104,698.1,1104,698.1,1104,698.1z"/>
						<path class="st5" d="M1127.5,696.9c0,0,0,0.1,0.1,0.1C1127.6,697,1127.6,696.9,1127.5,696.9z"/>
						<path class="st5" d="M1133.3,697.2l-0.1,0C1133.3,697.1,1133.3,697.2,1133.3,697.2z"/>
						<path class="st5" d="M1124.5,697.3c-0.1,0-0.1-0.1-0.2,0c0,0,0,0,0,0C1124.3,697.3,1124.4,697.3,1124.5,697.3z"/>
						<path class="st5" d="M1121.3,697.4C1121.3,697.4,1121.3,697.4,1121.3,697.4c0.1,0.1,0.1,0,0.2,0L1121.3,697.4z"/>
						<path class="st5" d="M1061.4,707.9c-0.1-0.1-0.2-0.1-0.2-0.2C1061.3,707.9,1060.9,708.1,1061.4,707.9z"/>
						<path class="st5" d="M1166.7,695.6c0,0.1,0,0.1-0.1,0.1l0.1,0C1166.7,695.7,1166.7,695.7,1166.7,695.6z"/>
						<path class="st5" d="M1124.4,699.5l-0.5,0C1124,699.5,1124.2,699.5,1124.4,699.5z"/>
						<path class="st5" d="M1083.1,702l-0.1,0.1C1083.1,702.1,1083.1,702.1,1083.1,702z"/>
						<path class="st5" d="M1122.4,699.6c-0.1-0.1-0.2-0.2-0.3-0.2c0,0,0,0-0.1,0.1L1122.4,699.6z"/>
						<path class="st5" d="M1061.2,707.7L1061.2,707.7L1061.2,707.7z"/>
						<path class="st5" d="M1058.3,709.4c0.5-0.1,0.1-0.4,0.1-0.6c0.5-0.3,0.3,0.2,0.6,0.3c0.3-0.2,0.5-0.6,0.7-0.7
							c0,0.1,0.1,0.1,0.1,0.1c0.3-0.4,1.1-0.4,1.4-0.9c0,0,0.1,0,0.1,0.1c-0.1-0.2-0.2-0.3-0.2-0.5c0.2-0.1,0.3-0.3,0.5-0.1
							c-0.1,0-0.1,0.1-0.1,0.2l0.2-0.2c0.3,0.3-0.3,0.2-0.2,0.5c0.4-0.2,0.8-0.7,1.1-0.7c0.2,0.3-0.7,0.4-0.2,0.5l-0.5,0
							c0.5,0.4-0.3,0.1,0.2,0.5c0.7-0.1,0.7-0.4,1.3-0.5c0.1-0.2-0.1-0.2,0-0.5c0.8-0.6,1,0.6,1.5-0.1c0.1-0.3,0-0.7,0.6-0.6l0,0.4
							c0.6-0.2,0.2-0.6,0.9-0.6c-0.1,0.2-0.5,0.3-0.3,0.3c0.5,0.2,0.2-0.3,0.6-0.4l0.2,0.3c0.7-0.3,1.3-0.7,2-1
							c0,0.1-0.1,0.3,0.1,0.3c0.9-0.4,2-0.6,3-0.6l0.3-0.4c0.1,0,0.2,0.1,0.1,0.2c0.4,0,0-0.2,0.1-0.3c0.2-0.1,0.3,0.1,0.2,0.2
							c0.6-0.4,1.6-1,2.4-0.9l-0.1,0.1c0.5,0,0.4-0.7,1-0.6l-0.1,0.1c1.2-0.1,2.3-0.7,3.3-0.4c0.1-0.5,1.1-0.1,1.1-0.7
							c0.7,0.1,0.5,0.3,1.5,0.3c0.2,0,0.3-0.4,0.6-0.5l0.1,0.3l0.4-0.4l0.3,0.3l0.3-0.1c-0.1,0-0.3-0.1-0.3-0.2
							c0.4-0.2,1.1,0,1.2,0.2l1-0.4c0,0.1-0.2,0.2-0.3,0.3c0.5-0.4,0.2,0.3,0.6-0.1c-0.1-0.1,0-0.2,0-0.3c0.3,0.1,0.9,0,1.3-0.1
							l-0.1,0.2c0.8,0,1.6-0.3,2.5-0.4c-0.3-0.1-0.3-0.4-0.1-0.5l0.1,0.3c0.1-0.2-0.3-0.1,0-0.4c0.3,0,0.3,0.3,0.1,0.5l0.4-0.2
							c0,0.1-0.1,0.2-0.1,0.3c0.1-0.2,0.7,0.2,0.9-0.1l0,0.1c0.9-0.1,1.3-0.3,2-0.4c0-0.3,0.3-0.2,0.5-0.5c0.5,0,1.1,0.2,1.8,0.1
							c0.4-0.2,0.1-0.2,0.3-0.4c0.1,0.3,0.7,0.2,0.4,0.4c0.8-0.1,1-0.1,1.9-0.4c-0.1-0.1-0.2-0.1-0.2-0.2c0.2-0.1,0.4,0.1,0.4,0.2
							l0,0c1.1-0.5,2.6,0.6,3.4,0l0,0l0.9-0.3c0.4,0-0.2,0.2,0.1,0.3c0.9-0.5,1.5,0,2.3-0.4c0.7,0.7,2.2-0.1,3.1,0.3l-0.1-0.2
							c0.2-0.2,0.3,0.1,0.4,0.1c0-0.1-0.2-0.2-0.1-0.3c1.8-0.3,3.8,0.1,5.7,0.2c0.7,0,0.4-0.9,1.2-0.5l-0.2,0.3
							c1.4-0.4,2.8-0.1,4.2-0.4c-0.1,0.1-0.1,0.2-0.2,0.2c0.3,0.2,1.1,0,1.1-0.2c0.2,0,0.1,0.2,0.2,0.3c0.3,0.1,0.7-0.3,0.9-0.1
							c0,0-0.1,0.1-0.1,0.1c0.2-0.1,0.9,0,0.7-0.3c0.5,0.1,1-0.1,1.4,0c0.3-0.3,0.9,0.1,1-0.3c0,0.5,0.9,0.4,1.2,0.1
							c-0.1,0.1,0.3,0.1,0.2,0.3c0.4,0,0.7-0.1,0.6-0.3c0.7,0.5,1.4-0.5,1.8,0.2c1.1-0.3,2.1-0.4,3.1-0.6c0,0.5-1.1,0.1-1,0.5
							c0.9-0.2,1.5-0.6,2.4-0.5c0.2,0.1-0.1,0.2-0.2,0.3c0.9-0.2,1.8,0,2.6-0.3c0,0-0.1,0.1-0.2,0.1c0.2,0,0.4,0.1,0.4-0.1l-0.2,0.1
							c-0.3-0.3,0.6-0.6,0.7-0.8c-0.3,0.6,0.8,0.1,0.4,0.9c0.1,0,0.2-0.1,0.2-0.3c0.2,0,0.2,0.1,0.1,0.3c0.6-0.1,0.4-0.3,0.9-0.4
							c0,0.1-0.1,0.1-0.2,0.3c0.3-0.2,0.5-0.4,1-0.3c0,0.1,0,0.1-0.1,0.1c0.8-0.1,1.3-0.6,2.2-0.4c-0.2,0.4,0.3,0.1,0.4,0.5l0.5-0.1
							l-0.2-0.2c0.4,0,0.7-0.3,1.1-0.2l-0.3,0.2l0.7-0.1l-0.4-0.1c0.4-0.2-0.1-0.5,0.5-0.4c-0.1,0,0.4,0,0.6,0.2l0,0
							c0.2-0.1,0.4-0.3,0.7-0.2c0.1,0.1,0,0.4,0,0.5c0.2-0.3,0.9-0.1,1.2-0.5c-0.1,0.1-0.1,0.3,0,0.3l0.2-0.3
							c0.2,0.1,0.2,0.1,0.2,0.3c0.6,0-0.2-0.5,0.5-0.3c-0.1,0,0,0.1-0.1,0.1c0.7,0.1,1.3-0.2,1.9-0.1c0.2,0.4-0.5,0.1-0.3,0.4
							c0.9-0.1,1.8-0.6,2.6-0.5l-0.2,0c0.1-0.5,0.7,0.2,1.1-0.1c-0.1,0-0.1,0.3-0.1,0.2c0.6,0,1.2-0.2,2-0.5l-0.1,0.1
							c0.4,0.1,0.9,0,1.3,0c0.1-0.1,0.3-0.1,0.2-0.3c1.2,0.6,2.1-0.7,3.2-0.1c-0.1,0-0.3,0.2-0.2,0.1l0.8-0.2
							c-0.1-0.2-0.1-0.1-0.3-0.3c0.1-0.1,0.3-0.3,0.5-0.3c-0.4,0.2,0,0.4,0.2,0.5c0-0.1,0-0.2,0-0.2c0.5,0.4,0-0.5,0.7-0.3l0,0.1
							c0.2-0.1,0.4-0.3,0.7-0.3c0.1,0.3-0.2,0.2-0.2,0.4c0.3,0,0.6-0.6,1-0.4c-0.1,0.1-0.3,0.1-0.5,0.2c0.4,0.3,0.4,0.2,0.7,0.2l0,0
							l0.6,0.1l-0.2-0.1c0.3-0.8,0.9-0.3,1.4-0.8c-0.5,0.5-0.1,0.3-0.1,0.6c0.2,0.1,0.4,0.1,0.4,0.2c0.2-0.3,0.5,0.1,0.8-0.3
							c0,0.1,0.3,0,0.3,0.2c0.3-0.1-0.1-0.2-0.1-0.3c0.5-0.4,1.4,0.2,2.1-0.4c0.6-0.3,0.7-0.7,1.3-1c0.2,0.1-0.1,0.4-0.1,0.4
							c0.4,0.1,0.6,0,0.9-0.2c0,0.1,0,0.2,0.2,0.2c0.3-0.1,0.1-0.4,0.5-0.3c0,0.1-0.1,0.3-0.2,0.4c0.3-0.1,0.6-0.4,0.9-0.5
							c0.1,0.1-0.1,0.3-0.2,0.4c0.3-0.1,0.9-0.3,0.9-0.6l-0.2,0c0.1,0,0.1,0.2,0,0.3c-0.3,0.3-0.5,0-0.5-0.1l0.2-0.1
							c-0.3-0.5-0.9,0.3-1.3,0.3l0.1-0.4l-0.4,0.4c-0.1-0.1-0.2-0.3,0-0.4c-0.4-0.1-0.3,0.2-0.6,0c0,0,0-0.1,0-0.1l-0.3,0.2
							c0-0.1-0.1-0.3,0.1-0.3c-0.6-0.1-0.9,0.5-1.1,0.2l0,0c-0.8,0.3,0,0.3-0.6,0.8l-0.5-0.7l0,0.3c-0.1,0-0.2,0-0.2-0.1
							c-0.3,0.3,0.1,0.1-0.1,0.3c-0.4-0.2-1.1,0.3-1.2-0.2c-0.1,0.3,0.4,0.1,0,0.3c-0.2-0.5-0.5,0.2-0.9,0c0.1-0.3,0.4-0.2,0-0.4
							c-0.2,0.5-0.7,0-1,0.1c0,0.4-0.6,0.2-1.1,0.4c0-0.1-1-0.1-1.5-0.1l0-0.1c0,0.4-0.5,0.4-0.9,0.5c0-0.2,0-0.3,0.2-0.4l-0.3,0
							c-0.1,0.1-0.2,0.2-0.4,0.3l0.1-0.3c-0.4,0.1-0.9,0.4-1.5,0.3c0,0.3,0.5,0.7-0.1,0.9c0-0.1-0.1-0.4,0.1-0.4
							c-0.1,0-0.2,0.1-0.3,0.1l0.2-0.3c-0.3-0.1-0.1,0.2-0.3,0.2c0-0.2-0.2-0.1-0.2-0.3c0.1,0,0.2,0.1,0.3,0c-0.2,0-0.5-0.1-0.6-0.2
							c0,0.1,0,0.3-0.1,0.3c-0.4,0.1-0.2-0.2-0.4-0.3c-0.1,0.1-0.4,0-0.4,0.3c-0.1,0-0.2-0.1-0.2-0.2c-0.2,0.2-1.1,0.1-0.8,0.4
							l0.1,0l0,0l0,0l0,0c-0.7,0.4-1.6,0-2.3,0.1l0-0.1c-0.4,0.1-1,0.1-1.3,0.4c-0.1,0-0.3-0.2-0.3-0.3c-0.3,0.1-0.4,0.2-0.9,0.1
							c0.3-0.2-0.1-0.1,0.3-0.2c-0.5-0.1-0.6-0.2-1,0.1c0.1-0.3-0.4-0.3-0.6-0.2l0.3,0.2c-0.2,0-0.4,0-0.7,0l0.1-0.3
							c-0.9-0.4-1.6,0.8-2.4,0.1c-0.2,0.2,0.5,0.1,0.3,0.4c-0.4,0-0.9-0.5-1-0.5c-0.6-0.2-0.5,0.5-1.1,0.4c0.1,0.1,0.2,0.4-0.3,0.6
							c-0.4,0-0.5-0.5-0.3-0.6c0.1,0,0.2,0,0.1,0.1c0.1,0,0.3-0.1,0.1-0.2l0,0.1c-0.2-0.1-0.8-0.1-0.7-0.3c-0.3,0.1-0.1,0.2,0.1,0.3
							c-0.5-0.2-0.8,0-1.4-0.1c0.1,0.1,0.2,0.2,0.1,0.2c-0.8-0.1-0.4,0.2-0.9,0.3c-0.3-0.2,0.1-0.4-0.5-0.3c-0.3-0.1-0.1-0.3,0-0.4
							c-0.5,0.2-1-0.1-1.2-0.2l0.3-0.1c-0.2,0.1-0.3,0.1-0.4,0.1l0.2,0.2c-0.2,0-0.3,0-0.3-0.1c-0.2,0.2,0.1,0.4-0.2,0.6
							c-0.2-0.1-0.6,0.2-0.7-0.2c0.7,0.1-0.1-0.3,0.5-0.4c-0.1,0-0.2,0-0.4,0c0,0,0-0.1,0.1-0.1c-0.6-0.3-0.3,0.4-0.9,0.4
							c0.1-0.2-0.2-0.3-0.3-0.3c0.3,0,0.1,0.3-0.1,0.4c-0.4-0.1-0.5,0.1-0.7,0.1l0.3,0.1c-0.1,0.2-0.3,0.2-0.6,0.2
							c0-0.1,0.3-0.1,0.2-0.2c-0.3,0.3-0.7-0.3-1.2-0.1c-0.2-0.1,0-0.3-0.2-0.4c-0.5,0.2-0.6-0.2-1.1,0c0.2,0.2,0.2,0.2-0.2,0.4
							l0.9-0.2l-0.6,0.4c0.3,0,0.6-0.2,0.7-0.1c-0.3,0.2-0.2,0.1-0.1,0.3c-0.4-0.4-0.7,0.2-1.1,0l0-0.6c-0.6-0.3-1.1,0.3-1.9,0.2
							l0.3,0.1c-0.1,0.2-0.5,0-0.8,0.1c0-0.2-0.1-0.3-0.3-0.4c0,0.1-0.6,0-0.7,0.4l-0.4-0.3c-0.7-0.1-0.7,0.6-1.4,0.5
							c0.2-0.2-0.1-0.4,0.3-0.5c-0.2,0-0.4,0-0.4,0.1c-0.1-0.1-0.6,0.3-0.8,0.1c-0.1,0.1-0.1,0.3-0.4,0.3c0,0,0-0.1,0-0.1
							c0,0.1-0.4,0.1-0.2,0.4c-0.7-0.6-1.8,0.1-2.4-0.4c-0.5,0.1-1,0.1-1.4,0.2c0-0.1,0-0.1,0.1-0.1c-0.6-0.2-0.3,0.6-1,0.4
							c-0.3-0.3,0.3-0.2,0.1-0.3c-0.1-0.6-0.8,0.1-1.2-0.3l0.1,0c-0.3-0.2-0.8,0.3-1.4,0.2c0,0,0-0.1,0-0.1
							c-0.4,0.3-1.1,0.5-1.6,0.6c0.2-0.3,0.2-0.1,0.1-0.4c-0.2,0,0.1,0.4-0.4,0.5c-0.2-0.1-0.5-0.2-0.6-0.5l0.5,0
							c-0.2-0.4-0.6,0-0.8,0l0-0.2c-0.7,0.1-0.7,0.5-1.4,0.5l0.1,0.1c-0.4,0.4-0.3-0.2-0.7,0.1l-0.1-0.4c-0.3,0.1-0.9,0.4-1.4,0.5
							c0.3-0.3,0.8-0.5,1.2-0.6c-0.3,0-0.9,0.1-1,0.3c0.1,0,0.2-0.1,0.3-0.1c-0.3,0.3-0.7,0.5-1.3,0.5c0.1-0.8-1.4-0.1-1.8-0.7
							c-0.9,0.3-1.9,0-3,0c0.4,0.6-0.3,0-0.2,0.6c-0.3,0-0.3,0-0.4,0l-0.8-0.3c-0.2-0.2,0.2-0.1,0.2-0.3c-0.6,0-0.2-0.2-0.6-0.4
							c0.1,0.2-0.2,0.3-0.5,0.3l0.5,0.3c-0.8,0.4-0.7-0.5-1.5-0.1l0.2-0.2c-0.4,0.1-1.5,0.1-1.9,0.6c-0.1-0.1-0.2-0.2,0-0.3
							c-1,0-2.1,0.7-2.9,0.4l0.1-0.2c-0.2,0.1-0.3,0.3-0.5,0.2c0-0.1,0.1-0.2,0-0.2c-0.1,0.1-0.5,0.3-0.7,0.2l0.2-0.2
							c-1-0.1-1.4,0.5-2.2,0.7c0-0.4-0.8-0.5-1.2-0.5l0-0.1c-1.1,0-1.8,0.6-2.8,0.9c-0.7-0.4-2.1,0.1-3.2-0.1c0.2,0.1,0,0.3-0.1,0.4
							c-0.3-0.1-0.6,0.4-0.6,0l0.1,0c-0.2-0.4-0.7-0.2-1.1-0.1l0,0.5c-1.1-0.6-2.5,0.7-3.2,0.1c-0.2,0.2-0.5,0.2-0.7,0.4l0-0.3
							c-0.7,0-1,0.1-1.8,0.3l0.1-0.2c-0.5,0.1-0.4,0.9-0.8,1l-0.2-0.4c-0.8,0.2-1.7,0-2.4,0.6c0-0.1,0-0.2,0.1-0.2
							c-0.4,0.1-1.5,0.1-1.2,0.6c-0.1-0.4-0.8,0.2-1.2,0.4l0-0.3c-0.3,0.4-0.3,0.5-0.7,0.8c-0.1,0-0.2-0.2,0-0.2
							c-0.4,0-0.2,0.3-0.8,0.3l0.1-0.2c-0.4,0.1-0.4,0.2-0.5,0.4c-0.2,0.2-0.8,0.1-0.9-0.1c0,0.2-0.2,0.4-0.4,0.4
							c-0.1-0.1,0-0.2,0-0.2c-0.7,0-0.9,0.6-1.4,0.5c0-0.1-0.1-0.1-0.1-0.1c0.5-0.2,1-0.3,0.9-0.2c-0.1-0.2-0.5-0.2-0.3-0.6
							c-0.3,0.3-0.8,0.9-1.2,0.9c0,0-0.1,0-0.1-0.1l0,0c-0.1,0-0.2,0.1-0.3,0.1c-0.1,0-0.2,0-0.4,0c-0.1-0.2-0.5,0-0.7,0.1
							c0.1,0.3-0.2,0.3,0.1,0.4c0,0,0,0,0.2-0.1c0,0,0.1,0,0.1-0.1l0,0c0.1,0,0.3-0.1,0.5-0.2c-0.1,0.2-0.3,0.4-0.6,0.3
							c-0.1,0.2-0.1,0.4-0.2,0.5c-0.4-0.3-1-0.3-1.2-0.5c-0.6,0.4-1.5,0.6-1.7,1.2c-0.2,0.1-0.3-0.1-0.4-0.1
							c0.1-0.1,0.2-0.1,0.3-0.2c-0.3,0.2-1.1,0.4-1.1,0.8c-0.5,0,0.2-0.4-0.5-0.1l0.1-0.1c-1.4-0.1-1.7,1.6-3.4,1.3
							c0.1,0,0.2,0,0.2,0.1c-1.7,0.2-3.2,1.4-4.9,1.4c-0.5,0-0.5,0.3-0.7,0.5l-0.2-0.3l-0.4,0.5c-0.6,0.5-1.4-0.3-2.1,0.4l0.2,0.2
							c-0.3,0.1-0.9,0.4-0.9,0.2c0,0,0,0.2-0.2,0.2l-0.1-0.1l-0.7,0.5c-0.6,0.1-0.1-0.6-0.9-0.4c-0.3,0.2-0.7,0.7-0.6,0.8
							c0.1,0,0.3,0,0.4,0.1l-0.3,0.2c0.1,0.5,0,1,0.8,1.1l0.4-0.4l0.2,0.2l-0.4,0.1c0.3,0.1,0.4-0.1,0.5-0.3
							c0.1,0.1,0.2,0.2,0.3,0.2l0.3-0.6c0.1,0.2-0.1,0.4,0.3,0.4c0.2-0.3-0.3-0.3,0-0.6c0.3,0.1,0.3,0.3,0.5,0c0.1,0.1,0,0.2,0,0.3
							c0.2-0.2,0.6-0.3,0.7-0.5c0.3,0.2,0.8-0.3,0.9,0.1c0-0.1,0.3-0.5,0.5-0.6c-0.2,0.6,0.8-0.2,0.9,0.3c0.2-0.5,1-0.6,1.5-1
							c0,0-0.1,0.1-0.1,0.1c0.3-0.1,0.4,0,0.7,0.1c-0.1-0.4,0.4-0.6,0.5-0.9c0.5,0.2-0.1,0.5,0.2,0.8c-0.1-0.3,0.5-0.5,0.3-0.7
							c0.4,0.1,0.3,0,0.5,0.3c-0.1-0.5,0.2-0.2,0.4-0.5c0.5,0.1,0.2,0.4,0.6,0.1C1058.6,709.1,1058.3,709.4,1058.3,709.4z
							 M1068.6,705.1L1068.6,705.1c-0.1,0-0.2,0.1-0.2,0.1C1068.5,705.2,1068.5,705.2,1068.6,705.1z M1069.5,704.9
							c-0.1,0-0.2,0.1-0.4,0.1c-0.1-0.1-0.1-0.2,0-0.2C1069.1,704.8,1069.4,704.8,1069.5,704.9z M1067,703.6c0.1-0.1,0.2,0,0.2,0
							c-0.1,0-0.1,0.1-0.2,0.1l0,0C1067,703.7,1067,703.6,1067,703.6z"/>
						<path class="st5" d="M1066.9,704C1066.9,704,1066.9,704,1066.9,704C1066.9,704.1,1066.9,704.1,1066.9,704L1066.9,704
							L1066.9,704z"/>
						<path class="st5" d="M1151.6,696.6L1151.6,696.6C1151.6,696.6,1151.6,696.6,1151.6,696.6
							C1151.6,696.6,1151.6,696.6,1151.6,696.6z"/>
						<polygon class="st5" points="1082.1,702.4 1082.1,702.3 1082.1,702.4 						"/>
						<path class="st5" d="M1156.9,697C1156.9,697,1156.9,697.1,1156.9,697C1156.9,697.1,1156.9,697,1156.9,697z"/>
						<path class="st5" d="M1159.1,696.8l0.3,0.1C1159.3,696.8,1159.2,696.8,1159.1,696.8z"/>
						<path class="st5" d="M1160.8,696.7c0-0.1,0-0.1,0-0.1l0,0L1160.8,696.7z"/>
						<path class="st5" d="M1133.5,699C1133.5,699,1133.5,699,1133.5,699C1133.3,699.1,1133.4,699.1,1133.5,699z"/>
						<path class="st5" d="M1141.6,698.1c-0.1,0.1-0.2,0.1-0.3,0.1C1141.5,698.3,1141.6,698.3,1141.6,698.1z"/>
						<polygon class="st5" points="1124.4,699.5 1124.4,699.5 1124.4,699.5 						"/>
						<path class="st5" d="M1141,698.3c0.1,0,0.3,0,0.4,0C1141.2,698.2,1141.1,698.2,1141,698.3z"/>
						<path class="st5" d="M1168.2,695.5L1168.2,695.5C1168.3,695.5,1168.3,695.5,1168.2,695.5L1168.2,695.5z"/>
						<path class="st5" d="M1168.3,695.5L1168.3,695.5C1168.3,695.4,1168.3,695.4,1168.3,695.5z"/>
						<path class="st5" d="M1168.6,695.3l-0.2,0.1C1168.5,695.4,1168.5,695.4,1168.6,695.3z"/>
						<path class="st5" d="M1165.9,695.8l0,0.1C1165.9,695.9,1166,695.9,1165.9,695.8z"/>
						<path class="st5" d="M1165.3,696c0.2,0,0.4,0.1,0.7,0l0-0.1C1165.9,696.1,1165.4,695.8,1165.3,696z"/>
						<path class="st5" d="M1162.2,695.2l0.6,0c-0.1-0.1-0.3-0.2,0-0.3C1162,694.7,1163,695.2,1162.2,695.2z"/>
						<path class="st5" d="M1160.4,695.3c0.3-0.1,0-0.2,0-0.2C1160.2,695.2,1160.2,695.3,1160.4,695.3z"/>
						<path class="st5" d="M1147.6,696.7l0-0.3C1147.3,696.5,1147.6,696.5,1147.6,696.7z"/>
						<polygon class="st5" points="1145.2,698.2 1145.4,698.3 1145.5,698.1 						"/>
						<polygon class="st5" points="1143.6,696.4 1143.7,696.4 1143.3,696.5 						"/>
						<path class="st5" d="M1121.9,697.1l0.1,0.3C1122.1,697.4,1122.1,697,1121.9,697.1z"/>
						<path class="st5" d="M1112.4,697.6c-0.1-0.2-0.4-0.2-0.5-0.1C1112.1,697.6,1112.3,697.7,1112.4,697.6z"/>
						<polygon class="st5" points="1084.2,699.4 1084.3,699.3 1084,699.5 						"/>
					</g>
				</g>
			</g>
		</g>
	</g>
</g>
<g>
	<path class="st0" d="M1641.5,223l-6.1-15.1c0,0,0,0-27.8,3c-27.8,3-60.4-14-81.6-11.7c-16.3,1.8-64.1,15.2-96,22.5
		c-15.4-1.2-28.8-2.5-36.3-4c-22.7-4.8-78.8-49.3-106.1-55.1c-27.3-5.7-39-4.7-13,0.7c16.4,3.4,81,53.1,114,69.3
		c-27.9-5.1-98.5-24.6-113.3-23c-27.8,3-32.2,7-5.7,4.1c26.5-2.9,113.2,36.8,137,34.2c7.1-0.8,31-3.6,30.6-3.7
		c24.9,0.1,52,0.2,69.9,4c33.1,6.9,73.7,58.3,108.5,38.7l0-16c0,0,0,0-27.3-5.7c-27.3-5.7-51.4-31.7-72.2-36.1
		c-4.7-1-12.4-1.9-21.8-2.7c11.1-3.1,21.6-5.5,30.4-6.4C1558.6,216.3,1616.2,252.1,1641.5,223z"/>
	<g>
		<path class="st1" d="M1355.7,203.7c7.2,6.9,15.8,12.2,25,15.8c9.2,3.7,18.9,5.9,28.8,7c9.8,1.1,19.8,1.2,29.7,0.8
			c5-0.2,9.9-0.6,14.9-1c4.9-0.4,9.8-1.1,14.5-2.5c4.7-1.4,9.3-3.3,14-5c4.7-1.7,9.5-3.2,14.3-4.5c4.9-1.3,9.8-2.2,14.8-2.6
			c5-0.4,10.1-0.2,15,0.2c9.9,0.9,19.8,2,29.7,3.1c9.9,1.1,19.8,2.2,29.7,3.3c-9.9-0.7-19.9-1.6-29.8-2.4
			c-9.9-0.8-19.9-1.8-29.8-2.5c-4.9-0.3-9.9-0.5-14.8,0c-4.9,0.4-9.8,1.4-14.5,2.6c-4.8,1.3-9.5,2.8-14.1,4.5
			c-4.7,1.7-9.3,3.6-14.1,5.1c-4.9,1.5-9.9,2.1-14.9,2.5c-5,0.4-10,0.8-14.9,0.9c-10,0.4-20,0.3-30-1.1c-9.9-1.3-19.7-3.7-29-7.6
			C1371.2,216.5,1362.5,211,1355.7,203.7z"/>
	</g>
	<g>
		<path class="st1" d="M1441.7,238.8c7.7-0.6,15.4-1,23.2-1.6c7.7-0.4,15.4-0.9,23.2-1.3c7.7-0.4,15.6-0.1,23.3,1.7
			c3.8,0.9,7.5,2.1,11.2,3.6c3.6,1.5,7.1,3.3,10.5,5.1c13.6,7.7,25.4,17.9,38.7,25.6c6.6,3.9,13.6,7.2,21,9.4
			c3.7,1.1,7.5,1.9,11.3,2.3c3.8,0.3,7.7,0.3,11.6-0.1c-3.8,0.7-7.7,0.9-11.6,0.7c-3.9-0.2-7.7-0.9-11.5-1.9c-7.5-2-14.7-5.2-21.5-9
			c-6.8-3.7-13.2-8.3-19.5-12.7c-6.3-4.4-12.7-8.8-19.4-12.5c-3.3-1.9-6.8-3.6-10.3-5.1c-3.5-1.5-7.2-2.7-10.9-3.6
			c-7.4-1.8-15.1-2-22.8-1.9c-7.7,0.2-15.5,0.5-23.2,0.8C1457.2,238.4,1449.5,238.6,1441.7,238.8z"/>
	</g>
	<g>
		<path class="st1" d="M1405.1,234.1c4.2,1.2,8.5,1.7,12.9,1.6c4.3-0.1,8.6-0.5,12.9-1.2l6.5-0.9c2.2-0.3,4.3-0.6,6.5-0.9
			c4.3-0.5,8.7-1,13.1-1.3c-4.3,1.1-8.6,2-12.9,2.8c-4.3,0.8-8.6,1.6-13,2.2c-4.4,0.6-8.8,1-13.2,0.7
			C1413.5,237,1409,236.1,1405.1,234.1z"/>
	</g>
	<g>
		<path class="st1" d="M1595,287.6c-6.3,0.4-12.7,0.1-18.9-1.2c-6.2-1.2-12.3-3.2-18.1-6c-2.9-1.4-5.6-3.1-8.3-4.8
			c-2.6-1.8-5.1-3.8-7.6-5.8c-4.9-4-9.7-8-15-11.1c-10.6-6.3-22.7-9.9-35-11.8c-12.3-1.9-24.8-2.1-37.3-1.5
			c-12.5,0.5-25,1.8-37.6,2.7c-6.3,0.4-12.7,0.7-19.1,0.5c-6.4-0.2-12.8-1.1-19-2.4c-12.5-2.7-24.3-7.4-36.1-11.7
			c-5.9-2.2-11.8-4.3-17.9-6l-2.3-0.7l-2.3-0.6c-1.5-0.4-3-0.8-4.6-1.1c-1.5-0.3-3.1-0.7-4.6-0.9l-4.7-0.7l4.7,0.4
			c1.6,0.1,3.1,0.4,4.7,0.6c1.6,0.2,3.1,0.6,4.7,0.9l2.3,0.5l2.3,0.5c6.2,1.4,12.2,3.2,18.2,5.2c6,1.9,12,3.9,18,5.8
			c6,1.8,12,3.5,18.1,4.7c3.1,0.6,6.1,1.1,9.2,1.4c3.1,0.4,6.2,0.5,9.3,0.6c6.2,0.1,12.4-0.3,18.7-0.8c12.5-1,25.1-2.3,37.7-2.9
			c12.6-0.5,25.4-0.4,38.1,1.7c6.3,1.1,12.5,2.5,18.6,4.7c3,1,6,2.3,8.9,3.6c2.9,1.4,5.7,2.9,8.5,4.6c5.5,3.4,10.3,7.6,15.1,11.7
			c2.4,2,4.8,4,7.3,5.9c2.5,1.8,5.1,3.5,7.8,5C1569.9,284.6,1582.5,287.6,1595,287.6z"/>
	</g>
	<g>
		<path class="st1" d="M1384.9,229.9c-9.3-4.8-18.3-10.2-27.2-15.9c-8.9-5.6-17.5-11.5-26.2-17.4c-8.7-5.9-17.3-11.7-26.2-17.4
			c-8.8-5.6-17.8-11.1-26.9-16.1c9.5,4.4,18.8,9.4,27.8,14.8c9,5.4,17.8,11.2,26.4,17.1l25.9,17.7
			C1367.3,218.6,1376,224.4,1384.9,229.9z"/>
	</g>
	<g>
		<path class="st3" d="M1391.3,215.7c-10.3-2.4-20.2-6.6-29.6-11.4c-9.4-4.8-18.4-10.4-27.4-15.9c-8.9-5.5-17.8-11-26.9-16
			c-9.2-4.9-18.7-9.2-28.7-12.6c10.5,1.3,20.8,4.7,30.4,9.1c9.7,4.4,18.9,9.7,27.8,15.3c9,5.6,17.7,11.3,26.6,16.8
			C1372.5,206.3,1381.7,211.4,1391.3,215.7z"/>
	</g>
	<g>
		<path class="st3" d="M1278.2,209.2c4.7-1.4,9.7-1.4,14.6-0.9c4.9,0.5,9.6,1.6,14.2,2.7c4.6,1.2,9.2,2.5,13.7,4
			c4.5,1.5,9,3.2,13.4,5.4c-4.9-0.2-9.6-0.8-14.3-1.6c-4.7-0.8-9.4-1.8-14-3c-4.6-1.2-9.1-2.5-13.7-3.7
			C1287.6,211,1283.1,209.9,1278.2,209.2z"/>
	</g>
	<g>
		<path class="st3" d="M1446,219.2c12.2-4.6,24.5-8.7,36.9-12.7c6.2-2,12.4-3.9,18.7-5.7c6.3-1.7,12.8-3.2,19.4-4.1
			c3.3-0.4,6.6-0.6,10-0.6c3.3,0,6.7,0.2,10,0.8c1.7,0.2,3.3,0.6,4.9,0.9c1.6,0.4,3.2,0.8,4.8,1.2c3.2,0.9,6.3,1.9,9.4,3
			c6.2,2.2,12.1,4.6,18.3,6.6c6.1,2,12.4,3.5,18.9,4.1c-6.5,0.5-13.1-0.3-19.5-1.7c-6.4-1.5-12.6-3.4-18.8-5.3
			c-6.2-1.7-12.3-3.6-18.6-4.3c-6.2-0.8-12.5-0.7-18.8,0.1c-6.3,0.7-12.5,2.1-18.8,3.7c-6.2,1.5-12.5,3.3-18.8,4.9
			C1471.4,213.5,1458.8,216.6,1446,219.2z"/>
	</g>
</g>
<g>
	<path class="st0" d="M448.4,294.6c-35.1,0-143.8-68.6-175.4-68.6S159.8,250.5,115,250.5S1.4,195.6-36.8,229.9l5.3,20.5
		c0,0,0,0,36.9,0c11.5,0,23.2,2.6,34.7,6.2c16.8,7.2,32.2,20.9,45.5,23.4c16.4,3.1,78.4,3.6,96.3,7s71.5,38,93,42
		c21.5,4,27.9,1.5,7.4-2.4c-20.1-3.8-73.9-53.3-93.2-58.5c32.8-4.5,65.9-16.3,81.2-16.3c30.7,0,131.6,46.6,168.5,46.6
		S483.5,294.6,448.4,294.6z"/>
	<g>
		<path class="st2" d="M76.4,255.9"/>
	</g>
	<g>
		<path class="st1" d="M67.2,256c5.6,3,11.3,6,17.1,8.4c5.9,2.4,12,4,18.3,5c12.5,2.1,25.3,2.1,38,2.4c6.4,0.2,12.8,0.5,19.1,1.2
			c6.4,0.7,12.7,1.7,18.9,3.6c6.2,1.8,12.1,4.4,17.6,7.8c5.4,3.4,10.5,7.5,14.7,12.3c-4.6-4.5-9.7-8.3-15.2-11.4
			c-5.5-3.1-11.4-5.6-17.5-7.1c-6.1-1.6-12.3-2.7-18.7-3.3c-6.3-0.6-12.7-0.8-19-1c-6.4-0.2-12.7-0.4-19.1-0.7
			c-6.4-0.4-12.8-0.9-19.1-2.2c-6.3-1.2-12.5-3-18.4-5.7C78.2,262.6,72.7,259.4,67.2,256z"/>
	</g>
	<g>
		<path class="st1" d="M138.4,263.9c8-0.9,15.9-2.6,23.6-4.9c7.7-2.2,15.4-4.8,22.9-7.5c7.6-2.8,15.2-5.5,22.9-8
			c7.7-2.5,15.5-4.7,23.5-6.1c16-2.8,32.4-3.2,48.5-0.9c8,1.2,16,2.9,23.7,5.3c7.7,2.4,15.3,5.4,22.4,9.2
			c-7.4-3.3-14.9-6.1-22.7-8.2c-7.7-2.2-15.6-3.8-23.6-4.7c-15.9-1.9-32.1-1.6-47.9,1.3c-15.8,2.8-31,8.4-46.3,13.6
			c-7.7,2.6-15.4,5-23.2,7C154.5,261.9,146.5,263.4,138.4,263.9z"/>
	</g>
	<g>
		<path class="st2" d="M262.4,240.6"/>
	</g>
	<g>
		<path class="st1" d="M255.4,242.7c4.9-0.7,9.9-0.6,14.8-0.1c4.9,0.5,9.8,1.6,14.6,2.8c9.6,2.5,18.8,6.1,28.2,9.1
			c9.3,3,18.9,5.4,28.5,7.6c9.6,2.2,19.3,4.1,28.9,6.3c-9.8-1.3-19.5-2.8-29.2-4.7c-9.7-1.9-19.3-4.2-28.8-7.2
			c-9.4-3-18.6-6.7-28-9.5C275,244.1,265.3,242.1,255.4,242.7z"/>
	</g>
	<g>
		<path class="st1" d="M48.3,260.9c2.5,1,4.9,2.2,7.2,3.6c2.3,1.4,4.5,2.9,6.7,4.4c4.4,3,8.9,5.9,13.8,7.4
			c4.9,1.6,10.2,1.8,15.5,1.9l15.9,0.8l16,0.8c5.3,0.3,10.6,0.5,15.9,0.9c10.6,0.8,21.3,1.8,31.9,3.4c10.6,1.7,21.1,4,31.3,7.6
			c10.2,3.6,19.8,8.4,29.1,13.6l13.9,7.7c4.6,2.6,9.3,5,14.1,7.3c4.8,2.3,9.7,4.3,14.7,6l3.8,1.2c1.3,0.4,2.6,0.6,3.9,1l1.9,0.5
			c0.6,0.2,1.3,0.2,2,0.4l3.9,0.7c-5.3-0.4-10.6-1.2-15.8-2.6c-5.1-1.4-10.3-3.1-15.2-5.2c-9.9-4.1-19.3-9.2-28.7-14.1
			c-4.7-2.4-9.5-4.8-14.2-7l-3.6-1.6c-1.2-0.5-2.4-1-3.6-1.5l-1.8-0.7l-1.9-0.7c-1.2-0.4-2.5-0.9-3.7-1.3
			c-9.9-3.4-20.3-5.6-30.7-7.2c-20.9-3.3-42.2-4.3-63.3-6l-15.9-1.3c-5.3-0.4-10.8-0.8-16-2.7c-5.2-1.9-9.6-5.1-13.8-8.4
			c-2.1-1.6-4.2-3.2-6.4-4.7C53,263.4,50.7,262,48.3,260.9z"/>
	</g>
	<g>
		<path class="st3" d="M262,225.4c16.5,0.7,32.9,4.7,48.5,10.3c7.8,2.8,15.4,6.1,23,9.5c7.5,3.5,14.9,7.2,22.3,10.9
			c7.3,3.8,14.6,7.6,21.9,11.3c7.3,3.8,14.7,7.3,22.1,10.8c7.5,3.4,15,6.5,22.8,9.3c7.7,2.8,15.6,5,23.8,5.8
			c-8.3,0.4-16.6-1.3-24.6-3.4c-4-1.1-8-2.4-11.9-3.7c-3.9-1.4-7.8-2.8-11.7-4.4c-7.7-3-15.2-6.6-22.7-10.1
			c-7.4-3.6-14.8-7.4-22.1-11.1c-7.3-3.8-14.6-7.5-22-11.1c-7.4-3.6-14.8-7-22.4-10.2C293.9,233.1,278.3,228.1,262,225.4z"/>
	</g>
</g>
<g>
	<path class="st0" d="M1656.6-75.1c0,0,0,0-49.2,18.1c-49.2,18.1-118.2,1.7-155.7,15.5C1414.2-27.7,1299.6,59.9,1258.6,75
		c-41,15.1-210.3-2.3-259.5,15.8c-49.2,18.1-48.6,24.2-1.8,7c8.5-3.1,37-0.6,52-0.9c-21.8,9.4-55.4,23.8-66.5,26.9
		c-17.9,4.9-84.7-2.3-106.2,3.7c-21.5,5.9-19.7,7.5,0.7,1.9c20.4-5.7,93.6,14.1,112,9c17.9-5,58.6-27,85.7-34.5
		c10.5-2.9,25-1.5,39.6-0.5c60.7,5.1,126.4,12.8,150.4,4c42.2-15.5,136.2-88.3,195.9-110.3c59.7-22,185,17.4,215.1-47.2L1656.6-75.1
		z"/>
	<g>
		<path class="st1" d="M1641.3-45.4c-2.4,1.7-4.9,3.2-7.5,4.5c-2.6,1.3-5.3,2.4-8.1,3.3c-5.5,1.8-11.3,3-17,3.9
			c-5.8,0.9-11.6,1.4-17.4,2c-5.8,0.6-11.6,1-17.4,1.5c-23.2,1.8-46.5,2.9-69.8,3.3c-5.8,0.1-11.6,0.2-17.5,0.2c-2.9,0-5.8,0-8.7,0
			c-2.9,0-5.8-0.1-8.6,0.2c-2.8,0.3-5.6,0.9-8.2,2c-2.6,1.1-5.1,2.6-7.5,4.1l-14.9,9.1l-59.5,36.5l-59.6,36.3
			c-9.9,6.1-19.9,12-29.9,18c-10,5.9-19.8,12.3-30.5,17.1c-5.4,2.4-11.1,4.1-16.9,4.9c-5.8,0.8-11.7,0.7-17.5,0.4l-34.9-1.9
			l-69.7-4.1l69.7,3.1l34.9,1.6c5.8,0.2,11.6,0.2,17.3-0.6c5.7-0.8,11.2-2.6,16.5-4.9c10.5-4.8,20.2-11.3,30.2-17.2
			c9.9-6,19.9-12,29.8-18.1l59.5-36.5l59.6-36.3l14.9-9.1c2.5-1.5,5-3,7.8-4.2c2.7-1.2,5.7-1.9,8.7-2.1c3-0.3,5.9-0.2,8.8-0.2
			l8.7,0.1c5.8,0,11.6,0,17.4,0c23.3-0.2,46.5-1.1,69.7-2.7c5.8-0.4,11.6-0.8,17.4-1.3c5.8-0.5,11.6-0.9,17.3-1.7
			c5.8-0.8,11.5-1.9,17-3.6c2.8-0.9,5.5-1.9,8.1-3.1C1636.4-42.3,1638.9-43.8,1641.3-45.4z"/>
	</g>
	<g>
		<path class="st1" d="M1344,51.2c8.4-4.9,16.8-9.6,25.2-14.3l25.3-14.1c8.5-4.7,16.9-9.4,25.3-14.2c8.4-4.8,16.8-9.6,25.1-14.5
			c-7.9,5.5-16.1,10.8-24.3,15.9c-8.3,5.1-16.6,9.9-25.1,14.6c-8.5,4.7-17,9.3-25.6,13.7C1361.4,42.6,1352.7,47,1344,51.2z"/>
	</g>
	<g>
		<path class="st1" d="M1048,108.5c10.8-4.6,21.6-9.2,32.5-13.5c5.5-2.2,11.1-4.1,17-5c5.9-0.9,11.8-0.9,17.7-1
			c11.7-0.1,23.5-0.2,35.2-0.2c11.7,0,23.5,0.1,35.2,0.4c-11.7,0.5-23.5,0.9-35.2,1.2c-11.7,0.3-23.5,0.5-35.2,0.6
			c-5.9,0.1-11.7,0.1-17.4,0.9c-5.7,0.8-11.3,2.6-16.8,4.6C1070.1,100.5,1059,104.6,1048,108.5z"/>
	</g>
	<g>
		<path class="st1" d="M1250.4,110c8.5-1.9,16.8-4.8,24.8-8.3c8-3.5,15.7-7.6,23.2-12c7.5-4.4,15-8.9,22.4-13.5
			c7.4-4.6,14.9-9.2,22.2-13.8c14.7-9.4,29.4-18.8,43.9-28.6c14.5-9.7,29-19.6,44.5-28.1c7.8-4.2,15.8-8,24-11.1
			c2-0.8,4.2-1.5,6.3-2.2c2.1-0.7,4.2-1.3,6.3-2l6.4-1.6l1.6-0.4l1.6-0.3l3.3-0.6c8.7-1.6,17.5-2.6,26.3-3.1
			c8.8-0.5,17.6-0.4,26.3-0.2c17.5,0.4,35,1.8,52.4,2.3c8.7,0.2,17.5,0.5,26.1-0.3c8.6-0.8,17.3-2.5,25.2-6.4
			c-3.8,2.1-7.9,3.7-12.2,4.9c-4.2,1.2-8.6,1.9-12.9,2.5c-8.7,1-17.5,1.1-26.3,1.2c-17.5,0-35-1-52.4-1.2
			c-8.7-0.1-17.4,0.1-26.1,0.6c-8.7,0.6-17.3,1.6-25.7,3.3c-17,3.1-33.1,9.8-48.4,18c-15.3,8.2-29.7,18.1-44.3,27.7
			c-14.6,9.6-29.4,19-44.4,28.1c-15,9.1-30,18-45.4,26.4c-7.7,4.1-15.6,8-23.7,11.3c-4.1,1.6-8.2,3.1-12.4,4.3
			C1259,108.2,1254.7,109.2,1250.4,110z"/>
	</g>
	<g>
		<path class="st1" d="M1018.8,123.4c-4,3.2-8.1,6.2-12.4,9c-4.3,2.7-8.9,5.2-13.8,7c-4.9,1.8-10.2,2.8-15.5,2.9
			c-5.4,0-10.6-1.4-15.5-2.7c-2.5-0.7-4.9-1.5-7.3-2.1c-1.2-0.3-2.4-0.6-3.6-0.8l-1.8-0.4l-1.8-0.3c-4.9-0.9-9.9-1.5-14.9-1.9
			c-10.1-0.8-20.2-0.8-30.4-1.2c10.1-1.3,20.3-2.1,30.6-2c5.1,0.1,10.3,0.5,15.4,1.3c5.1,0.8,10.2,2.1,15.1,3.5
			c4.8,1.5,9.6,2.7,14.4,2.8c4.8,0.2,9.7-0.7,14.5-2c4.7-1.5,9.3-3.5,13.8-5.7C1010,128.4,1014.4,125.9,1018.8,123.4z"/>
	</g>
	<g>
		<path class="st1" d="M1039.1,96.4c-6.6,0.4-13.2,0.6-19.7,1c-6.6,0.4-13.1,1-19.5,2c-6.5,1-12.8,2.5-19,4.6
			c-6.2,2.1-12.2,4.8-17.7,8.4c5.1-4.2,11-7.5,17.2-9.9c6.2-2.4,12.7-4,19.2-5.1c6.6-1,13.2-1.5,19.8-1.6
			C1025.9,95.7,1032.5,96,1039.1,96.4z"/>
	</g>
	<g>
		<g>
			<path class="st4" d="M1006.3,114.8"/>
		</g>
	</g>
	<g>
		<path class="st3" d="M987.7,119.7c-7.6,4.6-16.5,7.1-25.4,8.3c-8.9,1.2-17.9,1.2-26.8,0.8c-8.9-0.5-17.6-1.4-26.4-2
			c-8.7-0.6-17.5-0.8-26.3-0.3c8.5-2.6,17.5-3.5,26.4-3.6c8.9-0.2,17.8,0.4,26.5,0.9c8.8,0.5,17.5,0.8,26.1,0.4
			C970.6,123.7,979.2,122.4,987.7,119.7z"/>
	</g>
	<g>
		<path class="st3" d="M1242.4,78.1c-19.3,4.8-39.4,6.5-59.3,5.6c-9.9-0.4-19.8-1.2-29.6-1.1c-2.4,0-4.9,0.1-7.3,0.2
			c-2.4,0.1-4.9,0.3-7.3,0.5c-4.9,0.5-9.8,1.1-14.8,1.5c-10,0.8-20,0.9-29.9,0.7c-9.9-0.2-19.9-0.6-29.7-0.9
			c-19.7-0.6-39.6-0.5-59.1,3.4c9.5-3,19.4-4.7,29.3-5.8c9.9-1,19.9-1.4,29.8-1.5c9.9-0.1,19.9,0.1,29.7,0.1c9.9,0,19.7-0.2,29.5-1
			c4.9-0.3,9.8-0.9,14.8-1.3c5-0.4,10.1-0.7,15.1-0.6c10.1,0.2,20,1.1,29.8,1.9C1202.9,81.5,1222.7,80.9,1242.4,78.1z"/>
	</g>
</g>
<g>
	<path class="st0" d="M-37.9,121c25.3,29.1,82.9-6.7,116.7-3s95.9,20.2,119.7,22.8c23.8,2.6,101.5-33.5,128-30.6s23.5-0.3-4.3-3.4
		s-102.1,20-125.3,17.4S98.7,99.6,77.5,97.2S23.8,112-4,108.9c-27.8-3-27.8-3-27.8-3L-37.9,121z"/>
	<g>
		<path class="st2" d="M64.5,107.1"/>
	</g>
	<g>
		<path class="st1" d="M64.6,111.1c7.9-1.9,15.8-3.6,23.9-3.9c4.1-0.1,8.2,0.2,12.2,1c4,0.8,7.8,2.3,11.6,3.8
			c14.8,6.4,30.8,9,46.7,11.9l23.8,4.5c7.9,1.5,15.9,3.1,23.8,3.9c4,0.4,8,0.3,12-0.1c4-0.4,7.9-1.3,11.8-2.4
			c7.8-2.1,15.2-5.3,22.7-8.4c-7.3,3.5-14.6,6.9-22.4,9.3c-3.9,1.2-7.9,2.1-11.9,2.7c-4,0.5-8.2,0.7-12.2,0.4
			c-4.1-0.2-8.1-0.8-12.1-1.5c-4-0.7-8-1.4-11.9-2.1l-23.9-4.3c-7.9-1.5-15.9-2.9-23.8-4.8c-3.9-0.9-7.9-2-11.7-3.2
			c-1.9-0.6-3.9-1.3-5.8-2c-1.9-0.7-3.8-1.6-5.6-2.3c-3.7-1.6-7.4-3.1-11.3-4c-3.9-0.9-7.9-1.3-11.9-1.3
			C80.5,108.1,72.6,109.6,64.6,111.1z"/>
	</g>
	<g>
		<path class="st2" d="M205.8,128.1"/>
	</g>
	<g>
		<path class="st2" d="M62.5,117.9"/>
	</g>
	<g>
		<path class="st1" d="M65.9,118.4c10.5-1.8,21.3-1.4,31.8,0.1c10.6,1.5,20.9,4.2,31.1,6.8c10.3,2.6,20.5,5.2,30.8,6.8
			c10.4,1.6,20.9,2.4,31.5,4.1c5.3,0.9,10.4,2.2,15.4,2.2c5,0.1,10-1.1,14.9-2.7c4.9-1.6,9.7-3.7,14.7-5.7c4.9-2,9.9-3.9,14.9-5.6
			c10-3.6,20.2-6.6,30.5-9.2c10.3-2.5,20.7-4.7,31.2-6.2c-2.6,0.6-5.2,1.2-7.7,1.9c-2.6,0.6-5.1,1.3-7.7,1.9
			c-5.1,1.3-10.2,2.8-15.3,4.3c-5.1,1.5-10.1,3.1-15.1,4.8c-5,1.7-10,3.5-14.9,5.4c-4.9,1.9-9.8,3.9-14.7,5.9
			c-4.8,2.1-9.7,4.3-14.8,6c-5.1,1.8-10.6,3-16.2,3c-5.6,0-10.9-1.3-16-2.2c-10.3-1.8-20.9-2.6-31.4-4.3c-10.6-1.8-20.9-4.6-31-7.5
			c-5.1-1.4-10.2-2.9-15.3-4.3c-5.1-1.4-10.2-2.6-15.4-3.6c-5.2-1.1-10.4-1.8-15.6-2.2l-3.9-0.2c-1.3,0-2.6,0-4,0l-2,0
			c-0.7,0-1.3,0.1-2,0.1L65.9,118.4z"/>
	</g>
	<g>
		<path class="st3" d="M154.2,114.7c12.3,4.2,24.9,6.7,37.6,7.4c6.4,0.3,12.7,0.3,19-0.3c6.3-0.6,12.6-1.5,18.8-3
			c6.2-1.4,12.5-3.1,18.8-4.6c6.3-1.4,12.7-2.8,19.1-3.9c12.8-2.3,25.6-4.1,38.6-4.9c-12.6,2.9-25.2,5.7-37.8,8.7
			c-6.3,1.6-12.5,3-18.7,4.7c-6.2,1.6-12.4,3.3-18.8,4.8c-6.4,1.4-13,2.4-19.5,2.8c-6.6,0.4-13.2,0.2-19.7-0.6
			C178.5,124.5,165.7,120.8,154.2,114.7z"/>
	</g>
</g>
</svg>
