<?xml version="1.0" encoding="utf-8"?>
<!-- Generator: Adobe Illustrator 21.0.2, SVG Export Plug-In . SVG Version: 6.00 Build 0)  -->
<svg version="1.1" id="Layer_1" xmlns="http://www.w3.org/2000/svg" xmlns:xlink="http://www.w3.org/1999/xlink" x="0px" y="0px"
	 viewBox="0 0 974.6 867" style="enable-background:new 0 0 974.6 867;" xml:space="preserve">
<style type="text/css">
	.st0{fill:#C4B7B5;}
	.st1{fill:#00006C;}
	.st2{fill:none;}
	.st3{fill:#FFD773;}
	.st4{fill:none;stroke:#FFF7DF;stroke-miterlimit:10;}
	.st5{fill:#FFDC85;}
</style>
<g>
	<path class="st0" d="M431.9,79.4c-35.1,0-143.8-71.2-175.4-71.2S143.4,33.6,98.6,33.6S-15-23.4-53.2,12.3l5.3,21.3c0,0,0,0,36.9,0
		c11.5,0,23.2,2.7,34.7,6.4c16.8,7.5,32.2,21.7,45.5,24.3c16.4,3.2,78.4,3.8,96.3,7.3c18,3.5,71.5,39.4,93,43.6
		c21.5,4.2,27.9,1.5,7.4-2.5c-20.1-3.9-73.9-55.3-93.2-60.7c32.8-4.7,65.9-16.9,81.2-16.9c30.7,0,131.6,48.4,168.5,48.4
		S467,79.4,431.9,79.4z"/>
	<g>
		<path class="st1" d="M50.8,39.4c5.6,3.1,11.2,6.2,17.1,8.7c5.8,2.5,12,4.2,18.3,5.3c12.5,2.2,25.3,2.2,38.1,2.6
			c6.4,0.2,12.8,0.5,19.2,1.2l4.8,0.6c1.6,0.2,3.2,0.5,4.8,0.8c1.6,0.2,3.2,0.7,4.7,1l2.4,0.6l2.3,0.7c6.2,1.8,12.1,4.6,17.5,8.1
			c5.4,3.5,10.3,7.7,14.5,12.6c-4.5-4.6-9.5-8.6-15-11.8c-5.5-3.2-11.3-5.8-17.5-7.4c-6.1-1.7-12.4-2.9-18.7-3.5
			c-6.3-0.6-12.7-0.9-19.1-1c-6.4-0.2-12.8-0.4-19.2-0.7c-6.4-0.4-12.8-1-19.2-2.3c-6.3-1.3-12.6-3.1-18.4-5.9
			C61.7,46.2,56.2,42.8,50.8,39.4z"/>
	</g>
	<g>
		<path class="st1" d="M122,47.5c8-1,15.9-2.7,23.7-5c7.7-2.3,15.3-5,22.9-7.8c7.6-2.9,15.1-5.7,22.8-8.2c7.7-2.6,15.5-4.8,23.5-6.4
			c16-3,32.5-3.3,48.6-0.9c8,1.2,16,3,23.7,5.5c7.7,2.5,15.2,5.6,22.3,9.5c-7.3-3.4-14.9-6.3-22.6-8.6c-7.7-2.3-15.6-3.9-23.6-4.9
			c-16-2-32.2-1.7-48,1.4c-15.8,2.9-30.9,8.8-46.2,14.1c-7.6,2.7-15.3,5.2-23.2,7.3C138.1,45.5,130.1,47,122,47.5z"/>
	</g>
	<g>
		<path class="st1" d="M239,25.5c4.9-0.7,9.9-0.6,14.8-0.1c4.9,0.6,9.8,1.6,14.6,3c9.6,2.6,18.8,6.3,28.1,9.4
			c9.3,3.1,18.9,5.6,28.4,7.9c9.6,2.2,19.3,4.3,28.9,6.5c-9.8-1.4-19.6-2.9-29.2-4.9c-9.7-2-19.3-4.4-28.7-7.5
			c-9.4-3.2-18.5-6.9-27.9-9.8C258.6,27,248.9,24.9,239,25.5z"/>
	</g>
	<g>
		<path class="st3" d="M245.5,7.6c16.6,0.7,33,4.9,48.6,10.8c7.8,2.9,15.4,6.3,23,9.9c7.5,3.6,14.9,7.5,22.2,11.3
			c7.3,3.9,14.6,7.9,21.9,11.7c7.3,3.9,14.7,7.6,22.1,11.1c7.4,3.5,15,6.8,22.7,9.6c7.7,2.9,15.6,5.2,23.9,6
			c-8.3,0.4-16.7-1.4-24.7-3.6c-4-1.2-8-2.5-11.9-3.8c-3.9-1.4-7.8-2.9-11.7-4.5c-7.7-3.2-15.2-6.8-22.7-10.5
			c-7.4-3.7-14.7-7.7-22.1-11.5c-7.3-3.9-14.6-7.8-21.9-11.5c-7.3-3.8-14.8-7.2-22.3-10.5C277.6,15.5,261.9,10.4,245.5,7.6z"/>
	</g>
</g>
<g>
	<path class="st0" d="M854.9,705.8c-44.7,0-126.3-25.4-157.9-25.4c-31.6,0-130.7,70.3-165.8,70.3c-71.3,0-4.3,6,0,6
		c36.9,0,132-47.2,162.7-47.2c1.4,0,33.3,5.4,34.9,5.5c-6.8,0.2-37.6,0.9-42.7,2.7c-20,7.1-86.8,46.3-108.6,54
		c-21.8,7.8-90.5,4.2-116.6,13.5c-26.2,9.3-37,15.8-12.1,6.9s127.7,2,150.1-6c22.4-8,59.8-36,91.6-47.4
		c27.7-9.9,101.9-9.2,105.3-12.4c27.4,3.9,75.2,7.3,87.1,7.3c28.1,0,44.9-27.9,81.8-27.9c36.9,0,36.9,0,36.9,0l5.3-21.3
		C968.6,648.8,899.7,705.8,854.9,705.8z"/>
	<g>
		<path class="st1" d="M986.4,696.7c-16.2-4.3-33.6-3.8-49.5,1.3c-4,1.3-7.9,2.8-11.6,4.7c-0.9,0.4-1.9,0.9-2.8,1.4
			c-0.9,0.5-1.8,1-2.7,1.5c-1.8,1.1-3.5,2.2-5.3,3.4c-3.5,2.3-6.9,4.8-10.5,7c-3.6,2.2-7.4,4.2-11.5,5.5c-8.1,2.7-16.8,3.2-25.2,2.6
			c-8.4-0.5-16.8-2-25-3.2c-16.6-2.4-33.3-3.8-50-3.9c-33.4-0.5-67,3.5-99.4,12c-4,1.2-7.9,2.6-11.5,4.6c-3.6,2-7.1,4.3-10.6,6.7
			c-6.9,4.7-14,9.3-21.2,13.6c-14.4,8.6-29.4,16.3-44.8,23c15.2-7.1,30-15,44.2-23.9c7.1-4.4,14.1-9,21-13.8
			c3.4-2.4,6.9-4.8,10.6-6.9c3.7-2.1,7.7-3.6,11.8-4.8c16.2-4.6,32.8-7.6,49.5-9.7c8.3-1,16.7-1.8,25.1-2.3
			c4.2-0.3,8.4-0.4,12.6-0.5c4.2,0,8.4-0.2,12.6,0c16.8,0.2,33.6,1.7,50.3,4.1c8.3,1.3,16.6,2.7,24.9,3.3c8.3,0.5,16.7,0.2,24.6-2.3
			c7.9-2.5,14.8-7.5,21.8-12.1c1.8-1.1,3.5-2.3,5.4-3.3c0.9-0.5,1.9-1,2.8-1.5c0.9-0.5,1.9-1,2.8-1.4c3.8-1.9,7.7-3.4,11.8-4.6
			C952.8,692.3,970.3,692,986.4,696.7z"/>
	</g>
	<g>
		<path class="st1" d="M572.5,741.9c8.3-3.6,16.7-7,25.1-10.5l25.2-10.4c8.4-3.5,16.8-6.8,25.2-10.2l12.6-5.1
			c4.2-1.7,8.4-3.5,12.7-5c2.2-0.7,4.4-1.4,6.7-1.8c2.3-0.4,4.6-0.6,6.9-0.7c4.6-0.1,9.2,0.5,13.7,1.4c4.5,0.9,8.9,2,13.3,3
			c4.4,1,8.8,2,13.3,2.8c8.9,1.6,17.9,2.5,27,2.9c9,0.4,18.1,0.1,27.2-0.7c-4.5,0.6-9,1.1-13.6,1.3c-4.5,0.3-9.1,0.4-13.6,0.3
			c-9.1-0.1-18.2-0.9-27.2-2.3c-2.3-0.3-4.5-0.8-6.7-1.2c-2.2-0.5-4.5-0.9-6.7-1.4c-4.4-1-8.8-2.1-13.2-2.9
			c-4.4-0.8-8.9-1.3-13.3-1.2c-2.2,0.1-4.4,0.3-6.6,0.7c-2.2,0.4-4.3,1.1-6.4,1.8c-4.2,1.5-8.4,3.2-12.7,4.9l-12.7,5
			c-8.4,3.3-16.9,6.7-25.3,10l-25.4,9.8C589.5,735.5,581,738.8,572.5,741.9z"/>
	</g>
	<g>
		<path class="st1" d="M515.5,784.1c7.6,0.1,15.1,0.3,22.7,0.1c7.6-0.1,15.1-0.5,22.6-1.5c7.5-1,14.8-2.5,21.9-5
			c7.1-2.4,13.8-5.9,20-10.1c3.2-2,6.3-4.2,9.5-6.2c3.2-2.1,6.4-4.1,9.7-6c6.5-3.9,13.1-7.6,19.8-11.1c6.7-3.5,13.5-6.9,20.3-10.1
			c6.9-3.2,13.7-6.4,20.6-9.5L662.4,735c-6.7,3.5-13.4,7-20,10.6c-6.6,3.7-13.2,7.4-19.6,11.3c-3.2,2-6.4,4-9.6,6.1
			c-3.2,2.1-6.3,4.2-9.4,6.3c-6.3,4.2-13.3,7.7-20.5,10.1c-7.2,2.4-14.8,4-22.3,4.8c-7.6,0.8-15.2,1-22.7,1
			C530.6,785,523,784.7,515.5,784.1z"/>
	</g>
	<g>
		<path class="st1" d="M848.2,711.9c3.6,0.8,7.2,1.3,10.8,1.6c3.6,0.2,7.2,0.3,10.8-0.1c3.6-0.3,7.1-0.9,10.6-1.8
			c3.5-0.9,6.9-2,10.4-3.4c-3,2.1-6.4,3.7-9.9,4.9c-3.5,1.2-7.2,1.9-10.9,2.3c-3.7,0.3-7.5,0.2-11.1-0.4
			C855.2,714.4,851.6,713.4,848.2,711.9z"/>
	</g>
	<g>
		<path class="st3" d="M768.5,692.1c-22.4-4-44.8-7.1-67.4-9.1c-2.8-0.2-5.5-0.3-8.2-0.2c-2.7,0.2-5.2,0.7-7.9,1.5
			c-5.3,1.7-10.6,3.7-15.8,5.8c-10.4,4.2-20.6,9.2-30.6,14.4c-10,5.2-19.9,10.8-29.9,16.2l-15,8c-5,2.7-10,5.4-15.1,7.9
			c-10.2,5.2-21,9.4-32.2,11.9c-11.2,2.4-22.7,3-34.1,2.5c11.3-0.6,22.6-1.9,33.5-4.9c10.9-2.9,21.1-7.5,31-12.9l29.7-16.6
			c9.9-5.5,19.8-11.1,29.9-16.5c10.1-5.2,20.4-10.2,31.1-14.4c5.4-2.1,10.7-4,16.3-5.6c2.8-0.8,5.8-1.4,8.9-1.5
			c3-0.1,5.9,0.1,8.8,0.5C724.2,681.9,746.6,686.1,768.5,692.1z"/>
	</g>
	<g>
		<g>
			<g>
				<g>
					<g>
						<path class="st5" d="M562.6,775.5c0-0.1,0-0.3-0.2-0.2l-0.1,0.3L562.6,775.5z"/>
						<path class="st5" d="M561.3,775.1c-0.2,0.2-0.4,0.5-0.2,0.8c0.1-0.4,0.2-0.2,0.4-0.6c0.2-0.1,0.3,0,0.3,0.2
							c0-0.1,0.3,0,0.3-0.2c-0.3-0.2-0.6-0.2-0.8,0.1C561.3,775.3,561.3,775.2,561.3,775.1z"/>
						<path class="st5" d="M543.8,777.2l0.1,0C543.9,777.3,543.9,777.3,543.8,777.2z"/>
						<path class="st5" d="M533,777.8c0.1,0,0.1,0,0.1-0.1C533,777.7,532.9,777.8,533,777.8z"/>
						<path class="st5" d="M531.1,777.5c0,0,0.1,0,0.1,0C531.1,777.5,531.1,777.5,531.1,777.5z"/>
						<path class="st5" d="M543.8,777.2l-0.3-0.1C543.5,777.3,543.7,777.2,543.8,777.2z"/>
						<path class="st5" d="M559.1,776.4c0.1,0,0.1-0.1,0.1-0.1C559.2,776.3,559.1,776.3,559.1,776.4L559.1,776.4z"/>
						<path class="st5" d="M548.6,776.5L548.6,776.5c0.1-0.1,0.1-0.1,0.1-0.2L548.6,776.5z"/>
						<path class="st5" d="M552.2,775.9c-0.1,0-0.1,0.3-0.1,0.4c0-0.1,0.1-0.2,0.2-0.2C552.3,776.1,552.2,776,552.2,775.9z"/>
						<path class="st5" d="M558,775.4L558,775.4C558.1,775.4,558.1,775.4,558,775.4z"/>
						<path class="st5" d="M546,776.7C545.9,776.7,545.9,776.6,546,776.7C545.9,776.6,545.9,776.7,546,776.7z"/>
						<path class="st5" d="M444.7,792.2C444.7,792.2,444.7,792.2,444.7,792.2C444.7,792.2,444.7,792.2,444.7,792.2z"/>
						<path class="st5" d="M440.2,792.3L440.2,792.3c0-0.1,0-0.1,0-0.2L440.2,792.3z"/>
						<path class="st5" d="M527.7,777.2C527.7,777.2,527.7,777.2,527.7,777.2C527.8,777.2,527.7,777.2,527.7,777.2z"/>
						<path class="st5" d="M496.3,778.2c0.4,0.2-0.6,0.4,0,0.6C496.3,778.7,496.8,778.4,496.3,778.2z"/>
						<path class="st5" d="M559,776.4c0,0-0.1,0-0.1,0C558.9,776.4,558.9,776.4,559,776.4z"/>
						<path class="st5" d="M496.3,778.9L496.3,778.9L496.3,778.9C496.4,778.9,496.3,778.9,496.3,778.9z"/>
						<path class="st5" d="M519.8,777.6c0,0,0,0.1,0.1,0.1C519.9,777.7,519.9,777.7,519.8,777.6z"/>
						<path class="st5" d="M525.7,777.9l-0.1,0C525.6,777.9,525.6,777.9,525.7,777.9z"/>
						<path class="st5" d="M516.8,778c-0.1,0-0.1-0.1-0.2,0c0,0,0,0,0,0C516.7,778,516.7,778,516.8,778z"/>
						<path class="st5" d="M513.6,778.1C513.6,778.1,513.7,778.1,513.6,778.1c0.1,0.1,0.1,0,0.2,0L513.6,778.1z"/>
						<path class="st5" d="M453.8,789c-0.1-0.1-0.2-0.1-0.2-0.2C453.7,788.9,453.2,789.2,453.8,789z"/>
						<path class="st5" d="M559,776.2c0,0.1,0,0.1-0.1,0.1l0.1,0C559.1,776.3,559.1,776.3,559,776.2z"/>
						<path class="st5" d="M516.7,780.3l-0.5,0C516.3,780.3,516.5,780.3,516.7,780.3z"/>
						<path class="st5" d="M475.4,782.9l-0.1,0.1C475.4,782.9,475.4,782.9,475.4,782.9z"/>
						<path class="st5" d="M514.7,780.3c-0.1-0.1-0.2-0.2-0.3-0.2c0,0,0,0-0.1,0.1L514.7,780.3z"/>
						<path class="st5" d="M453.5,788.8L453.5,788.8L453.5,788.8z"/>
						<path class="st5" d="M450.6,790.5c0.5-0.1,0.1-0.4,0.1-0.6c0.5-0.3,0.3,0.2,0.6,0.3c0.3-0.2,0.5-0.6,0.7-0.7
							c0,0.1,0.1,0.1,0.1,0.1c0.3-0.4,1.1-0.4,1.4-0.9c0,0,0.1,0,0.1,0.1c-0.1-0.2-0.2-0.3-0.2-0.5c0.2-0.1,0.3-0.3,0.5-0.1
							c-0.1,0-0.1,0.1-0.1,0.2l0.2-0.2c0.3,0.3-0.3,0.2-0.2,0.5c0.4-0.2,0.8-0.7,1.1-0.7c0.2,0.3-0.7,0.4-0.2,0.5l-0.5,0
							c0.5,0.4-0.3,0.1,0.2,0.5c0.7-0.1,0.7-0.4,1.3-0.5c0.1-0.2-0.1-0.2-0.1-0.5c0.8-0.6,1,0.6,1.5-0.1c0.1-0.3,0-0.7,0.6-0.6
							l0,0.4c0.6-0.2,0.2-0.6,0.9-0.6c-0.1,0.2-0.5,0.3-0.3,0.3c0.5,0.1,0.2-0.3,0.6-0.4l0.2,0.3c0.7-0.3,1.3-0.7,2-1
							c0,0.1-0.1,0.3,0.1,0.3c0.9-0.5,2-0.6,3-0.7l0.3-0.4c0.1,0,0.2,0.1,0.1,0.2c0.4,0,0-0.2,0.1-0.3c0.2-0.1,0.3,0.1,0.2,0.2
							c0.6-0.4,1.6-1,2.4-0.9l-0.1,0.1c0.5,0,0.4-0.7,1-0.6l-0.1,0.1c1.2-0.1,2.3-0.7,3.3-0.5c0.1-0.5,1.1-0.1,1.1-0.7
							c0.7,0.1,0.5,0.3,1.5,0.3c0.2,0,0.3-0.4,0.6-0.5l0.1,0.3l0.3-0.4l0.3,0.3l0.3-0.1c-0.1,0-0.3-0.1-0.3-0.2
							c0.4-0.2,1.1,0,1.2,0.2l1-0.4c0,0.1-0.2,0.2-0.3,0.3c0.5-0.4,0.2,0.3,0.6-0.1c-0.1-0.1,0-0.2,0-0.3c0.3,0.1,0.9,0,1.3-0.1
							l-0.1,0.2c0.8-0.1,1.6-0.3,2.5-0.4c-0.3-0.1-0.3-0.4-0.1-0.5l0.1,0.3c0.1-0.2-0.3-0.1,0-0.4c0.3,0,0.3,0.3,0.1,0.5l0.4-0.2
							c0,0.1-0.1,0.2-0.1,0.3c0.1-0.2,0.7,0.2,0.9-0.1l0,0.1c0.9-0.1,1.3-0.3,2-0.4c0-0.3,0.3-0.2,0.5-0.5c0.5,0,1.1,0.2,1.8,0.1
							c0.4-0.2,0.1-0.2,0.3-0.4c0.1,0.3,0.7,0.2,0.4,0.4c0.8-0.1,1-0.1,1.9-0.4c-0.1-0.1-0.2-0.1-0.2-0.2c0.2-0.1,0.4,0.1,0.4,0.2
							l0,0c1.1-0.5,2.6,0.6,3.4,0l0,0l0.9-0.3c0.4,0-0.2,0.2,0.1,0.3c0.9-0.5,1.5,0,2.3-0.4c0.7,0.7,2.2-0.1,3.1,0.3l-0.1-0.2
							c0.2-0.2,0.3,0.1,0.4,0.1c0-0.1-0.2-0.1-0.1-0.3c1.8-0.3,3.8,0.1,5.7,0.2c0.7,0,0.4-0.9,1.2-0.5l-0.2,0.3
							c1.4-0.4,2.8-0.1,4.2-0.4c-0.1,0.1-0.1,0.2-0.2,0.2c0.3,0.2,1.1,0,1.1-0.2c0.2,0,0.1,0.2,0.2,0.3c0.3,0.1,0.7-0.3,0.9-0.1
							c0,0-0.1,0.1-0.1,0.1c0.2-0.1,0.9,0,0.7-0.3c0.5,0.1,1-0.1,1.4,0c0.3-0.3,0.9,0.1,1-0.3c0,0.5,0.9,0.4,1.2,0.1
							c-0.1,0.1,0.3,0.1,0.2,0.3c0.4,0,0.7-0.1,0.6-0.3c0.7,0.5,1.4-0.5,1.8,0.2c1.1-0.3,2.1-0.4,3.1-0.6c0,0.5-1.1,0.1-1,0.5
							c0.9-0.2,1.5-0.6,2.4-0.5c0.2,0.1-0.1,0.2-0.2,0.3c0.9-0.2,1.8,0,2.6-0.3c0,0-0.1,0.1-0.2,0.1c0.2,0,0.4,0.1,0.4-0.1l-0.2,0.1
							c-0.3-0.3,0.6-0.6,0.7-0.8c-0.3,0.6,0.8,0.1,0.4,0.9c0.1,0,0.2-0.1,0.2-0.3c0.2,0,0.2,0.1,0.1,0.3c0.6-0.1,0.4-0.3,0.9-0.4
							c0,0.1-0.1,0.1-0.2,0.3c0.3-0.2,0.5-0.4,1-0.3c0,0.1,0,0.1-0.1,0.1c0.8-0.1,1.3-0.6,2.2-0.4c-0.2,0.4,0.3,0.1,0.4,0.5l0.5-0.1
							l-0.2-0.2c0.4,0,0.7-0.3,1.1-0.2l-0.3,0.2l0.7-0.1l-0.4-0.1c0.4-0.2-0.1-0.5,0.5-0.4c-0.1,0,0.4,0,0.6,0.2l0,0
							c0.2-0.1,0.4-0.3,0.7-0.2c0.1,0.1,0,0.4,0,0.5c0.2-0.3,0.9-0.1,1.2-0.5c-0.1,0.1-0.1,0.3,0,0.3l0.1-0.3
							c0.2,0.1,0.2,0.1,0.2,0.3c0.6,0-0.2-0.5,0.5-0.3c-0.1,0,0,0.1-0.1,0.1c0.7,0.1,1.3-0.2,1.9-0.1c0.2,0.4-0.5,0.1-0.3,0.4
							c0.9-0.1,1.8-0.6,2.6-0.6l-0.2,0c0.1-0.5,0.7,0.2,1.1-0.1c-0.1,0-0.1,0.3-0.1,0.2c0.6,0,1.2-0.2,2-0.5l-0.1,0.1
							c0.4,0.1,0.9,0,1.3,0c0.1-0.1,0.3-0.1,0.2-0.3c1.2,0.6,2.1-0.7,3.2-0.1c-0.1,0-0.3,0.2-0.2,0.1l0.8-0.2
							c-0.1-0.2-0.1-0.1-0.3-0.3c0.1-0.1,0.3-0.3,0.5-0.3c-0.4,0.2,0,0.4,0.2,0.5c0-0.1,0-0.2,0-0.2c0.5,0.4,0-0.5,0.7-0.3l0,0.1
							c0.2-0.1,0.4-0.3,0.7-0.3c0.1,0.3-0.2,0.2-0.2,0.4c0.3,0,0.6-0.6,1-0.4c-0.1,0.1-0.3,0.1-0.5,0.2c0.4,0.3,0.4,0.2,0.7,0.2l0,0
							l0.6,0l-0.2-0.1c0.3-0.8,0.9-0.3,1.4-0.8c-0.5,0.5-0.1,0.3-0.1,0.6c0.2,0.1,0.4,0.1,0.4,0.2c0.2-0.3,0.5,0.1,0.8-0.3
							c0,0.1,0.3,0,0.3,0.2c0.3-0.1-0.1-0.2-0.1-0.3c0.5-0.4,1.4,0.2,2.1-0.4c0.6-0.3,0.7-0.7,1.3-1c0.2,0.1-0.1,0.4-0.1,0.4
							c0.4,0.1,0.6,0,0.9-0.2c0,0.1,0,0.2,0.2,0.2c0.3-0.1,0.1-0.4,0.5-0.3c0,0.1-0.1,0.3-0.2,0.4c0.3-0.2,0.6-0.4,0.9-0.5
							c0.1,0.1-0.1,0.3-0.2,0.4c0.3-0.1,0.9-0.3,0.9-0.6l-0.2,0c0.1,0,0.1,0.2,0,0.3c-0.3,0.3-0.5,0-0.5-0.1l0.2-0.1
							c-0.3-0.5-0.9,0.3-1.3,0.3l0.1-0.4l-0.4,0.4c-0.1-0.1-0.2-0.3,0-0.4c-0.4-0.1-0.3,0.2-0.6,0c0,0,0-0.1,0-0.1l-0.3,0.2
							c0-0.1-0.1-0.3,0.1-0.3c-0.6-0.1-0.9,0.5-1.1,0.2l0,0c-0.8,0.3,0,0.3-0.6,0.8l-0.5-0.7l0,0.3c-0.1,0-0.2,0-0.2-0.1
							c-0.3,0.3,0.1,0.1-0.1,0.3c-0.4-0.2-1.1,0.3-1.2-0.2c-0.1,0.3,0.4,0.1,0,0.3c-0.2-0.5-0.5,0.2-0.9,0c0.1-0.3,0.4-0.2,0-0.4
							c-0.1,0.5-0.7,0-1,0.1c0,0.4-0.6,0.3-1.1,0.5c0-0.1-1-0.1-1.5-0.1l0-0.1c0,0.4-0.5,0.4-0.9,0.5c0-0.2,0-0.3,0.2-0.4l-0.3,0
							c-0.1,0.1-0.2,0.2-0.4,0.3l0.1-0.3c-0.4,0.1-0.9,0.4-1.5,0.3c0,0.3,0.5,0.7-0.1,0.9c0-0.1-0.1-0.4,0.1-0.4
							c-0.1,0-0.2,0.1-0.3,0.1l0.2-0.3c-0.3-0.1-0.1,0.2-0.3,0.2c0-0.2-0.2-0.1-0.2-0.3c0.1,0,0.2,0.1,0.3,0c-0.2,0-0.5-0.1-0.6-0.2
							c0,0.1,0,0.3-0.1,0.3c-0.4,0.1-0.2-0.2-0.4-0.3c-0.1,0.1-0.4,0-0.4,0.3c-0.1,0-0.2-0.1-0.2-0.2c-0.2,0.2-1.1,0.1-0.8,0.4
							l0.1,0l0,0l0,0l0,0c-0.7,0.4-1.6,0-2.3,0.1l0-0.1c-0.4,0.1-1,0.1-1.3,0.4c-0.1,0-0.3-0.2-0.3-0.3c-0.3,0.1-0.4,0.2-0.9,0.1
							c0.3-0.2-0.1-0.1,0.3-0.2c-0.5-0.1-0.6-0.2-1,0.1c0.1-0.3-0.4-0.3-0.6-0.2l0.3,0.2c-0.2,0-0.4,0-0.7,0l0.1-0.3
							c-0.9-0.4-1.6,0.8-2.4,0.1c-0.2,0.2,0.5,0.1,0.3,0.4c-0.4,0-0.9-0.5-1-0.5c-0.6-0.2-0.5,0.5-1.1,0.4c0.1,0.1,0.2,0.4-0.3,0.6
							c-0.4,0-0.5-0.5-0.3-0.6c0.1,0,0.2,0,0.1,0.1c0.1-0.1,0.3-0.1,0.1-0.2l0,0.1c-0.2-0.1-0.8-0.1-0.7-0.3
							c-0.3,0.1-0.1,0.2,0.1,0.3c-0.6-0.2-0.8,0-1.4-0.1c0.1,0.1,0.2,0.2,0.1,0.2c-0.8-0.1-0.4,0.2-0.9,0.3
							c-0.3-0.2,0.1-0.4-0.5-0.3c-0.3-0.1-0.1-0.3,0-0.4c-0.5,0.2-1-0.1-1.2-0.2l0.3-0.1c-0.2,0.1-0.3,0.1-0.4,0.1l0.2,0.2
							c-0.2,0-0.3,0-0.3-0.1c-0.2,0.2,0.1,0.4-0.2,0.6c-0.2-0.1-0.6,0.2-0.7-0.2c0.7,0.1-0.1-0.3,0.5-0.4c-0.1,0-0.2,0-0.4,0
							c0,0,0-0.1,0.1-0.1c-0.6-0.3-0.3,0.4-0.9,0.4c0.1-0.2-0.2-0.3-0.3-0.3c0.3,0,0.1,0.3-0.1,0.4c-0.4-0.1-0.5,0.1-0.7,0.1
							l0.3,0.1c-0.1,0.2-0.3,0.2-0.6,0.2c0-0.1,0.3-0.1,0.2-0.2c-0.3,0.3-0.7-0.3-1.2-0.1c-0.2-0.1,0-0.3-0.2-0.4
							c-0.5,0.2-0.6-0.2-1.1,0c0.2,0.2,0.2,0.2-0.2,0.4l0.9-0.2l-0.6,0.4c0.3,0,0.6-0.2,0.7-0.1c-0.3,0.2-0.2,0.1-0.1,0.3
							c-0.4-0.3-0.7,0.2-1.1,0l0-0.6c-0.6-0.2-1.1,0.3-1.9,0.2l0.3,0.1c-0.1,0.2-0.5,0-0.8,0.1c0-0.2-0.1-0.3-0.3-0.4
							c0,0.1-0.6,0-0.7,0.4l-0.4-0.3c-0.7-0.1-0.7,0.6-1.4,0.5c0.2-0.2-0.1-0.4,0.3-0.5c-0.2,0-0.4,0-0.4,0.1
							c-0.1-0.1-0.6,0.3-0.8,0.1c-0.1,0.1-0.1,0.3-0.4,0.3c0,0,0-0.1,0-0.1c0,0.1-0.4,0.1-0.2,0.4c-0.7-0.6-1.8,0.1-2.4-0.4
							c-0.5,0.1-1,0.1-1.4,0.2c0-0.1,0-0.1,0.1-0.1c-0.6-0.2-0.3,0.6-1,0.4c-0.3-0.3,0.3-0.2,0.1-0.3c-0.1-0.6-0.8,0.1-1.3-0.3
							l0.1,0c-0.3-0.2-0.8,0.3-1.4,0.2c0,0,0-0.1,0-0.1c-0.4,0.3-1.1,0.5-1.6,0.6c0.2-0.3,0.2-0.1,0.1-0.4c-0.2,0,0.1,0.4-0.4,0.5
							c-0.2-0.1-0.5-0.2-0.6-0.5l0.5,0c-0.2-0.4-0.6,0-0.8,0l0-0.2c-0.7,0.1-0.7,0.5-1.4,0.5l0.1,0.1c-0.4,0.4-0.3-0.2-0.7,0.1
							l-0.1-0.4c-0.3,0.1-0.9,0.4-1.4,0.5c0.3-0.3,0.8-0.5,1.2-0.6c-0.3,0-0.9,0.1-1,0.3c0.1,0,0.2-0.1,0.3-0.1
							c-0.3,0.3-0.7,0.5-1.3,0.5c0.1-0.8-1.4-0.1-1.8-0.7c-0.9,0.3-1.9,0-3,0.1c0.4,0.6-0.3,0-0.2,0.6c-0.3,0.1-0.4,0-0.4,0
							l-0.8-0.3c-0.2-0.2,0.2-0.2,0.2-0.3c-0.6,0-0.2-0.2-0.6-0.4c0.1,0.2-0.2,0.3-0.5,0.3l0.5,0.3c-0.8,0.4-0.7-0.5-1.5-0.1
							l0.2-0.2c-0.4,0.1-1.5,0.1-1.9,0.6c-0.1-0.1-0.2-0.2,0-0.3c-1,0-2.1,0.7-2.9,0.4l0.1-0.2c-0.2,0.1-0.3,0.3-0.5,0.2
							c0-0.1,0.1-0.2,0-0.2c-0.1,0.1-0.5,0.3-0.7,0.2l0.2-0.2c-1-0.1-1.4,0.5-2.2,0.7c0-0.4-0.8-0.5-1.2-0.5l0-0.1
							c-1.1,0.1-1.8,0.6-2.8,0.9c-0.7-0.4-2.2,0.1-3.2,0c0.2,0.1,0,0.3-0.1,0.4c-0.3-0.1-0.6,0.4-0.6,0l0.1,0
							c-0.2-0.4-0.7-0.2-1.1-0.1l0,0.5c-1.1-0.6-2.5,0.7-3.2,0.2c-0.2,0.2-0.5,0.2-0.7,0.4l0-0.3c-0.7,0-1,0.1-1.8,0.3l0.1-0.2
							c-0.5,0.1-0.4,0.9-0.8,1l-0.2-0.4c-0.8,0.2-1.7,0-2.4,0.6c0-0.1,0-0.2,0.1-0.2c-0.4,0.1-1.5,0.1-1.2,0.6
							c-0.1-0.4-0.8,0.2-1.2,0.4l0-0.3c-0.3,0.4-0.2,0.5-0.7,0.8c-0.1,0-0.2-0.2,0-0.2c-0.4,0-0.2,0.3-0.8,0.3l0.1-0.2
							c-0.4,0.1-0.4,0.2-0.5,0.4c-0.2,0.2-0.8,0.2-0.9-0.1c0,0.2-0.2,0.4-0.4,0.4c-0.1-0.1,0-0.2,0-0.2c-0.7,0-0.9,0.6-1.4,0.5
							c0-0.1-0.1-0.1-0.1-0.1c0.5-0.2,1-0.3,0.9-0.2c-0.1-0.2-0.5-0.2-0.3-0.6c-0.3,0.3-0.8,0.9-1.2,0.9c0,0-0.1,0-0.1-0.1l0,0
							c-0.1,0-0.2,0.1-0.3,0.1c-0.1,0-0.2,0-0.4,0c-0.1-0.2-0.5,0.1-0.7,0.1c0.1,0.3-0.2,0.3,0.1,0.4c0,0,0,0,0.2-0.1
							c0,0,0.1,0,0.1-0.1l0,0c0.1-0.1,0.3-0.1,0.5-0.2c-0.1,0.2-0.3,0.4-0.5,0.3c-0.1,0.2-0.1,0.4-0.2,0.5c-0.4-0.3-1-0.3-1.2-0.5
							c-0.6,0.4-1.5,0.6-1.7,1.2c-0.2,0.1-0.3-0.1-0.4-0.1c0.1-0.1,0.2-0.1,0.3-0.2c-0.3,0.3-1.1,0.4-1,0.8c-0.5,0,0.2-0.4-0.5-0.1
							l0-0.1c-1.4-0.1-1.7,1.6-3.4,1.3c0.1,0,0.2,0,0.2,0.1c-1.7,0.2-3.2,1.4-4.9,1.4c-0.5,0.1-0.5,0.3-0.7,0.6l-0.2-0.3l-0.4,0.5
							c-0.6,0.5-1.4-0.3-2.1,0.4l0.2,0.2c-0.3,0.1-0.9,0.4-0.9,0.2c0,0,0,0.2-0.2,0.2l-0.1-0.1l-0.6,0.5c-0.6,0.1-0.1-0.6-1-0.4
							c-0.3,0.2-0.7,0.7-0.6,0.8c0.1,0,0.4,0,0.4,0.1l-0.3,0.2c0.1,0.5,0,1,0.8,1.1l0.4-0.4l0.2,0.2l-0.4,0.2
							c0.3,0.1,0.4-0.1,0.5-0.3c0.1,0.1,0.2,0.2,0.3,0.2l0.3-0.6c0.1,0.2-0.1,0.4,0.3,0.4c0.2-0.3-0.3-0.3,0-0.6
							c0.3,0.1,0.3,0.3,0.5,0c0.1,0.1,0,0.2,0,0.3c0.2-0.2,0.6-0.3,0.7-0.6c0.3,0.2,0.8-0.3,0.9,0.1c0-0.1,0.3-0.5,0.5-0.6
							c-0.2,0.6,0.8-0.3,0.9,0.3c0.1-0.6,1-0.6,1.5-1c0,0-0.1,0.1-0.1,0.1c0.3-0.1,0.4,0,0.7,0.1c-0.1-0.4,0.3-0.6,0.5-0.9
							c0.5,0.2-0.1,0.5,0.2,0.8c-0.1-0.3,0.5-0.5,0.3-0.7c0.4,0.1,0.3,0,0.5,0.3c-0.1-0.5,0.2-0.2,0.4-0.5c0.5,0.1,0.3,0.4,0.6,0.1
							C451,790.2,450.6,790.5,450.6,790.5z M460.9,786.1L460.9,786.1c-0.1,0-0.2,0.1-0.2,0.1C460.8,786.2,460.8,786.1,460.9,786.1z
							 M461.8,785.8c-0.1,0-0.2,0.1-0.4,0.1c-0.1-0.1-0.1-0.2,0-0.2C461.5,785.8,461.7,785.8,461.8,785.8z M459.3,784.6
							c0.1-0.1,0.2,0,0.2,0c-0.1,0-0.1,0.1-0.2,0.1l0,0C459.3,784.7,459.3,784.6,459.3,784.6z"/>
						<path class="st5" d="M459.2,785C459.2,785,459.2,785,459.2,785C459.2,785.1,459.2,785.1,459.2,785L459.2,785L459.2,785z"/>
						<path class="st5" d="M544,777.3L544,777.3C544,777.3,544,777.3,544,777.3C544,777.3,544,777.3,544,777.3z"/>
						<polygon class="st5" points="474.4,783.2 474.4,783.1 474.4,783.2 						"/>
						<path class="st5" d="M549.2,777.7C549.2,777.7,549.3,777.7,549.2,777.7C549.3,777.7,549.3,777.7,549.2,777.7z"/>
						<path class="st5" d="M551.5,777.5l0.3,0C551.6,777.5,551.5,777.5,551.5,777.5z"/>
						<path class="st5" d="M553.2,777.3c0-0.1,0-0.1,0-0.1l0,0L553.2,777.3z"/>
						<path class="st5" d="M525.9,779.7C525.8,779.8,525.8,779.8,525.9,779.7C525.6,779.8,525.7,779.8,525.9,779.7z"/>
						<path class="st5" d="M534,778.8c-0.1,0.1-0.2,0.1-0.3,0.1C533.9,779,534,779,534,778.8z"/>
						<polygon class="st5" points="516.8,780.3 516.8,780.3 516.7,780.3 						"/>
						<path class="st5" d="M533.3,779c0.1,0,0.3,0,0.4,0C533.6,778.9,533.5,778.9,533.3,779z"/>
						<path class="st5" d="M560.6,776.1L560.6,776.1C560.7,776.1,560.7,776.1,560.6,776.1L560.6,776.1z"/>
						<path class="st5" d="M560.7,776L560.7,776C560.7,776,560.7,776,560.7,776z"/>
						<path class="st5" d="M560.9,775.9l-0.2,0.1C560.8,776,560.9,776,560.9,775.9z"/>
						<path class="st5" d="M558.3,776.4l0,0.1C558.3,776.5,558.3,776.5,558.3,776.4z"/>
						<path class="st5" d="M557.6,776.6c0.2,0,0.4,0.1,0.7,0l0-0.1C558.2,776.7,557.8,776.4,557.6,776.6z"/>
						<path class="st5" d="M554.6,775.9l0.6,0c-0.1-0.1-0.3-0.2,0-0.3C554.4,775.4,555.3,775.8,554.6,775.9z"/>
						<path class="st5" d="M552.8,776c0.3-0.1,0-0.2,0-0.2C552.6,775.9,552.5,775.9,552.8,776z"/>
						<path class="st5" d="M539.9,777.4l0-0.3C539.7,777.2,539.9,777.2,539.9,777.4z"/>
						<polygon class="st5" points="537.5,778.9 537.8,779 537.9,778.8 						"/>
						<polygon class="st5" points="536,777.1 536.1,777.1 535.7,777.2 						"/>
						<path class="st5" d="M514.2,777.8l0.1,0.3C514.4,778.1,514.5,777.7,514.2,777.8z"/>
						<path class="st5" d="M504.8,778.4c-0.1-0.2-0.4-0.2-0.5-0.1C504.4,778.3,504.7,778.4,504.8,778.4z"/>
						<polygon class="st5" points="476.5,780.3 476.6,780.1 476.3,780.3 						"/>
					</g>
				</g>
			</g>
		</g>
	</g>
</g>
</svg>
