<?xml version="1.0" encoding="utf-8"?>
<!-- Generator: Adobe Illustrator 21.0.2, SVG Export Plug-In . SVG Version: 6.00 Build 0)  -->
<svg version="1.1" id="Layer_1" xmlns="http://www.w3.org/2000/svg" xmlns:xlink="http://www.w3.org/1999/xlink" x="0px" y="0px"
	 viewBox="0 0 1689.7 1526.6" style="enable-background:new 0 0 1689.7 1526.6;" xml:space="preserve">
<style type="text/css">
	.st0{fill:#C4B7B5;}
	.st1{fill:#00006C;}
	.st2{fill:none;}
	.st3{fill:#FFD773;}
	.st4{fill:none;stroke:#FFF7DF;stroke-miterlimit:10;}
	.st5{fill:#FFDC85;}
</style>
<g>
	<path class="st0" d="M1514.2,1224c-58.1,0-164.2-33-205.2-33c-41,0-169.9,91.3-215.5,91.3c-92.7,0-5.6,7.8,0,7.8
		c47.9,0,171.5-61.3,211.4-61.3c1.8,0,43.2,7,45.4,7.1c-8.8,0.3-48.8,1.2-55.5,3.5c-25.9,9.2-112.8,60.1-141.2,70.2
		c-28.4,10.1-117.5,5.5-151.6,17.6c-34,12.1-48.1,20.6-15.7,9c32.4-11.5,165.9,2.6,195-7.8c29.2-10.4,77.7-46.8,119.1-61.5
		c36-12.8,132.3-11.9,136.8-16.1c35.6,5.1,97.7,9.5,113.1,9.5c36.5,0,58.4-36.2,106.2-36.2c47.9,0,47.9,0,47.9,0l6.8-27.7
		C1661.8,1150,1572.3,1224,1514.2,1224z"/>
	<g>
		<path class="st1" d="M1685.1,1212.3c-21-5.8-43.7-5-64.4,1.6c-5.2,1.7-10.2,3.6-15.1,6.1l-1.8,0.9c-0.6,0.3-1.2,0.7-1.8,1
			c-1.2,0.7-2.4,1.3-3.5,2c-2.3,1.4-4.6,2.9-6.9,4.4c-4.5,3-9,6.2-13.7,9c-4.7,2.9-9.6,5.4-14.9,7.1c-5.2,1.8-10.7,2.8-16.2,3.3
			c-5.5,0.5-11,0.4-16.5,0.1c-10.9-0.7-21.7-2.6-32.5-4.2c-21.5-3.1-43.3-4.9-65-5.1c-5.4-0.1-10.9,0-16.3,0
			c-5.4,0.2-10.9,0.3-16.3,0.6c-10.9,0.5-21.7,1.5-32.5,2.8l-8.1,1c-2.7,0.4-5.4,0.8-8.1,1.2l-4,0.6l-4,0.7l-8,1.4
			c-5.3,1.1-10.7,2.1-16,3.4c-5.3,1.2-10.6,2.4-15.8,3.9c-5.2,1.5-10.3,3.4-15,6c-4.8,2.6-9.2,5.7-13.7,8.8
			c-9,6.2-18.2,12.1-27.5,17.7c-18.7,11.2-38.2,21.2-58.1,30.1c19.8-9.2,39-19.5,57.6-30.9c9.3-5.7,18.4-11.7,27.3-17.9
			c4.5-3.1,8.9-6.3,13.8-8.9c4.8-2.7,10-4.7,15.2-6.3c5.3-1.6,10.6-2.8,15.9-4.1c5.3-1.3,10.7-2.3,16-3.4l8.1-1.5l4-0.7l4-0.6
			c2.7-0.4,5.4-0.9,8.1-1.2l8.1-1.1c10.8-1.3,21.7-2.4,32.6-2.9c5.4-0.4,10.9-0.5,16.4-0.7c5.5,0,10.9-0.2,16.4,0
			c21.8,0.3,43.7,2.1,65.3,5.3c10.8,1.6,21.5,3.5,32.3,4.2c10.8,0.7,21.8,0.3,32-3.1c5.1-1.6,10-4.1,14.6-6.8
			c4.7-2.8,9.1-5.9,13.7-8.9c2.3-1.5,4.6-3,7-4.4c1.2-0.7,2.4-1.3,3.6-2c0.6-0.3,1.2-0.7,1.8-1l1.9-0.9c4.9-2.4,10-4.4,15.3-6
			C1641.3,1206.6,1664.1,1206.2,1685.1,1212.3z"/>
	</g>
	<g>
		<path class="st1" d="M1147.3,1271c10.9-4.6,21.8-9,32.7-13.6l32.7-13.4c10.9-4.5,21.9-8.8,32.8-13.3l16.4-6.6l8.2-3.3
			c2.7-1.1,5.5-2.2,8.3-3.2c2.8-1,5.7-1.8,8.7-2.4c3-0.5,6-0.8,8.9-0.9c3,0,6,0.1,8.9,0.4c3,0.3,5.9,0.8,8.8,1.3
			c5.8,1.1,11.6,2.6,17.3,3.9c5.7,1.4,11.5,2.6,17.3,3.6c5.8,1,11.6,1.8,17.5,2.4c5.9,0.6,11.7,1,17.6,1.2c11.8,0.5,23.6,0,35.3-1.1
			c-5.8,0.8-11.7,1.3-17.6,1.6c-5.9,0.3-11.8,0.5-17.7,0.4c-5.9-0.1-11.8-0.4-17.7-0.9c-5.9-0.5-11.8-1.3-17.6-2.2
			c-2.9-0.4-5.8-1-8.7-1.5c-2.9-0.6-5.8-1.2-8.7-1.9c-5.7-1.3-11.5-2.8-17.2-3.8c-2.9-0.5-5.8-1-8.7-1.3c-2.9-0.3-5.8-0.4-8.7-0.4
			c-2.9,0.1-5.8,0.4-8.6,0.9c-2.8,0.6-5.6,1.4-8.4,2.3c-2.8,0.9-5.5,2-8.2,3.1l-8.2,3.3l-16.4,6.5c-11,4.3-21.9,8.7-32.9,13
			l-33,12.9C1169.3,1262.6,1158.3,1266.9,1147.3,1271z"/>
	</g>
	<g>
		<path class="st1" d="M1073.2,1325.8c9.8,0.2,19.7,0.4,29.5,0.3c9.8-0.1,19.6-0.6,29.3-1.9c9.7-1.3,19.3-3.3,28.5-6.4
			c9.2-3.2,17.9-7.6,26.1-13.1c4.1-2.7,8.2-5.5,12.3-8.1c2.1-1.3,4.1-2.7,6.2-4c2.1-1.3,4.2-2.6,6.3-3.9c8.4-5.1,17-9.9,25.7-14.5
			c8.7-4.6,17.5-9,26.4-13.3c8.9-4.2,17.8-8.4,26.7-12.5l-26.3,13.4c-8.8,4.5-17.5,9-26.1,13.7c-8.6,4.7-17.2,9.5-25.5,14.7
			c-2.1,1.3-4.2,2.6-6.3,3.9c-2.1,1.3-4.1,2.6-6.2,4c-4.1,2.7-8.1,5.5-12.3,8.2c-8.2,5.5-17.2,10-26.6,13.2
			c-9.4,3.2-19.1,5.2-28.9,6.2c-9.8,1.1-19.7,1.4-29.5,1.3C1092.8,1326.9,1083,1326.5,1073.2,1325.8z"/>
	</g>
	<g>
		<path class="st1" d="M1505.5,1232c4.6,1.1,9.3,1.9,14,2.3c4.7,0.4,9.4,0.4,14.1,0c4.7-0.4,9.3-1.2,13.9-2.4
			c4.6-1.2,9-2.8,13.4-4.7c-4,2.6-8.4,4.7-13,6.2c-4.6,1.5-9.3,2.4-14.1,2.9c-4.8,0.4-9.7,0.3-14.4-0.4
			C1514.6,1235.1,1509.9,1233.9,1505.5,1232z"/>
	</g>
	<g>
		<path class="st3" d="M1401.9,1206.3c-29-5.5-58.2-9.8-87.5-12.4c-3.6-0.3-7.2-0.5-10.7-0.3c-3.5,0.2-6.9,0.9-10.4,2
			c-6.9,2.1-13.8,4.7-20.6,7.5c-13.6,5.5-26.8,11.9-39.8,18.8c-13,6.8-25.9,14-38.9,21.1l-19.5,10.4c-6.5,3.5-13,7-19.6,10.4
			c-13.2,6.8-27.2,12.4-41.7,15.6c-14.5,3.2-29.4,4.1-44.2,3.6c14.7-0.6,29.4-2.2,43.6-6c14.2-3.7,27.6-9.6,40.5-16.6
			c6.5-3.5,12.8-7.1,19.3-10.7l19.3-10.8c12.9-7.2,25.7-14.4,38.8-21.3c13.1-6.8,26.5-13.3,40.4-18.7c6.9-2.7,13.9-5.2,21.1-7.3
			c3.6-1,7.5-1.8,11.4-1.9c3.9-0.1,7.6,0.2,11.3,0.6C1344.2,1193.4,1373.3,1198.8,1401.9,1206.3z"/>
	</g>
	<g>
		<g>
			<g>
				<g>
					<g>
						<path class="st5" d="M1134.4,1314.4c0.1-0.1,0-0.3-0.2-0.2l-0.1,0.4L1134.4,1314.4z"/>
						<path class="st5" d="M1132.7,1314.1c-0.2,0.2-0.5,0.6-0.2,0.8c0.2-0.4,0.3-0.2,0.5-0.7c0.2-0.1,0.4,0,0.4,0.1
							c0.1-0.1,0.4,0,0.5-0.2c-0.4-0.2-0.7-0.1-1.1,0.2C1132.6,1314.3,1132.7,1314.2,1132.7,1314.1z"/>
						<path class="st5" d="M1110,1317l0.2,0C1110.1,1317.1,1110.1,1317,1110,1317z"/>
						<path class="st5" d="M1095.9,1317.8c0.1,0,0.2,0,0.2-0.1C1095.9,1317.7,1095.8,1317.8,1095.9,1317.8z"/>
						<path class="st5" d="M1093.4,1317.5c0.1,0,0.1,0,0.1,0C1093.5,1317.5,1093.5,1317.5,1093.4,1317.5z"/>
						<path class="st5" d="M1110,1317l-0.4-0.1C1109.6,1317.1,1109.8,1317,1110,1317z"/>
						<path class="st5" d="M1129.7,1315.5c0.1,0,0.1-0.1,0.2-0.1L1129.7,1315.5C1129.7,1315.5,1129.7,1315.5,1129.7,1315.5z"/>
						<path class="st5" d="M1116.2,1316.1l0.1,0c0,0,0.1-0.1,0.1-0.1L1116.2,1316.1z"/>
						<path class="st5" d="M1120.9,1315.4c-0.1,0-0.1,0.3-0.1,0.4c0-0.1,0.1-0.2,0.2-0.2C1121,1315.6,1120.9,1315.5,1120.9,1315.4z"
							/>
						<path class="st5" d="M1128.5,1314.6l0.1-0.1C1128.5,1314.6,1128.5,1314.6,1128.5,1314.6z"/>
						<path class="st5" d="M1112.8,1316.4C1112.7,1316.4,1112.7,1316.4,1112.8,1316.4C1112.7,1316.4,1112.7,1316.4,1112.8,1316.4z"
							/>
						<path class="st5" d="M981.1,1336C981.1,1336,981.1,1335.9,981.1,1336C981,1336,981,1336,981.1,1336z"/>
						<path class="st5" d="M975.3,1336.5L975.3,1336.5c0.1-0.1,0-0.1,0-0.2L975.3,1336.5z"/>
						<path class="st5" d="M1089,1317.3C1089,1317.3,1089,1317.3,1089,1317.3C1089.1,1317.3,1089.1,1317.3,1089,1317.3z"/>
						<path class="st5" d="M1048.3,1318.6c0.5,0.2-0.7,0.4,0,0.6C1048.2,1319.1,1048.9,1318.7,1048.3,1318.6z"/>
						<path class="st5" d="M1129.6,1315.5c-0.1,0-0.1,0-0.2,0C1129.5,1315.6,1129.6,1315.6,1129.6,1315.5z"/>
						<path class="st5" d="M1048.3,1319.2L1048.3,1319.2L1048.3,1319.2C1048.3,1319.2,1048.3,1319.2,1048.3,1319.2z"/>
						<path class="st5" d="M1078.8,1317.7c0,0,0.1,0.1,0.1,0.1C1078.9,1317.8,1078.9,1317.8,1078.8,1317.7z"/>
						<path class="st5" d="M1086.4,1318l-0.2,0C1086.3,1317.9,1086.4,1318,1086.4,1318z"/>
						<path class="st5" d="M1074.9,1318.2c-0.1,0-0.1-0.1-0.3,0c0,0,0,0,0,0C1074.7,1318.2,1074.7,1318.1,1074.9,1318.2z"/>
						<path class="st5" d="M1070.7,1318.3C1070.8,1318.3,1070.8,1318.3,1070.7,1318.3c0.1,0,0.2,0,0.2,0L1070.7,1318.3z"/>
						<path class="st5" d="M992.8,1331.8c-0.1,0-0.2-0.1-0.3-0.2C992.7,1331.8,992.2,1332,992.8,1331.8z"/>
						<path class="st5" d="M1129.7,1315.4c0,0.1,0,0.1-0.1,0.1l0.1,0C1129.7,1315.4,1129.7,1315.4,1129.7,1315.4z"/>
						<path class="st5" d="M1074.7,1320.4l-0.7,0C1074.3,1320.4,1074.5,1320.4,1074.7,1320.4z"/>
						<path class="st5" d="M1021.1,1323.9l-0.1,0.1C1021,1324,1021,1323.9,1021.1,1323.9z"/>
						<path class="st5" d="M1072.1,1320.4c-0.1-0.1-0.2-0.2-0.4-0.2c0,0-0.1,0-0.1,0.1L1072.1,1320.4z"/>
						<path class="st5" d="M992.6,1331.6L992.6,1331.6L992.6,1331.6z"/>
						<path class="st5" d="M988.7,1333.6c0.6-0.2,0.2-0.4,0.2-0.7c0.7-0.3,0.4,0.1,0.7,0.2c0.4-0.2,0.6-0.7,1-0.8c0,0,0.1,0,0.1,0.1
							c0.4-0.4,1.4-0.5,1.8-1c0.1,0,0.1,0,0.1,0.1c-0.1-0.1-0.2-0.3-0.2-0.5c0.3-0.1,0.4-0.4,0.6-0.2c-0.2,0-0.1,0.1-0.2,0.2
							l0.2-0.2c0.4,0.2-0.3,0.2-0.3,0.5c0.5-0.3,1-0.8,1.5-0.8c0.2,0.3-0.9,0.4-0.3,0.5l-0.7,0.1c0.7,0.3-0.4,0.1,0.2,0.5
							c0.9-0.2,0.9-0.5,1.8-0.7c0.1-0.2-0.2-0.2,0-0.5c1.1-0.7,1.2,0.5,1.9-0.2c0.2-0.3,0.1-0.7,0.8-0.7l-0.1,0.4
							c0.8-0.2,0.3-0.7,1.2-0.7c-0.1,0.2-0.6,0.3-0.5,0.3c0.6,0.1,0.3-0.3,0.7-0.5l0.2,0.3c0.9-0.3,1.7-0.9,2.7-1.2
							c0,0.1-0.2,0.3,0.1,0.3c1.2-0.5,2.6-0.8,3.8-0.9l0.4-0.4c0.1,0,0.2,0.1,0.1,0.2c0.5,0,0-0.2,0.2-0.4c0.3-0.1,0.4,0.1,0.3,0.2
							c0.7-0.5,2.2-1.2,3.1-1.1l-0.1,0.1c0.7,0,0.6-0.8,1.3-0.6l-0.1,0.1c1.5-0.2,3.1-0.9,4.3-0.7c0.1-0.5,1.5-0.2,1.5-0.8
							c0.9,0.1,0.7,0.3,1.9,0.2c0.3,0,0.4-0.4,0.8-0.6l0.1,0.3l0.5-0.4l0.4,0.3l0.4-0.1c-0.1,0-0.3-0.1-0.3-0.2
							c0.6-0.2,1.4,0,1.5,0.1l1.3-0.5c0,0.1-0.2,0.2-0.4,0.3c0.7-0.4,0.2,0.3,0.8-0.1c-0.1-0.1,0-0.2,0-0.3c0.4,0.1,1.1,0,1.7-0.2
							l-0.1,0.2c1-0.1,2.1-0.4,3.3-0.5c-0.4,0-0.4-0.4,0-0.5l0.2,0.3c0.2-0.2-0.4-0.1,0-0.4c0.4,0,0.3,0.3,0.1,0.5l0.5-0.2
							c0,0.1-0.1,0.2-0.1,0.3c0.2-0.2,0.9,0.2,1.2-0.2l0,0.1c1.1-0.1,1.6-0.3,2.6-0.5c0-0.3,0.4-0.3,0.6-0.5c0.7,0,1.5,0.2,2.3,0.1
							c0.6-0.2,0.1-0.3,0.4-0.4c0.1,0.3,0.9,0.1,0.5,0.4c1-0.1,1.3-0.2,2.5-0.5c-0.1-0.1-0.3-0.1-0.2-0.2c0.2-0.1,0.5,0.1,0.5,0.2
							l-0.1,0c1.4-0.5,3.3,0.5,4.4-0.1l-0.1,0l1.2-0.4c0.5,0-0.3,0.2,0.1,0.3c1.2-0.5,2-0.1,3-0.4c0.8,0.7,2.9-0.2,4,0.3l-0.1-0.2
							c0.3-0.2,0.3,0.1,0.6,0.1c0-0.1-0.3-0.1-0.1-0.3c2.4-0.3,4.9,0.1,7.4,0.2c0.9,0,0.5-0.9,1.6-0.5l-0.3,0.3
							c1.8-0.4,3.7-0.1,5.5-0.4c-0.1,0.1-0.1,0.2-0.3,0.2c0.4,0.2,1.4,0,1.4-0.2c0.3,0,0.1,0.2,0.2,0.3c0.4,0.1,0.9-0.3,1.1-0.1
							c0,0-0.1,0.1-0.2,0.1c0.2-0.1,1.1,0,0.9-0.3c0.7,0.1,1.3-0.1,1.8,0c0.3-0.3,1.1,0.1,1.2-0.3c0,0.5,1.2,0.3,1.6,0.1
							c-0.1,0.1,0.4,0.1,0.2,0.3c0.5,0,0.9-0.1,0.8-0.3c0.9,0.5,1.8-0.5,2.3,0.2c1.4-0.3,2.7-0.5,4-0.6c0,0.5-1.4,0.1-1.4,0.5
							c1.2-0.2,1.9-0.6,3.1-0.5c0.3,0.1-0.2,0.2-0.3,0.3c1.2-0.2,2.4,0,3.4-0.3c0,0-0.1,0.1-0.2,0.1c0.2,0,0.5,0.1,0.5-0.1l-0.2,0.1
							c-0.3-0.3,0.8-0.6,0.9-0.8c-0.3,0.6,1.1,0.1,0.5,0.9c0.1,0,0.3-0.1,0.3-0.3c0.2,0,0.3,0.1,0.1,0.3c0.8-0.1,0.5-0.3,1.2-0.4
							c0,0.1-0.1,0.1-0.2,0.3c0.3-0.2,0.7-0.4,1.3-0.3c0,0.1,0,0.1-0.1,0.1c1-0.1,1.7-0.6,2.8-0.4c-0.3,0.4,0.4,0.1,0.5,0.5l0.6-0.1
							l-0.2-0.2c0.5,0,1-0.3,1.4-0.2l-0.4,0.2l1-0.1l-0.6-0.1c0.5-0.2-0.1-0.5,0.6-0.4c-0.1,0,0.5,0,0.8,0.2l0,0
							c0.3-0.1,0.5-0.3,0.9-0.2c0.1,0.1-0.1,0.4,0,0.5c0.2-0.3,1.2-0.2,1.5-0.5c-0.1,0.1-0.1,0.3-0.1,0.3l0.2-0.3
							c0.2,0.1,0.3,0.1,0.3,0.3c0.7,0-0.3-0.5,0.6-0.3c-0.1,0,0,0.1-0.2,0.1c0.9,0.1,1.7-0.2,2.5-0.2c0.3,0.4-0.7,0.1-0.4,0.4
							c1.1-0.1,2.3-0.6,3.4-0.6l-0.2,0c0.1-0.5,0.8,0.2,1.4-0.1c-0.1,0-0.2,0.3-0.1,0.2c0.8,0,1.5-0.3,2.7-0.5l-0.1,0.1
							c0.5,0.1,1.2,0,1.7,0c0.1-0.1,0.4-0.2,0.2-0.3c1.6,0.6,2.8-0.7,4.2-0.2c-0.2,0-0.4,0.2-0.2,0.1l1.1-0.3
							c-0.1-0.2-0.2-0.1-0.4-0.3c0.1-0.2,0.4-0.3,0.7-0.3c-0.5,0.2,0,0.4,0.3,0.5c0-0.1,0-0.2,0-0.2c0.6,0.3,0-0.5,0.9-0.3l0,0.1
							c0.3-0.1,0.5-0.3,0.9-0.3c0.2,0.2-0.3,0.2-0.3,0.4c0.5-0.1,0.8-0.6,1.3-0.4c-0.2,0.1-0.5,0.1-0.6,0.3c0.5,0.2,0.5,0.2,0.9,0.2
							l0,0l0.8,0l-0.2-0.1c0.5-0.8,1.1-0.3,1.8-0.9c-0.7,0.5-0.1,0.3-0.1,0.6c0.2,0.1,0.5,0.1,0.4,0.2c0.3-0.3,0.6,0.1,1.1-0.3
							c0,0.1,0.4-0.1,0.3,0.2c0.5-0.1-0.1-0.2-0.1-0.3c0.7-0.4,1.8,0.1,2.7-0.5c0.9-0.4,1-0.7,1.7-1c0.3,0.1-0.2,0.4-0.2,0.4
							c0.5,0,0.8,0,1.2-0.2c-0.1,0.1,0,0.2,0.2,0.2c0.3-0.1,0.2-0.4,0.6-0.3c-0.1,0.1-0.1,0.3-0.3,0.5c0.4-0.2,0.7-0.4,1.1-0.6
							c0.1,0.1-0.2,0.3-0.3,0.4c0.4-0.2,1.2-0.4,1.3-0.7l-0.3,0c0.2,0,0.1,0.2,0,0.3c-0.4,0.3-0.6,0-0.6-0.1l0.3-0.1
							c-0.4-0.5-1.2,0.3-1.8,0.4l0.2-0.5l-0.5,0.5c-0.1-0.1-0.3-0.3,0-0.4c-0.5-0.1-0.3,0.2-0.7,0.1c0,0,0-0.1,0-0.1l-0.4,0.2
							c0.1-0.1-0.1-0.3,0.1-0.3c-0.8-0.1-1.1,0.6-1.5,0.3l0.1,0c-1,0.3,0,0.3-0.8,0.8l-0.7-0.7l0,0.3c-0.1,0-0.3,0-0.3-0.1
							c-0.4,0.3,0.1,0.1-0.1,0.4c-0.6-0.2-1.4,0.4-1.6-0.1c-0.1,0.3,0.5,0.1,0,0.3c-0.2-0.5-0.6,0.2-1.1,0c0.1-0.3,0.6-0.2,0.1-0.4
							c-0.2,0.5-0.9,0-1.3,0.2c0,0.4-0.8,0.3-1.5,0.5c0-0.1-1.3,0-1.9-0.1l0-0.1c-0.1,0.4-0.7,0.4-1.2,0.5c0-0.2,0.1-0.3,0.3-0.4
							l-0.4,0.1c-0.1,0.1-0.2,0.2-0.5,0.3l0.1-0.3c-0.6,0.1-1.1,0.5-1.9,0.4c0,0.3,0.7,0.6-0.1,0.9c0-0.1-0.1-0.4,0.1-0.4
							c-0.1,0-0.2,0.1-0.4,0.1l0.3-0.3c-0.4-0.1-0.2,0.2-0.4,0.2c0-0.2-0.2-0.1-0.2-0.3c0.1,0,0.2,0.1,0.3,0c-0.3,0-0.7-0.1-0.8-0.2
							c0,0.1,0,0.3-0.2,0.3c-0.6,0.1-0.2-0.2-0.6-0.3c-0.1,0.2-0.5,0.1-0.5,0.3c-0.2,0-0.2-0.1-0.3-0.2c-0.3,0.2-1.4,0.2-1,0.4
							l0.1,0c0,0,0,0,0,0l0,0l0,0c-1,0.4-2.1,0-3,0.2l0-0.1c-0.6,0.2-1.3,0.2-1.7,0.4c-0.2,0-0.4-0.1-0.4-0.3
							c-0.4,0.1-0.5,0.2-1.1,0.1c0.4-0.2-0.2-0.1,0.5-0.2c-0.6,0-0.7-0.2-1.3,0.1c0.2-0.3-0.5-0.3-0.7-0.2l0.4,0.2
							c-0.3,0.1-0.6,0-0.9,0l0.1-0.3c-1.2-0.3-2.1,0.8-3.1,0.2c-0.3,0.2,0.7,0.1,0.4,0.4c-0.6,0-1.2-0.5-1.3-0.5
							c-0.8-0.1-0.7,0.5-1.5,0.4c0.1,0.1,0.2,0.4-0.4,0.6c-0.6,0-0.7-0.5-0.4-0.6c0.1,0,0.2,0,0.2,0.1c0.2-0.1,0.4-0.1,0.2-0.2
							l-0.1,0.1c-0.3-0.1-1-0.1-0.9-0.3c-0.4,0.1-0.2,0.2,0.1,0.3c-0.7-0.1-1.1,0-1.8-0.1c0.1,0.1,0.2,0.2,0.1,0.2
							c-1.1-0.1-0.5,0.2-1.2,0.3c-0.4-0.2,0.1-0.4-0.6-0.3c-0.4-0.1-0.1-0.3,0.1-0.4c-0.7,0.3-1.2-0.1-1.6-0.1l0.3-0.1
							c-0.2,0.1-0.4,0.1-0.6,0.1l0.2,0.2c-0.2,0-0.4,0-0.4-0.1c-0.2,0.2,0.2,0.4-0.2,0.6c-0.3-0.1-0.8,0.2-0.9-0.2
							c0.9,0.1-0.1-0.3,0.6-0.4c-0.1,0-0.3,0-0.5,0c0,0,0-0.1,0.1-0.1c-0.8-0.3-0.4,0.4-1.2,0.4c0.1-0.2-0.2-0.3-0.3-0.3
							c0.3,0,0.2,0.3-0.1,0.4c-0.6-0.1-0.6,0.1-0.9,0.1l0.3,0.1c-0.1,0.2-0.4,0.2-0.8,0.2c0-0.1,0.3-0.1,0.2-0.2
							c-0.4,0.3-1-0.3-1.6-0.1c-0.3-0.1,0-0.3-0.3-0.4c-0.7,0.2-0.7-0.2-1.4,0c0.2,0.2,0.2,0.2-0.2,0.4l1.1-0.2l-0.7,0.4
							c0.3,0,0.7-0.2,0.9-0.1c-0.3,0.2-0.3,0.1-0.1,0.3c-0.5-0.3-0.9,0.2-1.5,0l0-0.6c-0.8-0.2-1.5,0.3-2.5,0.2l0.3,0.1
							c-0.1,0.2-0.7,0-1,0.1c0-0.2-0.2-0.3-0.3-0.4c0,0.1-0.8,0-0.9,0.4l-0.5-0.3c-0.9-0.1-1,0.6-1.8,0.5c0.2-0.2-0.1-0.4,0.4-0.5
							c-0.3,0-0.5,0-0.5,0.1c-0.2-0.1-0.8,0.3-1,0.1c-0.1,0.1-0.1,0.3-0.5,0.3c0,0,0-0.1,0-0.1c0,0.1-0.5,0.1-0.2,0.4
							c-0.9-0.6-2.4,0.1-3.1-0.4c-0.6,0.1-1.3,0.2-1.9,0.2c0-0.1,0-0.1,0.1-0.1c-0.8-0.2-0.5,0.6-1.3,0.4c-0.4-0.3,0.5-0.2,0.2-0.3
							c-0.1-0.6-1,0.1-1.6-0.3l0.1,0c-0.4-0.2-1.1,0.3-1.8,0.2c0,0,0-0.1,0-0.1c-0.5,0.3-1.4,0.5-2.1,0.6c0.2-0.3,0.3-0.1,0.2-0.4
							c-0.3,0,0.1,0.4-0.5,0.5c-0.2-0.1-0.7-0.2-0.7-0.5l0.6,0c-0.3-0.3-0.8,0-1.1,0l0-0.2c-0.9,0.1-0.9,0.5-1.9,0.5l0.1,0.1
							c-0.5,0.4-0.4-0.2-1,0.1l-0.2-0.4c-0.3,0.1-1.2,0.4-1.8,0.5c0.3-0.3,1.1-0.5,1.5-0.7c-0.3,0-1.2,0.1-1.3,0.3
							c0.1,0,0.3-0.1,0.5-0.1c-0.4,0.3-1,0.5-1.7,0.5c0.1-0.8-1.8-0.1-2.3-0.7c-1.2,0.3-2.4,0-3.8,0.1c0.5,0.6-0.4,0-0.3,0.6
							c-0.3,0.1-0.5,0-0.5,0l-1-0.3c-0.2-0.2,0.3-0.2,0.3-0.3c-0.7,0-0.3-0.2-0.8-0.4c0.1,0.2-0.2,0.3-0.7,0.3l0.6,0.2
							c-1,0.4-0.9-0.5-1.9-0.1l0.3-0.2c-0.5,0.1-1.9,0.1-2.4,0.6c-0.1-0.1-0.2-0.2,0-0.3c-1.3,0-2.7,0.7-3.7,0.5l0.1-0.2
							c-0.2,0.1-0.4,0.3-0.7,0.2c0-0.1,0.1-0.2,0-0.2c-0.1,0.1-0.6,0.3-0.9,0.3l0.2-0.2c-1.2-0.1-1.8,0.6-2.8,0.8
							c0-0.4-1-0.5-1.5-0.5l0-0.1c-1.4,0.1-2.4,0.7-3.7,1c-0.9-0.4-2.8,0.2-4.1,0.1c0.2,0.1,0,0.3-0.2,0.4c-0.3-0.1-0.8,0.4-0.8,0
							l0.1,0c-0.3-0.3-0.9-0.1-1.4-0.1l0,0.5c-1.4-0.5-3.3,0.9-4.1,0.3c-0.3,0.2-0.7,0.3-0.9,0.4l0-0.3c-0.9,0.1-1.3,0.1-2.3,0.5
							l0.2-0.2c-0.6,0.1-0.6,1-1.1,1.1l-0.3-0.4c-1,0.2-2.2,0.1-3.1,0.7c0-0.1,0-0.2,0.2-0.2c-0.5,0.1-2,0.2-1.6,0.7
							c-0.1-0.4-1.1,0.2-1.6,0.5l0-0.3c-0.4,0.5-0.4,0.6-1,0.8c-0.2,0-0.2-0.2,0-0.2c-0.6,0-0.3,0.4-1,0.4l0.2-0.2
							c-0.5,0.1-0.5,0.2-0.7,0.5c-0.3,0.2-1,0.2-1.2,0c0,0.2-0.3,0.5-0.6,0.5c-0.1-0.1,0-0.2,0.1-0.2c-0.9,0.1-1.2,0.7-1.9,0.6
							c0-0.1-0.1-0.1-0.2-0.1c0.7-0.2,1.3-0.4,1.2-0.3c-0.1-0.2-0.6-0.1-0.3-0.6c-0.4,0.3-1,1-1.6,1c0,0-0.1,0-0.1-0.1l0,0
							c-0.1,0-0.2,0.1-0.3,0.1c-0.2,0-0.3,0-0.5,0.1c-0.1-0.2-0.7,0.1-1,0.2c0.1,0.3-0.3,0.3,0.1,0.4c-0.1,0,0,0,0.2-0.1
							c0,0,0.1,0,0.1-0.1l0,0c0.2-0.1,0.4-0.1,0.7-0.2c-0.2,0.2-0.4,0.4-0.7,0.3c-0.1,0.2-0.2,0.4-0.2,0.6c-0.5-0.2-1.3-0.2-1.5-0.4
							c-0.8,0.4-2,0.8-2.3,1.4c-0.2,0.1-0.3-0.1-0.4-0.1c0.1-0.1,0.3-0.1,0.3-0.2c-0.4,0.3-1.4,0.5-1.4,0.9c-0.7,0,0.2-0.4-0.6-0.1
							l0.1-0.1c-1.8,0-2.3,1.8-4.4,1.7c0.1,0,0.2,0,0.3,0c-2.2,0.4-4.1,1.7-6.3,1.9c-0.6,0.1-0.6,0.3-0.9,0.6l-0.2-0.2l-0.5,0.5
							c-0.8,0.5-1.7-0.2-2.6,0.6l0.2,0.1c-0.4,0.1-1.2,0.5-1.2,0.3c0,0-0.1,0.2-0.2,0.2l-0.1-0.1l-0.9,0.6c-0.8,0.1-0.1-0.6-1.2-0.3
							c-0.4,0.2-1,0.8-0.8,0.9c0.2,0,0.4,0,0.5,0.1l-0.3,0.2c0.1,0.5,0,1,1,1l0.5-0.5l0.3,0.1l-0.5,0.2c0.4,0.1,0.5-0.1,0.7-0.3
							c0.1,0.1,0.2,0.1,0.3,0.1l0.5-0.6c0.1,0.1-0.2,0.4,0.3,0.4c0.2-0.3-0.4-0.3,0-0.6c0.4,0.1,0.3,0.3,0.6,0
							c0.1,0.1,0,0.2-0.1,0.3c0.3-0.2,0.8-0.3,0.9-0.6c0.4,0.1,1-0.4,1.1,0c0.1-0.1,0.4-0.5,0.7-0.6c-0.4,0.7,1.1-0.3,1.1,0.2
							c0.2-0.6,1.3-0.7,1.9-1.2c0,0-0.1,0.1-0.1,0.1c0.4-0.1,0.6,0,0.8,0c-0.1-0.4,0.5-0.7,0.7-1c0.6,0.2-0.1,0.5,0.1,0.8
							c-0.1-0.3,0.7-0.6,0.5-0.8c0.4,0.1,0.4,0,0.6,0.2c-0.1-0.5,0.3-0.2,0.5-0.6c0.6,0,0.3,0.4,0.8,0
							C989.2,1333.3,988.7,1333.6,988.7,1333.6z M1002.2,1328.2L1002.2,1328.2c-0.1,0-0.2,0.1-0.3,0.1
							C1002,1328.3,1002.1,1328.3,1002.2,1328.2z M1003.4,1327.8c-0.1,0-0.3,0.1-0.5,0.1c-0.1-0.1-0.1-0.2,0.1-0.2
							C1002.9,1327.8,1003.2,1327.8,1003.4,1327.8z M1000.3,1326.8c0.2-0.1,0.3-0.1,0.3,0c-0.1,0-0.2,0.1-0.3,0.1c0,0,0,0,0,0
							C1000.3,1326.9,1000.3,1326.8,1000.3,1326.8z"/>
						<path class="st5" d="M1000.1,1327.2C1000.1,1327.2,1000.1,1327.2,1000.1,1327.2C1000.1,1327.3,1000.1,1327.3,1000.1,1327.2
							L1000.1,1327.2C1000.2,1327.2,1000.1,1327.2,1000.1,1327.2z"/>
						<path class="st5" d="M1110.2,1317.1L1110.2,1317.1C1110.2,1317.1,1110.2,1317.1,1110.2,1317.1
							C1110.2,1317.1,1110.2,1317.1,1110.2,1317.1z"/>
						<polygon class="st5" points="1019.8,1324.3 1019.7,1324.2 1019.6,1324.3 						"/>
						<path class="st5" d="M1117,1317.3C1117,1317.3,1117,1317.3,1117,1317.3C1117.1,1317.3,1117,1317.3,1117,1317.3z"/>
						<path class="st5" d="M1119.9,1317l0.4,0C1120.1,1317,1120,1317,1119.9,1317z"/>
						<path class="st5" d="M1122.1,1316.8c0-0.1,0-0.1,0-0.1l0,0L1122.1,1316.8z"/>
						<path class="st5" d="M1086.6,1319.8C1086.6,1319.8,1086.5,1319.8,1086.6,1319.8C1086.3,1319.9,1086.5,1319.9,1086.6,1319.8z"
							/>
						<path class="st5" d="M1097.2,1318.8c-0.1,0.1-0.2,0.1-0.3,0.2C1097,1319,1097.2,1319,1097.2,1318.8z"/>
						<polygon class="st5" points="1074.8,1320.4 1074.8,1320.4 1074.7,1320.4 						"/>
						<path class="st5" d="M1096.3,1319c0.2,0,0.3,0,0.5,0C1096.7,1318.9,1096.5,1318.9,1096.3,1319z"/>
						<path class="st5" d="M1131.7,1315.2l0.1,0c0,0,0,0,0,0L1131.7,1315.2z"/>
						<path class="st5" d="M1131.8,1315.1l0.1-0.1C1131.9,1315.1,1131.8,1315.1,1131.8,1315.1z"/>
						<path class="st5" d="M1132.2,1314.9l-0.2,0.1C1132,1315,1132.1,1315,1132.2,1314.9z"/>
						<path class="st5" d="M1128.8,1315.6l0,0.1C1128.8,1315.7,1128.8,1315.7,1128.8,1315.6z"/>
						<path class="st5" d="M1127.9,1315.9c0.2,0,0.6,0.1,0.9,0l0-0.1C1128.6,1315.9,1128.1,1315.6,1127.9,1315.9z"/>
						<path class="st5" d="M1124,1315.2l0.8,0c-0.1-0.1-0.3-0.2,0-0.3C1123.7,1314.8,1124.9,1315.1,1124,1315.2z"/>
						<path class="st5" d="M1121.6,1315.5c0.4-0.1,0-0.2,0-0.2C1121.4,1315.4,1121.3,1315.4,1121.6,1315.5z"/>
						<path class="st5" d="M1104.9,1317.3l0-0.3C1104.6,1317.1,1104.9,1317.1,1104.9,1317.3z"/>
						<polygon class="st5" points="1101.8,1318.8 1102.1,1319 1102.2,1318.7 						"/>
						<polygon class="st5" points="1099.8,1317.1 1099.9,1317.1 1099.4,1317.2 						"/>
						<path class="st5" d="M1071.5,1318l0.1,0.3C1071.8,1318.2,1071.8,1317.9,1071.5,1318z"/>
						<path class="st5" d="M1059.2,1318.6c-0.1-0.2-0.5-0.2-0.7-0.1C1058.8,1318.5,1059.1,1318.6,1059.2,1318.6z"/>
						<polygon class="st5" points="1022.5,1321.2 1022.7,1321.1 1022.3,1321.2 						"/>
					</g>
				</g>
			</g>
		</g>
	</g>
</g>
<g>
	<path class="st0" d="M1730.4,557.9l-7.9-20.3c0,0,0,0-36.2,4.1c-36.2,4.1-78.4-18.9-106-15.8c-21.1,2.4-83.3,20.5-124.8,30.3
		c-20-1.6-37.5-3.3-47.1-5.4c-29.6-6.4-102.4-66.6-137.8-74.3c-35.5-7.7-50.7-6.4-16.9,1c21.3,4.6,105.2,71.6,148.1,93.5
		c-36.3-6.9-128-33.2-147.2-31.1c-36.2,4.1-41.8,9.5-7.4,5.6c34.4-3.9,147,49.7,178,46.1c9.3-1,40.3-4.9,39.8-5
		c32.3,0.1,67.6,0.3,90.8,5.3c43.1,9.4,95.7,78.6,141,52.3l0-21.6c0,0,0,0-35.5-7.7c-35.5-7.7-66.8-42.8-93.8-48.7
		c-6.1-1.3-16.1-2.5-28.3-3.6c14.5-4.2,28.1-7.4,39.5-8.7C1622.7,548.9,1697.5,597.1,1730.4,557.9z"/>
	<g>
		<path class="st1" d="M1359,531.8c9.1,9.3,20.2,16.4,32.1,21.3c5.9,2.5,12.1,4.6,18.3,6.2c6.3,1.6,12.6,2.7,19,3.5
			c12.8,1.6,25.8,1.8,38.7,1.2c6.5-0.3,12.9-0.8,19.4-1.4c6.4-0.6,12.8-1.4,18.9-3.4c6.1-1.9,12.1-4.4,18.2-6.7
			c6.1-2.3,12.3-4.4,18.6-6.1c6.3-1.7,12.7-3,19.3-3.6c6.5-0.6,13.1-0.3,19.6,0.2c25.8,2.6,51.6,5.4,77.4,8.4
			c-12.9-1.1-25.8-2.2-38.8-3.4l-19.4-1.8c-6.5-0.6-12.9-1.2-19.4-1.7c-6.4-0.5-12.9-0.6-19.3,0c-6.4,0.6-12.7,1.9-18.9,3.6
			c-6.2,1.7-12.3,3.8-18.4,6.1c-6.1,2.3-12,4.9-18.3,6.8c-6.3,2-12.9,2.8-19.3,3.4c-6.5,0.6-13,1-19.5,1.3c-13,0.5-26.1,0.3-39-1.5
			c-6.5-0.9-12.9-2.1-19.2-3.8c-6.3-1.7-12.5-3.9-18.4-6.5C1378.9,548.8,1367.8,541.4,1359,531.8z"/>
	</g>
	<g>
		<path class="st1" d="M1470.8,579.1c20.2-1.4,40.3-2.6,60.5-3.6c5.1-0.2,10.1-0.3,15.2,0.1c2.5,0.2,5.1,0.4,7.6,0.8
			c1.3,0.2,2.5,0.4,3.8,0.7c1.2,0.3,2.5,0.5,3.7,0.8c5,1.2,9.8,3,14.5,4.9c4.7,2,9.2,4.4,13.6,6.9c8.8,5.2,17,11.1,25.1,17.1
			c8.1,6,16.2,12,24.8,17.2c8.6,5.2,17.7,9.7,27.3,12.6c4.8,1.4,9.7,2.6,14.7,3c5,0.4,10.1,0.4,15.1-0.3c-5,0.9-10.1,1.1-15.1,0.8
			c-5.1-0.3-10.1-1.3-15-2.6c-9.8-2.8-19-7.1-27.8-12.3c-8.8-5.1-17-11.1-25.1-17c-8.2-5.9-16.4-11.8-25-16.9
			c-4.3-2.5-8.7-4.9-13.3-6.9c-4.6-2-9.3-3.7-14.1-4.9c-9.7-2.5-19.8-2.8-29.8-2.6c-10.1,0.3-20.2,0.8-30.3,1.1
			C1491,578.5,1480.9,578.9,1470.8,579.1z"/>
	</g>
	<g>
		<path class="st1" d="M1423.2,572.8c5.4,1.8,11.1,2.5,16.7,2.4c5.6,0,11.2-0.7,16.8-1.5c2.8-0.4,5.6-0.8,8.4-1.3
			c2.8-0.4,5.6-0.8,8.5-1.2c5.6-0.8,11.3-1.4,17-2c-5.6,1.3-11.1,2.5-16.7,3.5c-5.6,1.1-11.2,2.1-16.8,2.9
			c-5.7,0.8-11.4,1.4-17.2,1.1C1434.1,576.6,1428.4,575.3,1423.2,572.8z"/>
	</g>
	<g>
		<path class="st1" d="M1397,567.2c-3-1.7-6-3.4-9-5.1l-8.9-5.3l-8.7-5.5l-8.6-5.7c-11.5-7.6-22.7-15.6-34-23.5
			c-11.2-8-22.5-15.8-34-23.4l-8.6-5.6l-8.7-5.5l-8.8-5.3c-3-1.7-6-3.4-9-5.1c3.1,1.5,6.1,3.1,9.2,4.7l9.1,5l8.9,5.2l8.8,5.4
			c11.7,7.3,23,15.2,34.3,23c11.2,8,22.4,15.9,33.7,23.8l8.5,5.9l8.6,5.8l8.6,5.7C1391.2,563.5,1394.1,565.3,1397,567.2z"/>
	</g>
	<g>
		<path class="st3" d="M1405.3,548.1c-13.4-3.6-26.1-9.4-38.2-16c-3-1.7-6-3.4-9-5.1l-8.9-5.4c-5.9-3.7-11.7-7.4-17.5-11.1l-8.7-5.6
			l-8.7-5.5l-8.8-5.3c-3-1.7-6-3.4-8.9-5.1c-12-6.6-24.5-12.2-37.6-16.4c13.7,2.1,26.9,6.9,39.4,12.9c3.1,1.6,6.2,3.1,9.3,4.7
			l9.1,5.1l8.9,5.4l8.8,5.5l17.3,11.3l8.6,5.6c2.9,1.8,5.8,3.6,8.7,5.5C1380.7,535.9,1392.6,542.5,1405.3,548.1z"/>
	</g>
	<g>
		<path class="st3" d="M1258.4,539.3c6.1-1.5,12.6-1.4,18.9-0.6c6.3,0.8,12.4,2.3,18.4,3.9c6,1.6,11.9,3.3,17.8,5.3
			c5.9,2,11.8,4.1,17.5,6.7c-6.3-0.6-12.4-1.6-18.5-2.9c-6.1-1.2-12.1-2.7-18.1-4.2c-6-1.6-11.9-3.4-17.8-4.8
			C1270.6,541.1,1264.7,539.9,1258.4,539.3z"/>
	</g>
	<g>
		<path class="st3" d="M1476.4,552.7c15.9-5.9,31.9-11.3,48-16.5c8-2.6,16.1-5.2,24.2-7.6c8.2-2.3,16.5-4.3,25.1-5.4
			c4.3-0.5,8.6-0.8,12.9-0.8c4.3,0,8.7,0.3,13,1c1.1,0.1,2.1,0.4,3.2,0.6l3.2,0.7c2.1,0.6,4.2,1,6.2,1.6c4.1,1.2,8.2,2.6,12.2,4
			c8,2.9,15.8,6.1,23.8,8.7c8,2.6,16.2,4.5,24.6,5.1c-8.5,0.5-17-0.8-25.3-2.8c-8.3-2.1-16.3-4.8-24.3-7.3c-8-2.4-16-4.9-24.2-5.9
			c-8.1-1.2-16.4-1-24.6,0.1c-8.2,1-16.4,2.9-24.5,5c-8.1,2.1-16.2,4.6-24.4,6.8C1509.2,544.5,1492.9,548.9,1476.4,552.7z"/>
	</g>
</g>
<g>
	<path class="st0" d="M612.7,886.9c-45.6,0-186.9-92.5-227.9-92.5s-147.1,33-205.2,33S31.9,753.4-17.7,799.7l6.8,27.7
		c0,0,0,0,47.9,0c14.9,0,30.1,3.5,45.1,8.3c21.9,9.7,41.8,28.2,59.1,31.6c21.3,4.2,101.8,4.9,125.1,9.5
		c23.3,4.5,92.9,51.3,120.9,56.7c28,5.5,36.3,2,9.6-3.2c-26.1-5.1-96-71.9-121.1-78.9c42.6-6.1,85.6-22,105.6-22
		c39.9,0,171,62.8,218.9,62.8S658.3,886.9,612.7,886.9z"/>
	<g>
		<path class="st1" d="M117.5,834.9c7.3,4.1,14.5,8.2,22.1,11.4c7.6,3.3,15.6,5.5,23.8,6.9c2,0.3,4.1,0.8,6.1,1
			c2.1,0.2,4.1,0.6,6.2,0.8l6.2,0.5c2.1,0.2,4.1,0.2,6.2,0.4c8.3,0.4,16.6,0.6,24.9,0.8c8.3,0.3,16.7,0.7,25,1.6l6.2,0.8
			c2.1,0.3,4.1,0.7,6.2,1.1c2.1,0.3,4.1,0.9,6.1,1.3l3,0.7l3,0.9l3,1l1.5,0.5l1.5,0.6c2,0.7,3.9,1.6,5.8,2.4c3.8,1.8,7.5,3.7,11,6
			c7,4.5,13.5,10,18.9,16.2c-5.8-6-12.3-11.2-19.4-15.4c-7.1-4.2-14.7-7.6-22.7-9.8c-7.9-2.2-16.1-3.8-24.3-4.5
			c-8.2-0.8-16.5-1.1-24.8-1.4c-8.3-0.3-16.6-0.5-25-0.9c-8.3-0.5-16.7-1.3-24.9-2.9c-8.2-1.7-16.3-4-23.9-7.5
			C131.6,843.7,124.5,839.4,117.5,834.9z"/>
	</g>
	<g>
		<path class="st1" d="M210,845.5c10.4-1.2,20.7-3.4,30.8-6.4c10.1-2.9,20-6.4,29.8-10.1c9.8-3.7,19.7-7.3,29.7-10.7
			c10-3.3,20.1-6.3,30.5-8.2c20.8-3.9,42.1-4.3,63-1.3c10.4,1.5,20.7,3.9,30.8,7.1c10,3.2,19.8,7.3,29.1,12.2
			c-9.5-4.5-19.3-8.3-29.4-11.3c-10-3-20.3-5.1-30.7-6.5c-20.7-2.7-41.9-2.2-62.4,1.7c-10.3,1.9-20.4,4.8-30.3,8
			c-10,3.2-19.8,6.9-29.7,10.4c-9.9,3.5-19.9,6.9-30.1,9.6C230.8,842.7,220.4,844.8,210,845.5z"/>
	</g>
	<g>
		<path class="st1" d="M361.9,816.9c6.4-0.9,12.9-0.7,19.3,0c6.4,0.8,12.7,2.2,18.9,3.9c12.4,3.5,24.3,8.3,36.5,12.3
			c12.1,4.1,24.5,7.3,37,10.2c6.2,1.5,12.5,2.8,18.8,4.1l18.8,4c-6.4-0.9-12.7-2-19-3.1c-6.3-1.1-12.6-2.3-18.9-3.6
			c-12.6-2.6-25.1-5.8-37.3-9.8c-12.2-4.2-24.1-9-36.3-12.7c-6.1-1.9-12.3-3.5-18.6-4.4C374.8,816.8,368.3,816.5,361.9,816.9z"/>
	</g>
	<g>
		<path class="st3" d="M370.5,793.6c21.6,1.3,42.8,6.9,63,14.6c10.1,3.8,20,8.3,29.8,12.9c9.7,4.7,19.3,9.7,28.8,14.7
			c9.5,5.1,18.9,10.2,28.5,15.2c9.5,5,19.1,9.8,28.8,14.4c9.7,4.5,19.6,8.7,29.7,12.3c10.1,3.6,20.4,6.6,31.2,7.4
			c-10.8,0.3-21.6-2-31.9-5.1c-2.6-0.8-5.2-1.6-7.7-2.5c-2.6-0.8-5.1-1.8-7.7-2.7c-5.1-1.9-10.1-3.9-15.1-6
			c-10-4.2-19.7-8.9-29.4-13.7c-9.6-4.9-19.1-10-28.6-15c-9.5-5.1-19-10.1-28.6-14.9c-9.6-4.8-19.3-9.4-29.1-13.6
			C412.3,803.5,391.8,797,370.5,793.6z"/>
	</g>
</g>
<g>
	<path class="st0" d="M1772.7-105.2c0,0,0,0-63.9,24.4c-63.9,24.4-153.6,2.3-202.2,20.9c-48.7,18.6-197.6,136.7-250.9,157.1
		c-53.3,20.4-273.3-3.1-337.2,21.3c-63.9,24.4-63.2,32.7-2.3,9.4c11-4.2,48-0.8,67.6-1.2c-28.3,12.7-72,32.1-86.5,36.3
		c-23.2,6.7-110-3.1-137.9,4.9c-27.9,8-25.7,10.1,0.9,2.5c26.6-7.6,121.6,19,145.5,12.1c23.3-6.7,76.2-36.4,111.3-46.5
		c13.6-3.9,32.5-2,51.5-0.7c78.9,6.9,164.2,17.3,195.4,5.4c54.8-21,177-119.2,254.6-148.8c77.6-29.7,240.3,23.5,279.4-63.7
		L1772.7-105.2z"/>
	<g>
		<path class="st1" d="M1752.9-65.2c-3.1,2.3-6.3,4.3-9.7,6c-3.4,1.7-6.9,3.2-10.5,4.4c-7.2,2.4-14.7,4.1-22.2,5.2
			c-7.5,1.2-15.1,1.9-22.6,2.6c-7.6,0.7-15.1,1.4-22.7,2c-30.3,2.4-60.7,3.8-91.1,4.3c-7.6,0.1-15.2,0.2-22.8,0.2l-11.4,0
			c-3.8,0-7.6-0.1-11.3,0.3c-1.9,0.2-3.7,0.5-5.5,1c-1.8,0.5-3.5,1.2-5.2,2c-3.4,1.6-6.5,3.6-9.8,5.7L1489-19.2l-76.9,48.9l-77,48.8
			c-6.4,4.1-12.8,8.1-19.3,12.1l-19.3,12.1c-13,7.9-25.5,16.5-39.4,23c-6.9,3.2-14.3,5.7-21.9,6.8c-7.6,1.1-15.3,1.1-22.9,0.8
			l-45.5-2.5l-91-5.4l91,4.4l45.5,2.3c7.6,0.3,15.2,0.3,22.6-0.9c7.4-1.1,14.6-3.6,21.4-6.9c13.6-6.5,26.2-15.2,39.1-23.1l19.3-12.1
			c6.4-4,12.9-8.1,19.3-12.1l76.9-48.9l77-48.8l19.2-12.2c3.2-2,6.4-4.1,10-5.7c1.8-0.8,3.6-1.5,5.5-2.1c1.9-0.5,3.8-0.9,5.7-1.1
			c3.9-0.4,7.7-0.4,11.5-0.3l11.4,0.1c7.6,0,15.2,0,22.8-0.1c30.4-0.3,60.7-1.6,91-3.7c7.6-0.5,15.1-1.1,22.7-1.8
			c7.6-0.6,15.1-1.3,22.6-2.4c7.5-1.1,15-2.6,22.2-5c3.6-1.2,7.1-2.6,10.5-4.3C1746.5-60.9,1749.8-62.9,1752.9-65.2z"/>
	</g>
	<g>
		<path class="st1" d="M1366.5,65.1c5.4-3.3,11-6.4,16.4-9.6l16.5-9.5c11-6.3,22-12.6,33-19c11-6.3,21.9-12.8,32.8-19.3l8.2-4.9
			l8.1-5l8.1-5c2.7-1.7,5.4-3.4,8.1-5c-5.2,3.7-10.4,7.2-15.7,10.8l-8,5.2l-8,5.1c-10.7,6.8-21.7,13.2-32.6,19.7
			c-11,6.3-22.1,12.5-33.2,18.6l-16.8,9C1377.8,59.3,1372.2,62.3,1366.5,65.1z"/>
	</g>
	<g>
		<path class="st1" d="M981.9,142.5c7-3.1,14-6,21-9.1l21.1-8.9c7.1-2.9,14.4-5.5,22.1-6.7c7.6-1.2,15.4-1.2,23-1.4
			c15.3-0.1,30.6-0.3,45.8-0.3l22.9,0c7.6,0.1,15.3,0.1,22.9,0.2c-7.6,0.3-15.3,0.5-22.9,0.8l-22.9,0.6c-15.3,0.3-30.6,0.5-45.8,0.8
			c-7.6,0.1-15.3,0.1-22.7,1.2c-7.5,1.1-14.7,3.6-21.8,6.3l-21.3,8.3C996.2,137,989.1,139.8,981.9,142.5z"/>
	</g>
	<g>
		<path class="st3" d="M903.6,157.6c-9.9,5.9-21.5,9.1-33,10.6c-11.6,1.5-23.2,1.5-34.7,0.8c-11.5-0.6-22.9-1.8-34.3-2.5
			c-11.4-0.7-22.8-0.8-34.2,0.3c11.1-3.2,22.8-4.1,34.3-4.2c11.6-0.1,23.1,0.7,34.5,1.4c11.4,0.6,22.8,1,34.1,0.3
			C881.5,163.6,892.7,161.6,903.6,157.6z"/>
	</g>
	<g>
		<path class="st3" d="M1234.5,101.5c-25.1,6.1-51.2,8.3-77.1,6.8c-12.9-0.6-25.7-1.7-38.5-1.6c-3.2,0-6.4,0.1-9.5,0.2
			c-3.2,0.2-6.3,0.4-9.5,0.7c-6.4,0.6-12.8,1.4-19.3,1.9c-13,1-25.9,1.2-38.9,1c-12.9-0.2-25.8-0.7-38.7-1.1
			c-12.9-0.3-25.7-0.4-38.5,0.3c-12.8,0.7-25.6,2.2-38.2,5c12.3-3.9,25.1-6.1,38-7.4c12.9-1.3,25.8-1.7,38.8-1.7
			c12.9-0.1,25.8,0.3,38.7,0.2c12.8,0,25.7-0.2,38.4-1.3c6.4-0.5,12.8-1.2,19.2-1.8c6.5-0.6,13-0.9,19.5-0.8
			c13,0.2,25.9,1.4,38.7,2.5C1183.3,106.6,1209,105.6,1234.5,101.5z"/>
	</g>
</g>
<g>
	<path class="st0" d="M-15.2,444.5c32.9,39.2,107.7-9,151.6-4.1c43.9,5,124.6,27.2,155.6,30.7s131.9-45.2,166.3-41.3
		c34.4,3.9,30.6-0.5-5.6-4.5c-36.2-4.1-132.7,26.9-162.8,23.5s-127.6-33.2-155.1-36.3s-69.8,19.9-106,15.8
		c-36.2-4.1-36.2-4.1-36.2-4.1L-15.2,444.5z"/>
	<g>
		<path class="st1" d="M118.1,431.1c10.2-2.4,20.6-4.7,31.2-5.1c5.3-0.2,10.6,0.3,15.8,1.5c5.2,1.2,10.1,3.2,15,5.2
			c4.8,2.1,9.7,4,14.7,5.6c5,1.6,10,3,15.1,4.2c10.2,2.4,20.6,4.3,30.9,6.2l31,6c10.3,2,20.6,4.2,31,5.2c5.2,0.5,10.4,0.4,15.6-0.2
			c5.2-0.6,10.3-1.8,15.3-3.3c10.1-2.9,19.7-7.3,29.3-11.5c-4.7,2.3-9.5,4.6-14.3,6.7c-4.8,2.1-9.7,4.1-14.8,5.7
			c-5,1.6-10.2,2.9-15.4,3.6c-5.3,0.7-10.6,0.9-15.9,0.5c-5.3-0.3-10.5-1.1-15.7-2c-5.2-0.9-10.3-1.9-15.5-2.9l-31-5.9
			c-10.3-2-20.7-4-30.9-6.4c-5.1-1.2-10.2-2.7-15.2-4.3c-2.5-0.8-5-1.7-7.5-2.7c-2.5-1-4.9-2.1-7.3-3.1c-4.8-2.1-9.6-4.2-14.7-5.4
			c-2.5-0.6-5.1-1-7.7-1.3c-2.6-0.2-5.2-0.4-7.8-0.4C138.8,427,128.4,429.1,118.1,431.1z"/>
	</g>
	<g>
		<path class="st3" d="M234.5,436c15.8,5.9,32.2,9.5,48.8,10.6c16.6,1.1,33.2-0.3,49.3-4.3c8.1-1.9,16.2-4.2,24.4-6.2
			c8.2-1.9,16.4-3.9,24.7-5.4c16.5-3.3,33.2-5.8,50-7.3c-16.5,3.5-32.9,7.1-49.2,11.1c-8.1,2-16.3,4-24.4,6.2
			c-8.1,2.1-16.2,4.5-24.4,6.5c-8.3,1.9-16.8,3.3-25.3,3.9c-8.5,0.5-17.1,0.4-25.5-0.6C266,448.7,249.4,443.9,234.5,436z"/>
	</g>
</g>
</svg>
