<?xml version="1.0" encoding="utf-8"?>
<!-- Generator: Adobe Illustrator 21.0.2, SVG Export Plug-In . SVG Version: 6.00 Build 0)  -->
<svg version="1.1" id="Layer_1" xmlns="http://www.w3.org/2000/svg" xmlns:xlink="http://www.w3.org/1999/xlink" x="0px" y="0px"
	 viewBox="0 0 974.6 746" style="enable-background:new 0 0 974.6 746;" xml:space="preserve">
<style type="text/css">
	.st0{fill:#C4B7B5;}
	.st1{fill:#00006C;}
	.st2{fill:none;}
	.st3{fill:#FFD773;}
	.st4{fill:none;stroke:#FFF7DF;stroke-miterlimit:10;}
	.st5{fill:#FFDC85;}
</style>
<g>
	<path class="st0" d="M476.9,95.9c-36.2,0-148.4-73.5-181-73.5s-116.8,26.2-163,26.2S15.6-10.2-23.7,26.6l5.4,22c0,0,0,0,38,0
		c11.8,0,23.9,2.8,35.8,6.6c17.4,7.7,33.2,22.4,46.9,25.1c16.9,3.3,80.9,3.9,99.4,7.5c18.5,3.6,73.8,40.7,96,45
		c22.2,4.3,28.8,1.6,7.6-2.6c-20.7-4-76.2-57.1-96.2-62.6c33.8-4.9,68-17.4,83.8-17.4c31.7,0,135.8,49.9,173.9,49.9
		S513.1,95.9,476.9,95.9z"/>
	<g>
		<path class="st1" d="M83.6,54.6c5.8,3.2,11.6,6.4,17.6,9c6,2.6,12.4,4.3,18.9,5.4c12.9,2.3,26.2,2.3,39.4,2.6
			c6.6,0.2,13.2,0.6,19.8,1.3l4.9,0.6c1.6,0.3,3.3,0.6,4.9,0.8c1.6,0.2,3.3,0.7,4.9,1.1l2.4,0.6l2.4,0.8c6.4,1.9,12.5,4.8,18.1,8.3
			c5.6,3.6,10.7,8,15,13c-4.6-4.7-9.8-8.8-15.5-12.2c-5.6-3.4-11.7-6-18-7.7c-6.3-1.7-12.8-3-19.3-3.6c-6.5-0.6-13.1-0.9-19.7-1.1
			c-6.6-0.2-13.2-0.4-19.8-0.8c-6.6-0.4-13.3-1-19.8-2.4c-6.5-1.3-13-3.2-19-6.1C94.8,61.6,89.1,58.2,83.6,54.6z"/>
	</g>
	<g>
		<path class="st1" d="M157,63c8.3-1,16.4-2.8,24.4-5.2c8-2.3,15.8-5.1,23.6-8.1c7.8-2.9,15.6-5.8,23.6-8.5c7.9-2.6,16-5,24.3-6.6
			c16.5-3,33.5-3.4,50.1-1c8.3,1.2,16.5,3.1,24.5,5.7c8,2.6,15.7,5.8,23.1,9.8c-7.5-3.6-15.3-6.6-23.3-8.8c-8-2.3-16.1-4-24.4-5.1
			c-16.5-2.1-33.3-1.7-49.5,1.4c-16.3,3-31.9,9-47.7,14.5c-7.9,2.7-15.8,5.4-23.9,7.5C173.6,60.9,165.4,62.5,157,63z"/>
	</g>
	<g>
		<path class="st1" d="M277.7,40.3c5.1-0.7,10.2-0.6,15.3-0.1c5.1,0.6,10.1,1.7,15.1,3.1c9.9,2.7,19.4,6.5,29,9.7
			c9.6,3.2,19.5,5.8,29.4,8.2c9.9,2.3,19.9,4.4,29.8,6.6c-10.1-1.5-20.2-3.1-30.2-5.1c-10-2-19.9-4.6-29.7-7.8
			c-9.7-3.3-19.1-7.1-28.8-10.1C298,41.8,288,39.7,277.7,40.3z"/>
	</g>
	<g>
		<path class="st3" d="M284.5,21.8c17.1,0.8,34.1,5.1,50.2,11.3c8.1,3,15.9,6.6,23.7,10.2c7.8,3.7,15.3,7.7,22.9,11.7
			c7.5,4.1,15,8.1,22.6,12.1c7.5,4,15.1,7.8,22.8,11.5c7.7,3.6,15.5,7,23.5,9.9c8,3,16.1,5.3,24.7,6.1c-8.6,0.4-17.2-1.4-25.5-3.8
			c-4.1-1.2-8.2-2.6-12.3-4c-4-1.5-8.1-3-12-4.7c-8-3.3-15.7-7-23.4-10.8c-7.7-3.9-15.2-7.9-22.8-11.9c-7.5-4.1-15.1-8-22.7-11.9
			c-7.6-3.9-15.3-7.5-23.1-10.8C317.6,30,301.4,24.7,284.5,21.8z"/>
	</g>
</g>
<g>
	<path class="st0" d="M866.3,592.5c-46.2,0-130.4-26.2-163-26.2c-32.6,0-134.9,72.5-171.1,72.5c-73.6,0-4.5,6.2,0,6.2
		c38,0,136.3-48.7,167.9-48.7c1.4,0,34.3,5.6,36,5.6c-7,0.2-38.8,0.9-44.1,2.8c-20.6,7.3-89.6,47.8-112.1,55.8
		c-22.5,8-93.4,4.3-120.4,14c-27,9.6-38.2,16.3-12.5,7.2c25.7-9.2,131.7,2,154.9-6.2c23.2-8.2,61.7-37.2,94.6-48.9
		c28.6-10.2,105.1-9.5,108.7-12.8c28.2,4,77.6,7.5,89.8,7.5c29,0,46.3-28.8,84.4-28.8c38,0,38,0,38,0l5.4-22
		C983.6,533.7,912.5,592.5,866.3,592.5z"/>
	<g>
		<path class="st1" d="M1002,583.2c-16.7-4.5-34.7-3.9-51.1,1.4c-4.1,1.3-8.1,2.9-12,4.8c-1,0.5-1.9,0.9-2.9,1.5
			c-0.9,0.5-1.9,1-2.8,1.6c-1.8,1.1-3.6,2.3-5.4,3.5c-3.6,2.4-7.1,4.9-10.9,7.2c-3.7,2.3-7.6,4.3-11.8,5.7c-8.4,2.8-17.3,3.3-26,2.7
			c-8.7-0.6-17.3-2-25.8-3.3c-17.1-2.5-34.3-3.9-51.6-4.1c-34.5-0.5-69.2,3.6-102.6,12.4c-4.1,1.2-8.1,2.7-11.9,4.8
			c-3.8,2-7.3,4.5-10.9,6.9c-7.2,4.9-14.5,9.6-21.9,14c-14.9,8.9-30.3,16.8-46.2,23.8c15.7-7.4,31-15.5,45.7-24.6
			c7.4-4.5,14.6-9.3,21.7-14.2c3.5-2.5,7.1-5,10.9-7.1c3.8-2.2,8-3.7,12.1-5c16.8-4.7,33.8-7.9,51.1-10c8.6-1,17.3-1.9,25.9-2.3
			c4.3-0.3,8.7-0.4,13-0.5c4.3,0,8.7-0.2,13,0c17.4,0.2,34.7,1.7,51.9,4.3c8.6,1.3,17.1,2.8,25.7,3.4c8.6,0.6,17.3,0.2,25.4-2.4
			c8.2-2.6,15.2-7.7,22.5-12.5c1.8-1.2,3.6-2.4,5.5-3.5c0.9-0.5,1.9-1,2.9-1.6c0.9-0.5,1.9-1,2.9-1.5c3.9-1.9,8-3.5,12.2-4.8
			C967.3,578.6,985.4,578.3,1002,583.2z"/>
	</g>
	<g>
		<path class="st1" d="M574.9,629.8c8.6-3.7,17.3-7.2,25.9-10.9l26-10.7c8.7-3.6,17.4-7,26-10.6l13-5.3c4.4-1.7,8.6-3.6,13.1-5.2
			c2.2-0.8,4.5-1.4,6.9-1.9c2.4-0.4,4.8-0.7,7.1-0.7c4.8-0.1,9.5,0.5,14.1,1.4c4.6,0.9,9.2,2,13.7,3.1c4.5,1.1,9.1,2.1,13.7,2.9
			c9.2,1.6,18.5,2.6,27.8,2.9c9.3,0.4,18.7,0.1,28-0.7c-4.6,0.6-9.3,1.1-14,1.4c-4.7,0.3-9.4,0.4-14.1,0.4
			c-9.4-0.1-18.8-0.9-28.1-2.4c-2.3-0.4-4.6-0.8-6.9-1.2c-2.3-0.5-4.6-1-6.9-1.5c-4.6-1.1-9.1-2.2-13.7-3c-2.3-0.4-4.6-0.8-6.9-1
			c-2.3-0.2-4.6-0.3-6.9-0.3c-2.3,0.1-4.6,0.3-6.8,0.7c-2.2,0.4-4.4,1.1-6.6,1.8c-4.4,1.5-8.7,3.3-13.1,5l-13.1,5.2
			c-8.7,3.4-17.4,6.9-26.1,10.3l-26.2,10.2C592.4,623.2,583.7,626.6,574.9,629.8z"/>
	</g>
	<g>
		<path class="st1" d="M516,673.4c7.8,0.1,15.6,0.3,23.4,0.1c7.8-0.1,15.6-0.5,23.3-1.5c7.7-1,15.3-2.6,22.6-5.1
			c7.3-2.5,14.2-6.1,20.6-10.4c3.3-2.1,6.5-4.3,9.8-6.4c1.6-1.1,3.3-2.1,5-3.1c1.7-1,3.3-2.1,5-3.1c6.7-4,13.5-7.9,20.5-11.5
			c6.9-3.6,13.9-7.1,21-10.5c7.1-3.3,14.1-6.7,21.3-9.9l-20.8,10.7c-6.9,3.6-13.9,7.2-20.7,11c-6.8,3.8-13.6,7.6-20.3,11.7
			c-1.7,1-3.3,2-5,3.1c-1.6,1-3.3,2.1-4.9,3.2c-3.3,2.1-6.5,4.4-9.7,6.5c-6.5,4.3-13.7,8-21.1,10.5c-7.5,2.5-15.2,4.2-23,4.9
			c-7.8,0.8-15.6,1.1-23.5,1C531.6,674.3,523.8,673.9,516,673.4z"/>
	</g>
	<g>
		<path class="st1" d="M859.4,598.8c3.7,0.8,7.4,1.4,11.1,1.7c3.7,0.3,7.4,0.3,11.1-0.1c3.7-0.3,7.4-0.9,11-1.8
			c3.6-0.9,7.2-2.1,10.7-3.6c-3.1,2.2-6.6,3.8-10.2,5.1c-3.6,1.2-7.4,2-11.3,2.3c-3.8,0.3-7.7,0.2-11.5-0.4
			C866.6,601.4,862.9,600.4,859.4,598.8z"/>
	</g>
	<g>
		<path class="st3" d="M777.1,578.4c-23.1-4.2-46.3-7.4-69.5-9.4c-2.9-0.2-5.7-0.4-8.5-0.2c-2.7,0.2-5.4,0.7-8.1,1.6
			c-5.5,1.7-10.9,3.8-16.3,6c-10.8,4.4-21.2,9.5-31.5,14.9c-10.4,5.4-20.6,11.1-30.9,16.7l-15.5,8.3c-5.1,2.8-10.3,5.6-15.6,8.2
			c-10.5,5.4-21.7,9.8-33.3,12.2c-11.6,2.4-23.4,3.1-35.1,2.6c11.7-0.6,23.4-1.9,34.6-5c11.2-3,21.8-7.7,32-13.3l30.6-17.1
			c10.2-5.7,20.4-11.5,30.8-17c10.4-5.4,21.1-10.6,32.1-14.9c5.5-2.1,11.1-4.1,16.8-5.8c2.9-0.8,6-1.4,9.1-1.5
			c3.1-0.1,6.1,0.1,9.1,0.5C731.3,567.9,754.5,572.2,777.1,578.4z"/>
	</g>
	<g>
		<g>
			<g>
				<g>
					<g>
						<path class="st5" d="M564.6,664.4c0-0.1,0-0.3-0.2-0.2l-0.1,0.3L564.6,664.4z"/>
						<path class="st5" d="M563.3,664.1c-0.2,0.2-0.4,0.5-0.2,0.8c0.1-0.4,0.2-0.2,0.4-0.7c0.2-0.1,0.3,0,0.3,0.2
							c0-0.1,0.3,0,0.4-0.2c-0.3-0.2-0.6-0.1-0.9,0.1C563.2,664.2,563.3,664.1,563.3,664.1z"/>
						<path class="st5" d="M545.3,666.3l0.1,0C545.3,666.3,545.3,666.3,545.3,666.3z"/>
						<path class="st5" d="M534,666.8c0.1,0,0.1,0,0.1-0.1C534.1,666.8,534,666.8,534,666.8z"/>
						<path class="st5" d="M532.1,666.6c0,0,0.1,0,0.1,0C532.2,666.5,532.1,666.5,532.1,666.6z"/>
						<path class="st5" d="M545.3,666.3l-0.3-0.1C544.9,666.3,545.1,666.3,545.3,666.3z"/>
						<path class="st5" d="M561,665.4c0.1,0,0.1-0.1,0.1-0.1C561.1,665.3,561,665.3,561,665.4L561,665.4z"/>
						<path class="st5" d="M550.1,665.5L550.1,665.5c0.1-0.1,0.1-0.1,0.1-0.2L550.1,665.5z"/>
						<path class="st5" d="M553.9,664.9c-0.1,0-0.1,0.3-0.1,0.4c0-0.1,0.1-0.2,0.2-0.2C554,665.1,553.9,665,553.9,664.9z"/>
						<path class="st5" d="M559.9,664.4L559.9,664.4C560,664.4,559.9,664.4,559.9,664.4z"/>
						<path class="st5" d="M547.4,665.7C547.4,665.7,547.4,665.7,547.4,665.7C547.4,665.7,547.4,665.7,547.4,665.7z"/>
						<path class="st5" d="M442.9,681.7C442.9,681.6,442.9,681.6,442.9,681.7C442.9,681.7,442.9,681.7,442.9,681.7z"/>
						<path class="st5" d="M438.3,681.8L438.3,681.8c0-0.1,0-0.1,0-0.2L438.3,681.8z"/>
						<path class="st5" d="M528.6,666.3C528.6,666.3,528.6,666.3,528.6,666.3C528.7,666.3,528.6,666.3,528.6,666.3z"/>
						<path class="st5" d="M496.2,667.3c0.4,0.2-0.6,0.4,0,0.6C496.2,667.8,496.7,667.5,496.2,667.3z"/>
						<path class="st5" d="M560.9,665.3c-0.1,0-0.1,0-0.2,0C560.8,665.4,560.8,665.4,560.9,665.3z"/>
						<path class="st5" d="M496.2,667.9L496.2,667.9L496.2,667.9C496.3,668,496.2,668,496.2,667.9z"/>
						<path class="st5" d="M520.5,666.7c0,0,0.1,0.1,0.1,0.1C520.6,666.8,520.5,666.7,520.5,666.7z"/>
						<path class="st5" d="M526.5,666.9l-0.2,0C526.4,666.9,526.5,666.9,526.5,666.9z"/>
						<path class="st5" d="M517.3,667.1c-0.1,0-0.1-0.1-0.2,0c0,0,0,0,0,0C517.2,667.1,517.3,667.1,517.3,667.1z"/>
						<path class="st5" d="M514.1,667.2C514.1,667.2,514.1,667.2,514.1,667.2c0.1,0.1,0.1,0,0.2,0L514.1,667.2z"/>
						<path class="st5" d="M452.3,678.3c-0.1-0.1-0.2-0.1-0.2-0.2C452.2,678.3,451.7,678.5,452.3,678.3z"/>
						<path class="st5" d="M560.9,665.2c0,0.1,0,0.1-0.1,0.1l0.1,0C561,665.3,561,665.2,560.9,665.2z"/>
						<path class="st5" d="M517.3,669.3l-0.5,0C516.9,669.3,517.1,669.3,517.3,669.3z"/>
						<path class="st5" d="M474.7,672.1l-0.1,0.1C474.6,672.1,474.6,672.1,474.7,672.1z"/>
						<path class="st5" d="M515.2,669.4c-0.1-0.1-0.2-0.2-0.3-0.2c0,0,0,0-0.1,0.1L515.2,669.4z"/>
						<path class="st5" d="M452.1,678.1L452.1,678.1L452.1,678.1z"/>
						<path class="st5" d="M449,679.9c0.5-0.2,0.1-0.4,0.1-0.7c0.5-0.3,0.3,0.2,0.6,0.3c0.3-0.2,0.5-0.6,0.7-0.7
							c0,0.1,0.1,0.1,0.1,0.1c0.3-0.4,1.1-0.4,1.4-0.9c0,0,0.1,0,0.1,0.1c-0.1-0.2-0.2-0.3-0.2-0.5c0.2-0.1,0.3-0.4,0.5-0.2
							c-0.1,0-0.1,0.1-0.1,0.2l0.2-0.2c0.3,0.3-0.3,0.2-0.2,0.5c0.4-0.3,0.8-0.7,1.2-0.7c0.2,0.3-0.7,0.4-0.2,0.5l-0.5,0.1
							c0.6,0.4-0.3,0.1,0.2,0.5c0.7-0.1,0.7-0.4,1.4-0.6c0.1-0.2-0.1-0.2-0.1-0.5c0.8-0.6,1,0.6,1.6-0.1c0.1-0.3,0-0.7,0.6-0.7
							l0,0.4c0.7-0.2,0.2-0.6,1-0.6c-0.1,0.2-0.5,0.3-0.4,0.3c0.5,0.1,0.2-0.3,0.6-0.4l0.2,0.3c0.7-0.3,1.4-0.8,2.1-1.1
							c0,0.1-0.1,0.3,0.1,0.3c0.9-0.5,2.1-0.6,3.1-0.7l0.3-0.4c0.1,0,0.2,0.1,0.1,0.2c0.4,0,0-0.2,0.1-0.3c0.2-0.1,0.3,0.1,0.2,0.2
							c0.6-0.4,1.7-1,2.5-0.9l-0.1,0.1c0.6,0,0.5-0.7,1-0.6l-0.1,0.1c1.2-0.1,2.4-0.7,3.4-0.5c0.1-0.5,1.2-0.1,1.1-0.7
							c0.7,0.1,0.6,0.3,1.5,0.3c0.3,0,0.3-0.4,0.6-0.5l0.1,0.3l0.4-0.4l0.3,0.3l0.3-0.1c-0.1,0-0.3-0.1-0.3-0.2
							c0.4-0.2,1.2,0,1.2,0.2l1-0.5c0,0.1-0.2,0.2-0.3,0.3c0.5-0.4,0.2,0.3,0.6-0.1c-0.1-0.1,0-0.2,0-0.3c0.3,0.1,0.9,0,1.3-0.1
							l-0.1,0.2c0.8-0.1,1.7-0.3,2.6-0.4c-0.3-0.1-0.3-0.4-0.1-0.5l0.2,0.3c0.1-0.2-0.3-0.1,0-0.4c0.3,0,0.3,0.3,0.1,0.5l0.4-0.2
							c0,0.1-0.1,0.2-0.1,0.3c0.1-0.2,0.8,0.2,0.9-0.2l0,0.1c0.9-0.1,1.3-0.3,2-0.4c0-0.3,0.3-0.2,0.5-0.5c0.6,0,1.2,0.2,1.8,0.1
							c0.4-0.2,0.1-0.2,0.3-0.4c0.1,0.3,0.7,0.2,0.4,0.4c0.8-0.1,1-0.1,2-0.5c-0.1-0.1-0.2-0.1-0.2-0.2c0.2-0.1,0.4,0.1,0.4,0.2l0,0
							c1.1-0.5,2.6,0.6,3.5,0l0,0l0.9-0.3c0.4,0-0.2,0.2,0.1,0.3c1-0.5,1.6,0,2.4-0.4c0.7,0.7,2.3-0.2,3.2,0.3l-0.1-0.2
							c0.2-0.2,0.3,0.1,0.4,0.1c0-0.1-0.2-0.1-0.1-0.3c1.9-0.3,3.9,0.1,5.9,0.2c0.7,0,0.4-0.9,1.3-0.5l-0.2,0.3
							c1.4-0.4,2.9-0.1,4.3-0.4c-0.1,0.1-0.1,0.2-0.2,0.2c0.3,0.2,1.1,0,1.1-0.2c0.2,0,0.1,0.2,0.2,0.3c0.3,0.1,0.7-0.3,0.9-0.1
							c0,0-0.1,0.1-0.1,0.1c0.2-0.1,0.9,0,0.7-0.3c0.5,0.1,1-0.1,1.4,0c0.3-0.3,0.9,0.1,1-0.3c0,0.5,0.9,0.3,1.3,0.1
							c-0.1,0.1,0.3,0.1,0.2,0.3c0.4,0,0.7-0.1,0.7-0.3c0.7,0.5,1.4-0.5,1.8,0.2c1.1-0.3,2.2-0.4,3.2-0.6c0,0.5-1.1,0.1-1.1,0.5
							c1-0.2,1.5-0.6,2.5-0.5c0.2,0.1-0.1,0.2-0.2,0.3c1-0.2,1.9,0,2.7-0.3c0,0-0.1,0.1-0.2,0.1c0.2,0,0.4,0.1,0.4-0.1l-0.2,0.1
							c-0.3-0.3,0.7-0.6,0.7-0.8c-0.3,0.6,0.9,0.1,0.4,0.9c0.1,0,0.2-0.1,0.2-0.3c0.2,0,0.2,0.1,0.1,0.3c0.6-0.1,0.4-0.3,0.9-0.4
							c0,0.1-0.1,0.1-0.2,0.3c0.3-0.2,0.5-0.4,1-0.3c0,0.1,0,0.1-0.1,0.1c0.8-0.1,1.3-0.6,2.2-0.4c-0.2,0.4,0.3,0.1,0.4,0.5l0.5-0.1
							l-0.2-0.2c0.4,0,0.8-0.3,1.1-0.2l-0.3,0.2l0.8-0.1l-0.4-0.1c0.4-0.2-0.1-0.5,0.5-0.4c-0.1,0,0.4,0,0.6,0.2l0,0
							c0.2-0.1,0.4-0.3,0.7-0.2c0.1,0.1,0,0.4,0,0.5c0.2-0.3,1-0.1,1.2-0.5c-0.1,0.1-0.1,0.3,0,0.3l0.2-0.3c0.2,0.1,0.2,0.1,0.2,0.3
							c0.6,0-0.2-0.5,0.5-0.3c-0.1,0,0,0.1-0.1,0.1c0.7,0.1,1.3-0.2,1.9-0.1c0.2,0.4-0.5,0.1-0.3,0.4c0.9-0.1,1.8-0.6,2.7-0.6
							l-0.2,0c0.1-0.5,0.7,0.2,1.1-0.1c-0.1,0-0.1,0.3-0.1,0.2c0.6,0,1.2-0.2,2.1-0.5l-0.1,0.1c0.4,0.1,0.9,0,1.3,0
							c0.1-0.1,0.3-0.2,0.2-0.3c1.3,0.6,2.2-0.7,3.3-0.1c-0.1,0-0.3,0.2-0.2,0.1l0.9-0.2c-0.1-0.2-0.1-0.1-0.3-0.3
							c0.1-0.1,0.3-0.3,0.6-0.3c-0.4,0.2,0,0.4,0.2,0.5c0-0.1,0-0.2,0-0.2c0.5,0.4,0-0.5,0.7-0.3l0,0.1c0.2-0.1,0.4-0.3,0.7-0.3
							c0.1,0.3-0.2,0.2-0.2,0.4c0.4-0.1,0.6-0.6,1-0.4c-0.1,0.1-0.4,0.1-0.5,0.2c0.4,0.3,0.4,0.2,0.7,0.2l0,0l0.6,0l-0.2-0.1
							c0.3-0.8,0.9-0.3,1.4-0.8c-0.5,0.5-0.1,0.3-0.1,0.6c0.2,0.1,0.4,0.1,0.4,0.2c0.2-0.3,0.5,0.1,0.9-0.3c0,0.1,0.3,0,0.3,0.2
							c0.4-0.1-0.1-0.2-0.1-0.3c0.5-0.4,1.4,0.2,2.2-0.4c0.7-0.3,0.7-0.7,1.4-1c0.2,0.1-0.1,0.4-0.1,0.4c0.4,0.1,0.6,0,1-0.2
							c-0.1,0.1,0,0.2,0.2,0.2c0.3-0.1,0.1-0.4,0.5-0.3c0,0.1-0.1,0.3-0.2,0.4c0.3-0.2,0.6-0.4,0.9-0.5c0.1,0.1-0.1,0.3-0.2,0.4
							c0.4-0.2,0.9-0.3,1-0.6l-0.3,0c0.1,0,0.1,0.2,0,0.3c-0.3,0.3-0.5,0-0.5-0.1l0.2-0.1c-0.4-0.5-0.9,0.3-1.4,0.3l0.1-0.4
							l-0.4,0.4c-0.1-0.1-0.2-0.3,0-0.4c-0.4-0.1-0.3,0.2-0.6,0c0,0,0-0.1,0-0.1l-0.3,0.2c0-0.1-0.1-0.3,0.1-0.3
							c-0.6-0.1-0.9,0.5-1.2,0.2l0,0c-0.8,0.3,0,0.3-0.6,0.8l-0.5-0.7l0,0.3c-0.1,0-0.3,0-0.2-0.1c-0.3,0.3,0.1,0.1-0.1,0.3
							c-0.5-0.2-1.1,0.3-1.3-0.2c-0.1,0.3,0.4,0.1,0,0.3c-0.2-0.5-0.5,0.2-0.9,0c0.1-0.3,0.4-0.2,0-0.4c-0.2,0.5-0.7,0-1,0.1
							c0,0.4-0.7,0.3-1.2,0.5c0-0.1-1-0.1-1.5-0.1l0-0.1c0,0.4-0.6,0.4-0.9,0.5c0-0.2,0-0.3,0.2-0.4l-0.3,0
							c-0.1,0.1-0.2,0.2-0.4,0.3l0.1-0.3c-0.5,0.1-0.9,0.4-1.5,0.3c0,0.3,0.6,0.7-0.1,0.9c0-0.1-0.1-0.4,0.1-0.4
							c-0.1,0-0.2,0.1-0.3,0.1l0.2-0.3c-0.3-0.1-0.1,0.2-0.3,0.2c0-0.2-0.2-0.1-0.2-0.3c0.1,0,0.2,0.1,0.3,0c-0.2,0-0.6-0.1-0.7-0.2
							c0,0.1,0,0.3-0.1,0.3c-0.5,0.1-0.2-0.2-0.5-0.3c-0.1,0.1-0.4,0-0.4,0.3c-0.1,0-0.2-0.1-0.2-0.2c-0.2,0.2-1.1,0.1-0.8,0.4
							l0.1,0l0,0l0,0l0,0c-0.8,0.4-1.7,0-2.4,0.2l0-0.1c-0.5,0.1-1,0.1-1.3,0.4c-0.1,0-0.3-0.2-0.3-0.3c-0.4,0.1-0.4,0.2-0.9,0.1
							c0.3-0.2-0.1-0.1,0.4-0.2c-0.5,0-0.6-0.2-1.1,0.1c0.2-0.3-0.4-0.3-0.6-0.2l0.3,0.2c-0.2,0.1-0.5,0-0.7,0l0.1-0.3
							c-1-0.4-1.7,0.8-2.4,0.1c-0.2,0.2,0.5,0.1,0.3,0.4c-0.4,0-0.9-0.5-1.1-0.5c-0.6-0.2-0.5,0.5-1.2,0.4c0.1,0.1,0.2,0.4-0.3,0.6
							c-0.4,0-0.6-0.5-0.3-0.6c0.1,0,0.2,0,0.2,0.1c0.1-0.1,0.3-0.1,0.1-0.2l-0.1,0.1c-0.2-0.1-0.8-0.1-0.7-0.3
							c-0.3,0.1-0.1,0.2,0.1,0.3c-0.6-0.2-0.9,0-1.5-0.1c0.1,0.1,0.2,0.2,0.1,0.2c-0.9-0.1-0.4,0.2-0.9,0.3
							c-0.3-0.2,0.1-0.4-0.5-0.3c-0.4-0.1-0.1-0.3,0.1-0.4c-0.5,0.2-1-0.1-1.3-0.1l0.3-0.1c-0.2,0.1-0.3,0.1-0.4,0.1l0.2,0.2
							c-0.2,0-0.3,0-0.3-0.1c-0.2,0.2,0.1,0.4-0.2,0.6c-0.2-0.1-0.7,0.2-0.7-0.2c0.7,0.1-0.1-0.3,0.5-0.4c-0.1,0-0.2,0-0.4,0
							c0,0,0-0.1,0.1-0.1c-0.7-0.3-0.3,0.4-1,0.4c0.1-0.2-0.2-0.3-0.3-0.3c0.3,0,0.1,0.3-0.1,0.4c-0.4-0.1-0.5,0.1-0.7,0.1l0.3,0.1
							c-0.1,0.2-0.3,0.2-0.6,0.2c0-0.1,0.3-0.1,0.2-0.2c-0.3,0.3-0.8-0.3-1.2-0.1c-0.2-0.1,0-0.3-0.2-0.4c-0.5,0.2-0.6-0.2-1.1,0
							c0.2,0.2,0.2,0.2-0.2,0.4l0.9-0.2l-0.6,0.4c0.3,0,0.6-0.2,0.7-0.1c-0.3,0.2-0.2,0.1-0.1,0.3c-0.4-0.3-0.7,0.2-1.2,0l0-0.6
							c-0.7-0.2-1.2,0.3-2,0.2l0.3,0.1c-0.1,0.2-0.5,0-0.8,0.1c0-0.2-0.2-0.3-0.3-0.4c0,0.1-0.6,0-0.7,0.4l-0.4-0.3
							c-0.7-0.1-0.8,0.6-1.4,0.5c0.2-0.2-0.1-0.4,0.3-0.5c-0.2,0-0.4,0-0.4,0.1c-0.1-0.1-0.6,0.3-0.8,0.1c-0.1,0.1-0.1,0.3-0.4,0.3
							c0,0,0-0.1,0-0.1c0,0.1-0.4,0.1-0.2,0.4c-0.7-0.6-1.9,0.1-2.5-0.4c-0.5,0.1-1.1,0.1-1.5,0.2c0-0.1,0-0.1,0.1-0.1
							c-0.6-0.2-0.4,0.6-1,0.4c-0.4-0.3,0.4-0.2,0.1-0.3c-0.1-0.6-0.8,0.1-1.3-0.3l0.1,0c-0.4-0.2-0.9,0.3-1.4,0.2c0,0,0-0.1,0-0.1
							c-0.4,0.3-1.1,0.5-1.7,0.6c0.2-0.3,0.2-0.1,0.1-0.4c-0.2,0,0.1,0.4-0.4,0.5c-0.2-0.1-0.5-0.2-0.6-0.5l0.5,0
							c-0.2-0.4-0.6,0-0.9,0l0-0.2c-0.7,0.1-0.7,0.5-1.5,0.5l0.1,0.1c-0.4,0.4-0.4-0.2-0.8,0.1l-0.1-0.4c-0.3,0.1-1,0.4-1.5,0.5
							c0.3-0.3,0.8-0.5,1.2-0.6c-0.3,0-0.9,0.1-1.1,0.3c0.1,0,0.2-0.1,0.4-0.1c-0.3,0.3-0.8,0.5-1.3,0.5c0.1-0.8-1.4-0.1-1.9-0.7
							c-1,0.3-1.9,0-3.1,0.1c0.4,0.6-0.3,0-0.2,0.6c-0.3,0.1-0.4,0-0.4,0l-0.8-0.3c-0.2-0.2,0.2-0.2,0.2-0.3c-0.6,0-0.3-0.2-0.6-0.4
							c0.1,0.2-0.2,0.3-0.5,0.3l0.5,0.3c-0.8,0.4-0.7-0.5-1.5-0.1l0.2-0.2c-0.4,0.1-1.5,0.1-1.9,0.6c-0.1-0.1-0.2-0.2,0-0.3
							c-1,0-2.2,0.7-3,0.5l0.1-0.2c-0.2,0.1-0.3,0.3-0.5,0.2c0-0.1,0.1-0.2,0-0.2c-0.1,0.1-0.5,0.3-0.7,0.2l0.2-0.2
							c-1-0.1-1.5,0.6-2.3,0.7c0-0.4-0.8-0.5-1.2-0.5l0-0.1c-1.1,0.1-1.9,0.6-2.9,0.9c-0.7-0.4-2.2,0.1-3.3,0c0.2,0.1,0,0.3-0.2,0.4
							c-0.3-0.1-0.6,0.4-0.6,0l0.1,0c-0.2-0.4-0.7-0.2-1.1-0.1l0,0.5c-1.2-0.6-2.6,0.8-3.3,0.2c-0.2,0.2-0.5,0.2-0.7,0.4l0-0.3
							c-0.7,0-1,0.1-1.9,0.4l0.1-0.2c-0.5,0.1-0.4,0.9-0.8,1.1l-0.2-0.4c-0.8,0.2-1.7,0-2.5,0.6c0-0.1,0-0.2,0.1-0.2
							c-0.4,0.1-1.6,0.1-1.3,0.6c-0.1-0.4-0.9,0.2-1.2,0.5l0-0.3c-0.3,0.4-0.3,0.5-0.7,0.8c-0.1,0-0.2-0.2,0-0.2
							c-0.4,0-0.2,0.3-0.8,0.3l0.1-0.2c-0.4,0.1-0.4,0.2-0.5,0.4c-0.2,0.2-0.8,0.2-0.9-0.1c0,0.2-0.2,0.4-0.4,0.4
							c-0.1-0.1,0-0.2,0-0.2c-0.8,0-0.9,0.6-1.5,0.5c0-0.1-0.1-0.1-0.1-0.1c0.6-0.2,1-0.3,1-0.3c-0.1-0.2-0.5-0.2-0.3-0.6
							c-0.3,0.3-0.8,0.9-1.3,0.9c0,0-0.1,0-0.1-0.1l0,0c-0.1,0-0.2,0.1-0.3,0.1c-0.2,0-0.2,0-0.4,0c-0.1-0.2-0.5,0.1-0.8,0.1
							c0.1,0.3-0.2,0.3,0.1,0.4c0,0,0,0,0.2-0.1c0,0,0.1,0,0.1-0.1l0,0c0.1-0.1,0.3-0.1,0.5-0.2c-0.1,0.2-0.3,0.4-0.6,0.3
							c-0.1,0.2-0.1,0.4-0.2,0.5c-0.4-0.3-1.1-0.3-1.2-0.5c-0.6,0.4-1.5,0.6-1.8,1.3c-0.2,0.1-0.3-0.1-0.4-0.1
							c0.1-0.1,0.2-0.1,0.3-0.2c-0.3,0.3-1.1,0.4-1.1,0.8c-0.5,0,0.2-0.4-0.5-0.1l0.1-0.1c-1.5-0.1-1.8,1.6-3.5,1.4
							c0.1,0,0.2,0,0.2,0.1c-1.7,0.2-3.3,1.4-5,1.5c-0.5,0.1-0.5,0.3-0.7,0.6l-0.2-0.3l-0.4,0.5c-0.6,0.5-1.4-0.3-2.1,0.5l0.2,0.2
							c-0.3,0.1-0.9,0.4-1,0.2c0,0,0,0.2-0.2,0.2l-0.1-0.1l-0.7,0.5c-0.6,0.1-0.1-0.6-1-0.4c-0.3,0.2-0.8,0.7-0.6,0.8
							c0.1,0,0.4,0,0.4,0.1l-0.3,0.2c0.1,0.5,0,1,0.8,1l0.4-0.4l0.2,0.2l-0.4,0.2c0.3,0.1,0.4-0.1,0.5-0.3c0.1,0.1,0.2,0.2,0.3,0.2
							l0.3-0.6c0.1,0.2-0.1,0.4,0.3,0.4c0.2-0.3-0.4-0.3,0-0.6c0.3,0.1,0.3,0.3,0.5,0c0.1,0.1,0,0.2-0.1,0.3
							c0.2-0.2,0.6-0.3,0.7-0.6c0.3,0.2,0.8-0.4,0.9,0.1c0-0.1,0.3-0.5,0.5-0.6c-0.2,0.6,0.9-0.3,0.9,0.3c0.2-0.6,1-0.6,1.5-1
							c0,0-0.1,0.1-0.1,0.1c0.3-0.1,0.5,0,0.7,0.1c-0.1-0.4,0.4-0.6,0.5-1c0.5,0.2-0.1,0.5,0.2,0.8c-0.1-0.3,0.6-0.5,0.3-0.7
							c0.4,0.1,0.3,0,0.5,0.3c-0.1-0.5,0.2-0.2,0.4-0.5c0.5,0.1,0.3,0.4,0.7,0.1C449.4,679.6,449,679.9,449,679.9z M459.7,675.4
							L459.7,675.4c-0.1,0-0.2,0.1-0.2,0.1C459.5,675.5,459.6,675.4,459.7,675.4z M460.6,675.1c-0.1,0-0.3,0.1-0.4,0.1
							c-0.1-0.1-0.1-0.2,0-0.2C460.2,675.1,460.5,675.1,460.6,675.1z M458.1,673.9c0.1-0.1,0.2,0,0.2,0c-0.1,0-0.1,0.1-0.2,0.1l0,0
							C458.1,674,458.1,673.9,458.1,673.9z"/>
						<path class="st5" d="M457.9,674.3C457.9,674.3,457.9,674.3,457.9,674.3C457.9,674.3,457.9,674.4,457.9,674.3L457.9,674.3
							L457.9,674.3z"/>
						<path class="st5" d="M545.4,666.3L545.4,666.3C545.4,666.3,545.4,666.3,545.4,666.3C545.4,666.3,545.4,666.3,545.4,666.3z"/>
						<polygon class="st5" points="473.6,672.4 473.6,672.3 473.5,672.4 						"/>
						<path class="st5" d="M550.8,666.7C550.8,666.7,550.8,666.7,550.8,666.7C550.9,666.7,550.9,666.7,550.8,666.7z"/>
						<path class="st5" d="M553.1,666.5l0.3,0C553.3,666.5,553.2,666.5,553.1,666.5z"/>
						<path class="st5" d="M554.9,666.3c0-0.1,0-0.1,0-0.1l0,0L554.9,666.3z"/>
						<path class="st5" d="M526.7,668.8C526.7,668.8,526.6,668.8,526.7,668.8C526.5,668.9,526.6,668.9,526.7,668.8z"/>
						<path class="st5" d="M535.1,667.9c-0.1,0.1-0.2,0.1-0.3,0.1C535,668,535.1,668,535.1,667.9z"/>
						<polygon class="st5" points="517.3,669.3 517.3,669.3 517.3,669.3 						"/>
						<path class="st5" d="M534.4,668c0.2,0,0.3,0,0.4,0C534.7,668,534.5,668,534.4,668z"/>
						<path class="st5" d="M562.5,665.1L562.5,665.1C562.6,665,562.6,665,562.5,665.1L562.5,665.1z"/>
						<path class="st5" d="M562.6,665L562.6,665C562.7,665,562.6,665,562.6,665z"/>
						<path class="st5" d="M562.9,664.8l-0.2,0.1C562.8,664.9,562.9,664.9,562.9,664.8z"/>
						<path class="st5" d="M560.2,665.4l0,0.1C560.2,665.5,560.2,665.5,560.2,665.4z"/>
						<path class="st5" d="M559.5,665.6c0.2,0,0.5,0.1,0.7,0l0-0.1C560.1,665.7,559.6,665.4,559.5,665.6z"/>
						<path class="st5" d="M556.3,664.9l0.6,0c-0.1-0.1-0.3-0.2,0-0.3C556.1,664.4,557.1,664.8,556.3,664.9z"/>
						<path class="st5" d="M554.5,665c0.3-0.1,0-0.2,0-0.2C554.3,664.9,554.2,664.9,554.5,665z"/>
						<path class="st5" d="M541.2,666.4l0-0.3C541,666.2,541.2,666.3,541.2,666.4z"/>
						<polygon class="st5" points="538.7,667.9 539,668.1 539.1,667.8 						"/>
						<polygon class="st5" points="537.1,666.2 537.2,666.1 536.8,666.3 						"/>
						<path class="st5" d="M514.7,666.9l0.1,0.3C514.9,667.2,514.9,666.8,514.7,666.9z"/>
						<path class="st5" d="M504.9,667.4c-0.1-0.2-0.4-0.2-0.6-0.1C504.6,667.4,504.8,667.5,504.9,667.4z"/>
						<polygon class="st5" points="475.7,669.4 475.9,669.3 475.5,669.5 						"/>
					</g>
				</g>
			</g>
		</g>
	</g>
</g>
</svg>
