<?xml version="1.0" encoding="utf-8"?>
<!-- Generator: Adobe Illustrator 21.0.2, SVG Export Plug-In . SVG Version: 6.00 Build 0)  -->
<svg version="1.1" xmlns="http://www.w3.org/2000/svg" xmlns:xlink="http://www.w3.org/1999/xlink" x="0px" y="0px"
	 viewBox="0 0 1889.9 919" style="enable-background:new 0 0 1889.9 919;" xml:space="preserve">
<style type="text/css">
	.st0{fill:#C4B7B5;}
	.st1{fill:#00006C;}
	.st2{fill:none;stroke:#FFF7DF;stroke-miterlimit:10;}
	.st3{fill:#FFD773;}
	.st4{fill:none;}
	.st5{fill:#FFDC85;}
	.st6{display:none;}
	.st7{display:inline;}
</style>
<symbol  id="branch_1" viewBox="-456.8 -124.7 913.5 249.3">
	<path class="st0" d="M434.9,124.7c0,0,0,0-55.1-21.1c-55.1-21.1-132.5-2-174.5-18C163.2,69.5,34.7-32.4-11.2-50
		c-46-17.6-235.8,2.7-291-18.4c-55.1-21.1-54.5-28.2-2-8.1c9.5,3.6,41.4,0.7,58.3,1c-24.4-11-62.2-27.7-74.6-31.3
		c-20.1-5.8-94.9,2.7-119-4.3c-24.1-6.9-22.1-8.7,0.8-2.2c22.9,6.6,104.9-16.4,125.6-10.5c20.1,5.8,65.7,31.4,96,40.1
		c11.8,3.4,28,1.8,44.4,0.6C-104.6-88.9-31-97.9-4-87.6C43.2-69.6,148.7,15.2,215.6,40.8s207.4-20.3,241.1,55L434.9,124.7z"/>
	<g>
		<path class="st1" d="M417.8,90.1c-2.6-1.9-5.4-3.7-8.3-5.2c-2.9-1.5-6-2.8-9.1-3.8c-6.2-2.1-12.7-3.5-19.1-4.5
			c-6.5-1-13-1.7-19.5-2.3c-6.5-0.6-13.1-1.2-19.6-1.7c-26.1-2.1-52.4-3.3-78.6-3.8c-6.6-0.1-13.1-0.2-19.7-0.2l-9.8,0
			c-3.3,0-6.5,0.1-9.7-0.3c-3.2-0.3-6.2-1.2-9.1-2.6c-2.9-1.4-5.6-3.1-8.4-4.9l-16.6-10.6L123.9,8.1L57.4-33.9
			c-5.5-3.5-11.1-7-16.7-10.5L24.1-54.8c-11.2-6.8-22-14.3-34-19.9c-6-2.8-12.3-4.9-18.9-5.9c-6.6-1-13.2-0.9-19.7-0.7L-87.8-79
			l-78.5,4.7l78.6-3.7l39.3-1.9c6.5-0.2,13.1-0.2,19.5,0.8c6.4,1,12.6,3.1,18.5,5.9c11.7,5.6,22.6,13.1,33.7,20l16.7,10.4
			c5.6,3.5,11.1,7,16.6,10.5l66.3,42.2l66.4,42.1l16.6,10.5c2.8,1.7,5.6,3.5,8.6,5c1.5,0.7,3.1,1.3,4.7,1.8c1.6,0.5,3.3,0.8,5,0.9
			c3.3,0.4,6.7,0.3,9.9,0.3l9.8-0.1c6.5,0,13.1,0,19.6,0.1c26.2,0.3,52.4,1.3,78.5,3.2c6.5,0.5,13.1,0.9,19.6,1.5
			c6.5,0.5,13.1,1.1,19.5,2.1c6.5,0.9,12.9,2.2,19.1,4.3c3.1,1,6.1,2.3,9.1,3.7C412.4,86.5,415.2,88.2,417.8,90.1z"/>
	</g>
	<g>
		<path class="st1" d="M84.5-22.3c9.4,5.6,18.9,11.1,28.4,16.6l28.4,16.4c9.5,5.5,18.9,11,28.3,16.6c9.4,5.6,18.8,11.3,28.1,17
			c-8.9-6.4-18-12.5-27.3-18.3c-9.3-5.9-18.7-11.5-28.1-17c-9.5-5.5-19-10.8-28.7-16C104-12.3,94.2-17.4,84.5-22.3z"/>
	</g>
	<g>
		<path class="st1" d="M-247.4-89c6,2.7,12.1,5.3,18.1,7.9l18.2,7.7c6.1,2.5,12.4,4.7,19.1,5.8c6.6,1,13.3,1.1,19.9,1.2
			c13.2,0.1,26.4,0.2,39.6,0.3l19.8,0c6.6-0.1,13.2-0.1,19.8-0.3c-6.6-0.3-13.2-0.5-19.8-0.7l-19.8-0.5c-13.2-0.3-26.4-0.5-39.5-0.7
			c-6.6-0.1-13.2,0-19.6-1c-6.4-0.9-12.6-3.1-18.8-5.4l-18.4-7.2C-235.1-84.4-241.2-86.8-247.4-89z"/>
	</g>
	<g>
		<g>
			<path class="st2" d="M-294.1-96.4"/>
		</g>
	</g>
	<g>
		<path class="st3" d="M-315-102.1c-8.5-5.2-18.5-8-28.4-9.4c-10-1.4-20.1-1.3-30-0.8c-9.9,0.6-19.8,1.5-29.6,2.2
			c-9.8,0.6-19.6,0.8-29.5,0c9.6,2.9,19.7,3.8,29.6,3.9c10,0.1,19.9-0.6,29.8-1.1c9.8-0.6,19.6-0.9,29.4-0.3
			C-334.1-107-324.4-105.4-315-102.1z"/>
	</g>
	<g>
		<path class="st3" d="M-29.5-53.7C-51.1-59.1-73.6-61-96-59.8c-11.2,0.5-22.2,1.4-33.2,1.3c-2.7,0-5.5-0.1-8.2-0.2
			c-2.7-0.1-5.5-0.4-8.2-0.6c-5.5-0.5-11-1.2-16.6-1.7c-11.2-0.9-22.4-1-33.6-0.9c-11.2,0.2-22.3,0.6-33.4,1
			c-22.1,0.6-44.4,0.5-66.2-4.3c10.6,3.4,21.7,5.4,32.8,6.6c11.1,1.2,22.3,1.5,33.5,1.6c11.2,0.1,22.3-0.2,33.4-0.1
			c11.1,0,22.1,0.2,33.1,1.1c5.5,0.4,11,1.1,16.6,1.6c5.6,0.5,11.3,0.8,16.9,0.7c11.3-0.2,22.4-1.3,33.4-2.2
			C-73.7-57.8-51.5-57.1-29.5-53.7z"/>
	</g>
</symbol>
<symbol  id="branch_2" viewBox="-218.4 -77.1 436.7 154.3">
	<path class="st0" d="M218.4,2.4L211.6,20c0,0,0,0-31.2-3.5c-31.2-3.5-67.7,16.3-91.4,13.6C70.7,28,17,12.4-18.7,3.9
		C-36,5.3-51.1,6.8-59.4,8.6c-25.5,5.5-88.3,57.4-118.9,64.1c-30.6,6.6-43.7,5.5-14.6-0.8c18.3-4,90.8-61.8,127.8-80.7
		c-31.3,5.9-110.5,28.7-127,26.8c-31.2-3.5-36.1-8.2-6.4-4.8c29.7,3.4,126.9-42.8,153.6-39.8c8,0.9,34.8,4.2,34.3,4.3
		c27.9-0.1,58.3-0.3,78.3-4.6C104.9-35,150.3-94.8,189.4-72l0,18.7c0,0,0,0-30.6,6.6c-30.6,6.6-57.6,36.9-81,42
		C72.6-3.6,64-2.5,53.5-1.6C65.9,2,77.7,4.8,87.5,5.9C125.4,10.2,190-31.4,218.4,2.4z"/>
	<g>
		<path class="st1" d="M-102.1,24.9c7.9-8,17.5-14.1,27.7-18.3c5.1-2.2,10.4-3.9,15.8-5.3c5.4-1.4,10.9-2.3,16.4-3
			c11.1-1.3,22.2-1.5,33.4-1C-3.2-2.5,2.4-2.1,8-1.6c5.6,0.5,11,1.2,16.3,2.9C29.5,3,34.7,5.2,39.9,7.1c5.3,2,10.6,3.8,16,5.2
			c5.4,1.5,11,2.6,16.6,3.1c5.6,0.5,11.3,0.3,16.9-0.2c5.6-0.5,11.1-1.2,16.7-1.7l16.7-1.8c11.1-1.3,22.2-2.5,33.4-3.8
			c-11.2,0.9-22.3,1.9-33.5,2.8c-11.1,1-22.3,2.1-33.4,3c-5.6,0.4-11.1,0.5-16.6,0c-5.5-0.5-11-1.6-16.3-3.1
			c-5.4-1.5-10.6-3.3-15.8-5.3c-5.2-1.9-10.4-4.2-15.8-5.9C19.4-2.3,13.7-3,8.1-3.5C2.5-3.9-3.1-4.3-8.7-4.6
			C-19.9-5-31.2-4.8-42.3-3.2c-5.6,0.8-11.1,1.8-16.5,3.3c-5.4,1.5-10.8,3.3-15.9,5.6C-85,10.3-94.5,16.6-102.1,24.9z"/>
	</g>
	<g>
		<path class="st1" d="M-5.7-15.9c8.7,0.6,17.4,1.2,26.1,1.7c8.7,0.5,17.4,1.1,26.1,1.5c8.7,0.4,17.6,0.1,26.2-2
			C81.3-16.9,89.4-20.6,97-25c7.6-4.5,14.6-9.6,21.7-14.8c7-5.2,14-10.3,21.4-14.8c7.4-4.5,15.2-8.4,23.5-10.9
			c4.1-1.2,8.4-2.2,12.7-2.6c4.3-0.4,8.7-0.3,13,0.2c-4.3-0.8-8.7-1-13.1-0.7c-4.4,0.3-8.7,1.1-12.9,2.2c-8.5,2.4-16.5,6.2-24,10.6
			c-7.6,4.4-14.7,9.6-21.7,14.7c-7.1,5.1-14.1,10.2-21.6,14.5c-7.4,4.4-15.3,8.1-23.7,10.2c-8.3,2.2-17.1,2.4-25.7,2.3
			c-8.7-0.2-17.4-0.6-26.1-0.9C11.8-15.4,3.1-15.7-5.7-15.9z"/>
	</g>
	<g>
		<path class="st1" d="M-46.7-10.4c4.7-1.5,9.6-2.1,14.4-2c4.8,0.1,9.7,0.6,14.5,1.3c2.4,0.3,4.8,0.7,7.3,1.1c2.4,0.3,4.9,0.7,7.3,1
			c4.9,0.6,9.8,1.2,14.7,1.6C6.7-8.6,1.9-9.6-3-10.6c-4.8-0.9-9.6-1.8-14.5-2.5c-4.9-0.7-9.9-1.2-14.8-0.9
			C-37.3-13.8-42.3-12.7-46.7-10.4z"/>
	</g>
	<g>
		<path class="st1" d="M-69.4-5.6C-79.8,0.1-89.9,6.4-99.8,13c-9.9,6.6-19.6,13.4-29.3,20.2c-9.7,6.8-19.4,13.6-29.3,20.2
			c-9.9,6.5-19.9,12.9-30.3,18.7c10.7-5.2,21.1-11.1,31.1-17.4c10.1-6.3,19.9-13.1,29.6-19.9l29.1-20.6C-89.2,7.4-79.4,0.7-69.4-5.6
			z"/>
	</g>
	<g>
		<path class="st3" d="M-62.2,10.9c-11.6,3-22.6,7.9-33.1,13.6c-10.5,5.7-20.6,12.1-30.6,18.5c-10,6.4-19.9,12.8-30.2,18.5
			c-10.3,5.7-21,10.7-32.4,14.4c11.8-1.7,23.3-5.8,34.1-10.9c10.9-5.1,21.1-11.4,31.1-17.8c10-6.5,19.8-13.1,29.8-19.4
			C-83.3,21.6-73.1,15.8-62.2,10.9z"/>
	</g>
	<g>
		<path class="st3" d="M-188.9,18.5c5.3,1.4,10.9,1.4,16.3,0.8c5.4-0.6,10.7-1.9,15.9-3.3c5.2-1.4,10.3-2.9,15.4-4.6
			c5.1-1.7,10.1-3.6,15-6c-5.4,0.4-10.8,1.2-16,2.2c-5.3,1-10.5,2.2-15.7,3.6c-5.2,1.4-10.2,2.9-15.3,4.2
			C-178.4,16.7-183.5,17.8-188.9,18.5z"/>
	</g>
	<g>
		<path class="st3" d="M-0.8,6.9c13.7,5.2,27.5,9.9,41.3,14.5c6.9,2.3,13.9,4.5,20.9,6.6c7.1,2,14.3,3.7,21.7,4.7
			c3.7,0.5,7.5,0.7,11.2,0.7c3.8,0,7.5-0.2,11.3-0.9c0.9-0.1,1.9-0.3,2.8-0.5l2.7-0.6c1.8-0.5,3.6-0.9,5.4-1.4
			c3.6-1,7.1-2.2,10.5-3.5c6.9-2.5,13.6-5.3,20.5-7.6c6.8-2.3,13.9-4,21.2-4.6c-7.3-0.5-14.7,0.5-21.9,2.2c-7.2,1.8-14.1,4.1-21,6.2
			c-6.9,2.1-13.8,4.2-20.9,5c-7,1-14.1,0.9-21.1-0.1c-7.1-0.8-14.1-2.5-21.1-4.3c-7-1.8-14-3.9-21-5.8C27.5,13.8,13.4,10.1-0.8,6.9z
			"/>
	</g>
</symbol>
<symbol  id="branch_3" viewBox="-320.7 -69.3 641.4 138.7">
	<path class="st0" d="M150.5,32.3c-50.2,0-141.7,28.5-177.1,28.5S-173.1-18-212.5-18c-80,0-4.9-6.7,0-6.7
		c41.3,0,148,52.9,182.5,52.9c1.6,0,37.3-6,39.2-6.1C1.5,21.8-33,21-38.7,19c-22.4-8-97.3-51.9-121.8-60.6
		C-185-50.3-262-46.4-291.3-56.8c-29.4-10.5-41.5-17.7-13.6-7.8s143.1-2.2,168.3,6.7c25.2,9,67.1,40.4,102.7,53.1
		C-2.8,6.3,80.3,5.6,84.2,9.2C114.9,4.8,168.4,1,181.8,1c31.5,0,50.4,31.3,91.7,31.3c41.3,0,41.3,0,41.3,0l5.9,23.9
		C277.9,96.2,200.7,32.3,150.5,32.3z"/>
	<g>
		<path class="st1" d="M297.9,42.4c-18.2,4.9-37.7,4.3-55.5-1.5c-4.4-1.4-8.8-3.1-13-5.3l-1.6-0.8c-0.5-0.3-1-0.6-1.5-0.8
			c-1-0.6-2-1.1-3.1-1.7c-2-1.2-4-2.5-5.9-3.8c-3.9-2.6-7.7-5.3-11.8-7.8c-4-2.5-8.3-4.7-12.8-6.2c-9.1-3.1-18.8-3.5-28.2-2.9
			c-9.5,0.6-18.8,2.2-28.1,3.6c-18.6,2.7-37.3,4.3-56.1,4.4c-4.7,0.1-9.4,0-14.1,0c-4.7-0.2-9.4-0.2-14.1-0.5
			c-9.4-0.4-18.7-1.3-28-2.4c-9.3-1.1-18.6-2.6-27.8-4.3c-4.6-0.9-9.2-1.8-13.8-2.9c-4.6-1-9.2-2-13.6-3.4C-35.6,4.9-39.9,3.3-44,1
			c-4.1-2.2-8-4.9-11.8-7.5c-7.8-5.3-15.7-10.4-23.8-15.3c-16.2-9.6-33-18.3-50.1-25.9c17.1,7.9,33.7,16.8,49.6,26.7
			c8,4.9,15.9,10.1,23.6,15.5c3.9,2.7,7.7,5.4,11.9,7.7c4.2,2.3,8.6,4.1,13.2,5.4c18.2,5.1,36.8,8.5,55.5,10.9
			c9.4,1.1,18.7,2,28.2,2.5c4.7,0.3,9.4,0.4,14.1,0.6c4.7,0,9.4,0.2,14.1,0c18.9-0.2,37.7-1.9,56.3-4.6c9.3-1.4,18.6-3,27.9-3.7
			c9.3-0.6,18.8-0.2,27.6,2.6c4.4,1.4,8.6,3.5,12.6,5.9c4,2.4,7.9,5.1,11.8,7.7c2,1.3,4,2.6,6,3.8c1,0.6,2.1,1.1,3.1,1.7
			c0.5,0.3,1,0.6,1.6,0.8l1.6,0.8c4.2,2.1,8.7,3.8,13.2,5.2C260.2,47.3,279.8,47.6,297.9,42.4z"/>
	</g>
	<g>
		<path class="st1" d="M-166.1-8.3c9.4,4,18.8,7.8,28.2,11.8l28.2,11.6c9.4,3.9,18.9,7.6,28.3,11.5l14.2,5.7
			c4.7,1.9,9.4,3.9,14.2,5.6c2.4,0.8,4.9,1.6,7.5,2c2.6,0.5,5.2,0.7,7.7,0.8c2.6,0,5.2-0.1,7.7-0.4c2.6-0.3,5.1-0.7,7.6-1.2
			c5-1,10-2.2,14.9-3.4c4.9-1.2,9.9-2.2,14.9-3.1c5-0.9,10-1.6,15.1-2.1c5-0.5,10.1-0.9,15.2-1.1c10.1-0.5,20.3-0.1,30.5,0.8
			c-5-0.7-10.1-1.2-15.2-1.5c-5.1-0.3-10.2-0.4-15.3-0.4c-10.2,0.2-20.4,1-30.5,2.6c-2.5,0.4-5,0.9-7.5,1.3c-2.5,0.5-5,1-7.5,1.6
			c-5,1.2-9.9,2.4-14.9,3.3c-2.5,0.5-5,0.8-7.5,1.1c-2.5,0.2-5,0.4-7.5,0.3c-2.5-0.1-5-0.3-7.4-0.8c-2.4-0.5-4.8-1.2-7.2-2
			c-4.7-1.6-9.5-3.6-14.2-5.5l-14.2-5.6c-9.5-3.7-18.9-7.5-28.4-11.2l-28.4-11.1C-147.1-1-156.6-4.7-166.1-8.3z"/>
	</g>
	<g>
		<path class="st4" d="M-233-55.1"/>
	</g>
	<g>
		<path class="st1" d="M-230.1-55.6c8.5-0.1,17-0.3,25.4-0.2c8.5,0.1,16.9,0.6,25.3,1.7c8.4,1.1,16.7,2.8,24.6,5.6
			c8,2.7,15.4,6.6,22.4,11.3c3.5,2.3,7,4.7,10.6,7c1.8,1.2,3.6,2.3,5.4,3.4c1.8,1.1,3.6,2.2,5.4,3.3c7.3,4.4,14.7,8.6,22.2,12.5
			c7.5,3.9,15.1,7.7,22.8,11.4c7.7,3.6,15.3,7.2,23.1,10.7L-65.4-0.5C-73-4.3-80.5-8.3-87.9-12.3c-7.4-4.1-14.8-8.2-22-12.7
			c-1.8-1.1-3.6-2.2-5.4-3.4c-1.8-1.1-3.6-2.3-5.3-3.4c-3.5-2.3-7-4.7-10.6-7.1c-7.1-4.7-14.8-8.6-23-11.4c-8.1-2.7-16.5-4.5-25-5.4
			c-8.5-0.9-17-1.2-25.5-1.1C-213.1-56.6-221.6-56.2-230.1-55.6z"/>
	</g>
	<g>
		<path class="st1" d="M143,25.4c4-0.9,8-1.6,12.1-1.9c4-0.3,8.1-0.3,12.1,0.1c4,0.3,8,1,12,2c3.9,1,7.8,2.3,11.6,3.9
			c-3.4-2.3-7.2-4.1-11.1-5.4c-3.9-1.3-8.1-2.1-12.2-2.5c-4.2-0.3-8.4-0.2-12.5,0.4C150.8,22.6,146.7,23.7,143,25.4z"/>
	</g>
	<g>
		<path class="st4" d="M276,32.3"/>
	</g>
	<g>
		<path class="st3" d="M53.6,47.5c-25,4.6-50.2,8.2-75.5,10.4c-3.1,0.3-6.2,0.4-9.2,0.2c-3-0.2-5.9-0.8-8.9-1.7
			c-5.9-1.9-11.9-4.1-17.7-6.5C-69.4,45.3-80.8,39.7-92,33.8c-11.3-5.8-22.3-12.1-33.5-18.2l-16.8-9c-5.6-3-11.2-6.1-16.9-8.9
			c-11.4-5.8-23.5-10.6-36.1-13.4c-12.6-2.7-25.4-3.5-38.2-3c12.7,0.6,25.4,2,37.6,5.3c12.2,3.2,23.8,8.4,34.9,14.4
			c5.6,3,11.1,6.2,16.6,9.3l16.7,9.3c11.1,6.2,22.2,12.5,33.5,18.4c11.3,5.9,22.9,11.5,34.9,16.1c6,2.3,12,4.5,18.3,6.3
			c3.1,0.9,6.5,1.6,9.9,1.7c3.3,0.1,6.6-0.1,9.8-0.5C3.8,58.9,29,54.2,53.6,47.5z"/>
	</g>
	<g>
		<g>
			<path class="st2" d="M-192.7-47"/>
		</g>
	</g>
	<g>
		<g>
			<g>
				<g>
					<g>
						<path class="st5" d="M-177.3-45.8c0.1,0.1,0,0.3-0.2,0.2l-0.1-0.4L-177.3-45.8z"/>
						<path class="st5" d="M-178.7-45.5c-0.2-0.2-0.4-0.5-0.2-0.8c0.2,0.4,0.2,0.2,0.4,0.7c0.2,0.1,0.4,0,0.4-0.2
							c0.1,0.1,0.3,0,0.4,0.2c-0.3,0.2-0.6,0.1-0.9-0.1C-178.8-45.7-178.7-45.6-178.7-45.5z"/>
						<path class="st5" d="M-198.3-48l0.1,0C-198.2-48-198.3-48-198.3-48z"/>
						<path class="st5" d="M-210.5-48.6c0.1,0,0.1,0,0.1,0.1C-210.5-48.5-210.5-48.6-210.5-48.6z"/>
						<path class="st5" d="M-212.6-48.3c0,0,0.1,0,0.1,0C-212.5-48.3-212.6-48.3-212.6-48.3z"/>
						<path class="st5" d="M-198.3-48l-0.3,0.1C-198.7-48-198.5-47.9-198.3-48z"/>
						<path class="st5" d="M-181.2-46.8c0.1,0,0.1,0.1,0.2,0.1L-181.2-46.8L-181.2-46.8z"/>
						<path class="st5" d="M-193-47.1L-193-47.1c0.1,0.1,0.1,0.1,0.2,0.2L-193-47.1z"/>
						<path class="st5" d="M-188.9-46.5c-0.1,0-0.1-0.3-0.1-0.4c0,0.1,0.1,0.2,0.2,0.2C-188.8-46.6-188.9-46.6-188.9-46.5z"/>
						<path class="st5" d="M-182.4-45.9l0.1,0.1C-182.3-45.9-182.3-45.9-182.4-45.9z"/>
						<path class="st5" d="M-195.9-47.4C-195.9-47.3-196-47.3-195.9-47.4C-196-47.3-196-47.4-195.9-47.4z"/>
						<path class="st5" d="M-309.5-64.5C-309.5-64.5-309.5-64.5-309.5-64.5C-309.5-64.5-309.5-64.5-309.5-64.5z"/>
						<path class="st5" d="M-314.5-64.8L-314.5-64.8c0,0.1,0,0.1,0,0.2L-314.5-64.8z"/>
						<path class="st5" d="M-216.4-48.1C-216.4-48.1-216.4-48.1-216.4-48.1C-216.3-48-216.4-48-216.4-48.1z"/>
						<path class="st5" d="M-251.6-49.2c0.4-0.2-0.6-0.4,0-0.6C-251.6-49.7-251-49.3-251.6-49.2z"/>
						<path class="st5" d="M-181.4-46.8c-0.1,0-0.1,0-0.2,0C-181.4-46.8-181.4-46.8-181.4-46.8z"/>
						<path class="st5" d="M-251.6-49.8L-251.6-49.8L-251.6-49.8C-251.5-49.8-251.5-49.8-251.6-49.8z"/>
						<path class="st5" d="M-225.2-48.4c0,0,0.1-0.1,0.1-0.1C-225.1-48.5-225.2-48.5-225.2-48.4z"/>
						<path class="st5" d="M-218.7-48.7l-0.2,0C-218.8-48.7-218.7-48.7-218.7-48.7z"/>
						<path class="st5" d="M-228.6-48.9c-0.1,0-0.1,0.1-0.2,0c0,0,0,0,0,0C-228.8-48.9-228.7-48.8-228.6-48.9z"/>
						<path class="st5" d="M-232.2-48.9C-232.2-49-232.1-49-232.2-48.9c0.1-0.1,0.1,0,0.2,0L-232.2-48.9z"/>
						<path class="st5" d="M-299.3-60.9c-0.1,0-0.2,0.1-0.2,0.2C-299.5-60.9-299.9-61.1-299.3-60.9z"/>
						<path class="st5" d="M-181.3-46.7c0-0.1,0-0.1-0.1-0.1l0.1,0C-181.2-46.7-181.2-46.7-181.3-46.7z"/>
						<path class="st5" d="M-228.7-51.1l-0.6,0C-229.1-51.1-228.9-51.1-228.7-51.1z"/>
						<path class="st5" d="M-275-54.1l-0.1-0.1C-275.1-54.1-275-54.1-275-54.1z"/>
						<path class="st5" d="M-231-51.1c-0.1,0.1-0.2,0.2-0.3,0.2c0,0,0,0-0.1-0.1L-231-51.1z"/>
						<path class="st5" d="M-299.6-60.7L-299.6-60.7L-299.6-60.7z"/>
						<path class="st5" d="M-302.9-62.5c0.5,0.2,0.1,0.4,0.2,0.7c0.6,0.3,0.4-0.2,0.6-0.3c0.3,0.2,0.5,0.6,0.8,0.7
							c0-0.1,0.1-0.1,0.1-0.1c0.3,0.4,1.2,0.4,1.5,0.9c0,0,0.1,0,0.1-0.1c-0.1,0.1-0.2,0.3-0.2,0.5c0.2,0.1,0.3,0.4,0.5,0.2
							c-0.1,0-0.1-0.1-0.2-0.2l0.2,0.2c0.3-0.3-0.3-0.2-0.2-0.5c0.4,0.3,0.9,0.7,1.3,0.8c0.2-0.3-0.8-0.4-0.2-0.5l-0.6-0.1
							c0.6-0.4-0.3-0.1,0.2-0.5c0.8,0.2,0.8,0.4,1.5,0.6c0.1,0.2-0.1,0.2,0,0.5c0.9,0.7,1.1-0.5,1.7,0.2c0.1,0.3,0.1,0.7,0.7,0.7
							l-0.1-0.4c0.7,0.2,0.2,0.7,1,0.7c-0.1-0.2-0.5-0.3-0.4-0.3c0.6-0.1,0.3,0.3,0.6,0.4l0.2-0.3c0.7,0.3,1.5,0.8,2.3,1.1
							c0-0.1-0.1-0.3,0.1-0.3c1,0.5,2.3,0.7,3.3,0.8l0.3,0.4c0.1,0,0.2-0.1,0.1-0.2c0.4,0,0,0.2,0.1,0.4c0.2,0.1,0.3-0.1,0.2-0.2
							c0.6,0.4,1.9,1.1,2.7,1l-0.1-0.1c0.6,0,0.5,0.7,1.1,0.6l-0.1-0.1c1.3,0.2,2.6,0.8,3.7,0.6c0.1,0.5,1.3,0.1,1.2,0.7
							c0.8-0.1,0.6-0.3,1.7-0.3c0.3,0,0.3,0.4,0.7,0.6l0.1-0.3l0.4,0.4l0.3-0.3l0.3,0.1c-0.1,0-0.3,0.1-0.3,0.2
							c0.5,0.2,1.2,0,1.3-0.1l1.1,0.5c0-0.1-0.2-0.2-0.3-0.3c0.6,0.4,0.2-0.3,0.7,0.1c-0.1,0.1,0,0.2,0,0.3c0.3-0.1,1,0,1.4,0.1
							l-0.1-0.2c0.9,0.1,1.8,0.3,2.8,0.5c-0.4,0.1-0.3,0.4-0.1,0.5l0.2-0.3c0.2,0.2-0.3,0.1,0,0.4c0.4,0,0.3-0.3,0.1-0.5l0.4,0.2
							c0-0.1-0.1-0.2-0.1-0.3c0.2,0.2,0.8-0.2,1,0.2l0-0.1c1,0.1,1.4,0.3,2.2,0.4c0,0.3,0.3,0.2,0.5,0.5c0.6,0,1.3-0.2,2-0.1
							c0.5,0.2,0.1,0.3,0.3,0.4c0.1-0.3,0.8-0.2,0.4-0.4c0.9,0.1,1.1,0.2,2.2,0.5c-0.1,0.1-0.3,0.1-0.2,0.2c0.2,0.1,0.5-0.1,0.4-0.2
							l0,0c1.2,0.5,2.9-0.5,3.8,0.1l-0.1,0l1,0.3c0.5,0-0.3-0.2,0.1-0.3c1.1,0.5,1.7,0.1,2.6,0.4c0.7-0.7,2.5,0.2,3.4-0.3l-0.1,0.2
							c0.2,0.2,0.3-0.1,0.5-0.1c0,0.1-0.3,0.1-0.1,0.3c2,0.3,4.2-0.1,6.4-0.2c0.8,0,0.4,0.9,1.4,0.5l-0.3-0.3
							c1.5,0.4,3.2,0.1,4.7,0.4c-0.1-0.1-0.1-0.2-0.2-0.2c0.3-0.2,1.2,0,1.2,0.2c0.2,0,0.1-0.2,0.2-0.3c0.3-0.1,0.8,0.3,1,0.1
							c0,0-0.1-0.1-0.1-0.1c0.2,0.1,1,0,0.8,0.3c0.6-0.1,1.1,0.1,1.6,0c0.3,0.3,1-0.1,1.1,0.3c0-0.5,1-0.3,1.4-0.1
							c-0.1-0.1,0.3-0.1,0.2-0.3c0.4,0,0.8,0.1,0.7,0.3c0.8-0.5,1.5,0.5,2-0.2c1.2,0.3,2.4,0.4,3.5,0.6c0-0.5-1.2-0.1-1.2-0.5
							c1,0.2,1.6,0.6,2.7,0.5c0.3-0.1-0.1-0.2-0.2-0.3c1,0.2,2,0,3,0.3c0,0-0.1-0.1-0.2-0.1c0.2,0,0.4-0.1,0.4,0.1l-0.2-0.1
							c-0.3,0.3,0.7,0.6,0.7,0.8c-0.3-0.6,0.9-0.1,0.5-0.9c0.1,0,0.3,0.1,0.2,0.3c0.2,0,0.2-0.1,0.1-0.3c0.7,0.1,0.4,0.3,1,0.4
							c0-0.1-0.1-0.1-0.2-0.3c0.3,0.2,0.6,0.4,1.1,0.3c0-0.1,0-0.1-0.1-0.1c0.9,0.1,1.5,0.6,2.4,0.4c-0.3-0.4,0.3-0.1,0.4-0.5
							l0.5,0.1l-0.2,0.2c0.4,0,0.8,0.3,1.2,0.2l-0.3-0.2l0.8,0.1l-0.5,0.1c0.4,0.2-0.1,0.5,0.5,0.4c-0.1,0,0.4,0,0.7-0.2l0,0
							c0.2,0.1,0.4,0.3,0.8,0.2c0.1-0.1,0-0.4,0-0.5c0.2,0.3,1,0.1,1.3,0.5c-0.1-0.1-0.1-0.3,0-0.3l0.2,0.3c0.2-0.1,0.2-0.1,0.2-0.3
							c0.6,0-0.2,0.5,0.5,0.3c-0.1,0,0-0.1-0.1-0.1c0.7-0.1,1.4,0.2,2.1,0.1c0.2-0.4-0.6-0.1-0.3-0.4c1,0.1,2,0.6,3,0.6l-0.2,0
							c0.1,0.5,0.7-0.2,1.2,0.1c-0.1,0-0.1-0.3-0.1-0.2c0.7,0,1.3,0.2,2.3,0.5l-0.1-0.1c0.4-0.1,1,0,1.4,0c0.1,0.1,0.3,0.2,0.2,0.3
							c1.4-0.6,2.4,0.7,3.6,0.2c-0.1,0-0.3-0.2-0.2-0.1l1,0.2c-0.1,0.2-0.1,0.1-0.4,0.3c0.1,0.1,0.4,0.3,0.6,0.3
							c-0.4-0.2,0-0.4,0.3-0.5c0,0.1,0,0.2,0,0.2c0.6-0.4,0,0.5,0.7,0.3l0-0.1c0.2,0.1,0.5,0.3,0.7,0.3c0.2-0.3-0.3-0.2-0.2-0.4
							c0.4,0.1,0.7,0.6,1.1,0.4c-0.2-0.1-0.4-0.1-0.5-0.2c0.4-0.3,0.5-0.2,0.7-0.2l0,0l0.7,0l-0.2,0.1c0.4,0.8,1,0.3,1.6,0.8
							c-0.6-0.5-0.1-0.3-0.1-0.6c0.2-0.1,0.4-0.1,0.4-0.2c0.3,0.3,0.5-0.1,0.9,0.3c0-0.1,0.3,0,0.3-0.2c0.4,0.1-0.1,0.2-0.1,0.3
							c0.6,0.4,1.5-0.2,2.3,0.4c0.7,0.3,0.8,0.7,1.5,1c0.3-0.1-0.1-0.4-0.1-0.4c0.4-0.1,0.7,0,1,0.2c-0.1-0.1,0-0.2,0.2-0.2
							c0.3,0.1,0.1,0.4,0.5,0.3c0-0.1-0.1-0.3-0.2-0.4c0.3,0.2,0.6,0.4,1,0.6c0.1-0.1-0.2-0.3-0.3-0.4c0.4,0.2,1,0.4,1.1,0.7l-0.3,0
							c0.1,0,0.1-0.2,0-0.3c-0.3-0.3-0.5,0-0.6,0.1l0.2,0.1c-0.4,0.5-1-0.3-1.5-0.4l0.1,0.5l-0.5-0.4c-0.1,0.1-0.3,0.3,0,0.4
							c-0.4,0.1-0.3-0.2-0.6-0.1c0,0,0,0.1,0,0.1l-0.3-0.2c0.1,0.1-0.1,0.3,0.1,0.3c-0.7,0.1-1-0.5-1.3-0.3l0,0
							c-0.9-0.3,0-0.3-0.6-0.8l-0.6,0.7l0-0.3c-0.1,0-0.3,0-0.3,0.1c-0.3-0.3,0.1-0.1-0.1-0.3c-0.5,0.2-1.2-0.3-1.4,0.1
							c-0.1-0.3,0.5-0.1,0-0.3c-0.2,0.5-0.5-0.2-1,0c0.1,0.3,0.5,0.2,0,0.4c-0.2-0.5-0.8,0-1.1-0.2c0-0.4-0.7-0.3-1.3-0.5
							c0,0.1-1.1,0-1.7,0.1l0,0.1c-0.1-0.4-0.6-0.4-1-0.5c0,0.2,0.1,0.3,0.3,0.4l-0.4,0c-0.1-0.1-0.2-0.2-0.4-0.3l0.1,0.3
							c-0.5-0.1-1-0.4-1.6-0.3c0-0.3,0.6-0.6-0.1-0.9c0,0.1-0.1,0.4,0.1,0.4c-0.1,0-0.2-0.1-0.3-0.1l0.2,0.3
							c-0.3,0.1-0.1-0.2-0.4-0.2c0,0.2-0.2,0.1-0.2,0.3c0.1,0,0.2-0.1,0.3,0c-0.3,0-0.6,0.1-0.7,0.2c0-0.1,0-0.3-0.2-0.3
							c-0.5-0.1-0.2,0.2-0.5,0.3c-0.1-0.2-0.4,0-0.4-0.3c-0.1,0-0.2,0.1-0.3,0.2c-0.2-0.2-1.2-0.1-0.9-0.4l0.1,0c0,0,0,0,0,0l0,0
							l0,0c-0.8-0.4-1.8,0-2.6-0.2l0,0.1c-0.5-0.2-1.1-0.2-1.5-0.4c-0.2,0-0.4,0.2-0.3,0.3c-0.4-0.1-0.4-0.2-1-0.1
							c0.4,0.2-0.1,0.1,0.4,0.2c-0.5,0-0.6,0.2-1.2-0.1c0.2,0.3-0.4,0.3-0.6,0.2l0.4-0.2c-0.3-0.1-0.5,0-0.7,0l0.1,0.3
							c-1.1,0.3-1.8-0.8-2.6-0.2c-0.3-0.2,0.6-0.1,0.3-0.4c-0.5,0-1,0.5-1.1,0.5c-0.7,0.1-0.6-0.5-1.3-0.4c0.1-0.1,0.2-0.4-0.3-0.6
							c-0.5,0-0.6,0.5-0.3,0.6c0.1,0,0.2,0,0.2-0.1c0.2,0.1,0.4,0.1,0.2,0.2l-0.1-0.1c-0.2,0.1-0.9,0.1-0.7,0.3
							c-0.4-0.1-0.1-0.2,0.1-0.3c-0.6,0.2-1,0-1.6,0.1c0.1-0.1,0.2-0.2,0.1-0.2c-0.9,0.1-0.4-0.2-1-0.3c-0.4,0.2,0.1,0.4-0.5,0.3
							c-0.4,0.1-0.1,0.3,0.1,0.4c-0.6-0.2-1.1,0.1-1.4,0.1l0.3,0.1c-0.2-0.1-0.3-0.1-0.5-0.1l0.2-0.2c-0.2,0-0.3,0-0.3,0.1
							c-0.2-0.2,0.2-0.4-0.2-0.6c-0.2,0.1-0.7-0.2-0.8,0.2c0.7-0.1-0.1,0.3,0.5,0.4c-0.1,0-0.3,0-0.4,0c0,0,0,0.1,0.1,0.1
							c-0.7,0.3-0.3-0.4-1.1-0.4c0.1,0.2-0.2,0.3-0.3,0.3c0.3,0,0.1-0.3-0.1-0.4c-0.5,0.1-0.5-0.1-0.8-0.1l0.3-0.1
							c-0.1-0.2-0.3-0.2-0.7-0.2c0,0.1,0.3,0.1,0.2,0.2c-0.4-0.3-0.8,0.3-1.3,0.1c-0.2,0.1,0,0.3-0.2,0.4c-0.6-0.2-0.6,0.2-1.2,0
							c0.2-0.2,0.2-0.2-0.2-0.4l1,0.2l-0.6-0.4c0.3,0,0.6,0.2,0.8,0.1c-0.3-0.2-0.3-0.1-0.1-0.3c-0.4,0.3-0.8-0.2-1.3,0l0,0.6
							c-0.7,0.2-1.3-0.3-2.2-0.2l0.3-0.1c-0.1-0.2-0.6,0-0.9-0.1c0,0.2-0.2,0.3-0.3,0.4c0-0.1-0.7,0-0.8-0.4l-0.4,0.3
							c-0.7,0.1-0.8-0.6-1.6-0.5c0.2,0.2-0.1,0.4,0.4,0.5c-0.2,0-0.5,0-0.5-0.1c-0.1,0.1-0.7-0.3-0.9-0.1c-0.1-0.1-0.1-0.3-0.4-0.3
							c0,0,0,0.1,0,0.1c0-0.1-0.4-0.1-0.2-0.4c-0.7,0.6-2.1-0.1-2.7,0.4c-0.5-0.1-1.1-0.2-1.6-0.2c0,0.1,0,0.1,0.1,0.1
							c-0.7,0.2-0.4-0.6-1.1-0.4c-0.4,0.3,0.4,0.2,0.2,0.3c-0.1,0.6-0.9-0.1-1.4,0.3l0.1,0c-0.4,0.2-0.9-0.3-1.6-0.2
							c0,0,0,0.1,0,0.1c-0.4-0.3-1.2-0.5-1.8-0.6c0.2,0.3,0.3,0.1,0.1,0.4c-0.3,0,0.1-0.4-0.4-0.5c-0.2,0.1-0.6,0.2-0.6,0.5l0.5,0
							c-0.3,0.3-0.7,0-0.9,0l0,0.2c-0.8-0.1-0.8-0.5-1.6-0.5l0.1-0.1c-0.4-0.4-0.4,0.2-0.8-0.1l-0.1,0.4c-0.3-0.1-1-0.4-1.6-0.5
							c0.3,0.3,0.9,0.5,1.3,0.7c-0.3,0-1-0.1-1.2-0.3c0.1,0,0.3,0.1,0.4,0.1c-0.4-0.3-0.8-0.5-1.4-0.5c0.1,0.8-1.6,0.1-2,0.7
							c-1-0.3-2.1,0-3.3-0.1c0.5-0.6-0.4,0-0.3-0.6c-0.3-0.1-0.4,0-0.4,0l-0.9,0.3c-0.2,0.2,0.3,0.2,0.2,0.3c-0.6,0-0.3,0.2-0.7,0.4
							c0.1-0.2-0.2-0.3-0.6-0.3l0.5-0.2c-0.9-0.4-0.8,0.5-1.7,0.1l0.3,0.2c-0.4-0.1-1.7-0.1-2.1-0.6c-0.1,0.1-0.2,0.2,0,0.3
							c-1.1,0-2.4-0.7-3.2-0.5l0.1,0.2c-0.2-0.1-0.3-0.3-0.6-0.2c0,0.1,0.1,0.2,0,0.2c-0.1-0.1-0.5-0.3-0.8-0.3l0.2,0.2
							c-1.1,0.1-1.6-0.6-2.4-0.8c0,0.4-0.9,0.5-1.3,0.5l0,0.1c-1.2-0.1-2-0.6-3.1-0.9c-0.8,0.4-2.4-0.1-3.6,0c0.2-0.1,0-0.3-0.2-0.4
							c-0.3,0.1-0.7-0.4-0.7,0l0.1,0c-0.3,0.4-0.8,0.2-1.2,0.1l0-0.5c-1.2,0.6-2.8-0.8-3.6-0.2c-0.2-0.2-0.6-0.2-0.8-0.4l0,0.3
							c-0.8-0.1-1.1-0.1-2-0.4l0.1,0.2c-0.5-0.1-0.5-0.9-0.9-1.1l-0.2,0.4c-0.9-0.2-1.9-0.1-2.7-0.6c0,0.1,0,0.2,0.1,0.2
							c-0.4-0.1-1.7-0.1-1.4-0.6c-0.1,0.4-0.9-0.2-1.4-0.5l0,0.3c-0.3-0.5-0.3-0.6-0.8-0.8c-0.1,0-0.2,0.2,0,0.2
							c-0.5,0-0.3-0.4-0.8-0.4l0.1,0.2c-0.5-0.1-0.4-0.2-0.6-0.5c-0.3-0.2-0.9-0.2-1,0c0-0.2-0.2-0.4-0.5-0.4
							c-0.1,0.1,0,0.2,0.1,0.2c-0.8,0-1-0.7-1.6-0.6c0,0.1-0.1,0.1-0.1,0.1c0.6,0.2,1.1,0.3,1,0.3c-0.1,0.2-0.6,0.1-0.3,0.6
							c-0.3-0.3-0.9-0.9-1.4-0.9c0,0-0.1,0-0.1,0.1l0,0c-0.1,0-0.2-0.1-0.3-0.1c-0.2,0-0.3,0-0.4-0.1c-0.1,0.2-0.6-0.1-0.8-0.1
							c0.1-0.3-0.2-0.3,0.1-0.4c0,0,0,0,0.2,0.1c0,0,0.1,0,0.1,0.1l0,0c0.2,0.1,0.4,0.1,0.6,0.2c-0.1-0.2-0.3-0.4-0.6-0.3
							c-0.1-0.2-0.1-0.4-0.2-0.5c-0.4,0.3-1.1,0.3-1.3,0.5c-0.7-0.4-1.7-0.7-2-1.3c-0.2-0.1-0.3,0.1-0.4,0.1
							c0.1,0.1,0.2,0.1,0.3,0.2c-0.4-0.3-1.2-0.5-1.2-0.8c-0.6,0,0.2,0.4-0.5,0.1l0.1,0.1c-1.6,0.1-2-1.7-3.8-1.5
							c0.1,0,0.2,0,0.2-0.1c-1.9-0.3-3.6-1.5-5.5-1.6c-0.5-0.1-0.5-0.3-0.8-0.6l-0.2,0.2l-0.4-0.5c-0.7-0.5-1.5,0.3-2.3-0.5l0.2-0.2
							c-0.3-0.1-1-0.5-1-0.2c0,0,0-0.2-0.2-0.2l-0.1,0.1l-0.7-0.5c-0.7-0.1-0.1,0.6-1,0.3c-0.3-0.2-0.8-0.8-0.7-0.8
							c0.1,0,0.4,0,0.5-0.1l-0.3-0.2c0.1-0.5,0-1,0.9-1l0.4,0.5l0.2-0.2l-0.5-0.2c0.3-0.1,0.4,0.1,0.6,0.3c0.1-0.1,0.2-0.2,0.3-0.2
							l0.4,0.6c0.1-0.2-0.1-0.4,0.3-0.4c0.2,0.3-0.4,0.3,0,0.6c0.3-0.1,0.3-0.3,0.6,0c0.1-0.1,0-0.2-0.1-0.3
							c0.2,0.2,0.7,0.3,0.8,0.6c0.4-0.2,0.9,0.4,1,0c0.1,0.1,0.4,0.5,0.6,0.6c-0.3-0.7,0.9,0.3,1-0.3c0.2,0.6,1.1,0.6,1.7,1.1
							c0,0-0.1-0.1-0.1-0.1c0.3,0.1,0.5,0,0.7,0c-0.1,0.4,0.4,0.6,0.6,1c0.5-0.2-0.1-0.5,0.1-0.8c-0.1,0.3,0.6,0.5,0.4,0.7
							c0.4-0.1,0.3,0,0.6-0.3c-0.1,0.5,0.3,0.2,0.4,0.6c0.5-0.1,0.3-0.4,0.7-0.1C-302.5-62.2-302.9-62.5-302.9-62.5z M-291.3-57.7
							L-291.3-57.7c-0.1,0-0.2-0.1-0.2-0.1C-291.5-57.8-291.4-57.8-291.3-57.7z M-290.3-57.4c-0.1,0-0.3-0.1-0.4-0.1
							c-0.1,0.1-0.1,0.2,0,0.2C-290.7-57.4-290.4-57.4-290.3-57.4z M-293-56.2c0.1,0.1,0.2,0.1,0.3,0c-0.1,0-0.2-0.1-0.3-0.1l0,0
							C-293-56.3-293-56.3-293-56.2z"/>
						<path class="st5" d="M-293.2-56.7C-293.2-56.7-293.2-56.7-293.2-56.7C-293.2-56.7-293.1-56.7-293.2-56.7L-293.2-56.7
							L-293.2-56.7z"/>
						<path class="st5" d="M-198.2-48L-198.2-48C-198.2-48-198.1-48-198.2-48C-198.1-48-198.1-48-198.2-48z"/>
						<polygon class="st5" points="-276.1,-54.4 -276.2,-54.4 -276.2,-54.4 						"/>
						<path class="st5" d="M-192.3-48.3C-192.3-48.3-192.2-48.4-192.3-48.3C-192.2-48.4-192.2-48.3-192.3-48.3z"/>
						<path class="st5" d="M-189.8-48.1l0.4,0C-189.6-48.1-189.7-48.1-189.8-48.1z"/>
						<path class="st5" d="M-187.8-47.9c0,0.1,0,0.1,0,0.1l0,0L-187.8-47.9z"/>
						<path class="st5" d="M-218.5-50.6C-218.5-50.6-218.5-50.6-218.5-50.6C-218.7-50.6-218.6-50.6-218.5-50.6z"/>
						<path class="st5" d="M-209.4-49.6c-0.1-0.1-0.2-0.1-0.3-0.1C-209.5-49.7-209.4-49.7-209.4-49.6z"/>
						<polygon class="st5" points="-228.7,-51.1 -228.7,-51.1 -228.7,-51.1 						"/>
						<path class="st5" d="M-210.1-49.8c0.2,0,0.3,0,0.4,0C-209.8-49.7-209.9-49.7-210.1-49.8z"/>
						<path class="st5" d="M-179.5-46.5L-179.5-46.5C-179.5-46.5-179.5-46.5-179.5-46.5L-179.5-46.5z"/>
						<path class="st5" d="M-179.4-46.5L-179.4-46.5C-179.4-46.4-179.4-46.4-179.4-46.5z"/>
						<path class="st5" d="M-179.2-46.3l-0.2-0.1C-179.3-46.4-179.2-46.4-179.2-46.3z"/>
						<path class="st5" d="M-182.1-46.9l0-0.1C-182.1-47-182.1-46.9-182.1-46.9z"/>
						<path class="st5" d="M-182.8-47.1c0.2,0,0.5-0.1,0.7,0l0,0.1C-182.2-47.2-182.7-46.9-182.8-47.1z"/>
						<path class="st5" d="M-186.3-46.4l0.7,0c-0.1,0.1-0.3,0.2,0,0.3C-186.5-45.9-185.4-46.3-186.3-46.4z"/>
						<path class="st5" d="M-188.3-46.6c0.3,0.1,0,0.2,0,0.2C-188.5-46.5-188.5-46.5-188.3-46.6z"/>
						<path class="st5" d="M-202.7-48.1l0,0.3C-202.9-47.9-202.7-48-202.7-48.1z"/>
						<polygon class="st5" points="-205.4,-49.6 -205.1,-49.8 -205,-49.5 						"/>
						<polygon class="st5" points="-207.1,-47.9 -207,-47.9 -207.5,-48 						"/>
						<path class="st5" d="M-231.5-48.7l0.1-0.3C-231.3-48.9-231.2-48.6-231.5-48.7z"/>
						<path class="st5" d="M-242.1-49.2c-0.1,0.2-0.4,0.2-0.6,0.1C-242.5-49.2-242.2-49.3-242.1-49.2z"/>
						<polygon class="st5" points="-273.8,-51.4 -273.6,-51.3 -274,-51.5 						"/>
					</g>
				</g>
			</g>
		</g>
	</g>
</symbol>
<symbol  id="branch_4" viewBox="-214.5 -25.5 429.1 51">
	<path class="st0" d="M-214.5-2.4c28.4-33.9,93,7.8,130.8,3.5S23.8-22.3,50.5-25.3s113.8,39,143.5,35.6s26.4,0.4-4.8,3.9
		S74.7-9,48.7-6.1S-61.4,22.6-85.1,25.2s-60.2-17.1-91.4-13.6s-31.2,3.5-31.2,3.5L-214.5-2.4z"/>
	<g>
		<path class="st4" d="M-99.7,13.8"/>
	</g>
	<g>
		<path class="st1" d="M-99.6,9.2c8.8,2.1,17.7,4.1,26.9,4.4c4.6,0.1,9.2-0.2,13.7-1.2c4.5-1,8.8-2.7,13-4.5
			c4.2-1.8,8.4-3.4,12.6-4.8c4.3-1.4,8.6-2.6,13-3.6C-11.6-2.7-2.7-4.3,6.2-6L33-11.2c8.9-1.7,17.8-3.7,26.7-4.5
			c4.5-0.4,9-0.4,13.4,0.2c4.5,0.5,8.9,1.5,13.2,2.8c8.7,2.5,17,6.2,25.3,9.8c-4.1-2-8.2-4-12.3-5.8c-4.2-1.8-8.4-3.5-12.7-4.9
			c-4.3-1.4-8.8-2.5-13.3-3.1c-4.5-0.6-9.2-0.8-13.7-0.5c-4.6,0.3-9.1,0.9-13.6,1.7c-4.5,0.8-8.9,1.7-13.4,2.5l-26.8,5
			C-3-6.2-12-4.5-20.8-2.3C-25.3-1.3-29.7,0-34,1.4c-2.2,0.7-4.3,1.5-6.4,2.4c-2.1,0.9-4.2,1.8-6.3,2.7c-4.1,1.8-8.3,3.6-12.6,4.7
			c-4.3,1.1-8.8,1.5-13.4,1.5C-81.7,12.7-90.7,10.9-99.6,9.2z"/>
	</g>
	<g>
		<path class="st4" d="M58.7-10.7"/>
	</g>
	<g>
		<path class="st4" d="M-102,1.2"/>
	</g>
	<g>
		<path class="st3" d="M0.8,4.9c13.7-5,27.8-8,42.1-8.9c14.3-0.9,28.6,0.3,42.5,3.7c7,1.6,14,3.6,21.1,5.3
			c7.1,1.7,14.2,3.3,21.3,4.6c14.3,2.8,28.7,4.9,43.2,6c-14.2-3.2-28.3-6.4-42.4-9.8c-7-1.8-14-3.5-21-5.4c-7-1.8-13.9-3.9-21.1-5.6
			C79.5-6.8,72.1-8,64.7-8.4c-7.4-0.4-14.8-0.3-22.1,0.6C28-6.2,13.7-2,0.8,4.9z"/>
	</g>
</symbol>
<symbol  id="branch_5" viewBox="-284.6 -65.5 569.2 131">
	<path class="st0" d="M259.3-22.9C219.9-22.9,98,56.9,62.6,56.9S-64.3,28.4-114.4,28.4s-127.4,63.9-170.2,23.9l5.9-23.9
		c0,0,0,0,41.3,0c12.8,0,26-3,38.9-7.2c18.9-8.4,36.1-24.3,51-27.3c18.4-3.6,87.9-4.2,108-8.2S40.6-58.4,64.8-63.1
		c24.1-4.7,31.3-1.7,8.3,2.8C50.5-55.9-9.7,1.7-31.4,7.7c36.8,5.3,73.9,19,91.1,19c34.4,0,147.6-54.2,188.9-54.2
		S298.6-22.9,259.3-22.9z"/>
	<g>
		<path class="st4" d="M-157.8,22.1"/>
	</g>
	<g>
		<path class="st1" d="M-168,21.9c6.3-3.5,12.5-7,19.1-9.8c6.5-2.9,13.5-4.7,20.5-5.9c14.1-2.5,28.4-2.5,42.8-2.9
			c7.2-0.2,14.4-0.6,21.6-1.4l5.4-0.7c1.8-0.3,3.6-0.6,5.3-0.9c1.8-0.3,3.5-0.8,5.3-1.2l2.6-0.6l2.6-0.8c6.9-2.1,13.6-5.2,19.7-9
			c6-3.9,11.6-8.6,16.3-14.1c-5,5.1-10.7,9.6-16.8,13.2c-6.1,3.7-12.7,6.5-19.6,8.4c-6.9,1.9-13.9,3.2-21,3.9
			c-7.1,0.7-14.3,1-21.4,1.2c-7.2,0.2-14.4,0.4-21.5,0.8c-7.2,0.4-14.4,1.1-21.5,2.6c-7.1,1.4-14.1,3.5-20.6,6.6
			C-155.8,14.4-162,18.1-168,21.9z"/>
	</g>
	<g>
		<path class="st1" d="M-88.2,12.8c9,1,17.9,3,26.5,5.6c8.7,2.5,17.2,5.6,25.7,8.7c8.5,3.2,17,6.3,25.6,9.2
			C-1.7,39.2,7,41.7,16,43.4c17.9,3.3,36.4,3.7,54.4,1.1c9-1.3,17.9-3.4,26.6-6.1c8.6-2.8,17.1-6.3,25.1-10.6
			c-8.2,3.9-16.7,7.2-25.4,9.6C88,40,79.2,41.8,70.2,43c-17.9,2.3-36.1,1.9-53.8-1.5c-8.9-1.6-17.6-4.1-26.2-6.9
			c-8.6-2.8-17.1-6-25.7-8.9c-8.6-3-17.2-5.9-26-8.2C-70.2,15.1-79.1,13.4-88.2,12.8z"/>
	</g>
	<g>
		<path class="st4" d="M50.8,39.9"/>
	</g>
	<g>
		<path class="st1" d="M42.9,37.5c5.5,0.8,11.1,0.7,16.6,0.1c5.5-0.6,11-1.8,16.4-3.3c10.7-3,21-7.1,31.5-10.6
			c10.5-3.5,21.2-6.3,31.9-8.8c10.8-2.5,21.6-4.8,32.4-7.2c-11,1.6-21.9,3.4-32.8,5.6c-10.9,2.2-21.7,5-32.2,8.5
			c-10.5,3.5-20.8,7.7-31.3,11C65,35.9,54,38.2,42.9,37.5z"/>
	</g>
	<g>
		<path class="st3" d="M50.3,57.6c18.6-1,37-5.7,54.4-12.4c8.8-3.3,17.3-7.1,25.7-11.1c8.4-4,16.7-8.4,24.9-12.7
			c8.2-4.4,16.3-8.8,24.5-13.1c8.2-4.4,16.4-8.5,24.8-12.4c8.4-3.9,16.9-7.6,25.5-10.7c8.7-3.2,17.6-5.8,26.9-6.5
			c-9.3-0.3-18.7,1.6-27.6,4.2c-2.2,0.6-4.5,1.4-6.7,2.1c-2.2,0.7-4.4,1.5-6.6,2.3c-4.4,1.6-8.7,3.3-13,5.1
			c-8.6,3.6-17,7.7-25.4,11.8c-8.3,4.2-16.5,8.6-24.7,12.9c-8.2,4.4-16.4,8.7-24.6,12.9c-8.2,4.2-16.6,8.1-25.1,11.8
			C86.3,48.9,68.7,54.6,50.3,57.6z"/>
	</g>
</symbol>
<g id="Layer_1" class="st6">
</g>
<g id="Layer_2">
	
		<use xlink:href="#branch_3"  width="641.4" height="138.7" id="XMLID_3_" x="-320.7" y="-69.3" transform="matrix(1 0 0 -1 1577.6366 813.687)" style="overflow:visible;"/>
	
		<use xlink:href="#branch_2"  width="436.7" height="154.3" x="-218.4" y="-77.1" transform="matrix(1 0 0 -1 1710.4128 446.5063)" style="overflow:visible;"/>
	
		<use xlink:href="#branch_5"  width="569.2" height="131" id="XMLID_1_" x="-284.6" y="-65.5" transform="matrix(1 0 0 -1 259.638 620.4778)" style="overflow:visible;"/>
	
		<use xlink:href="#branch_1"  width="913.5" height="249.3" x="-456.8" y="-124.7" transform="matrix(1 0 0 -1 1510.7144 43.6599)" style="overflow:visible;"/>
	
		<use xlink:href="#branch_4"  width="429.1" height="51" id="XMLID_2_" x="-214.5" y="-25.5" transform="matrix(1 0 0 -1 188.2809 259.265)" style="overflow:visible;"/>
</g>
</svg>
