<?xml version="1.0" encoding="utf-8"?>
<!-- Generator: Adobe Illustrator 21.0.2, SVG Export Plug-In . SVG Version: 6.00 Build 0)  -->
<svg version="1.1" id="Layer_1" xmlns="http://www.w3.org/2000/svg" xmlns:xlink="http://www.w3.org/1999/xlink" x="0px" y="0px"
	 viewBox="0 0 2888.2 919" style="enable-background:new 0 0 2888.2 919;" xml:space="preserve">
<style type="text/css">
	.st0{fill:#C4B7B5;}
	.st1{fill:#00006C;}
	.st2{fill:none;}
	.st3{fill:#FFD773;}
	.st4{fill:none;stroke:#FFF7DF;stroke-miterlimit:10;}
	.st5{fill:#FFDC85;}
</style>
<g>
	<path class="st0" d="M2726.4,781.4c-50.2,0-141.7-28.5-177.1-28.5c-35.4,0-146.6,78.8-185.9,78.8c-80,0-4.9,6.7,0,6.7
		c41.3,0,148-52.9,182.5-52.9c1.6,0,37.3,6,39.2,6.1c-7.6,0.2-42.1,1-47.9,3.1c-22.4,8-97.3,51.9-121.8,60.6
		c-24.5,8.7-101.4,4.7-130.8,15.2c-29.4,10.5-41.5,17.7-13.6,7.8c28-10,143.1,2.2,168.3-6.7c25.2-9,67.1-40.4,102.7-53.1
		c31.1-11.1,114.2-10.3,118.1-13.9c30.7,4.4,84.3,8.2,97.6,8.2c31.5,0,50.4-31.3,91.7-31.3s41.3,0,41.3,0l5.9-23.9
		C2853.8,717.5,2776.5,781.4,2726.4,781.4z"/>
	<g>
		<path class="st1" d="M2873.8,771.3c-18.2-4.9-37.7-4.3-55.5,1.5c-4.4,1.4-8.8,3.1-13,5.3l-1.6,0.8c-0.5,0.3-1,0.6-1.5,0.8
			c-1,0.6-2,1.1-3.1,1.7c-2,1.2-4,2.5-5.9,3.8c-3.9,2.6-7.7,5.3-11.8,7.8c-4,2.5-8.3,4.7-12.8,6.2c-9.1,3.1-18.8,3.5-28.2,2.9
			c-9.5-0.6-18.8-2.2-28.1-3.6c-18.6-2.7-37.3-4.3-56.1-4.4c-4.7-0.1-9.4,0-14.1,0c-4.7,0.2-9.4,0.2-14.1,0.5
			c-9.4,0.4-18.7,1.3-28,2.4c-9.3,1.1-18.6,2.6-27.8,4.3c-4.6,0.9-9.2,1.8-13.8,2.9c-4.6,1-9.2,2-13.6,3.4
			c-4.5,1.3-8.9,2.9-12.9,5.2c-4.1,2.2-8,4.9-11.8,7.5c-7.8,5.3-15.7,10.4-23.8,15.3c-16.2,9.6-33,18.3-50.1,25.9
			c17.1-7.9,33.7-16.8,49.6-26.7c8-4.9,15.9-10.1,23.6-15.5c3.9-2.7,7.7-5.4,11.9-7.7c4.2-2.3,8.6-4.1,13.2-5.4
			c18.2-5.1,36.8-8.5,55.5-10.9c9.4-1.1,18.7-2,28.2-2.5c4.7-0.3,9.4-0.4,14.1-0.6c4.7,0,9.4-0.2,14.1,0c18.9,0.2,37.7,1.9,56.3,4.6
			c9.3,1.4,18.6,3,27.9,3.7c9.3,0.6,18.8,0.2,27.6-2.6c4.4-1.4,8.6-3.5,12.6-5.9c4-2.4,7.9-5.1,11.8-7.7c2-1.3,4-2.6,6-3.8
			c1-0.6,2.1-1.1,3.1-1.7c0.5-0.3,1-0.6,1.6-0.8l1.6-0.8c4.2-2.1,8.7-3.8,13.2-5.2C2836.1,766.3,2855.7,766,2873.8,771.3z"/>
	</g>
	<g>
		<path class="st1" d="M2409.7,822c9.4-4,18.8-7.8,28.2-11.8l28.2-11.6c9.4-3.9,18.9-7.6,28.3-11.5l14.2-5.7
			c4.7-1.9,9.4-3.9,14.2-5.6c2.4-0.8,4.9-1.6,7.5-2c2.6-0.5,5.2-0.7,7.7-0.8c2.6,0,5.2,0.1,7.7,0.4c2.6,0.3,5.1,0.7,7.6,1.2
			c5,1,10,2.2,14.9,3.4c4.9,1.2,9.9,2.2,14.9,3.1c5,0.9,10,1.6,15.1,2.1c5,0.5,10.1,0.9,15.2,1.1c10.1,0.5,20.3,0.1,30.5-0.8
			c-5,0.7-10.1,1.2-15.2,1.5c-5.1,0.3-10.2,0.4-15.3,0.4c-10.2-0.2-20.4-1-30.5-2.6c-2.5-0.4-5-0.9-7.5-1.3c-2.5-0.5-5-1-7.5-1.6
			c-5-1.2-9.9-2.4-14.9-3.3c-2.5-0.5-5-0.8-7.5-1.1c-2.5-0.2-5-0.4-7.5-0.3c-2.5,0.1-5,0.3-7.4,0.8c-2.4,0.5-4.8,1.2-7.2,2
			c-4.7,1.6-9.5,3.6-14.2,5.5l-14.2,5.6c-9.5,3.7-18.9,7.5-28.4,11.2l-28.4,11.1C2428.8,814.7,2419.3,818.4,2409.7,822z"/>
	</g>
	<g>
		<path class="st1" d="M2345.8,869.3c8.5,0.1,17,0.3,25.4,0.2c8.5-0.1,16.9-0.6,25.3-1.7c8.4-1.1,16.7-2.8,24.6-5.6
			c8-2.7,15.4-6.6,22.4-11.3c3.5-2.3,7-4.7,10.6-7c1.8-1.2,3.6-2.3,5.4-3.4c1.8-1.1,3.6-2.2,5.4-3.3c7.3-4.4,14.7-8.6,22.2-12.5
			c7.5-3.9,15.1-7.7,22.8-11.4c7.7-3.6,15.3-7.2,23.1-10.7l-22.6,11.6c-7.5,3.9-15.1,7.8-22.5,11.9c-7.4,4.1-14.8,8.2-22,12.7
			c-1.8,1.1-3.6,2.2-5.4,3.4c-1.8,1.1-3.6,2.3-5.3,3.4c-3.5,2.3-7,4.7-10.6,7.1c-7.1,4.7-14.8,8.6-23,11.4c-8.1,2.7-16.5,4.5-25,5.4
			c-8.5,0.9-17,1.2-25.5,1.1C2362.7,870.3,2354.2,869.9,2345.8,869.3z"/>
	</g>
	<g>
		<path class="st1" d="M2718.8,788.3c4,0.9,8,1.6,12.1,1.9c4,0.3,8.1,0.3,12.1-0.1c4-0.3,8-1,12-2c3.9-1,7.8-2.3,11.6-3.9
			c-3.4,2.3-7.2,4.1-11.1,5.4c-3.9,1.3-8.1,2.1-12.2,2.5c-4.2,0.3-8.4,0.2-12.5-0.4C2726.6,791.1,2722.6,790,2718.8,788.3z"/>
	</g>
	<g>
		<path class="st3" d="M2629.4,766.1c-25-4.6-50.2-8.2-75.5-10.4c-3.1-0.3-6.2-0.4-9.2-0.2c-3,0.2-5.9,0.8-8.9,1.7
			c-5.9,1.9-11.9,4.1-17.7,6.5c-11.7,4.7-23.1,10.3-34.3,16.2c-11.3,5.8-22.3,12.1-33.5,18.2l-16.8,9c-5.6,3-11.2,6.1-16.9,8.9
			c-11.4,5.8-23.5,10.6-36.1,13.4c-12.6,2.7-25.4,3.5-38.2,3c12.7-0.6,25.4-2,37.6-5.3c12.2-3.2,23.8-8.4,34.9-14.4
			c5.6-3,11.1-6.2,16.6-9.3l16.7-9.3c11.1-6.2,22.2-12.5,33.5-18.4c11.3-5.9,22.9-11.5,34.9-16.1c6-2.3,12-4.5,18.3-6.3
			c3.1-0.9,6.5-1.6,9.9-1.7c3.3-0.1,6.6,0.1,9.8,0.5C2579.7,754.8,2604.8,759.5,2629.4,766.1z"/>
	</g>
	<g>
		<g>
			<g>
				<g>
					<g>
						<path class="st5" d="M2398.6,859.5c0.1-0.1,0-0.3-0.2-0.2l-0.1,0.4L2398.6,859.5z"/>
						<path class="st5" d="M2397.1,859.2c-0.2,0.2-0.4,0.5-0.2,0.8c0.2-0.4,0.2-0.2,0.4-0.7c0.2-0.1,0.4,0,0.4,0.2
							c0.1-0.1,0.3,0,0.4-0.2c-0.3-0.2-0.6-0.1-0.9,0.1C2397.1,859.3,2397.1,859.2,2397.1,859.2z"/>
						<path class="st5" d="M2377.6,861.6l0.1,0C2377.7,861.6,2377.6,861.6,2377.6,861.6z"/>
						<path class="st5" d="M2365.4,862.3c0.1,0,0.1,0,0.1-0.1C2365.4,862.2,2365.3,862.2,2365.4,862.3z"/>
						<path class="st5" d="M2363.3,862c0,0,0.1,0,0.1,0C2363.3,862,2363.3,862,2363.3,862z"/>
						<path class="st5" d="M2377.6,861.6l-0.3-0.1C2377.2,861.7,2377.4,861.6,2377.6,861.6z"/>
						<path class="st5" d="M2394.6,860.5c0.1,0,0.1-0.1,0.2-0.1L2394.6,860.5L2394.6,860.5z"/>
						<path class="st5" d="M2382.9,860.8L2382.9,860.8c0.1-0.1,0.1-0.1,0.2-0.2L2382.9,860.8z"/>
						<path class="st5" d="M2387,860.2c-0.1,0-0.1,0.3-0.1,0.4c0-0.1,0.1-0.2,0.2-0.2C2387,860.3,2387,860.3,2387,860.2z"/>
						<path class="st5" d="M2393.5,859.6l0.1-0.1C2393.6,859.5,2393.5,859.6,2393.5,859.6z"/>
						<path class="st5" d="M2379.9,861.1C2379.9,861,2379.9,861,2379.9,861.1C2379.9,861,2379.9,861,2379.9,861.1z"/>
						<path class="st5" d="M2266.4,878.2C2266.4,878.2,2266.4,878.2,2266.4,878.2C2266.3,878.2,2266.3,878.2,2266.4,878.2z"/>
						<path class="st5" d="M2261.4,878.4L2261.4,878.4c0-0.1,0-0.1,0-0.2L2261.4,878.4z"/>
						<path class="st5" d="M2359.4,861.7C2359.4,861.7,2359.4,861.8,2359.4,861.7C2359.6,861.7,2359.5,861.7,2359.4,861.7z"/>
						<path class="st5" d="M2324.3,862.8c0.4,0.2-0.6,0.4,0,0.6C2324.2,863.3,2324.8,863,2324.3,862.8z"/>
						<path class="st5" d="M2394.5,860.5c-0.1,0-0.1,0-0.2,0C2394.4,860.5,2394.5,860.5,2394.5,860.5z"/>
						<path class="st5" d="M2324.3,863.4L2324.3,863.4L2324.3,863.4C2324.3,863.5,2324.3,863.5,2324.3,863.4z"/>
						<path class="st5" d="M2350.6,862.1c0,0,0.1,0.1,0.1,0.1C2350.7,862.2,2350.7,862.2,2350.6,862.1z"/>
						<path class="st5" d="M2357.2,862.4l-0.2,0C2357.1,862.4,2357.2,862.4,2357.2,862.4z"/>
						<path class="st5" d="M2347.2,862.6c-0.1,0-0.1-0.1-0.2,0c0,0,0,0,0,0C2347.1,862.5,2347.1,862.5,2347.2,862.6z"/>
						<path class="st5" d="M2343.7,862.6C2343.7,862.7,2343.7,862.7,2343.7,862.6c0.1,0.1,0.1,0,0.2,0L2343.7,862.6z"/>
						<path class="st5" d="M2276.5,874.6c-0.1,0-0.2-0.1-0.2-0.2C2276.4,874.6,2275.9,874.8,2276.5,874.6z"/>
						<path class="st5" d="M2394.6,860.4c0,0.1,0,0.1-0.1,0.1l0.1,0C2394.6,860.4,2394.6,860.4,2394.6,860.4z"/>
						<path class="st5" d="M2347.1,864.8l-0.6,0C2346.7,864.8,2346.9,864.8,2347.1,864.8z"/>
						<path class="st5" d="M2300.8,867.8l-0.1,0.1C2300.8,867.8,2300.8,867.8,2300.8,867.8z"/>
						<path class="st5" d="M2344.9,864.8c-0.1-0.1-0.2-0.2-0.3-0.2c0,0,0,0-0.1,0.1L2344.9,864.8z"/>
						<path class="st5" d="M2276.3,874.4L2276.3,874.4L2276.3,874.4z"/>
						<path class="st5" d="M2273,876.2c0.5-0.2,0.1-0.4,0.2-0.7c0.6-0.3,0.4,0.2,0.6,0.3c0.3-0.2,0.5-0.6,0.8-0.7
							c0,0.1,0.1,0.1,0.1,0.1c0.3-0.4,1.2-0.4,1.5-0.9c0,0,0.1,0,0.1,0.1c-0.1-0.1-0.2-0.3-0.2-0.5c0.2-0.1,0.3-0.4,0.5-0.2
							c-0.1,0-0.1,0.1-0.2,0.2l0.2-0.2c0.3,0.3-0.3,0.2-0.2,0.5c0.4-0.3,0.9-0.7,1.3-0.8c0.2,0.3-0.8,0.4-0.2,0.5l-0.6,0.1
							c0.6,0.4-0.3,0.1,0.2,0.5c0.8-0.2,0.8-0.4,1.5-0.6c0.1-0.2-0.1-0.2,0-0.5c0.9-0.7,1.1,0.5,1.7-0.2c0.1-0.3,0.1-0.7,0.7-0.7
							l-0.1,0.4c0.7-0.2,0.2-0.7,1-0.7c-0.1,0.2-0.5,0.3-0.4,0.3c0.6,0.1,0.3-0.3,0.6-0.4l0.2,0.3c0.7-0.3,1.5-0.8,2.3-1.1
							c0,0.1-0.1,0.3,0.1,0.3c1-0.5,2.3-0.7,3.3-0.8l0.3-0.4c0.1,0,0.2,0.1,0.1,0.2c0.4,0,0-0.2,0.1-0.4c0.2-0.1,0.3,0.1,0.2,0.2
							c0.6-0.4,1.9-1.1,2.7-1l-0.1,0.1c0.6,0,0.5-0.7,1.1-0.6l-0.1,0.1c1.3-0.2,2.6-0.8,3.7-0.6c0.1-0.5,1.3-0.1,1.2-0.7
							c0.8,0.1,0.6,0.3,1.7,0.3c0.3,0,0.3-0.4,0.7-0.6l0.1,0.3l0.4-0.4l0.3,0.3l0.3-0.1c-0.1,0-0.3-0.1-0.3-0.2
							c0.5-0.2,1.2,0,1.3,0.1l1.1-0.5c0,0.1-0.2,0.2-0.3,0.3c0.6-0.4,0.2,0.3,0.7-0.1c-0.1-0.1,0-0.2,0-0.3c0.3,0.1,1,0,1.4-0.1
							l-0.1,0.2c0.9-0.1,1.8-0.3,2.8-0.5c-0.4-0.1-0.3-0.4-0.1-0.5l0.2,0.3c0.2-0.2-0.3-0.1,0-0.4c0.4,0,0.3,0.3,0.1,0.5l0.4-0.2
							c0,0.1-0.1,0.2-0.1,0.3c0.2-0.2,0.8,0.2,1-0.2l0,0.1c1-0.1,1.4-0.3,2.2-0.4c0-0.3,0.3-0.2,0.5-0.5c0.6,0,1.3,0.2,2,0.1
							c0.5-0.2,0.1-0.3,0.3-0.4c0.1,0.3,0.8,0.2,0.4,0.4c0.9-0.1,1.1-0.2,2.2-0.5c-0.1-0.1-0.3-0.1-0.2-0.2c0.2-0.1,0.5,0.1,0.4,0.2
							l0,0c1.2-0.5,2.9,0.5,3.8-0.1l-0.1,0l1-0.3c0.5,0-0.3,0.2,0.1,0.3c1.1-0.5,1.7-0.1,2.6-0.4c0.7,0.7,2.5-0.2,3.4,0.3l-0.1-0.2
							c0.2-0.2,0.3,0.1,0.5,0.1c0-0.1-0.3-0.1-0.1-0.3c2-0.3,4.2,0.1,6.4,0.2c0.8,0,0.4-0.9,1.4-0.5l-0.3,0.3
							c1.5-0.4,3.2-0.1,4.7-0.4c-0.1,0.1-0.1,0.2-0.2,0.2c0.3,0.2,1.2,0,1.2-0.2c0.2,0,0.1,0.2,0.2,0.3c0.3,0.1,0.8-0.3,1-0.1
							c0,0-0.1,0.1-0.1,0.1c0.2-0.1,1,0,0.8-0.3c0.6,0.1,1.1-0.1,1.6,0c0.3-0.3,1,0.1,1.1-0.3c0,0.5,1,0.3,1.4,0.1
							c-0.1,0.1,0.3,0.1,0.2,0.3c0.4,0,0.8-0.1,0.7-0.3c0.8,0.5,1.5-0.5,2,0.2c1.2-0.3,2.4-0.4,3.5-0.6c0,0.5-1.2,0.1-1.2,0.5
							c1-0.2,1.6-0.6,2.7-0.5c0.3,0.1-0.1,0.2-0.2,0.3c1-0.2,2,0,3-0.3c0,0-0.1,0.1-0.2,0.1c0.2,0,0.4,0.1,0.4-0.1l-0.2,0.1
							c-0.3-0.3,0.7-0.6,0.7-0.8c-0.3,0.6,0.9,0.1,0.5,0.9c0.1,0,0.3-0.1,0.2-0.3c0.2,0,0.2,0.1,0.1,0.3c0.7-0.1,0.4-0.3,1-0.4
							c0,0.1-0.1,0.1-0.2,0.3c0.3-0.2,0.6-0.4,1.1-0.3c0,0.1,0,0.1-0.1,0.1c0.9-0.1,1.5-0.6,2.4-0.4c-0.3,0.4,0.3,0.1,0.4,0.5
							l0.5-0.1l-0.2-0.2c0.4,0,0.8-0.3,1.2-0.2l-0.3,0.2l0.8-0.1l-0.5-0.1c0.4-0.2-0.1-0.5,0.5-0.4c-0.1,0,0.4,0,0.7,0.2l0,0
							c0.2-0.1,0.4-0.3,0.8-0.2c0.1,0.1,0,0.4,0,0.5c0.2-0.3,1-0.1,1.3-0.5c-0.1,0.1-0.1,0.3,0,0.3l0.2-0.3c0.2,0.1,0.2,0.1,0.2,0.3
							c0.6,0-0.2-0.5,0.5-0.3c-0.1,0,0,0.1-0.1,0.1c0.7,0.1,1.4-0.2,2.1-0.1c0.2,0.4-0.6,0.1-0.3,0.4c1-0.1,2-0.6,3-0.6l-0.2,0
							c0.1-0.5,0.7,0.2,1.2-0.1c-0.1,0-0.1,0.3-0.1,0.2c0.7,0,1.3-0.2,2.3-0.5l-0.1,0.1c0.4,0.1,1,0,1.4,0c0.1-0.1,0.3-0.2,0.2-0.3
							c1.4,0.6,2.4-0.7,3.6-0.2c-0.1,0-0.3,0.2-0.2,0.1l0.9-0.2c-0.1-0.2-0.1-0.1-0.4-0.3c0.1-0.2,0.4-0.3,0.6-0.3
							c-0.4,0.2,0,0.4,0.3,0.5c0-0.1,0-0.2,0-0.2c0.6,0.4,0-0.5,0.7-0.3l0,0.1c0.2-0.1,0.5-0.3,0.7-0.3c0.2,0.3-0.3,0.2-0.2,0.4
							c0.4-0.1,0.7-0.6,1.1-0.4c-0.2,0.1-0.4,0.1-0.5,0.2c0.4,0.3,0.5,0.2,0.7,0.2l0,0l0.7,0l-0.2-0.1c0.4-0.8,1-0.3,1.6-0.8
							c-0.6,0.5-0.1,0.3-0.1,0.6c0.2,0.1,0.4,0.1,0.4,0.2c0.3-0.3,0.5,0.1,0.9-0.3c0,0.1,0.3,0,0.3,0.2c0.4-0.1-0.1-0.2-0.1-0.3
							c0.6-0.4,1.5,0.2,2.3-0.4c0.7-0.3,0.8-0.7,1.5-1c0.3,0.1-0.1,0.4-0.1,0.4c0.4,0.1,0.7,0,1-0.2c-0.1,0.1,0,0.2,0.2,0.2
							c0.3-0.1,0.1-0.4,0.5-0.3c0,0.1-0.1,0.3-0.2,0.4c0.3-0.2,0.6-0.4,1-0.6c0.1,0.1-0.2,0.3-0.3,0.4c0.4-0.2,1-0.4,1.1-0.7l-0.3,0
							c0.1,0,0.1,0.2,0,0.3c-0.3,0.3-0.5,0-0.6-0.1l0.2-0.1c-0.4-0.5-1,0.3-1.5,0.4l0.1-0.5l-0.5,0.4c-0.1-0.1-0.3-0.3,0-0.4
							c-0.4-0.1-0.3,0.2-0.6,0.1c0,0,0-0.1,0-0.1l-0.3,0.2c0.1-0.1-0.1-0.3,0.1-0.3c-0.7-0.1-1,0.5-1.3,0.3l0,0
							c-0.9,0.3,0,0.3-0.6,0.8l-0.6-0.7l0,0.3c-0.1,0-0.3,0-0.3-0.1c-0.3,0.3,0.1,0.1-0.1,0.3c-0.5-0.2-1.2,0.3-1.4-0.1
							c-0.1,0.3,0.5,0.1,0,0.3c-0.2-0.5-0.5,0.2-1,0c0.1-0.3,0.5-0.2,0-0.4c-0.2,0.5-0.8,0-1.1,0.2c0,0.4-0.7,0.3-1.3,0.5
							c0-0.1-1.1,0-1.7-0.1l0-0.1c-0.1,0.4-0.6,0.4-1,0.5c0-0.2,0.1-0.3,0.3-0.4l-0.4,0c-0.1,0.1-0.2,0.2-0.4,0.3l0.1-0.3
							c-0.5,0.1-1,0.4-1.6,0.3c0,0.3,0.6,0.6-0.1,0.9c0-0.1-0.1-0.4,0.1-0.4c-0.1,0-0.2,0.1-0.3,0.1l0.2-0.3
							c-0.3-0.1-0.1,0.2-0.4,0.2c0-0.2-0.2-0.1-0.2-0.3c0.1,0,0.2,0.1,0.3,0c-0.3,0-0.6-0.1-0.7-0.2c0,0.1,0,0.3-0.2,0.3
							c-0.5,0.1-0.2-0.2-0.5-0.3c-0.1,0.2-0.4,0-0.4,0.3c-0.1,0-0.2-0.1-0.3-0.2c-0.2,0.2-1.2,0.1-0.9,0.4l0.1,0c0,0,0,0,0,0l0,0
							l0,0c-0.8,0.4-1.8,0-2.6,0.2l0-0.1c-0.5,0.2-1.1,0.2-1.5,0.4c-0.2,0-0.4-0.2-0.3-0.3c-0.4,0.1-0.4,0.2-1,0.1
							c0.4-0.2-0.1-0.1,0.4-0.2c-0.5,0-0.6-0.2-1.2,0.1c0.2-0.3-0.4-0.3-0.6-0.2l0.4,0.2c-0.3,0.1-0.5,0-0.7,0l0.1-0.3
							c-1.1-0.3-1.8,0.8-2.6,0.2c-0.3,0.2,0.6,0.1,0.3,0.4c-0.5,0-1-0.5-1.1-0.5c-0.7-0.1-0.6,0.5-1.3,0.4c0.1,0.1,0.2,0.4-0.3,0.6
							c-0.5,0-0.6-0.5-0.3-0.6c0.1,0,0.2,0,0.2,0.1c0.2-0.1,0.4-0.1,0.2-0.2l-0.1,0.1c-0.2-0.1-0.9-0.1-0.7-0.3
							c-0.4,0.1-0.1,0.2,0.1,0.3c-0.6-0.2-1,0-1.6-0.1c0.1,0.1,0.2,0.2,0.1,0.2c-0.9-0.1-0.4,0.2-1,0.3c-0.4-0.2,0.1-0.4-0.5-0.3
							c-0.4-0.1-0.1-0.3,0.1-0.4c-0.6,0.2-1.1-0.1-1.4-0.1l0.3-0.1c-0.2,0.1-0.3,0.1-0.5,0.1l0.2,0.2c-0.2,0-0.3,0-0.3-0.1
							c-0.2,0.2,0.2,0.4-0.2,0.6c-0.2-0.1-0.7,0.2-0.8-0.2c0.7,0.1-0.1-0.3,0.5-0.4c-0.1,0-0.3,0-0.4,0c0,0,0-0.1,0.1-0.1
							c-0.7-0.3-0.3,0.4-1.1,0.4c0.1-0.2-0.2-0.3-0.3-0.3c0.3,0,0.1,0.3-0.1,0.4c-0.5-0.1-0.5,0.1-0.8,0.1l0.3,0.1
							c-0.1,0.2-0.3,0.2-0.7,0.2c0-0.1,0.3-0.1,0.2-0.2c-0.4,0.3-0.8-0.3-1.3-0.1c-0.2-0.1,0-0.3-0.2-0.4c-0.6,0.2-0.6-0.2-1.2,0
							c0.2,0.2,0.2,0.2-0.2,0.4l1-0.2l-0.6,0.4c0.3,0,0.6-0.2,0.8-0.1c-0.3,0.2-0.3,0.1-0.1,0.3c-0.4-0.3-0.8,0.2-1.3,0l0-0.6
							c-0.7-0.2-1.3,0.3-2.2,0.2l0.3,0.1c-0.1,0.2-0.6,0-0.9,0.1c0-0.2-0.2-0.3-0.3-0.4c0,0.1-0.7,0-0.8,0.4l-0.4-0.3
							c-0.7-0.1-0.8,0.6-1.6,0.5c0.2-0.2-0.1-0.4,0.4-0.5c-0.2,0-0.5,0-0.5,0.1c-0.1-0.1-0.7,0.3-0.9,0.1c-0.1,0.1-0.1,0.3-0.4,0.3
							c0,0,0-0.1,0-0.1c0,0.1-0.4,0.1-0.2,0.4c-0.7-0.6-2.1,0.1-2.7-0.4c-0.5,0.1-1.1,0.2-1.6,0.2c0-0.1,0-0.1,0.1-0.1
							c-0.7-0.2-0.4,0.6-1.1,0.4c-0.4-0.3,0.4-0.2,0.2-0.3c-0.1-0.6-0.9,0.1-1.4-0.3l0.1,0c-0.4-0.2-0.9,0.3-1.6,0.2
							c0,0,0-0.1,0-0.1c-0.4,0.3-1.2,0.5-1.8,0.6c0.2-0.3,0.3-0.1,0.1-0.4c-0.3,0,0.1,0.4-0.4,0.5c-0.2-0.1-0.6-0.2-0.6-0.5l0.5,0
							c-0.3-0.3-0.7,0-0.9,0l0-0.2c-0.8,0.1-0.8,0.5-1.6,0.5l0.1,0.1c-0.4,0.4-0.4-0.2-0.8,0.1l-0.1-0.4c-0.3,0.1-1,0.4-1.6,0.5
							c0.3-0.3,0.9-0.5,1.3-0.7c-0.3,0-1,0.1-1.2,0.3c0.1,0,0.3-0.1,0.4-0.1c-0.4,0.3-0.8,0.5-1.4,0.5c0.1-0.8-1.6-0.1-2-0.7
							c-1,0.3-2.1,0-3.3,0.1c0.5,0.6-0.4,0-0.3,0.6c-0.3,0.1-0.4,0-0.4,0l-0.9-0.3c-0.2-0.2,0.3-0.2,0.2-0.3c-0.6,0-0.3-0.2-0.7-0.4
							c0.1,0.2-0.2,0.3-0.6,0.3l0.5,0.2c-0.9,0.4-0.8-0.5-1.7-0.1l0.3-0.2c-0.4,0.1-1.7,0.1-2.1,0.6c-0.1-0.1-0.2-0.2,0-0.3
							c-1.1,0-2.4,0.7-3.2,0.5l0.1-0.2c-0.2,0.1-0.3,0.3-0.6,0.2c0-0.1,0.1-0.2,0-0.2c-0.1,0.1-0.5,0.3-0.8,0.3l0.2-0.2
							c-1.1-0.1-1.6,0.6-2.4,0.8c0-0.4-0.9-0.5-1.3-0.5l0-0.1c-1.2,0.1-2,0.6-3.1,0.9c-0.8-0.4-2.4,0.1-3.6,0c0.2,0.1,0,0.3-0.2,0.4
							c-0.3-0.1-0.7,0.4-0.7,0l0.1,0c-0.3-0.4-0.8-0.2-1.2-0.1l0,0.5c-1.2-0.6-2.8,0.8-3.6,0.2c-0.2,0.2-0.6,0.2-0.8,0.4l0-0.3
							c-0.8,0.1-1.1,0.1-2,0.4l0.1-0.2c-0.5,0.1-0.5,0.9-0.9,1.1l-0.2-0.4c-0.9,0.2-1.9,0.1-2.7,0.6c0-0.1,0-0.2,0.1-0.2
							c-0.4,0.1-1.7,0.1-1.4,0.6c-0.1-0.4-0.9,0.2-1.4,0.5v-0.3c-0.3,0.5-0.3,0.6-0.8,0.8c-0.1,0-0.2-0.2,0-0.2
							c-0.5,0-0.3,0.4-0.8,0.4l0.1-0.2c-0.5,0.1-0.4,0.2-0.6,0.5c-0.3,0.2-0.9,0.2-1,0c0,0.2-0.2,0.4-0.5,0.4
							c-0.1-0.1,0-0.2,0.1-0.2c-0.8,0-1,0.7-1.6,0.6c0-0.1-0.1-0.1-0.1-0.1c0.6-0.2,1.1-0.3,1-0.3c-0.1-0.2-0.6-0.1-0.3-0.6
							c-0.3,0.3-0.9,0.9-1.4,0.9c0,0-0.1,0-0.1-0.1l0,0c-0.1,0-0.2,0.1-0.3,0.1c-0.2,0-0.3,0-0.4,0.1c-0.1-0.2-0.6,0.1-0.8,0.1
							c0.1,0.3-0.2,0.3,0.1,0.4c0,0,0,0,0.2-0.1c0,0,0.1,0,0.1-0.1l0,0c0.2-0.1,0.4-0.1,0.6-0.2c-0.1,0.2-0.3,0.4-0.6,0.3
							c-0.1,0.2-0.1,0.4-0.2,0.5c-0.4-0.3-1.1-0.3-1.3-0.5c-0.7,0.4-1.7,0.7-2,1.3c-0.2,0.1-0.3-0.1-0.4-0.1
							c0.1-0.1,0.2-0.1,0.3-0.2c-0.4,0.3-1.2,0.5-1.2,0.8c-0.6,0,0.2-0.4-0.5-0.1l0.1-0.1c-1.6-0.1-2,1.7-3.8,1.5
							c0.1,0,0.2,0,0.2,0.1c-1.9,0.3-3.6,1.5-5.5,1.6c-0.5,0.1-0.5,0.3-0.8,0.6l-0.2-0.2l-0.4,0.5c-0.7,0.5-1.5-0.3-2.3,0.5l0.2,0.2
							c-0.3,0.1-1,0.5-1,0.2c0,0,0,0.2-0.2,0.2l-0.1-0.1l-0.7,0.5c-0.7,0.1-0.1-0.6-1-0.3c-0.3,0.2-0.8,0.8-0.7,0.8
							c0.1,0,0.4,0,0.5,0.1l-0.3,0.2c0.1,0.5,0,1,0.9,1l0.4-0.5l0.2,0.2l-0.5,0.2c0.3,0.1,0.4-0.1,0.6-0.3c0.1,0.1,0.2,0.2,0.3,0.2
							l0.4-0.6c0.1,0.2-0.1,0.4,0.3,0.4c0.2-0.3-0.4-0.3,0-0.6c0.3,0.1,0.3,0.3,0.6,0c0.1,0.1,0,0.2-0.1,0.3
							c0.2-0.2,0.7-0.3,0.8-0.6c0.4,0.2,0.9-0.4,1,0c0.1-0.1,0.4-0.5,0.6-0.6c-0.3,0.7,0.9-0.3,1,0.3c0.2-0.6,1.1-0.6,1.7-1.1
							c0,0-0.1,0.1-0.1,0.1c0.3-0.1,0.5,0,0.7,0c-0.1-0.4,0.4-0.6,0.6-1c0.5,0.2-0.1,0.5,0.1,0.8c-0.1-0.3,0.6-0.5,0.4-0.7
							c0.4,0.1,0.3,0,0.6,0.3c-0.1-0.5,0.3-0.2,0.4-0.6c0.5,0.1,0.3,0.4,0.7,0.1C2273.4,875.9,2273,876.2,2273,876.2z M2284.6,871.4
							L2284.6,871.4c-0.1,0-0.2,0.1-0.2,0.1C2284.4,871.5,2284.5,871.5,2284.6,871.4z M2285.6,871.1c-0.1,0-0.3,0.1-0.4,0.1
							c-0.1-0.1-0.1-0.2,0-0.2C2285.2,871.1,2285.4,871.1,2285.6,871.1z M2282.9,869.9c0.1-0.1,0.2-0.1,0.3,0
							c-0.1,0-0.2,0.1-0.3,0.1l0,0C2282.9,870,2282.9,870,2282.9,869.9z"/>
						<path class="st5" d="M2282.7,870.4C2282.7,870.4,2282.7,870.4,2282.7,870.4C2282.7,870.4,2282.7,870.4,2282.7,870.4
							L2282.7,870.4L2282.7,870.4z"/>
						<path class="st5" d="M2377.7,861.7L2377.7,861.7C2377.7,861.7,2377.7,861.7,2377.7,861.7
							C2377.7,861.7,2377.7,861.7,2377.7,861.7z"/>
						<polygon class="st5" points="2299.7,868.1 2299.7,868 2299.6,868.1 						"/>
						<path class="st5" d="M2383.6,862C2383.6,862,2383.6,862,2383.6,862C2383.7,862,2383.6,862,2383.6,862z"/>
						<path class="st5" d="M2386.1,861.7l0.4,0C2386.3,861.8,2386.2,861.7,2386.1,861.7z"/>
						<path class="st5" d="M2388,861.6c0-0.1,0-0.1,0-0.1l0,0L2388,861.6z"/>
						<path class="st5" d="M2357.4,864.3C2357.4,864.3,2357.3,864.3,2357.4,864.3C2357.1,864.3,2357.3,864.3,2357.4,864.3z"/>
						<path class="st5" d="M2366.5,863.3c-0.1,0.1-0.2,0.1-0.3,0.1C2366.4,863.4,2366.5,863.4,2366.5,863.3z"/>
						<polygon class="st5" points="2347.2,864.8 2347.2,864.8 2347.1,864.8 						"/>
						<path class="st5" d="M2365.8,863.4c0.2,0,0.3,0,0.4,0C2366.1,863.4,2365.9,863.4,2365.8,863.4z"/>
						<path class="st5" d="M2396.3,860.2L2396.3,860.2C2396.4,860.2,2396.4,860.2,2396.3,860.2L2396.3,860.2z"/>
						<path class="st5" d="M2396.4,860.1L2396.4,860.1C2396.5,860.1,2396.4,860.1,2396.4,860.1z"/>
						<path class="st5" d="M2396.7,860l-0.2,0.1C2396.6,860.1,2396.7,860.1,2396.7,860z"/>
						<path class="st5" d="M2393.8,860.6l0,0.1C2393.8,860.7,2393.8,860.6,2393.8,860.6z"/>
						<path class="st5" d="M2393,860.8c0.2,0,0.5,0.1,0.7,0l0-0.1C2393.7,860.9,2393.2,860.6,2393,860.8z"/>
						<path class="st5" d="M2389.6,860.1l0.7,0c-0.1-0.1-0.3-0.2,0-0.3C2389.4,859.6,2390.5,860,2389.6,860.1z"/>
						<path class="st5" d="M2387.6,860.2c0.3-0.1,0-0.2,0-0.2C2387.4,860.2,2387.3,860.2,2387.6,860.2z"/>
						<path class="st5" d="M2373.2,861.8l0-0.3C2372.9,861.6,2373.2,861.7,2373.2,861.8z"/>
						<polygon class="st5" points="2370.5,863.3 2370.8,863.5 2370.9,863.2 						"/>
						<polygon class="st5" points="2368.7,861.6 2368.8,861.5 2368.4,861.7 						"/>
						<path class="st5" d="M2344.3,862.4l0.1,0.3C2344.6,862.6,2344.6,862.3,2344.3,862.4z"/>
						<path class="st5" d="M2333.8,862.9c-0.1-0.2-0.4-0.2-0.6-0.1C2333.4,862.8,2333.6,863,2333.8,862.9z"/>
						<polygon class="st5" points="2302,865.1 2302.2,865 2301.8,865.1 						"/>
					</g>
				</g>
			</g>
		</g>
	</g>
</g>
<g>
	<path class="st0" d="M2927,444.1l-6.8-17.5c0,0,0,0-31.2,3.5c-31.2,3.5-67.7-16.3-91.4-13.6c-18.2,2.1-71.9,17.7-107.7,26.1
		c-17.3-1.4-32.3-2.9-40.7-4.7c-25.5-5.5-88.3-57.4-118.9-64.1c-30.6-6.6-43.7-5.5-14.6,0.8c18.3,4,90.8,61.8,127.8,80.7
		c-31.3-5.9-110.5-28.7-127-26.8c-31.2,3.5-36.1,8.2-6.4,4.8c29.7-3.4,126.9,42.8,153.6,39.8c8-0.9,34.8-4.2,34.3-4.3
		c27.9,0.1,58.3,0.3,78.3,4.6c37.2,8.1,82.6,67.8,121.7,45.1l0-18.7c0,0,0,0-30.6-6.6c-30.6-6.6-57.6-36.9-81-42
		c-5.3-1.1-13.9-2.2-24.4-3.1c12.5-3.6,24.2-6.4,34.1-7.5C2834,436.3,2898.6,477.9,2927,444.1z"/>
	<g>
		<path class="st1" d="M2606.5,421.6c7.9,8,17.5,14.1,27.7,18.3c5.1,2.2,10.4,3.9,15.8,5.3c5.4,1.4,10.9,2.3,16.4,3
			c11.1,1.3,22.2,1.5,33.4,1c5.6-0.2,11.1-0.7,16.7-1.2c5.6-0.5,11-1.2,16.3-2.9c5.3-1.6,10.4-3.8,15.7-5.8c5.3-2,10.6-3.8,16-5.2
			c5.4-1.5,11-2.6,16.6-3.1c5.6-0.5,11.3-0.3,16.9,0.2c5.6,0.5,11.1,1.2,16.7,1.7l16.7,1.8c11.1,1.3,22.2,2.5,33.4,3.8
			c-11.2-0.9-22.3-1.9-33.5-2.8c-11.1-1-22.3-2.1-33.4-3c-5.6-0.4-11.1-0.5-16.6,0c-5.5,0.5-11,1.6-16.3,3.1
			c-5.4,1.5-10.6,3.3-15.8,5.3c-5.2,1.9-10.4,4.2-15.8,5.9c-5.4,1.7-11.1,2.4-16.7,2.9c-5.6,0.5-11.2,0.9-16.8,1.1
			c-11.2,0.4-22.5,0.3-33.6-1.3c-5.6-0.8-11.1-1.8-16.5-3.3c-5.4-1.5-10.8-3.3-15.9-5.6C2623.6,436.3,2614.1,429.9,2606.5,421.6z"/>
	</g>
	<g>
		<path class="st1" d="M2703,462.4c8.7-0.6,17.4-1.2,26.1-1.7c8.7-0.5,17.4-1.1,26.1-1.5c8.7-0.4,17.6-0.1,26.2,2
			c8.6,2.1,16.7,5.8,24.2,10.3c7.6,4.5,14.6,9.6,21.7,14.8c7,5.2,14,10.3,21.4,14.8c7.4,4.5,15.2,8.4,23.5,10.9
			c4.1,1.2,8.4,2.2,12.7,2.6c4.3,0.4,8.7,0.3,13-0.2c-4.3,0.8-8.7,1-13.1,0.7c-4.4-0.3-8.7-1.1-12.9-2.2c-8.5-2.4-16.5-6.2-24-10.6
			c-7.6-4.4-14.7-9.6-21.7-14.7c-7.1-5.1-14.1-10.2-21.6-14.5c-7.4-4.4-15.3-8.1-23.7-10.2c-8.3-2.2-17.1-2.4-25.7-2.3
			c-8.7,0.2-17.4,0.6-26.1,0.9C2720.4,461.9,2711.7,462.2,2703,462.4z"/>
	</g>
	<g>
		<path class="st1" d="M2661.9,457c4.7,1.5,9.6,2.1,14.4,2c4.8-0.1,9.7-0.6,14.5-1.3c2.4-0.3,4.8-0.7,7.3-1.1c2.4-0.3,4.9-0.7,7.3-1
			c4.9-0.6,9.8-1.2,14.7-1.6c-4.8,1.2-9.6,2.2-14.4,3.1c-4.8,0.9-9.6,1.8-14.5,2.5c-4.9,0.7-9.9,1.2-14.8,0.9
			C2671.3,460.3,2666.3,459.2,2661.9,457z"/>
	</g>
	<g>
		<path class="st1" d="M2639.3,452.1c-10.4-5.7-20.5-12-30.4-18.6c-9.9-6.6-19.6-13.4-29.3-20.2c-9.7-6.8-19.4-13.6-29.3-20.2
			c-9.9-6.5-19.9-12.9-30.3-18.7c10.7,5.2,21.1,11.1,31.1,17.4c10.1,6.3,19.9,13.1,29.6,19.9l29.1,20.6
			C2619.4,439.1,2629.2,445.8,2639.3,452.1z"/>
	</g>
	<g>
		<path class="st3" d="M2646.5,435.6c-11.6-3-22.6-7.9-33.1-13.6c-10.5-5.7-20.6-12.1-30.6-18.5c-10-6.4-19.9-12.8-30.2-18.5
			c-10.3-5.7-21-10.7-32.4-14.4c11.8,1.7,23.3,5.8,34.1,10.9c10.9,5.1,21.1,11.4,31.1,17.8c10,6.5,19.8,13.1,29.8,19.4
			C2625.3,424.9,2635.6,430.7,2646.5,435.6z"/>
	</g>
	<g>
		<path class="st3" d="M2519.7,428c5.3-1.4,10.9-1.4,16.3-0.8c5.4,0.6,10.7,1.9,15.9,3.3c5.2,1.4,10.3,2.9,15.4,4.6
			c5.1,1.7,10.1,3.6,15,6c-5.4-0.4-10.8-1.2-16-2.2c-5.3-1-10.5-2.2-15.7-3.6c-5.2-1.4-10.2-2.9-15.3-4.2
			C2530.2,429.8,2525.1,428.7,2519.7,428z"/>
	</g>
	<g>
		<path class="st3" d="M2707.8,439.6c13.7-5.2,27.5-9.9,41.3-14.5c6.9-2.3,13.9-4.5,20.9-6.6c7.1-2,14.3-3.7,21.7-4.7
			c3.7-0.5,7.5-0.7,11.2-0.7c3.8,0,7.5,0.2,11.3,0.9c0.9,0.1,1.9,0.3,2.8,0.5l2.7,0.6c1.8,0.5,3.6,0.9,5.4,1.4
			c3.6,1,7.1,2.2,10.5,3.5c6.9,2.5,13.6,5.3,20.5,7.6c6.8,2.3,13.9,4,21.2,4.6c-7.3,0.5-14.7-0.5-21.9-2.2c-7.2-1.8-14.1-4.1-21-6.2
			c-6.9-2.1-13.8-4.2-20.9-5c-7-1-14.1-0.9-21.1,0.1c-7.1,0.8-14.1,2.5-21.1,4.3c-7,1.8-14,3.9-21,5.8
			C2736.2,432.7,2722.1,436.4,2707.8,439.6z"/>
	</g>
</g>
<g>
	<path class="st0" d="M529.8,643.4c-39.3,0-161.2-79.8-196.7-79.8S206.2,592.1,156,592.1S28.7,528.2-14.1,568.2l5.9,23.9
		c0,0,0,0,41.3,0c12.8,0,26,3,38.9,7.2c18.9,8.4,36.1,24.3,51,27.3c18.4,3.6,87.9,4.2,108,8.2s80.1,44.2,104.3,48.9
		c24.1,4.7,31.3,1.7,8.3-2.8c-22.5-4.4-82.8-62-104.5-68.1c36.8-5.3,73.9-19,91.1-19c34.4,0,147.6,54.2,188.9,54.2
		S569.1,643.4,529.8,643.4z"/>
	<g>
		<path class="st1" d="M102.5,598.5c6.3,3.5,12.5,7,19.1,9.8c6.5,2.9,13.5,4.7,20.5,5.9c14.1,2.5,28.4,2.5,42.8,2.9
			c7.2,0.2,14.4,0.6,21.6,1.4l5.4,0.7c1.8,0.3,3.6,0.6,5.3,0.9c1.8,0.3,3.5,0.8,5.3,1.2l2.6,0.6l2.6,0.8c6.9,2.1,13.6,5.2,19.7,9
			c6,3.9,11.6,8.6,16.3,14.1c-5-5.1-10.7-9.6-16.8-13.2c-6.1-3.7-12.7-6.5-19.6-8.4c-6.9-1.9-13.9-3.2-21-3.9
			c-7.1-0.7-14.3-1-21.4-1.2c-7.2-0.2-14.4-0.4-21.5-0.8c-7.2-0.4-14.4-1.1-21.5-2.6c-7.1-1.4-14.1-3.5-20.6-6.6
			C114.7,606.1,108.5,602.4,102.5,598.5z"/>
	</g>
	<g>
		<path class="st1" d="M182.3,607.7c9-1,17.9-3,26.5-5.6c8.7-2.5,17.2-5.6,25.7-8.7c8.5-3.2,17-6.3,25.6-9.2
			c8.6-2.9,17.4-5.4,26.4-7.1c17.9-3.3,36.4-3.7,54.4-1.1c9,1.3,17.9,3.4,26.6,6.1c8.6,2.8,17.1,6.3,25.1,10.6
			c-8.2-3.9-16.7-7.2-25.4-9.6c-8.7-2.6-17.5-4.4-26.5-5.5c-17.9-2.3-36.1-1.9-53.8,1.5c-8.9,1.6-17.6,4.1-26.2,6.9
			c-8.6,2.8-17.1,6-25.7,8.9c-8.6,3-17.2,5.9-26,8.2C200.3,605.3,191.3,607.1,182.3,607.7z"/>
	</g>
	<g>
		<path class="st1" d="M313.4,583c5.5-0.8,11.1-0.7,16.6-0.1c5.5,0.6,11,1.8,16.4,3.3c10.7,3,21,7.1,31.5,10.6
			c10.5,3.5,21.2,6.3,31.9,8.8c10.8,2.5,21.6,4.8,32.4,7.2c-11-1.6-21.9-3.4-32.8-5.6c-10.9-2.2-21.7-5-32.2-8.5
			c-10.5-3.5-20.8-7.7-31.3-11C335.5,584.6,324.5,582.3,313.4,583z"/>
	</g>
	<g>
		<path class="st3" d="M320.8,562.9c18.6,1,37,5.7,54.4,12.4c8.8,3.3,17.3,7.1,25.7,11.1c8.4,4,16.7,8.4,24.9,12.7
			c8.2,4.4,16.3,8.8,24.5,13.1c8.2,4.4,16.4,8.5,24.8,12.4c8.4,3.9,16.9,7.6,25.5,10.7c8.7,3.2,17.6,5.8,26.9,6.5
			c-9.3,0.3-18.7-1.6-27.6-4.2c-2.2-0.6-4.5-1.4-6.7-2.1c-2.2-0.7-4.4-1.5-6.6-2.3c-4.4-1.6-8.7-3.3-13-5.1
			c-8.6-3.6-17-7.7-25.4-11.8c-8.3-4.2-16.5-8.6-24.7-12.9c-8.2-4.4-16.4-8.7-24.6-12.9c-8.2-4.2-16.6-8.1-25.1-11.8
			C356.8,571.6,339.1,565.9,320.8,562.9z"/>
	</g>
</g>
<g>
	<path class="st0" d="M2943.8-81c0,0,0,0-55.1,21.1c-55.1,21.1-132.5,2-174.5,18c-42,16.1-170.5,118-216.5,135.6
		s-235.8-2.7-291,18.4c-55.1,21.1-54.5,28.2-2,8.1c9.5-3.6,41.4-0.7,58.3-1c-24.4,11-62.2,27.7-74.6,31.3
		c-20.1,5.8-94.9-2.7-119,4.3c-24.1,6.9-22.1,8.7,0.8,2.2c22.9-6.6,104.9,16.4,125.6,10.5c20.1-5.8,65.7-31.4,96-40.1
		c11.8-3.4,28-1.8,44.4-0.6c68.1,5.9,141.7,14.9,168.6,4.6c47.3-18.1,152.7-102.8,219.7-128.4s207.4,20.3,241.1-55L2943.8-81z"/>
	<g>
		<path class="st1" d="M2926.8-46.5c-2.6,1.9-5.4,3.7-8.3,5.2c-2.9,1.5-6,2.8-9.1,3.8c-6.2,2.1-12.7,3.5-19.1,4.5
			c-6.5,1-13,1.7-19.5,2.3c-6.5,0.6-13.1,1.2-19.6,1.7c-26.1,2.1-52.4,3.3-78.6,3.8c-6.6,0.1-13.1,0.2-19.7,0.2l-9.8,0
			c-3.3,0-6.5-0.1-9.7,0.3c-3.2,0.3-6.2,1.2-9.1,2.6c-2.9,1.4-5.6,3.1-8.4,4.9l-16.6,10.6l-66.3,42.2l-66.4,42.1
			c-5.5,3.5-11.1,7-16.7,10.5L2533,98.5c-11.2,6.8-22,14.3-34,19.9c-6,2.8-12.3,4.9-18.9,5.9c-6.6,1-13.2,0.9-19.7,0.7l-39.3-2.2
			l-78.5-4.7l78.6,3.7l39.3,1.9c6.5,0.2,13.1,0.2,19.5-0.8c6.4-1,12.6-3.1,18.5-5.9c11.7-5.6,22.6-13.1,33.7-20l16.7-10.4
			c5.6-3.5,11.1-7,16.6-10.5l66.3-42.2l66.4-42.1l16.6-10.5c2.8-1.7,5.6-3.5,8.6-5c1.5-0.7,3.1-1.3,4.7-1.8c1.6-0.5,3.3-0.8,5-0.9
			c3.3-0.4,6.7-0.3,9.9-0.3l9.8,0.1c6.5,0,13.1,0,19.6-0.1c26.2-0.3,52.4-1.3,78.5-3.2c6.5-0.5,13.1-0.9,19.6-1.5
			c6.5-0.5,13.1-1.1,19.5-2.1c6.5-0.9,12.9-2.2,19.1-4.3c3.1-1,6.1-2.3,9.1-3.7C2921.3-42.8,2924.1-44.5,2926.8-46.5z"/>
	</g>
	<g>
		<path class="st1" d="M2593.4,66c9.4-5.6,18.9-11.1,28.4-16.6l28.4-16.4c9.5-5.5,18.9-11,28.3-16.6c9.4-5.6,18.8-11.3,28.1-17
			c-8.9,6.4-18,12.5-27.3,18.3c-9.3,5.9-18.7,11.5-28.1,17c-9.5,5.5-19,10.8-28.7,16C2612.9,56,2603.2,61,2593.4,66z"/>
	</g>
	<g>
		<path class="st1" d="M2261.5,132.7c6-2.7,12.1-5.3,18.1-7.9l18.2-7.7c6.1-2.5,12.4-4.7,19.1-5.8c6.6-1,13.3-1.1,19.9-1.2
			c13.2-0.1,26.4-0.2,39.6-0.3l19.8,0c6.6,0.1,13.2,0.1,19.8,0.3c-6.6,0.3-13.2,0.5-19.8,0.7l-19.8,0.5c-13.2,0.3-26.4,0.5-39.5,0.7
			c-6.6,0.1-13.2,0-19.6,1c-6.4,0.9-12.6,3.1-18.8,5.4l-18.4,7.2C2273.9,128,2267.7,130.4,2261.5,132.7z"/>
	</g>
	<g>
		<path class="st3" d="M2193.9,145.8c-8.5,5.2-18.5,8-28.4,9.4c-10,1.4-20.1,1.3-30,0.8c-9.9-0.6-19.8-1.5-29.6-2.2
			c-9.8-0.6-19.6-0.8-29.5,0c9.6-2.9,19.7-3.8,29.6-3.9c10-0.1,19.9,0.6,29.8,1.1c9.8,0.6,19.6,0.9,29.4,0.3
			C2174.8,150.7,2184.5,149.1,2193.9,145.8z"/>
	</g>
	<g>
		<path class="st3" d="M2479.5,97.3c-21.6,5.4-44.2,7.4-66.5,6.2c-11.2-0.5-22.2-1.4-33.2-1.3c-2.7,0-5.5,0.1-8.2,0.2
			c-2.7,0.1-5.5,0.4-8.2,0.6c-5.5,0.5-11,1.2-16.6,1.7c-11.2,0.9-22.4,1-33.6,0.9c-11.2-0.2-22.3-0.6-33.4-1
			c-22.1-0.6-44.4-0.5-66.2,4.3c10.6-3.4,21.7-5.4,32.8-6.6c11.1-1.2,22.3-1.5,33.5-1.6c11.2-0.1,22.3,0.2,33.4,0.1
			c11.1,0,22.1-0.2,33.1-1.1c5.5-0.4,11-1.1,16.6-1.6c5.6-0.5,11.3-0.8,16.9-0.7c11.3,0.2,22.4,1.3,33.4,2.2
			C2435.2,101.5,2457.5,100.7,2479.5,97.3z"/>
	</g>
</g>
<g>
	<path class="st0" d="M-15.4,261.6c28.4,33.9,93-7.8,130.8-3.5c37.9,4.3,107.5,23.5,134.2,26.5s113.8-39,143.5-35.6
		c29.7,3.4,26.4-0.4-4.8-3.9c-31.2-3.5-114.5,23.3-140.5,20.3c-26-2.9-110.1-28.7-133.8-31.3c-23.8-2.7-60.2,17.1-91.4,13.6
		c-31.2-3.5-31.2-3.5-31.2-3.5L-15.4,261.6z"/>
	<g>
		<path class="st1" d="M99.5,250.1c8.8-2.1,17.7-4.1,26.9-4.4c4.6-0.1,9.2,0.2,13.7,1.2c4.5,1,8.8,2.7,13,4.5
			c4.2,1.8,8.4,3.4,12.6,4.8c4.3,1.4,8.6,2.6,13,3.6c8.8,2.1,17.7,3.7,26.6,5.4l26.7,5.2c8.9,1.7,17.8,3.7,26.7,4.5
			c4.5,0.4,9,0.4,13.4-0.2c4.5-0.5,8.9-1.5,13.2-2.8c8.7-2.5,17-6.2,25.3-9.8c-4.1,2-8.2,4-12.3,5.8c-4.2,1.8-8.4,3.5-12.7,4.9
			c-4.3,1.4-8.8,2.5-13.3,3.1c-4.5,0.6-9.2,0.8-13.7,0.5c-4.6-0.3-9.1-0.9-13.6-1.7c-4.5-0.8-8.9-1.7-13.4-2.5l-26.8-5
			c-8.9-1.7-17.8-3.4-26.7-5.6c-4.4-1.1-8.8-2.3-13.2-3.7c-2.2-0.7-4.3-1.5-6.4-2.4c-2.1-0.9-4.2-1.8-6.3-2.7
			c-4.1-1.8-8.3-3.6-12.6-4.7c-4.3-1.1-8.8-1.5-13.4-1.5C117.4,246.6,108.4,248.4,99.5,250.1z"/>
	</g>
	<g>
		<path class="st3" d="M200,254.3c13.7,5,27.8,8,42.1,8.9c14.3,0.9,28.6-0.3,42.5-3.7c7-1.6,14-3.6,21.1-5.3
			c7.1-1.7,14.2-3.3,21.3-4.6c14.3-2.8,28.7-4.9,43.2-6c-14.2,3.2-28.3,6.4-42.4,9.8c-7,1.8-14,3.5-21,5.4c-7,1.8-13.9,3.9-21.1,5.6
			c-7.2,1.7-14.5,2.9-21.9,3.3c-7.4,0.4-14.8,0.3-22.1-0.6C227.1,265.4,212.8,261.2,200,254.3z"/>
	</g>
</g>
</svg>
