<?xml version="1.0" encoding="utf-8"?>
<!-- Generator: Adobe Illustrator 21.0.2, SVG Export Plug-In . SVG Version: 6.00 Build 0)  -->
<svg version="1.1" id="Layer_1" xmlns="http://www.w3.org/2000/svg" xmlns:xlink="http://www.w3.org/1999/xlink" x="0px" y="0px"
	 viewBox="0 0 555.1 919" style="enable-background:new 0 0 555.1 919;" xml:space="preserve">
<style type="text/css">
	.st0{fill:#C4B7B5;}
	.st1{fill:#00006C;}
	.st2{fill:none;}
	.st3{fill:#FFD773;}
	.st4{fill:none;stroke:#FFF7DF;stroke-miterlimit:10;}
	.st5{fill:#FFDC85;}
</style>
<g>
	<path class="st0" d="M529.8,643.4c-39.3,0-161.2-79.8-196.7-79.8S206.2,592.1,156,592.1S28.7,528.2-14.1,568.2l5.9,23.9
		c0,0,0,0,41.3,0c12.8,0,26,3,38.9,7.2c18.9,8.4,36.1,24.3,51,27.3c18.4,3.6,87.9,4.2,108,8.2s80.1,44.2,104.3,48.9
		c24.1,4.7,31.3,1.7,8.3-2.8c-22.5-4.4-82.8-62-104.5-68.1c36.8-5.3,73.9-19,91.1-19c34.4,0,147.6,54.2,188.9,54.2
		S569.1,643.4,529.8,643.4z"/>
	<g>
		<path class="st1" d="M102.5,598.5c6.3,3.5,12.5,7,19.1,9.8c6.5,2.9,13.5,4.7,20.5,5.9c14.1,2.5,28.4,2.5,42.8,2.9
			c7.2,0.2,14.4,0.6,21.6,1.4l5.4,0.7c1.8,0.3,3.6,0.6,5.3,0.9c1.8,0.3,3.5,0.8,5.3,1.2l2.6,0.6l2.6,0.8c6.9,2.1,13.6,5.2,19.7,9
			c6,3.9,11.6,8.6,16.3,14.1c-5-5.1-10.7-9.6-16.8-13.2c-6.1-3.7-12.7-6.5-19.6-8.4c-6.9-1.9-13.9-3.2-21-3.9
			c-7.1-0.7-14.3-1-21.4-1.2c-7.2-0.2-14.4-0.4-21.5-0.8c-7.2-0.4-14.4-1.1-21.5-2.6c-7.1-1.4-14.1-3.5-20.6-6.6
			C114.7,606.1,108.5,602.4,102.5,598.5z"/>
	</g>
	<g>
		<path class="st1" d="M182.3,607.7c9-1,17.9-3,26.5-5.6c8.7-2.5,17.2-5.6,25.7-8.7c8.5-3.2,17-6.3,25.6-9.2
			c8.6-2.9,17.4-5.4,26.4-7.1c17.9-3.3,36.4-3.7,54.4-1.1c9,1.3,17.9,3.4,26.6,6.1c8.6,2.8,17.1,6.3,25.1,10.6
			c-8.2-3.9-16.7-7.2-25.4-9.6c-8.7-2.6-17.5-4.4-26.5-5.5c-17.9-2.3-36.1-1.9-53.8,1.5c-8.9,1.6-17.6,4.1-26.2,6.9
			c-8.6,2.8-17.1,6-25.7,8.9c-8.6,3-17.2,5.9-26,8.2C200.3,605.3,191.3,607.1,182.3,607.7z"/>
	</g>
	<g>
		<path class="st1" d="M313.4,583c5.5-0.8,11.1-0.7,16.6-0.1c5.5,0.6,11,1.8,16.4,3.3c10.7,3,21,7.1,31.5,10.6
			c10.5,3.5,21.2,6.3,31.9,8.8c10.8,2.5,21.6,4.8,32.4,7.2c-11-1.6-21.9-3.4-32.8-5.6c-10.9-2.2-21.7-5-32.2-8.5
			c-10.5-3.5-20.8-7.7-31.3-11C335.5,584.6,324.5,582.3,313.4,583z"/>
	</g>
	<g>
		<path class="st3" d="M320.8,562.9c18.6,1,37,5.7,54.4,12.4c8.8,3.3,17.3,7.1,25.7,11.1c8.4,4,16.7,8.4,24.9,12.7
			c8.2,4.4,16.3,8.8,24.5,13.1c8.2,4.4,16.4,8.5,24.8,12.4c8.4,3.9,16.9,7.6,25.5,10.7c8.7,3.2,17.6,5.8,26.9,6.5
			c-9.3,0.3-18.7-1.6-27.6-4.2c-2.2-0.6-4.5-1.4-6.7-2.1c-2.2-0.7-4.4-1.5-6.6-2.3c-4.4-1.6-8.7-3.3-13-5.1
			c-8.6-3.6-17-7.7-25.4-11.8c-8.3-4.2-16.5-8.6-24.7-12.9c-8.2-4.4-16.4-8.7-24.6-12.9c-8.2-4.2-16.6-8.1-25.1-11.8
			C356.8,571.6,339.1,565.9,320.8,562.9z"/>
	</g>
</g>
<g>
	<path class="st0" d="M-15.4,261.6c28.4,33.9,93-7.8,130.8-3.5c37.9,4.3,107.5,23.5,134.2,26.5s113.8-39,143.5-35.6
		c29.7,3.4,26.4-0.4-4.8-3.9c-31.2-3.5-114.5,23.3-140.5,20.3c-26-2.9-110.1-28.7-133.8-31.3c-23.8-2.7-60.2,17.1-91.4,13.6
		c-31.2-3.5-31.2-3.5-31.2-3.5L-15.4,261.6z"/>
	<g>
		<path class="st1" d="M99.5,250.1c8.8-2.1,17.7-4.1,26.9-4.4c4.6-0.1,9.2,0.2,13.7,1.2c4.5,1,8.8,2.7,13,4.5
			c4.2,1.8,8.4,3.4,12.6,4.8c4.3,1.4,8.6,2.6,13,3.6c8.8,2.1,17.7,3.7,26.6,5.4l26.7,5.2c8.9,1.7,17.8,3.7,26.7,4.5
			c4.5,0.4,9,0.4,13.4-0.2c4.5-0.5,8.9-1.5,13.2-2.8c8.7-2.5,17-6.2,25.3-9.8c-4.1,2-8.2,4-12.3,5.8c-4.2,1.8-8.4,3.5-12.7,4.9
			c-4.3,1.4-8.8,2.5-13.3,3.1c-4.5,0.6-9.2,0.8-13.7,0.5c-4.6-0.3-9.1-0.9-13.6-1.7c-4.5-0.8-8.9-1.7-13.4-2.5l-26.8-5
			c-8.9-1.7-17.8-3.4-26.7-5.6c-4.4-1.1-8.8-2.3-13.2-3.7c-2.2-0.7-4.3-1.5-6.4-2.4c-2.1-0.9-4.2-1.8-6.3-2.7
			c-4.1-1.8-8.3-3.6-12.6-4.7c-4.3-1.1-8.8-1.5-13.4-1.5C117.4,246.6,108.4,248.4,99.5,250.1z"/>
	</g>
	<g>
		<path class="st3" d="M200,254.3c13.7,5,27.8,8,42.1,8.9c14.3,0.9,28.6-0.3,42.5-3.7c7-1.6,14-3.6,21.1-5.3
			c7.1-1.7,14.2-3.3,21.3-4.6c14.3-2.8,28.7-4.9,43.2-6c-14.2,3.2-28.3,6.4-42.4,9.8c-7,1.8-14,3.5-21,5.4c-7,1.8-13.9,3.9-21.1,5.6
			c-7.2,1.7-14.5,2.9-21.9,3.3c-7.4,0.4-14.8,0.3-22.1-0.6C227.1,265.4,212.8,261.2,200,254.3z"/>
	</g>
</g>
</svg>
