<?xml version="1.0" encoding="utf-8"?>
<!-- Generator: Adobe Illustrator 21.0.2, SVG Export Plug-In . SVG Version: 6.00 Build 0)  -->
<svg version="1.1" id="Layer_1" xmlns="http://www.w3.org/2000/svg" xmlns:xlink="http://www.w3.org/1999/xlink" x="0px" y="0px"
	 viewBox="0 0 569.5 912" style="enable-background:new 0 0 569.5 912;" xml:space="preserve">
<style type="text/css">
	.st0{fill:#C4B7B5;}
	.st1{fill:#00006C;}
	.st2{fill:none;}
	.st3{fill:#FFD773;}
	.st4{fill:none;stroke:#FFF7DF;stroke-miterlimit:10;}
	.st5{fill:#FFDC85;}
</style>
<g>
	<path class="st0" d="M423.8,111.1c-35.1,0-143.8-71.2-175.4-71.2S135.2,65.3,90.5,65.3S-23.1,8.3-61.3,44l5.3,21.3c0,0,0,0,36.9,0
		c11.5,0,23.2,2.7,34.7,6.4C32.3,79.2,47.7,93.4,61,96c16.4,3.2,78.4,3.8,96.3,7.3c18,3.5,71.5,39.4,93,43.6
		c21.5,4.2,27.9,1.5,7.4-2.5c-20.1-3.9-73.9-55.3-93.2-60.7c32.8-4.7,65.9-16.9,81.2-16.9c30.7,0,131.6,48.4,168.5,48.4
		S458.9,111.1,423.8,111.1z"/>
	<g>
		<path class="st1" d="M42.7,71.1c5.6,3.1,11.2,6.2,17.1,8.7c5.8,2.5,12,4.2,18.3,5.3c12.5,2.2,25.3,2.2,38.1,2.6
			c6.4,0.2,12.8,0.5,19.2,1.2l4.8,0.6c1.6,0.2,3.2,0.5,4.8,0.8c1.6,0.2,3.2,0.7,4.7,1l2.4,0.6l2.3,0.7c6.2,1.8,12.1,4.6,17.5,8.1
			c5.4,3.5,10.3,7.7,14.5,12.6c-4.5-4.6-9.5-8.6-15-11.8c-5.5-3.2-11.3-5.8-17.5-7.4c-6.1-1.7-12.4-2.9-18.7-3.5
			c-6.3-0.6-12.7-0.9-19.1-1c-6.4-0.2-12.8-0.4-19.2-0.7c-6.4-0.4-12.8-1-19.2-2.3c-6.3-1.3-12.6-3.1-18.4-5.9
			C53.6,77.9,48.1,74.6,42.7,71.1z"/>
	</g>
	<g>
		<path class="st1" d="M113.9,79.3c8-1,15.9-2.7,23.7-5c7.7-2.3,15.3-5,22.9-7.8c7.6-2.9,15.1-5.7,22.8-8.2
			c7.7-2.6,15.5-4.8,23.5-6.4c16-3,32.5-3.3,48.6-0.9c8,1.2,16,3,23.7,5.5c7.7,2.5,15.2,5.6,22.3,9.5c-7.3-3.4-14.9-6.3-22.6-8.6
			c-7.7-2.3-15.6-3.9-23.6-4.9c-16-2-32.2-1.7-48,1.4c-15.8,2.9-30.9,8.8-46.2,14.1c-7.6,2.7-15.3,5.2-23.2,7.3
			C129.9,77.2,121.9,78.8,113.9,79.3z"/>
	</g>
	<g>
		<path class="st1" d="M230.8,57.2c4.9-0.7,9.9-0.6,14.8-0.1c4.9,0.6,9.8,1.6,14.6,3c9.6,2.6,18.8,6.3,28.1,9.4
			c9.3,3.1,18.9,5.6,28.4,7.9c9.6,2.2,19.3,4.3,28.9,6.5c-9.8-1.4-19.6-2.9-29.2-4.9c-9.7-2-19.3-4.4-28.7-7.5
			c-9.4-3.2-18.5-6.9-27.9-9.8C250.5,58.7,240.7,56.6,230.8,57.2z"/>
	</g>
	<g>
		<path class="st3" d="M237.4,39.3c16.6,0.7,33,4.9,48.6,10.8c7.8,2.9,15.4,6.3,23,9.9c7.5,3.6,14.9,7.5,22.2,11.3
			c7.3,3.9,14.6,7.9,21.9,11.7c7.3,3.9,14.7,7.6,22.1,11.1c7.4,3.5,15,6.8,22.7,9.6c7.7,2.9,15.6,5.2,23.9,6
			c-8.3,0.4-16.7-1.4-24.7-3.6c-4-1.2-8-2.5-11.9-3.8c-3.9-1.4-7.8-2.9-11.7-4.5c-7.7-3.2-15.2-6.8-22.7-10.5
			c-7.4-3.7-14.7-7.7-22.1-11.5c-7.3-3.9-14.6-7.8-21.9-11.5c-7.3-3.8-14.8-7.2-22.3-10.5C269.5,47.3,253.8,42.1,237.4,39.3z"/>
	</g>
</g>
<g>
	<path class="st0" d="M447.1,821.4c-44.7,0-126.3-25.4-157.9-25.4s-130.7,70.3-165.8,70.3c-71.3,0-4.3,6,0,6
		c36.9,0,132-47.2,162.7-47.2c1.4,0,33.3,5.4,34.9,5.5c-6.8,0.2-37.6,0.9-42.7,2.7c-20,7.1-86.8,46.3-108.6,54
		c-21.8,7.8-90.5,4.2-116.6,13.5c-26.2,9.3-37,15.8-12.1,6.9c24.9-8.9,127.7,2,150.1-6c22.4-8,59.8-36,91.6-47.4
		c27.7-9.9,101.9-9.2,105.3-12.4c27.4,3.9,75.2,7.3,87.1,7.3c28.1,0,44.9-27.9,81.8-27.9c36.9,0,36.9,0,36.9,0l5.3-21.3
		C560.7,764.4,491.8,821.4,447.1,821.4z"/>
	<g>
		<path class="st1" d="M578.6,812.4c-16.2-4.3-33.6-3.8-49.5,1.3c-4,1.3-7.9,2.8-11.6,4.7c-0.9,0.4-1.9,0.9-2.8,1.4
			c-0.9,0.5-1.8,1-2.7,1.5c-1.8,1.1-3.5,2.2-5.3,3.4c-3.5,2.3-6.9,4.8-10.5,7c-3.6,2.2-7.4,4.2-11.5,5.5c-8.1,2.7-16.8,3.2-25.2,2.6
			c-8.4-0.5-16.8-2-25-3.2c-16.6-2.4-33.3-3.8-50-3.9c-33.4-0.5-67,3.5-99.4,12c-4,1.2-7.9,2.6-11.5,4.6c-3.6,2-7.1,4.3-10.6,6.7
			c-6.9,4.7-14,9.3-21.2,13.6c-14.4,8.6-29.4,16.3-44.8,23c15.2-7.1,30-15,44.2-23.9c7.1-4.4,14.1-9,21-13.8
			c3.4-2.4,6.9-4.8,10.6-6.9c3.7-2.1,7.7-3.6,11.8-4.8c16.2-4.6,32.8-7.6,49.5-9.7c8.3-1,16.7-1.8,25.1-2.3
			c4.2-0.3,8.4-0.4,12.6-0.5c4.2,0,8.4-0.2,12.6,0c16.8,0.2,33.6,1.7,50.3,4.1c8.3,1.3,16.6,2.7,24.9,3.3c8.3,0.5,16.7,0.2,24.6-2.3
			c7.9-2.5,14.8-7.5,21.8-12.1c1.8-1.1,3.5-2.3,5.4-3.3c0.9-0.5,1.9-1,2.8-1.5c0.9-0.5,1.9-1,2.8-1.4c3.8-1.9,7.7-3.4,11.8-4.6
			C544.9,807.9,562.5,807.6,578.6,812.4z"/>
	</g>
	<g>
		<path class="st1" d="M164.7,857.6c8.3-3.6,16.7-7,25.1-10.5l25.2-10.4c8.4-3.5,16.8-6.8,25.2-10.2l12.6-5.1
			c4.2-1.7,8.4-3.5,12.7-5c2.2-0.7,4.4-1.4,6.7-1.8c2.3-0.4,4.6-0.6,6.9-0.7c4.6-0.1,9.2,0.5,13.7,1.4c4.5,0.9,8.9,2,13.3,3
			c4.4,1,8.8,2,13.3,2.8c8.9,1.6,17.9,2.5,27,2.9c9,0.4,18.1,0.1,27.2-0.7c-4.5,0.6-9,1.1-13.6,1.3c-4.5,0.3-9.1,0.4-13.6,0.3
			c-9.1-0.1-18.2-0.9-27.2-2.3c-2.3-0.3-4.5-0.8-6.7-1.2c-2.2-0.5-4.5-0.9-6.7-1.4c-4.4-1-8.8-2.1-13.2-2.9
			c-4.4-0.8-8.9-1.3-13.3-1.2c-2.2,0.1-4.4,0.3-6.6,0.7c-2.2,0.4-4.3,1.1-6.4,1.8c-4.2,1.5-8.4,3.2-12.7,4.9l-12.7,5
			c-8.4,3.3-16.9,6.7-25.3,10l-25.4,9.8C181.6,851.1,173.2,854.4,164.7,857.6z"/>
	</g>
	<g>
		<path class="st1" d="M107.6,899.8c7.6,0.1,15.1,0.3,22.7,0.1c7.6-0.1,15.1-0.5,22.6-1.5c7.5-1,14.8-2.5,21.9-5
			c7.1-2.4,13.8-5.9,20-10.1c3.2-2,6.3-4.2,9.5-6.2c3.2-2.1,6.4-4.1,9.7-6c6.5-3.9,13.1-7.6,19.8-11.1c6.7-3.5,13.5-6.9,20.3-10.1
			c6.9-3.2,13.7-6.4,20.6-9.5l-20.2,10.4c-6.7,3.5-13.4,7-20,10.6c-6.6,3.7-13.2,7.4-19.6,11.3c-3.2,2-6.4,4-9.6,6.1
			c-3.2,2.1-6.3,4.2-9.4,6.3c-6.3,4.2-13.3,7.7-20.5,10.1c-7.2,2.4-14.8,4-22.3,4.8c-7.6,0.8-15.2,1-22.7,1
			C122.7,900.7,115.2,900.3,107.6,899.8z"/>
	</g>
	<g>
		<path class="st1" d="M440.4,827.5c3.6,0.8,7.2,1.3,10.8,1.6c3.6,0.2,7.2,0.3,10.8-0.1c3.6-0.3,7.1-0.9,10.6-1.8
			c3.5-0.9,6.9-2,10.4-3.4c-3,2.1-6.4,3.7-9.9,4.9c-3.5,1.2-7.2,1.9-10.9,2.3c-3.7,0.3-7.5,0.2-11.1-0.4
			C447.3,830.1,443.7,829.1,440.4,827.5z"/>
	</g>
	<g>
		<path class="st3" d="M360.6,807.8c-22.4-4-44.8-7.1-67.4-9.1c-2.8-0.2-5.5-0.3-8.2-0.2c-2.7,0.2-5.2,0.7-7.9,1.5
			c-5.3,1.7-10.6,3.7-15.8,5.8c-10.4,4.2-20.6,9.2-30.6,14.4c-10,5.2-19.9,10.8-29.9,16.2l-15,8c-5,2.7-10,5.4-15.1,7.9
			c-10.2,5.2-21,9.4-32.2,11.9c-11.2,2.4-22.7,3-34.1,2.5c11.3-0.6,22.6-1.9,33.5-4.9c10.9-2.9,21.1-7.5,31-12.9l29.7-16.6
			c9.9-5.5,19.8-11.1,29.9-16.5c10.1-5.2,20.4-10.2,31.1-14.4c5.4-2.1,10.7-4,16.3-5.6c2.8-0.8,5.8-1.4,8.9-1.5
			c3-0.1,5.9,0.1,8.8,0.5C316.3,797.5,338.7,801.7,360.6,807.8z"/>
	</g>
	<g>
		<g>
			<g>
				<g>
					<g>
						<path class="st5" d="M154.8,891.1c0-0.1,0-0.3-0.2-0.2l-0.1,0.3L154.8,891.1z"/>
						<path class="st5" d="M153.4,890.7c-0.2,0.2-0.4,0.5-0.2,0.8c0.1-0.4,0.2-0.2,0.4-0.6c0.2-0.1,0.3,0,0.3,0.2
							c0-0.1,0.3,0,0.3-0.2c-0.3-0.2-0.6-0.2-0.8,0.1C153.4,890.9,153.4,890.8,153.4,890.7z"/>
						<path class="st5" d="M136,892.9l0.1,0C136.1,892.9,136,892.9,136,892.9z"/>
						<path class="st5" d="M125.1,893.4c0.1,0,0.1,0,0.1-0.1C125.1,893.4,125.1,893.4,125.1,893.4z"/>
						<path class="st5" d="M123.2,893.1c0,0,0.1,0,0.1,0C123.3,893.1,123.2,893.1,123.2,893.1z"/>
						<path class="st5" d="M136,892.9l-0.3-0.1C135.7,892.9,135.8,892.9,136,892.9z"/>
						<path class="st5" d="M151.2,892c0.1,0,0.1-0.1,0.1-0.1C151.3,891.9,151.3,892,151.2,892L151.2,892z"/>
						<path class="st5" d="M140.7,892.1L140.7,892.1c0.1-0.1,0.1-0.1,0.1-0.2L140.7,892.1z"/>
						<path class="st5" d="M144.3,891.6c-0.1,0-0.1,0.3-0.1,0.4c0-0.1,0.1-0.2,0.2-0.2C144.4,891.7,144.4,891.6,144.3,891.6z"/>
						<path class="st5" d="M150.2,891.1L150.2,891.1C150.2,891,150.2,891.1,150.2,891.1z"/>
						<path class="st5" d="M138.1,892.3C138.1,892.3,138.1,892.3,138.1,892.3C138,892.3,138.1,892.3,138.1,892.3z"/>
						<path class="st5" d="M36.8,907.8C36.8,907.8,36.8,907.8,36.8,907.8C36.8,907.8,36.8,907.8,36.8,907.8z"/>
						<path class="st5" d="M32.3,907.9L32.3,907.9c0-0.1,0-0.1,0-0.2L32.3,907.9z"/>
						<path class="st5" d="M119.8,892.9C119.8,892.9,119.8,892.9,119.8,892.9C119.9,892.9,119.9,892.9,119.8,892.9z"/>
						<path class="st5" d="M88.5,893.9c0.4,0.2-0.6,0.4,0,0.6C88.4,894.4,88.9,894,88.5,893.9z"/>
						<path class="st5" d="M151.1,892c0,0-0.1,0-0.1,0C151,892,151.1,892,151.1,892z"/>
						<path class="st5" d="M88.5,894.5L88.5,894.5L88.5,894.5C88.5,894.5,88.5,894.5,88.5,894.5z"/>
						<path class="st5" d="M112,893.2c0,0,0,0.1,0.1,0.1C112,893.3,112,893.3,112,893.2z"/>
						<path class="st5" d="M117.8,893.5l-0.1,0C117.7,893.5,117.8,893.5,117.8,893.5z"/>
						<path class="st5" d="M108.9,893.7c-0.1,0-0.1-0.1-0.2,0c0,0,0,0,0,0C108.8,893.6,108.8,893.6,108.9,893.7z"/>
						<path class="st5" d="M105.8,893.7C105.8,893.8,105.8,893.8,105.8,893.7c0.1,0.1,0.1,0,0.2,0L105.8,893.7z"/>
						<path class="st5" d="M45.9,904.6c-0.1-0.1-0.2-0.1-0.2-0.2C45.8,904.6,45.4,904.8,45.9,904.6z"/>
						<path class="st5" d="M151.2,891.9c0,0.1,0,0.1-0.1,0.1l0.1,0C151.2,891.9,151.2,891.9,151.2,891.9z"/>
						<path class="st5" d="M108.8,895.9l-0.5,0C108.5,895.9,108.7,895.9,108.8,895.9z"/>
						<path class="st5" d="M67.6,898.5l-0.1,0.1C67.5,898.6,67.5,898.6,67.6,898.5z"/>
						<path class="st5" d="M106.8,895.9c-0.1-0.1-0.2-0.2-0.3-0.2c0,0,0,0-0.1,0.1L106.8,895.9z"/>
						<path class="st5" d="M45.7,904.4L45.7,904.4L45.7,904.4z"/>
						<path class="st5" d="M42.8,906.1c0.5-0.1,0.1-0.4,0.1-0.6c0.5-0.3,0.3,0.2,0.6,0.3c0.3-0.2,0.5-0.6,0.7-0.7
							c0,0.1,0.1,0.1,0.1,0.1c0.3-0.4,1.1-0.4,1.4-0.9c0,0,0.1,0,0.1,0.1c-0.1-0.2-0.2-0.3-0.2-0.5c0.2-0.1,0.3-0.3,0.5-0.1
							c-0.1,0-0.1,0.1-0.1,0.2l0.2-0.2c0.3,0.3-0.3,0.2-0.2,0.5c0.4-0.2,0.8-0.7,1.1-0.7c0.2,0.3-0.7,0.4-0.2,0.5l-0.5,0
							c0.5,0.4-0.3,0.1,0.2,0.5c0.7-0.1,0.7-0.4,1.3-0.5c0.1-0.2-0.1-0.2-0.1-0.5c0.8-0.6,1,0.6,1.5-0.1c0.1-0.3,0-0.7,0.6-0.6
							l0,0.4c0.6-0.2,0.2-0.6,0.9-0.6c-0.1,0.2-0.5,0.3-0.3,0.3c0.5,0.1,0.2-0.3,0.6-0.4l0.2,0.3c0.6-0.3,1.3-0.7,2-1
							c0,0.1-0.1,0.3,0.1,0.3c0.9-0.5,2-0.6,3-0.7l0.3-0.4c0.1,0,0.2,0.1,0.1,0.2c0.4,0,0-0.2,0.1-0.3c0.2-0.1,0.3,0.1,0.2,0.2
							c0.6-0.4,1.6-1,2.4-0.9l-0.1,0.1c0.5,0,0.4-0.7,1-0.6l-0.1,0.1c1.2-0.1,2.3-0.7,3.3-0.5c0.1-0.5,1.1-0.1,1.1-0.7
							c0.7,0.1,0.5,0.3,1.5,0.3c0.2,0,0.3-0.4,0.6-0.5l0.1,0.3l0.3-0.4l0.3,0.3l0.3-0.1c-0.1,0-0.3-0.1-0.3-0.2
							c0.4-0.2,1.1,0,1.2,0.2l1-0.4c0,0.1-0.2,0.2-0.3,0.3c0.5-0.4,0.2,0.3,0.6-0.1c-0.1-0.1,0-0.2,0-0.3c0.3,0.1,0.9,0,1.3-0.1
							l-0.1,0.2c0.8-0.1,1.6-0.3,2.5-0.4c-0.3-0.1-0.3-0.4-0.1-0.5l0.1,0.3c0.1-0.2-0.3-0.1,0-0.4c0.3,0,0.3,0.3,0.1,0.5l0.4-0.2
							c0,0.1-0.1,0.2-0.1,0.3c0.1-0.2,0.7,0.2,0.9-0.1l0,0.1c0.9-0.1,1.3-0.3,2-0.4c0-0.3,0.3-0.2,0.5-0.5c0.5,0,1.1,0.2,1.8,0.1
							c0.4-0.2,0.1-0.2,0.3-0.4c0.1,0.3,0.7,0.2,0.4,0.4c0.8-0.1,1-0.1,1.9-0.4c-0.1-0.1-0.2-0.1-0.2-0.2c0.2-0.1,0.4,0.1,0.4,0.2
							l0,0c1.1-0.5,2.6,0.6,3.4,0l0,0l0.9-0.3c0.4,0-0.2,0.2,0.1,0.3c0.9-0.5,1.5,0,2.3-0.4c0.7,0.7,2.2-0.1,3.1,0.3l-0.1-0.2
							c0.2-0.2,0.3,0.1,0.4,0.1c0-0.1-0.2-0.1-0.1-0.3c1.8-0.3,3.8,0.1,5.7,0.2c0.7,0,0.4-0.9,1.2-0.5l-0.2,0.3
							c1.4-0.4,2.8-0.1,4.2-0.4c-0.1,0.1-0.1,0.2-0.2,0.2c0.3,0.2,1.1,0,1.1-0.2c0.2,0,0.1,0.2,0.2,0.3c0.3,0.1,0.7-0.3,0.9-0.1
							c0,0-0.1,0.1-0.1,0.1c0.2-0.1,0.9,0,0.7-0.3c0.5,0.1,1-0.1,1.4,0c0.3-0.3,0.9,0.1,1-0.3c0,0.5,0.9,0.4,1.2,0.1
							c-0.1,0.1,0.3,0.1,0.2,0.3c0.4,0,0.7-0.1,0.6-0.3c0.7,0.5,1.4-0.5,1.8,0.2c1.1-0.3,2.1-0.4,3.1-0.6c0,0.5-1.1,0.1-1,0.5
							c0.9-0.2,1.5-0.6,2.4-0.5c0.2,0.1-0.1,0.2-0.2,0.3c0.9-0.2,1.8,0,2.6-0.3c0,0-0.1,0.1-0.2,0.1c0.2,0,0.4,0.1,0.4-0.1l-0.2,0.1
							c-0.3-0.3,0.6-0.6,0.7-0.8c-0.3,0.6,0.8,0.1,0.4,0.9c0.1,0,0.2-0.1,0.2-0.3c0.2,0,0.2,0.1,0.1,0.3c0.6-0.1,0.4-0.3,0.9-0.4
							c0,0.1-0.1,0.1-0.2,0.3c0.3-0.2,0.5-0.4,1-0.3c0,0.1,0,0.1-0.1,0.1c0.8-0.1,1.3-0.6,2.2-0.4c-0.2,0.4,0.3,0.1,0.4,0.5l0.5-0.1
							l-0.2-0.2c0.4,0,0.7-0.3,1.1-0.2l-0.3,0.2l0.7-0.1l-0.4-0.1c0.4-0.2-0.1-0.5,0.5-0.4c-0.1,0,0.4,0,0.6,0.2l0,0
							c0.2-0.1,0.4-0.3,0.7-0.2c0.1,0.1,0,0.4,0,0.5c0.2-0.3,0.9-0.1,1.2-0.5c-0.1,0.1-0.1,0.3,0,0.3l0.1-0.3
							c0.2,0.1,0.2,0.1,0.2,0.3c0.6,0-0.2-0.5,0.5-0.3c-0.1,0,0,0.1-0.1,0.1c0.7,0.1,1.3-0.2,1.9-0.1c0.2,0.4-0.5,0.1-0.3,0.4
							c0.9-0.1,1.8-0.6,2.6-0.6l-0.2,0c0.1-0.5,0.7,0.2,1.1-0.1c-0.1,0-0.1,0.3-0.1,0.2c0.6,0,1.2-0.2,2-0.5l-0.1,0.1
							c0.4,0.1,0.9,0,1.3,0c0.1-0.1,0.3-0.1,0.2-0.3c1.2,0.6,2.1-0.7,3.2-0.1c-0.1,0-0.3,0.2-0.2,0.1l0.8-0.2
							c-0.1-0.2-0.1-0.1-0.3-0.3c0.1-0.1,0.3-0.3,0.5-0.3c-0.4,0.2,0,0.4,0.2,0.5c0-0.1,0-0.2,0-0.2c0.5,0.4,0-0.5,0.7-0.3l0,0.1
							c0.2-0.1,0.4-0.3,0.7-0.3c0.1,0.3-0.2,0.2-0.2,0.4c0.3,0,0.6-0.6,1-0.4c-0.1,0.1-0.3,0.1-0.5,0.2c0.4,0.3,0.4,0.2,0.7,0.2l0,0
							l0.6,0l-0.2-0.1c0.3-0.8,0.9-0.3,1.4-0.8c-0.5,0.5-0.1,0.3-0.1,0.6c0.2,0.1,0.4,0.1,0.4,0.2c0.2-0.3,0.5,0.1,0.8-0.3
							c0,0.1,0.3,0,0.3,0.2c0.3-0.1-0.1-0.2-0.1-0.3c0.5-0.4,1.4,0.2,2.1-0.4c0.6-0.3,0.7-0.7,1.3-1c0.2,0.1-0.1,0.4-0.1,0.4
							c0.4,0.1,0.6,0,0.9-0.2c0,0.1,0,0.2,0.2,0.2c0.3-0.1,0.1-0.4,0.5-0.3c0,0.1-0.1,0.3-0.2,0.4c0.3-0.2,0.6-0.4,0.9-0.5
							c0.1,0.1-0.1,0.3-0.2,0.4c0.3-0.1,0.9-0.3,0.9-0.6l-0.2,0c0.1,0,0.1,0.2,0,0.3c-0.3,0.3-0.5,0-0.5-0.1l0.2-0.1
							c-0.3-0.5-0.9,0.3-1.3,0.3l0.1-0.4l-0.4,0.4c-0.1-0.1-0.2-0.3,0-0.4c-0.4-0.1-0.3,0.2-0.6,0c0,0,0-0.1,0-0.1l-0.3,0.2
							c0-0.1-0.1-0.3,0.1-0.3c-0.6-0.1-0.9,0.5-1.1,0.2l0,0c-0.8,0.3,0,0.3-0.6,0.8l-0.5-0.7l0,0.3c-0.1,0-0.2,0-0.2-0.1
							c-0.3,0.3,0.1,0.1-0.1,0.3c-0.4-0.2-1.1,0.3-1.2-0.2c-0.1,0.3,0.4,0.1,0,0.3c-0.2-0.5-0.5,0.2-0.9,0c0.1-0.3,0.4-0.2,0-0.4
							c-0.1,0.5-0.7,0-1,0.1c0,0.4-0.6,0.3-1.1,0.5c0-0.1-1-0.1-1.5-0.1l0-0.1c0,0.4-0.5,0.4-0.9,0.5c0-0.2,0-0.3,0.2-0.4l-0.3,0
							c-0.1,0.1-0.2,0.2-0.4,0.3l0.1-0.3c-0.4,0.1-0.9,0.4-1.5,0.3c0,0.3,0.5,0.7-0.1,0.9c0-0.1-0.1-0.4,0.1-0.4
							c-0.1,0-0.2,0.1-0.3,0.1l0.2-0.3c-0.3-0.1-0.1,0.2-0.3,0.2c0-0.2-0.2-0.1-0.2-0.3c0.1,0,0.2,0.1,0.3,0c-0.2,0-0.5-0.1-0.6-0.2
							c0,0.1,0,0.3-0.1,0.3c-0.4,0.1-0.2-0.2-0.4-0.3c-0.1,0.1-0.4,0-0.4,0.3c-0.1,0-0.2-0.1-0.2-0.2c-0.2,0.2-1.1,0.1-0.8,0.4
							l0.1,0l0,0l0,0l0,0c-0.7,0.4-1.6,0-2.3,0.1l0-0.1c-0.4,0.1-1,0.1-1.3,0.4c-0.1,0-0.3-0.2-0.3-0.3c-0.3,0.1-0.4,0.2-0.9,0.1
							c0.3-0.2-0.1-0.1,0.3-0.2c-0.5-0.1-0.6-0.2-1,0.1c0.1-0.3-0.4-0.3-0.6-0.2l0.3,0.2c-0.2,0-0.4,0-0.7,0l0.1-0.3
							c-0.9-0.4-1.6,0.8-2.4,0.1c-0.2,0.2,0.5,0.1,0.3,0.4c-0.4,0-0.9-0.5-1-0.5c-0.6-0.2-0.5,0.5-1.1,0.4c0.1,0.1,0.2,0.4-0.3,0.6
							c-0.4,0-0.5-0.5-0.3-0.6c0.1,0,0.2,0,0.1,0.1c0.1-0.1,0.3-0.1,0.1-0.2l0,0.1c-0.2-0.1-0.8-0.1-0.7-0.3
							c-0.3,0.1-0.1,0.2,0.1,0.3c-0.6-0.2-0.8,0-1.4-0.1c0.1,0.1,0.2,0.2,0.1,0.2c-0.8-0.1-0.4,0.2-0.9,0.3
							c-0.3-0.2,0.1-0.4-0.5-0.3c-0.3-0.1-0.1-0.3,0-0.4c-0.5,0.2-1-0.1-1.2-0.2l0.3-0.1c-0.2,0.1-0.3,0.1-0.4,0.1l0.2,0.2
							c-0.2,0-0.3,0-0.3-0.1c-0.2,0.2,0.1,0.4-0.2,0.6c-0.2-0.1-0.6,0.2-0.7-0.2c0.7,0.1-0.1-0.3,0.5-0.4c-0.1,0-0.2,0-0.4,0
							c0,0,0-0.1,0.1-0.1c-0.6-0.3-0.3,0.4-0.9,0.4c0.1-0.2-0.2-0.3-0.3-0.3c0.3,0,0.1,0.3-0.1,0.4c-0.4-0.1-0.5,0.1-0.7,0.1
							l0.3,0.1c-0.1,0.2-0.3,0.2-0.6,0.2c0-0.1,0.3-0.1,0.2-0.2c-0.3,0.3-0.7-0.3-1.2-0.1c-0.2-0.1,0-0.3-0.2-0.4
							c-0.5,0.2-0.6-0.2-1.1,0c0.2,0.2,0.2,0.2-0.2,0.4l0.9-0.2l-0.6,0.4c0.3,0,0.6-0.2,0.7-0.1c-0.3,0.2-0.2,0.1-0.1,0.3
							c-0.4-0.3-0.7,0.2-1.1,0l0-0.6c-0.6-0.2-1.1,0.3-1.9,0.2l0.3,0.1c-0.1,0.2-0.5,0-0.8,0.1c0-0.2-0.1-0.3-0.3-0.4
							c0,0.1-0.6,0-0.7,0.4l-0.4-0.3c-0.7-0.1-0.7,0.6-1.4,0.5c0.2-0.2-0.1-0.4,0.3-0.5c-0.2,0-0.4,0-0.4,0.1
							c-0.1-0.1-0.6,0.3-0.8,0.1c-0.1,0.1-0.1,0.3-0.4,0.3c0,0,0-0.1,0-0.1c0,0.1-0.4,0.1-0.2,0.4c-0.7-0.6-1.8,0.1-2.4-0.4
							c-0.5,0.1-1,0.1-1.4,0.2c0-0.1,0-0.1,0.1-0.1c-0.6-0.2-0.3,0.6-1,0.4c-0.3-0.3,0.3-0.2,0.1-0.3c-0.1-0.6-0.8,0.1-1.3-0.3
							l0.1,0c-0.3-0.2-0.8,0.3-1.4,0.2c0,0,0-0.1,0-0.1c-0.4,0.3-1.1,0.5-1.6,0.6c0.2-0.3,0.2-0.1,0.1-0.4c-0.2,0,0.1,0.4-0.4,0.5
							c-0.2-0.1-0.5-0.2-0.6-0.5l0.5,0c-0.2-0.4-0.6,0-0.8,0l0-0.2c-0.7,0.1-0.7,0.5-1.4,0.5l0.1,0.1c-0.4,0.4-0.3-0.2-0.7,0.1
							L96,894c-0.3,0.1-0.9,0.4-1.4,0.5c0.3-0.3,0.8-0.5,1.2-0.6c-0.3,0-0.9,0.1-1,0.3c0.1,0,0.2-0.1,0.3-0.1
							c-0.3,0.3-0.7,0.5-1.3,0.5c0.1-0.8-1.4-0.1-1.8-0.7c-0.9,0.3-1.9,0-3,0.1c0.4,0.6-0.3,0-0.2,0.6c-0.3,0.1-0.4,0-0.4,0
							l-0.8-0.3c-0.2-0.2,0.2-0.2,0.2-0.3c-0.6,0-0.2-0.2-0.6-0.4c0.1,0.2-0.2,0.3-0.5,0.3l0.5,0.3c-0.8,0.4-0.7-0.5-1.5-0.1
							l0.2-0.2c-0.4,0.1-1.5,0.1-1.9,0.6c-0.1-0.1-0.2-0.2,0-0.3c-1,0-2.1,0.7-2.9,0.4l0.1-0.2c-0.2,0.1-0.3,0.3-0.5,0.2
							c0-0.1,0.1-0.2,0-0.2c-0.1,0.1-0.5,0.3-0.7,0.2l0.2-0.2c-1-0.1-1.4,0.5-2.2,0.7c0-0.4-0.8-0.5-1.2-0.5l0-0.1
							c-1.1,0.1-1.8,0.6-2.8,0.9c-0.7-0.4-2.2,0.1-3.2,0c0.2,0.1,0,0.3-0.1,0.4c-0.3-0.1-0.6,0.4-0.6,0l0.1,0
							c-0.2-0.4-0.7-0.2-1.1-0.1l0,0.5c-1.1-0.6-2.5,0.7-3.2,0.2c-0.2,0.2-0.5,0.2-0.7,0.4l0-0.3c-0.7,0-1,0.1-1.8,0.3l0.1-0.2
							c-0.5,0.1-0.4,0.9-0.8,1l-0.2-0.4c-0.8,0.2-1.7,0-2.4,0.6c0-0.1,0-0.2,0.1-0.2c-0.4,0.1-1.5,0.1-1.2,0.6
							c-0.1-0.4-0.8,0.2-1.2,0.4l0-0.3c-0.3,0.4-0.2,0.5-0.7,0.8c-0.1,0-0.2-0.2,0-0.2c-0.4,0-0.2,0.3-0.8,0.3l0.1-0.2
							c-0.4,0.1-0.4,0.2-0.5,0.4c-0.2,0.2-0.8,0.2-0.9-0.1c0,0.2-0.2,0.4-0.4,0.4c-0.1-0.1,0-0.2,0-0.2c-0.7,0-0.9,0.6-1.4,0.5
							c0-0.1-0.1-0.1-0.1-0.1c0.5-0.2,1-0.3,0.9-0.2c-0.1-0.2-0.5-0.2-0.3-0.6c-0.3,0.3-0.8,0.9-1.2,0.9c0,0-0.1,0-0.1-0.1l0,0
							c-0.1,0-0.2,0.1-0.3,0.1c-0.1,0-0.2,0-0.4,0c-0.1-0.2-0.5,0.1-0.7,0.1c0.1,0.3-0.2,0.3,0.1,0.4c0,0,0,0,0.2-0.1
							c0,0,0.1,0,0.1-0.1l0,0c0.1-0.1,0.3-0.1,0.5-0.2c-0.1,0.2-0.3,0.4-0.5,0.3c-0.1,0.2-0.1,0.4-0.2,0.5c-0.4-0.3-1-0.3-1.2-0.5
							c-0.6,0.4-1.5,0.6-1.7,1.2c-0.2,0.1-0.3-0.1-0.4-0.1c0.1-0.1,0.2-0.1,0.3-0.2c-0.3,0.3-1.1,0.4-1,0.8c-0.5,0,0.2-0.4-0.5-0.1
							l0-0.1c-1.4-0.1-1.7,1.6-3.4,1.3c0.1,0,0.2,0,0.2,0.1c-1.7,0.2-3.2,1.4-4.9,1.4c-0.5,0.1-0.5,0.3-0.7,0.6l-0.2-0.3l-0.4,0.5
							c-0.6,0.5-1.4-0.3-2.1,0.4l0.2,0.2c-0.3,0.1-0.9,0.4-0.9,0.2c0,0,0,0.2-0.2,0.2l-0.1-0.1l-0.6,0.5c-0.6,0.1-0.1-0.6-1-0.4
							c-0.3,0.2-0.7,0.7-0.6,0.8c0.1,0,0.4,0,0.4,0.1l-0.3,0.2c0.1,0.5,0,1,0.8,1.1l0.4-0.4l0.2,0.2l-0.4,0.2
							c0.3,0.1,0.4-0.1,0.5-0.3c0.1,0.1,0.2,0.2,0.3,0.2l0.3-0.6c0.1,0.2-0.1,0.4,0.3,0.4c0.2-0.3-0.3-0.3,0-0.6
							c0.3,0.1,0.3,0.3,0.5,0c0.1,0.1,0,0.2,0,0.3c0.2-0.2,0.6-0.3,0.7-0.6c0.3,0.2,0.8-0.3,0.9,0.1c0-0.1,0.3-0.5,0.5-0.6
							c-0.2,0.6,0.8-0.3,0.9,0.3c0.1-0.6,1-0.6,1.5-1c0,0-0.1,0.1-0.1,0.1c0.3-0.1,0.4,0,0.7,0.1c-0.1-0.4,0.3-0.6,0.5-0.9
							c0.5,0.2-0.1,0.5,0.2,0.8c-0.1-0.3,0.5-0.5,0.3-0.7c0.4,0.1,0.3,0,0.5,0.3c-0.1-0.5,0.2-0.2,0.4-0.5c0.5,0.1,0.3,0.4,0.6,0.1
							C43.1,905.8,42.8,906.1,42.8,906.1z M53.1,901.7L53.1,901.7c-0.1,0-0.2,0.1-0.2,0.1C52.9,901.8,53,901.8,53.1,901.7z
							 M54,901.5c-0.1,0-0.2,0.1-0.4,0.1c-0.1-0.1-0.1-0.2,0-0.2C53.6,901.4,53.8,901.4,54,901.5z M51.5,900.2c0.1-0.1,0.2,0,0.2,0
							c-0.1,0-0.1,0.1-0.2,0.1l0,0C51.5,900.3,51.5,900.2,51.5,900.2z"/>
						<path class="st5" d="M51.3,900.6C51.3,900.6,51.3,900.7,51.3,900.6C51.3,900.7,51.4,900.7,51.3,900.6L51.3,900.6L51.3,900.6z"
							/>
						<path class="st5" d="M136.1,892.9L136.1,892.9C136.1,892.9,136.1,892.9,136.1,892.9C136.1,892.9,136.1,892.9,136.1,892.9z"/>
						<polygon class="st5" points="66.6,898.8 66.6,898.8 66.5,898.8 						"/>
						<path class="st5" d="M141.4,893.3C141.4,893.3,141.4,893.4,141.4,893.3C141.4,893.4,141.4,893.3,141.4,893.3z"/>
						<path class="st5" d="M143.6,893.1l0.3,0C143.8,893.1,143.7,893.1,143.6,893.1z"/>
						<path class="st5" d="M145.3,893c0-0.1,0-0.1,0-0.1l0,0L145.3,893z"/>
						<path class="st5" d="M118,895.4C118,895.4,117.9,895.4,118,895.4C117.8,895.5,117.9,895.4,118,895.4z"/>
						<path class="st5" d="M126.1,894.4c-0.1,0.1-0.2,0.1-0.3,0.1C126,894.6,126.1,894.6,126.1,894.4z"/>
						<polygon class="st5" points="108.9,895.9 108.9,895.9 108.8,895.9 						"/>
						<path class="st5" d="M125.5,894.6c0.1,0,0.3,0,0.4,0C125.7,894.6,125.6,894.5,125.5,894.6z"/>
						<path class="st5" d="M152.7,891.7L152.7,891.7C152.8,891.7,152.8,891.7,152.7,891.7L152.7,891.7z"/>
						<path class="st5" d="M152.8,891.7L152.8,891.7C152.9,891.6,152.8,891.7,152.8,891.7z"/>
						<path class="st5" d="M153.1,891.5l-0.2,0.1C153,891.6,153,891.6,153.1,891.5z"/>
						<path class="st5" d="M150.5,892.1l0,0.1C150.5,892.2,150.5,892.1,150.5,892.1z"/>
						<path class="st5" d="M149.8,892.2c0.2,0,0.4,0.1,0.7,0l0-0.1C150.4,892.3,149.9,892,149.8,892.2z"/>
						<path class="st5" d="M146.7,891.5l0.6,0c-0.1-0.1-0.3-0.2,0-0.3C146.5,891,147.5,891.4,146.7,891.5z"/>
						<path class="st5" d="M144.9,891.6c0.3-0.1,0-0.2,0-0.2C144.7,891.5,144.7,891.6,144.9,891.6z"/>
						<path class="st5" d="M132.1,893l0-0.3C131.8,892.8,132.1,892.9,132.1,893z"/>
						<polygon class="st5" points="129.7,894.5 129.9,894.6 130,894.4 						"/>
						<polygon class="st5" points="128.1,892.8 128.2,892.7 127.8,892.8 						"/>
						<path class="st5" d="M106.3,893.5l0.1,0.3C106.6,893.7,106.6,893.4,106.3,893.5z"/>
						<path class="st5" d="M96.9,894c-0.1-0.2-0.4-0.2-0.5-0.1C96.6,893.9,96.8,894,96.9,894z"/>
						<polygon class="st5" points="68.6,895.9 68.8,895.8 68.4,895.9 						"/>
					</g>
				</g>
			</g>
		</g>
	</g>
</g>
</svg>
