<?xml version="1.0" encoding="utf-8"?>
<!-- Generator: Adobe Illustrator 21.0.2, SVG Export Plug-In . SVG Version: 6.00 Build 0)  -->
<svg version="1.1" id="Layer_1" xmlns="http://www.w3.org/2000/svg" xmlns:xlink="http://www.w3.org/1999/xlink" x="0px" y="0px"
	 viewBox="0 0 836 919" style="enable-background:new 0 0 836 919;" xml:space="preserve">
<style type="text/css">
	.st0{fill:#C4B7B5;}
	.st1{fill:#00006C;}
	.st2{fill:none;}
	.st3{fill:#FFD773;}
	.st4{fill:none;stroke:#FFF7DF;stroke-miterlimit:10;}
	.st5{fill:#FFDC85;}
</style>
<g>
	<path class="st0" d="M674.2,781.4c-50.2,0-141.7-28.5-177.1-28.5s-146.6,78.8-185.9,78.8c-80,0-4.9,6.7,0,6.7
		c41.3,0,148-52.9,182.5-52.9c1.6,0,37.3,6,39.2,6.1c-7.6,0.2-42.1,1-47.9,3.1c-22.4,8-97.3,51.9-121.8,60.6
		c-24.5,8.7-101.4,4.7-130.8,15.2c-29.4,10.5-41.5,17.7-13.6,7.8s143.1,2.2,168.3-6.7c25.2-9,67.1-40.4,102.7-53.1
		c31.1-11.1,114.2-10.3,118.1-13.9c30.7,4.4,84.3,8.2,97.6,8.2c31.5,0,50.4-31.3,91.7-31.3s41.3,0,41.3,0l5.9-23.9
		C801.6,717.5,724.3,781.4,674.2,781.4z"/>
	<g>
		<path class="st1" d="M821.6,771.3c-18.2-4.9-37.7-4.3-55.5,1.5c-4.4,1.4-8.8,3.1-13,5.3l-1.6,0.8c-0.5,0.3-1,0.6-1.5,0.8
			c-1,0.6-2,1.1-3.1,1.7c-2,1.2-4,2.5-5.9,3.8c-3.9,2.6-7.7,5.3-11.8,7.8c-4,2.5-8.3,4.7-12.8,6.2c-9.1,3.1-18.8,3.5-28.2,2.9
			c-9.5-0.6-18.8-2.2-28.1-3.6c-18.6-2.7-37.3-4.3-56.1-4.4c-4.7-0.1-9.4,0-14.1,0c-4.7,0.2-9.4,0.2-14.1,0.5
			c-9.4,0.4-18.7,1.3-28,2.4c-9.3,1.1-18.6,2.6-27.8,4.3c-4.6,0.9-9.2,1.8-13.8,2.9c-4.6,1-9.2,2-13.6,3.4
			c-4.5,1.3-8.9,2.9-12.9,5.2c-4.1,2.2-8,4.9-11.8,7.5c-7.8,5.3-15.7,10.4-23.8,15.3c-16.2,9.6-33,18.3-50.1,25.9
			c17.1-7.9,33.7-16.8,49.6-26.7c8-4.9,15.9-10.1,23.6-15.5c3.9-2.7,7.7-5.4,11.9-7.7c4.2-2.3,8.6-4.1,13.2-5.4
			c18.2-5.1,36.8-8.5,55.5-10.9c9.4-1.1,18.7-2,28.2-2.5c4.7-0.3,9.4-0.4,14.1-0.6c4.7,0,9.4-0.2,14.1,0c18.9,0.2,37.7,1.9,56.3,4.6
			c9.3,1.4,18.6,3,27.9,3.7c9.3,0.6,18.8,0.2,27.6-2.6c4.4-1.4,8.6-3.5,12.6-5.9c4-2.4,7.9-5.1,11.8-7.7c2-1.3,4-2.6,6-3.8
			c1-0.6,2.1-1.1,3.1-1.7c0.5-0.3,1-0.6,1.6-0.8l1.6-0.8c4.2-2.1,8.7-3.8,13.2-5.2C783.9,766.3,803.5,766,821.6,771.3z"/>
	</g>
	<g>
		<path class="st1" d="M357.5,822c9.4-4,18.8-7.8,28.2-11.8l28.2-11.6c9.4-3.9,18.9-7.6,28.3-11.5l14.2-5.7
			c4.7-1.9,9.4-3.9,14.2-5.6c2.4-0.8,4.9-1.6,7.5-2c2.6-0.5,5.2-0.7,7.7-0.8c2.6,0,5.2,0.1,7.7,0.4c2.6,0.3,5.1,0.7,7.6,1.2
			c5,1,10,2.2,14.9,3.4c4.9,1.2,9.9,2.2,14.9,3.1c5,0.9,10,1.6,15.1,2.1c5,0.5,10.1,0.9,15.2,1.1c10.1,0.5,20.3,0.1,30.5-0.8
			c-5,0.7-10.1,1.2-15.2,1.5c-5.1,0.3-10.2,0.4-15.3,0.4c-10.2-0.2-20.4-1-30.5-2.6c-2.5-0.4-5-0.9-7.5-1.3c-2.5-0.5-5-1-7.5-1.6
			c-5-1.2-9.9-2.4-14.9-3.3c-2.5-0.5-5-0.8-7.5-1.1c-2.5-0.2-5-0.4-7.5-0.3c-2.5,0.1-5,0.3-7.4,0.8c-2.4,0.5-4.8,1.2-7.2,2
			c-4.7,1.6-9.5,3.6-14.2,5.5l-14.2,5.6c-9.5,3.7-18.9,7.5-28.4,11.2l-28.4,11.1C376.6,814.7,367.1,818.4,357.5,822z"/>
	</g>
	<g>
		<path class="st1" d="M293.6,869.3c8.5,0.1,17,0.3,25.4,0.2c8.5-0.1,16.9-0.6,25.3-1.7c8.4-1.1,16.7-2.8,24.6-5.6
			c8-2.7,15.4-6.6,22.4-11.3c3.5-2.3,7-4.7,10.6-7c1.8-1.2,3.6-2.3,5.4-3.4c1.8-1.1,3.6-2.2,5.4-3.3c7.3-4.4,14.7-8.6,22.2-12.5
			c7.5-3.9,15.1-7.7,22.8-11.4c7.7-3.6,15.3-7.2,23.1-10.7l-22.6,11.6c-7.5,3.9-15.1,7.8-22.5,11.9c-7.4,4.1-14.8,8.2-22,12.7
			c-1.8,1.1-3.6,2.2-5.4,3.4c-1.8,1.1-3.6,2.3-5.3,3.4c-3.5,2.3-7,4.7-10.6,7.1c-7.1,4.7-14.8,8.6-23,11.4c-8.1,2.7-16.5,4.5-25,5.4
			c-8.5,0.9-17,1.2-25.5,1.1C310.5,870.3,302.1,869.9,293.6,869.3z"/>
	</g>
	<g>
		<path class="st1" d="M666.6,788.3c4,0.9,8,1.6,12.1,1.9c4,0.3,8.1,0.3,12.1-0.1c4-0.3,8-1,12-2c3.9-1,7.8-2.3,11.6-3.9
			c-3.4,2.3-7.2,4.1-11.1,5.4c-3.9,1.3-8.1,2.1-12.2,2.5c-4.2,0.3-8.4,0.2-12.5-0.4C674.5,791.1,670.4,790,666.6,788.3z"/>
	</g>
	<g>
		<path class="st3" d="M577.3,766.1c-25-4.6-50.2-8.2-75.5-10.4c-3.1-0.3-6.2-0.4-9.2-0.2c-3,0.2-5.9,0.8-8.9,1.7
			c-5.9,1.9-11.9,4.1-17.7,6.5c-11.7,4.7-23.1,10.3-34.3,16.2c-11.3,5.8-22.3,12.1-33.5,18.2l-16.8,9c-5.6,3-11.2,6.1-16.9,8.9
			c-11.4,5.8-23.5,10.6-36.1,13.4c-12.6,2.7-25.4,3.5-38.2,3c12.7-0.6,25.4-2,37.6-5.3c12.2-3.2,23.8-8.4,34.9-14.4
			c5.6-3,11.1-6.2,16.6-9.3l16.7-9.3c11.1-6.2,22.2-12.5,33.5-18.4c11.3-5.9,22.9-11.5,34.9-16.1c6-2.3,12-4.5,18.3-6.3
			c3.1-0.9,6.5-1.6,9.9-1.7c3.3-0.1,6.6,0.1,9.8,0.5C527.5,754.8,552.7,759.5,577.3,766.1z"/>
	</g>
	<g>
		<g>
			<g>
				<g>
					<g>
						<path class="st5" d="M346.4,859.5c0.1-0.1,0-0.3-0.2-0.2l-0.1,0.4L346.4,859.5z"/>
						<path class="st5" d="M344.9,859.2c-0.2,0.2-0.4,0.5-0.2,0.8c0.2-0.4,0.2-0.2,0.4-0.7c0.2-0.1,0.4,0,0.4,0.2
							c0.1-0.1,0.3,0,0.4-0.2c-0.3-0.2-0.6-0.1-0.9,0.1C344.9,859.3,344.9,859.2,344.9,859.2z"/>
						<path class="st5" d="M325.4,861.6l0.1,0C325.5,861.6,325.4,861.6,325.4,861.6z"/>
						<path class="st5" d="M313.2,862.3c0.1,0,0.1,0,0.1-0.1C313.2,862.2,313.1,862.2,313.2,862.3z"/>
						<path class="st5" d="M311.1,862c0,0,0.1,0,0.1,0C311.1,862,311.1,862,311.1,862z"/>
						<path class="st5" d="M325.4,861.6l-0.3-0.1C325,861.7,325.2,861.6,325.4,861.6z"/>
						<path class="st5" d="M342.4,860.5c0.1,0,0.1-0.1,0.2-0.1L342.4,860.5L342.4,860.5z"/>
						<path class="st5" d="M330.7,860.8L330.7,860.8c0.1-0.1,0.1-0.1,0.2-0.2L330.7,860.8z"/>
						<path class="st5" d="M334.8,860.2c-0.1,0-0.1,0.3-0.1,0.4c0-0.1,0.1-0.2,0.2-0.2C334.8,860.3,334.8,860.3,334.8,860.2z"/>
						<path class="st5" d="M341.3,859.6l0.1-0.1C341.4,859.5,341.3,859.6,341.3,859.6z"/>
						<path class="st5" d="M327.7,861.1C327.7,861,327.7,861,327.7,861.1C327.7,861,327.7,861,327.7,861.1z"/>
						<path class="st5" d="M214.2,878.2C214.2,878.2,214.2,878.2,214.2,878.2C214.1,878.2,214.1,878.2,214.2,878.2z"/>
						<path class="st5" d="M209.2,878.4L209.2,878.4c0-0.1,0-0.1,0-0.2L209.2,878.4z"/>
						<path class="st5" d="M307.2,861.7C307.3,861.7,307.3,861.8,307.2,861.7C307.4,861.7,307.3,861.7,307.2,861.7z"/>
						<path class="st5" d="M272.1,862.8c0.4,0.2-0.6,0.4,0,0.6C272,863.3,272.6,863,272.1,862.8z"/>
						<path class="st5" d="M342.3,860.5c-0.1,0-0.1,0-0.2,0C342.2,860.5,342.3,860.5,342.3,860.5z"/>
						<path class="st5" d="M272.1,863.4L272.1,863.4L272.1,863.4C272.1,863.5,272.1,863.5,272.1,863.4z"/>
						<path class="st5" d="M298.5,862.1c0,0,0.1,0.1,0.1,0.1C298.5,862.2,298.5,862.2,298.5,862.1z"/>
						<path class="st5" d="M305,862.4l-0.2,0C304.9,862.4,305,862.4,305,862.4z"/>
						<path class="st5" d="M295.1,862.6c-0.1,0-0.1-0.1-0.2,0c0,0,0,0,0,0C294.9,862.5,294.9,862.5,295.1,862.6z"/>
						<path class="st5" d="M291.5,862.6C291.5,862.7,291.5,862.7,291.5,862.6c0.1,0.1,0.1,0,0.2,0L291.5,862.6z"/>
						<path class="st5" d="M224.3,874.6c-0.1,0-0.2-0.1-0.2-0.2C224.2,874.6,223.7,874.8,224.3,874.6z"/>
						<path class="st5" d="M342.4,860.4c0,0.1,0,0.1-0.1,0.1l0.1,0C342.4,860.4,342.4,860.4,342.4,860.4z"/>
						<path class="st5" d="M294.9,864.8l-0.6,0C294.5,864.8,294.7,864.8,294.9,864.8z"/>
						<path class="st5" d="M248.7,867.8l-0.1,0.1C248.6,867.8,248.6,867.8,248.7,867.8z"/>
						<path class="st5" d="M292.7,864.8c-0.1-0.1-0.2-0.2-0.3-0.2c0,0,0,0-0.1,0.1L292.7,864.8z"/>
						<path class="st5" d="M224.1,874.4L224.1,874.4L224.1,874.4z"/>
						<path class="st5" d="M220.8,876.2c0.5-0.2,0.1-0.4,0.2-0.7c0.6-0.3,0.4,0.2,0.6,0.3c0.3-0.2,0.5-0.6,0.8-0.7
							c0,0.1,0.1,0.1,0.1,0.1c0.3-0.4,1.2-0.4,1.5-0.9c0,0,0.1,0,0.1,0.1c-0.1-0.1-0.2-0.3-0.2-0.5c0.2-0.1,0.3-0.4,0.5-0.2
							c-0.1,0-0.1,0.1-0.2,0.2l0.2-0.2c0.3,0.3-0.3,0.2-0.2,0.5c0.4-0.3,0.9-0.7,1.3-0.8c0.2,0.3-0.8,0.4-0.2,0.5l-0.6,0.1
							c0.6,0.4-0.3,0.1,0.2,0.5c0.8-0.2,0.8-0.4,1.5-0.6c0.1-0.2-0.1-0.2,0-0.5c0.9-0.7,1.1,0.5,1.7-0.2c0.1-0.3,0.1-0.7,0.7-0.7
							l-0.1,0.4c0.7-0.2,0.2-0.7,1-0.7c-0.1,0.2-0.5,0.3-0.4,0.3c0.6,0.1,0.3-0.3,0.6-0.4l0.2,0.3c0.7-0.3,1.5-0.8,2.3-1.1
							c0,0.1-0.1,0.3,0.1,0.3c1-0.5,2.3-0.7,3.3-0.8l0.3-0.4c0.1,0,0.2,0.1,0.1,0.2c0.4,0,0-0.2,0.1-0.4c0.2-0.1,0.3,0.1,0.2,0.2
							c0.6-0.4,1.9-1.1,2.7-1l-0.1,0.1c0.6,0,0.5-0.7,1.1-0.6l-0.1,0.1c1.3-0.2,2.6-0.8,3.7-0.6c0.1-0.5,1.3-0.1,1.2-0.7
							c0.8,0.1,0.6,0.3,1.7,0.3c0.3,0,0.3-0.4,0.7-0.6l0.1,0.3l0.4-0.4l0.3,0.3l0.3-0.1c-0.1,0-0.3-0.1-0.3-0.2
							c0.5-0.2,1.2,0,1.3,0.1l1.1-0.5c0,0.1-0.2,0.2-0.3,0.3c0.6-0.4,0.2,0.3,0.7-0.1c-0.1-0.1,0-0.2,0-0.3c0.3,0.1,1,0,1.4-0.1
							l-0.1,0.2c0.9-0.1,1.8-0.3,2.8-0.5c-0.4-0.1-0.3-0.4-0.1-0.5l0.2,0.3c0.2-0.2-0.3-0.1,0-0.4c0.4,0,0.3,0.3,0.1,0.5l0.4-0.2
							c0,0.1-0.1,0.2-0.1,0.3c0.2-0.2,0.8,0.2,1-0.2l0,0.1c1-0.1,1.4-0.3,2.2-0.4c0-0.3,0.3-0.2,0.5-0.5c0.6,0,1.3,0.2,2,0.1
							c0.5-0.2,0.1-0.3,0.3-0.4c0.1,0.3,0.8,0.2,0.4,0.4c0.9-0.1,1.1-0.2,2.2-0.5c-0.1-0.1-0.3-0.1-0.2-0.2c0.2-0.1,0.5,0.1,0.4,0.2
							l0,0c1.2-0.5,2.9,0.5,3.8-0.1l-0.1,0l1-0.3c0.5,0-0.3,0.2,0.1,0.3c1.1-0.5,1.7-0.1,2.6-0.4c0.7,0.7,2.5-0.2,3.4,0.3l-0.1-0.2
							c0.2-0.2,0.3,0.1,0.5,0.1c0-0.1-0.3-0.1-0.1-0.3c2-0.3,4.2,0.1,6.4,0.2c0.8,0,0.4-0.9,1.4-0.5l-0.3,0.3
							c1.5-0.4,3.2-0.1,4.7-0.4c-0.1,0.1-0.1,0.2-0.2,0.2c0.3,0.2,1.2,0,1.2-0.2c0.2,0,0.1,0.2,0.2,0.3c0.3,0.1,0.8-0.3,1-0.1
							c0,0-0.1,0.1-0.1,0.1c0.2-0.1,1,0,0.8-0.3c0.6,0.1,1.1-0.1,1.6,0c0.3-0.3,1,0.1,1.1-0.3c0,0.5,1,0.3,1.4,0.1
							c-0.1,0.1,0.3,0.1,0.2,0.3c0.4,0,0.8-0.1,0.7-0.3c0.8,0.5,1.5-0.5,2,0.2c1.2-0.3,2.4-0.4,3.5-0.6c0,0.5-1.2,0.1-1.2,0.5
							c1-0.2,1.6-0.6,2.7-0.5c0.3,0.1-0.1,0.2-0.2,0.3c1-0.2,2,0,3-0.3c0,0-0.1,0.1-0.2,0.1c0.2,0,0.4,0.1,0.4-0.1l-0.2,0.1
							c-0.3-0.3,0.7-0.6,0.7-0.8c-0.3,0.6,0.9,0.1,0.5,0.9c0.1,0,0.3-0.1,0.2-0.3c0.2,0,0.2,0.1,0.1,0.3c0.7-0.1,0.4-0.3,1-0.4
							c0,0.1-0.1,0.1-0.2,0.3c0.3-0.2,0.6-0.4,1.1-0.3c0,0.1,0,0.1-0.1,0.1c0.9-0.1,1.5-0.6,2.4-0.4c-0.3,0.4,0.3,0.1,0.4,0.5
							l0.5-0.1l-0.2-0.2c0.4,0,0.8-0.3,1.2-0.2l-0.3,0.2l0.8-0.1l-0.5-0.1c0.4-0.2-0.1-0.5,0.5-0.4c-0.1,0,0.4,0,0.7,0.2l0,0
							c0.2-0.1,0.4-0.3,0.8-0.2c0.1,0.1,0,0.4,0,0.5c0.2-0.3,1-0.1,1.3-0.5c-0.1,0.1-0.1,0.3,0,0.3l0.2-0.3c0.2,0.1,0.2,0.1,0.2,0.3
							c0.6,0-0.2-0.5,0.5-0.3c-0.1,0,0,0.1-0.1,0.1c0.7,0.1,1.4-0.2,2.1-0.1c0.2,0.4-0.6,0.1-0.3,0.4c1-0.1,2-0.6,3-0.6l-0.2,0
							c0.1-0.5,0.7,0.2,1.2-0.1c-0.1,0-0.1,0.3-0.1,0.2c0.7,0,1.3-0.2,2.3-0.5l-0.1,0.1c0.4,0.1,1,0,1.4,0c0.1-0.1,0.3-0.2,0.2-0.3
							c1.4,0.6,2.4-0.7,3.6-0.2c-0.1,0-0.3,0.2-0.2,0.1l0.9-0.2c-0.1-0.2-0.1-0.1-0.4-0.3c0.1-0.2,0.4-0.3,0.6-0.3
							c-0.4,0.2,0,0.4,0.3,0.5c0-0.1,0-0.2,0-0.2c0.6,0.4,0-0.5,0.7-0.3l0,0.1c0.2-0.1,0.5-0.3,0.7-0.3c0.2,0.3-0.3,0.2-0.2,0.4
							c0.4-0.1,0.7-0.6,1.1-0.4c-0.2,0.1-0.4,0.1-0.5,0.2c0.4,0.3,0.5,0.2,0.7,0.2l0,0l0.7,0l-0.2-0.1c0.4-0.8,1-0.3,1.6-0.8
							c-0.6,0.5-0.1,0.3-0.1,0.6c0.2,0.1,0.4,0.1,0.4,0.2c0.3-0.3,0.5,0.1,0.9-0.3c0,0.1,0.3,0,0.3,0.2c0.4-0.1-0.1-0.2-0.1-0.3
							c0.6-0.4,1.5,0.2,2.3-0.4c0.7-0.3,0.8-0.7,1.5-1c0.3,0.1-0.1,0.4-0.1,0.4c0.4,0.1,0.7,0,1-0.2c-0.1,0.1,0,0.2,0.2,0.2
							c0.3-0.1,0.1-0.4,0.5-0.3c0,0.1-0.1,0.3-0.2,0.4c0.3-0.2,0.6-0.4,1-0.6c0.1,0.1-0.2,0.3-0.3,0.4c0.4-0.2,1-0.4,1.1-0.7l-0.3,0
							c0.1,0,0.1,0.2,0,0.3c-0.3,0.3-0.5,0-0.6-0.1l0.2-0.1c-0.4-0.5-1,0.3-1.5,0.4l0.1-0.5L342,860c-0.1-0.1-0.3-0.3,0-0.4
							c-0.4-0.1-0.3,0.2-0.6,0.1c0,0,0-0.1,0-0.1l-0.3,0.2c0.1-0.1-0.1-0.3,0.1-0.3c-0.7-0.1-1,0.5-1.3,0.3l0,0
							c-0.9,0.3,0,0.3-0.6,0.8l-0.6-0.7l0,0.3c-0.1,0-0.3,0-0.3-0.1c-0.3,0.3,0.1,0.1-0.1,0.3c-0.5-0.2-1.2,0.3-1.4-0.1
							c-0.1,0.3,0.5,0.1,0,0.3c-0.2-0.5-0.5,0.2-1,0c0.1-0.3,0.5-0.2,0-0.4c-0.2,0.5-0.8,0-1.1,0.2c0,0.4-0.7,0.3-1.3,0.5
							c0-0.1-1.1,0-1.7-0.1l0-0.1c-0.1,0.4-0.6,0.4-1,0.5c0-0.2,0.1-0.3,0.3-0.4l-0.4,0c-0.1,0.1-0.2,0.2-0.4,0.3l0.1-0.3
							c-0.5,0.1-1,0.4-1.6,0.3c0,0.3,0.6,0.6-0.1,0.9c0-0.1-0.1-0.4,0.1-0.4c-0.1,0-0.2,0.1-0.3,0.1l0.2-0.3
							c-0.3-0.1-0.1,0.2-0.4,0.2c0-0.2-0.2-0.1-0.2-0.3c0.1,0,0.2,0.1,0.3,0c-0.3,0-0.6-0.1-0.7-0.2c0,0.1,0,0.3-0.2,0.3
							c-0.5,0.1-0.2-0.2-0.5-0.3c-0.1,0.2-0.4,0-0.4,0.3c-0.1,0-0.2-0.1-0.3-0.2c-0.2,0.2-1.2,0.1-0.9,0.4l0.1,0c0,0,0,0,0,0l0,0
							l0,0c-0.8,0.4-1.8,0-2.6,0.2l0-0.1c-0.5,0.2-1.1,0.2-1.5,0.4c-0.2,0-0.4-0.2-0.3-0.3c-0.4,0.1-0.4,0.2-1,0.1
							c0.4-0.2-0.1-0.1,0.4-0.2c-0.5,0-0.6-0.2-1.2,0.1c0.2-0.3-0.4-0.3-0.6-0.2l0.4,0.2c-0.3,0.1-0.5,0-0.7,0l0.1-0.3
							c-1.1-0.3-1.8,0.8-2.6,0.2c-0.3,0.2,0.6,0.1,0.3,0.4c-0.5,0-1-0.5-1.1-0.5c-0.7-0.1-0.6,0.5-1.3,0.4c0.1,0.1,0.2,0.4-0.3,0.6
							c-0.5,0-0.6-0.5-0.3-0.6c0.1,0,0.2,0,0.2,0.1c0.2-0.1,0.4-0.1,0.2-0.2l-0.1,0.1c-0.2-0.1-0.9-0.1-0.7-0.3
							c-0.4,0.1-0.1,0.2,0.1,0.3c-0.6-0.2-1,0-1.6-0.1c0.1,0.1,0.2,0.2,0.1,0.2c-0.9-0.1-0.4,0.2-1,0.3c-0.4-0.2,0.1-0.4-0.5-0.3
							c-0.4-0.1-0.1-0.3,0.1-0.4c-0.6,0.2-1.1-0.1-1.4-0.1l0.3-0.1c-0.2,0.1-0.3,0.1-0.5,0.1l0.2,0.2c-0.2,0-0.3,0-0.3-0.1
							c-0.2,0.2,0.2,0.4-0.2,0.6c-0.2-0.1-0.7,0.2-0.8-0.2c0.7,0.1-0.1-0.3,0.5-0.4c-0.1,0-0.3,0-0.4,0c0,0,0-0.1,0.1-0.1
							c-0.7-0.3-0.3,0.4-1.1,0.4c0.1-0.2-0.2-0.3-0.3-0.3c0.3,0,0.1,0.3-0.1,0.4c-0.5-0.1-0.5,0.1-0.8,0.1l0.3,0.1
							c-0.1,0.2-0.3,0.2-0.7,0.2c0-0.1,0.3-0.1,0.2-0.2c-0.4,0.3-0.8-0.3-1.3-0.1c-0.2-0.1,0-0.3-0.2-0.4c-0.6,0.2-0.6-0.2-1.2,0
							c0.2,0.2,0.2,0.2-0.2,0.4l1-0.2l-0.6,0.4c0.3,0,0.6-0.2,0.8-0.1c-0.3,0.2-0.3,0.1-0.1,0.3c-0.4-0.3-0.8,0.2-1.3,0l0-0.6
							c-0.7-0.2-1.3,0.3-2.2,0.2l0.3,0.1c-0.1,0.2-0.6,0-0.9,0.1c0-0.2-0.2-0.3-0.3-0.4c0,0.1-0.7,0-0.8,0.4l-0.4-0.3
							c-0.7-0.1-0.8,0.6-1.6,0.5c0.2-0.2-0.1-0.4,0.4-0.5c-0.2,0-0.5,0-0.5,0.1c-0.1-0.1-0.7,0.3-0.9,0.1c-0.1,0.1-0.1,0.3-0.4,0.3
							c0,0,0-0.1,0-0.1c0,0.1-0.4,0.1-0.2,0.4c-0.7-0.6-2.1,0.1-2.7-0.4c-0.5,0.1-1.1,0.2-1.6,0.2c0-0.1,0-0.1,0.1-0.1
							c-0.7-0.2-0.4,0.6-1.1,0.4c-0.4-0.3,0.4-0.2,0.2-0.3c-0.1-0.6-0.9,0.1-1.4-0.3l0.1,0c-0.4-0.2-0.9,0.3-1.6,0.2
							c0,0,0-0.1,0-0.1c-0.4,0.3-1.2,0.5-1.8,0.6c0.2-0.3,0.3-0.1,0.1-0.4c-0.3,0,0.1,0.4-0.4,0.5c-0.2-0.1-0.6-0.2-0.6-0.5l0.5,0
							c-0.3-0.3-0.7,0-0.9,0l0-0.2c-0.8,0.1-0.8,0.5-1.6,0.5l0.1,0.1c-0.4,0.4-0.4-0.2-0.8,0.1l-0.1-0.4c-0.3,0.1-1,0.4-1.6,0.5
							c0.3-0.3,0.9-0.5,1.3-0.7c-0.3,0-1,0.1-1.2,0.3c0.1,0,0.3-0.1,0.4-0.1c-0.4,0.3-0.8,0.5-1.4,0.5c0.1-0.8-1.6-0.1-2-0.7
							c-1,0.3-2.1,0-3.3,0.1c0.5,0.6-0.4,0-0.3,0.6c-0.3,0.1-0.4,0-0.4,0l-0.9-0.3c-0.2-0.2,0.3-0.2,0.2-0.3c-0.6,0-0.3-0.2-0.7-0.4
							c0.1,0.2-0.2,0.3-0.6,0.3l0.5,0.2c-0.9,0.4-0.8-0.5-1.7-0.1l0.3-0.2c-0.4,0.1-1.7,0.1-2.1,0.6c-0.1-0.1-0.2-0.2,0-0.3
							c-1.1,0-2.4,0.7-3.2,0.5l0.1-0.2c-0.2,0.1-0.3,0.3-0.6,0.2c0-0.1,0.1-0.2,0-0.2c-0.1,0.1-0.5,0.3-0.8,0.3l0.2-0.2
							c-1.1-0.1-1.6,0.6-2.4,0.8c0-0.4-0.9-0.5-1.3-0.5l0-0.1c-1.2,0.1-2,0.6-3.1,0.9c-0.8-0.4-2.4,0.1-3.6,0c0.2,0.1,0,0.3-0.2,0.4
							c-0.3-0.1-0.7,0.4-0.7,0l0.1,0c-0.3-0.4-0.8-0.2-1.2-0.1l0,0.5c-1.2-0.6-2.8,0.8-3.6,0.2c-0.2,0.2-0.6,0.2-0.8,0.4l0-0.3
							c-0.8,0.1-1.1,0.1-2,0.4l0.1-0.2c-0.5,0.1-0.5,0.9-0.9,1.1l-0.2-0.4c-0.9,0.2-1.9,0.1-2.7,0.6c0-0.1,0-0.2,0.1-0.2
							c-0.4,0.1-1.7,0.1-1.4,0.6c-0.1-0.4-0.9,0.2-1.4,0.5l0-0.3c-0.3,0.5-0.3,0.6-0.8,0.8c-0.1,0-0.2-0.2,0-0.2
							c-0.5,0-0.3,0.4-0.8,0.4l0.1-0.2c-0.5,0.1-0.4,0.2-0.6,0.5c-0.3,0.2-0.9,0.2-1,0c0,0.2-0.2,0.4-0.5,0.4
							c-0.1-0.1,0-0.2,0.1-0.2c-0.8,0-1,0.7-1.6,0.6c0-0.1-0.1-0.1-0.1-0.1c0.6-0.2,1.1-0.3,1-0.3c-0.1-0.2-0.6-0.1-0.3-0.6
							c-0.3,0.3-0.9,0.9-1.4,0.9c0,0-0.1,0-0.1-0.1l0,0c-0.1,0-0.2,0.1-0.3,0.1c-0.2,0-0.3,0-0.4,0.1c-0.1-0.2-0.6,0.1-0.8,0.1
							c0.1,0.3-0.2,0.3,0.1,0.4c0,0,0,0,0.2-0.1c0,0,0.1,0,0.1-0.1l0,0c0.2-0.1,0.4-0.1,0.6-0.2c-0.1,0.2-0.3,0.4-0.6,0.3
							c-0.1,0.2-0.1,0.4-0.2,0.5c-0.4-0.3-1.1-0.3-1.3-0.5c-0.7,0.4-1.7,0.7-2,1.3c-0.2,0.1-0.3-0.1-0.4-0.1
							c0.1-0.1,0.2-0.1,0.3-0.2c-0.4,0.3-1.2,0.5-1.2,0.8c-0.6,0,0.2-0.4-0.5-0.1l0.1-0.1c-1.6-0.1-2,1.7-3.8,1.5
							c0.1,0,0.2,0,0.2,0.1c-1.9,0.3-3.6,1.5-5.5,1.6c-0.5,0.1-0.5,0.3-0.8,0.6l-0.2-0.2l-0.4,0.5c-0.7,0.5-1.5-0.3-2.3,0.5l0.2,0.2
							c-0.3,0.1-1,0.5-1,0.2c0,0,0,0.2-0.2,0.2l-0.1-0.1l-0.7,0.5c-0.7,0.1-0.1-0.6-1-0.3c-0.3,0.2-0.8,0.8-0.7,0.8
							c0.1,0,0.4,0,0.5,0.1l-0.3,0.2c0.1,0.5,0,1,0.9,1l0.4-0.5l0.2,0.2l-0.5,0.2c0.3,0.1,0.4-0.1,0.6-0.3c0.1,0.1,0.2,0.2,0.3,0.2
							l0.4-0.6c0.1,0.2-0.1,0.4,0.3,0.4c0.2-0.3-0.4-0.3,0-0.6c0.3,0.1,0.3,0.3,0.6,0c0.1,0.1,0,0.2-0.1,0.3
							c0.2-0.2,0.7-0.3,0.8-0.6c0.4,0.2,0.9-0.4,1,0c0.1-0.1,0.4-0.5,0.6-0.6c-0.3,0.7,0.9-0.3,1,0.3c0.2-0.6,1.1-0.6,1.7-1.1
							c0,0-0.1,0.1-0.1,0.1c0.3-0.1,0.5,0,0.7,0c-0.1-0.4,0.4-0.6,0.6-1c0.5,0.2-0.1,0.5,0.1,0.8c-0.1-0.3,0.6-0.5,0.4-0.7
							c0.4,0.1,0.3,0,0.6,0.3c-0.1-0.5,0.3-0.2,0.4-0.6c0.5,0.1,0.3,0.4,0.7,0.1C221.2,875.9,220.8,876.2,220.8,876.2z M232.4,871.4
							L232.4,871.4c-0.1,0-0.2,0.1-0.2,0.1C232.2,871.5,232.3,871.5,232.4,871.4z M233.4,871.1c-0.1,0-0.3,0.1-0.4,0.1
							c-0.1-0.1-0.1-0.2,0-0.2C233,871.1,233.2,871.1,233.4,871.1z M230.7,869.9c0.1-0.1,0.2-0.1,0.3,0c-0.1,0-0.2,0.1-0.3,0.1l0,0
							C230.7,870,230.7,870,230.7,869.9z"/>
						<path class="st5" d="M230.5,870.4C230.5,870.4,230.5,870.4,230.5,870.4C230.5,870.4,230.5,870.4,230.5,870.4L230.5,870.4
							L230.5,870.4z"/>
						<path class="st5" d="M325.5,861.7L325.5,861.7C325.5,861.7,325.5,861.7,325.5,861.7C325.5,861.7,325.5,861.7,325.5,861.7z"/>
						<polygon class="st5" points="247.5,868.1 247.5,868 247.4,868.1 						"/>
						<path class="st5" d="M331.4,862C331.4,862,331.4,862,331.4,862C331.5,862,331.4,862,331.4,862z"/>
						<path class="st5" d="M333.9,861.7l0.4,0C334.1,861.8,334,861.7,333.9,861.7z"/>
						<path class="st5" d="M335.8,861.6c0-0.1,0-0.1,0-0.1l0,0L335.8,861.6z"/>
						<path class="st5" d="M305.2,864.3C305.2,864.3,305.1,864.3,305.2,864.3C305,864.3,305.1,864.3,305.2,864.3z"/>
						<path class="st5" d="M314.3,863.3c-0.1,0.1-0.2,0.1-0.3,0.1C314.2,863.4,314.3,863.4,314.3,863.3z"/>
						<polygon class="st5" points="295,864.8 295,864.8 294.9,864.8 						"/>
						<path class="st5" d="M313.6,863.4c0.2,0,0.3,0,0.4,0C313.9,863.4,313.7,863.4,313.6,863.4z"/>
						<path class="st5" d="M344.1,860.2L344.1,860.2C344.2,860.2,344.2,860.2,344.1,860.2L344.1,860.2z"/>
						<path class="st5" d="M344.2,860.1L344.2,860.1C344.3,860.1,344.2,860.1,344.2,860.1z"/>
						<path class="st5" d="M344.5,860l-0.2,0.1C344.4,860.1,344.5,860.1,344.5,860z"/>
						<path class="st5" d="M341.6,860.6l0,0.1C341.6,860.7,341.6,860.6,341.6,860.6z"/>
						<path class="st5" d="M340.8,860.8c0.2,0,0.5,0.1,0.7,0l0-0.1C341.5,860.9,341,860.6,340.8,860.8z"/>
						<path class="st5" d="M337.4,860.1l0.7,0c-0.1-0.1-0.3-0.2,0-0.3C337.2,859.6,338.3,860,337.4,860.1z"/>
						<path class="st5" d="M335.4,860.2c0.3-0.1,0-0.2,0-0.2C335.2,860.2,335.1,860.2,335.4,860.2z"/>
						<path class="st5" d="M321,861.8l0-0.3C320.7,861.6,321,861.7,321,861.8z"/>
						<polygon class="st5" points="318.3,863.3 318.6,863.5 318.7,863.2 						"/>
						<polygon class="st5" points="316.5,861.6 316.7,861.5 316.2,861.7 						"/>
						<path class="st5" d="M292.1,862.4l0.1,0.3C292.4,862.6,292.4,862.3,292.1,862.4z"/>
						<path class="st5" d="M281.6,862.9c-0.1-0.2-0.4-0.2-0.6-0.1C281.2,862.8,281.4,863,281.6,862.9z"/>
						<polygon class="st5" points="249.8,865.1 250,865 249.7,865.1 						"/>
					</g>
				</g>
			</g>
		</g>
	</g>
</g>
<g>
	<path class="st0" d="M874.8,444.1l-6.8-17.5c0,0,0,0-31.2,3.5c-31.2,3.5-67.7-16.3-91.4-13.6c-18.2,2.1-71.9,17.7-107.7,26.1
		c-17.3-1.4-32.3-2.9-40.7-4.7c-25.5-5.5-88.3-57.4-118.9-64.1c-30.6-6.6-43.7-5.5-14.6,0.8c18.3,4,90.8,61.8,127.8,80.7
		c-31.3-5.9-110.5-28.7-127-26.8c-31.2,3.5-36.1,8.2-6.4,4.8c29.7-3.4,126.9,42.8,153.6,39.8c8-0.9,34.8-4.2,34.3-4.3
		c27.9,0.1,58.3,0.3,78.3,4.6c37.2,8.1,82.6,67.8,121.7,45.1l0-18.7c0,0,0,0-30.6-6.6c-30.6-6.6-57.6-36.9-81-42
		c-5.3-1.1-13.9-2.2-24.4-3.1c12.5-3.6,24.2-6.4,34.1-7.5C781.9,436.3,846.4,477.9,874.8,444.1z"/>
	<g>
		<path class="st1" d="M554.3,421.6c7.9,8,17.5,14.1,27.7,18.3c5.1,2.2,10.4,3.9,15.8,5.3c5.4,1.4,10.9,2.3,16.4,3
			c11.1,1.3,22.2,1.5,33.4,1c5.6-0.2,11.1-0.7,16.7-1.2c5.6-0.5,11-1.2,16.3-2.9c5.3-1.6,10.4-3.8,15.7-5.8c5.3-2,10.6-3.8,16-5.2
			c5.4-1.5,11-2.6,16.6-3.1c5.6-0.5,11.3-0.3,16.9,0.2c5.6,0.5,11.1,1.2,16.7,1.7l16.7,1.8c11.1,1.3,22.2,2.5,33.4,3.8
			c-11.2-0.9-22.3-1.9-33.5-2.8c-11.1-1-22.3-2.1-33.4-3c-5.6-0.4-11.1-0.5-16.6,0c-5.5,0.5-11,1.6-16.3,3.1
			c-5.4,1.5-10.6,3.3-15.8,5.3c-5.2,1.9-10.4,4.2-15.8,5.9c-5.4,1.7-11.1,2.4-16.7,2.9c-5.6,0.5-11.2,0.9-16.8,1.1
			c-11.2,0.4-22.5,0.3-33.6-1.3c-5.6-0.8-11.1-1.8-16.5-3.3c-5.4-1.5-10.8-3.3-15.9-5.6C571.5,436.3,561.9,429.9,554.3,421.6z"/>
	</g>
	<g>
		<path class="st1" d="M650.8,462.4c8.7-0.6,17.4-1.2,26.1-1.7c8.7-0.5,17.4-1.1,26.1-1.5c8.7-0.4,17.6-0.1,26.2,2
			c8.6,2.1,16.7,5.8,24.2,10.3c7.6,4.5,14.6,9.6,21.7,14.8c7,5.2,14,10.3,21.4,14.8c7.4,4.5,15.2,8.4,23.5,10.9
			c4.1,1.2,8.4,2.2,12.7,2.6c4.3,0.4,8.7,0.3,13-0.2c-4.3,0.8-8.7,1-13.1,0.7c-4.4-0.3-8.7-1.1-12.9-2.2c-8.5-2.4-16.5-6.2-24-10.6
			c-7.6-4.4-14.7-9.6-21.7-14.7c-7.1-5.1-14.1-10.2-21.6-14.5c-7.4-4.4-15.3-8.1-23.7-10.2c-8.3-2.2-17.1-2.4-25.7-2.3
			c-8.7,0.2-17.4,0.6-26.1,0.9C668.2,461.9,659.5,462.2,650.8,462.4z"/>
	</g>
	<g>
		<path class="st1" d="M609.7,457c4.7,1.5,9.6,2.1,14.4,2c4.8-0.1,9.7-0.6,14.5-1.3c2.4-0.3,4.8-0.7,7.3-1.1c2.4-0.3,4.9-0.7,7.3-1
			c4.9-0.6,9.8-1.2,14.7-1.6c-4.8,1.2-9.6,2.2-14.4,3.1c-4.8,0.9-9.6,1.8-14.5,2.5c-4.9,0.7-9.9,1.2-14.8,0.9
			C619.1,460.3,614.1,459.2,609.7,457z"/>
	</g>
	<g>
		<path class="st1" d="M587.1,452.1c-10.4-5.7-20.5-12-30.4-18.6c-9.9-6.6-19.6-13.4-29.3-20.2c-9.7-6.8-19.4-13.6-29.3-20.2
			c-9.9-6.5-19.9-12.9-30.3-18.7c10.7,5.2,21.1,11.1,31.1,17.4c10.1,6.3,19.9,13.1,29.6,19.9l29.1,20.6
			C567.2,439.1,577,445.8,587.1,452.1z"/>
	</g>
	<g>
		<path class="st3" d="M594.3,435.6c-11.6-3-22.6-7.9-33.1-13.6c-10.5-5.7-20.6-12.1-30.6-18.5c-10-6.4-19.9-12.8-30.2-18.5
			c-10.3-5.7-21-10.7-32.4-14.4c11.8,1.7,23.3,5.8,34.1,10.9c10.9,5.1,21.1,11.4,31.1,17.8c10,6.5,19.8,13.1,29.8,19.4
			C573.1,424.9,583.4,430.7,594.3,435.6z"/>
	</g>
	<g>
		<path class="st3" d="M467.5,428c5.3-1.4,10.9-1.4,16.3-0.8c5.4,0.6,10.7,1.9,15.9,3.3c5.2,1.4,10.3,2.9,15.4,4.6
			c5.1,1.7,10.1,3.6,15,6c-5.4-0.4-10.8-1.2-16-2.2c-5.3-1-10.5-2.2-15.7-3.6c-5.2-1.4-10.2-2.9-15.3-4.2
			C478,429.8,472.9,428.7,467.5,428z"/>
	</g>
	<g>
		<path class="st3" d="M655.6,439.6c13.7-5.2,27.5-9.9,41.3-14.5c6.9-2.3,13.9-4.5,20.9-6.6c7.1-2,14.3-3.7,21.7-4.7
			c3.7-0.5,7.5-0.7,11.2-0.7c3.8,0,7.5,0.2,11.3,0.9c0.9,0.1,1.9,0.3,2.8,0.5l2.7,0.6c1.8,0.5,3.6,0.9,5.4,1.4
			c3.6,1,7.1,2.2,10.5,3.5c6.9,2.5,13.6,5.3,20.5,7.6c6.8,2.3,13.9,4,21.2,4.6c-7.3,0.5-14.7-0.5-21.9-2.2c-7.2-1.8-14.1-4.1-21-6.2
			c-6.9-2.1-13.8-4.2-20.9-5c-7-1-14.1-0.9-21.1,0.1c-7.1,0.8-14.1,2.5-21.1,4.3c-7,1.8-14,3.9-21,5.8
			C684,432.7,669.9,436.4,655.6,439.6z"/>
	</g>
</g>
<g>
	<path class="st0" d="M891.7-81c0,0,0,0-55.1,21.1C781.4-38.8,704-58,662-41.9c-42,16.1-170.5,118-216.5,135.6
		c-46,17.6-235.8-2.7-291,18.4c-55.1,21.1-54.5,28.2-2,8.1c9.5-3.6,41.4-0.7,58.3-1c-24.4,11-62.2,27.7-74.6,31.3
		c-20.1,5.8-94.9-2.7-119,4.3c-24.1,6.9-22.1,8.7,0.8,2.2c22.9-6.6,104.9,16.4,125.6,10.5c20.1-5.8,65.7-31.4,96-40.1
		c11.8-3.4,28-1.8,44.4-0.6c68.1,5.9,141.7,14.9,168.6,4.6C500,113.2,605.4,28.5,672.4,2.9s207.4,20.3,241.1-55L891.7-81z"/>
	<g>
		<path class="st1" d="M874.6-46.5c-2.6,1.9-5.4,3.7-8.3,5.2c-2.9,1.5-6,2.8-9.1,3.8c-6.2,2.1-12.7,3.5-19.1,4.5
			c-6.5,1-13,1.7-19.5,2.3c-6.5,0.6-13.1,1.2-19.6,1.7c-26.1,2.1-52.3,3.3-78.6,3.8c-6.6,0.1-13.1,0.2-19.7,0.2l-9.8,0
			c-3.3,0-6.5-0.1-9.7,0.3c-3.2,0.3-6.2,1.2-9.1,2.6c-2.9,1.4-5.6,3.1-8.4,4.9L647-6.7l-66.3,42.2l-66.4,42.1
			c-5.5,3.5-11.1,7-16.7,10.5l-16.7,10.4c-11.2,6.8-22,14.3-34,19.9c-6,2.8-12.3,4.9-18.9,5.9c-6.6,1-13.2,0.9-19.7,0.7l-39.3-2.2
			l-78.5-4.7l78.6,3.7l39.3,1.9c6.5,0.2,13.1,0.2,19.5-0.8c6.4-1,12.6-3.1,18.5-5.9c11.7-5.6,22.6-13.1,33.7-20l16.7-10.4
			c5.6-3.5,11.1-7,16.6-10.5l66.3-42.2L646-8.2l16.6-10.5c2.8-1.7,5.6-3.5,8.6-5c1.5-0.7,3.1-1.3,4.7-1.8c1.6-0.5,3.3-0.8,5-0.9
			c3.3-0.4,6.7-0.3,9.9-0.3l9.8,0.1c6.5,0,13.1,0,19.6-0.1c26.2-0.3,52.4-1.3,78.5-3.2c6.5-0.5,13.1-0.9,19.6-1.5
			c6.5-0.5,13.1-1.1,19.5-2.1c6.5-0.9,12.9-2.2,19.1-4.3c3.1-1,6.1-2.3,9.1-3.7C869.1-42.8,871.9-44.5,874.6-46.5z"/>
	</g>
	<g>
		<path class="st1" d="M541.2,66c9.4-5.6,18.9-11.1,28.4-16.6L598,33c9.5-5.5,18.9-11,28.3-16.6c9.4-5.6,18.8-11.3,28.1-17
			c-8.9,6.4-18,12.5-27.3,18.3c-9.3,5.9-18.7,11.5-28.1,17c-9.5,5.5-19.1,10.8-28.7,16C560.7,56,551,61,541.2,66z"/>
	</g>
	<g>
		<path class="st1" d="M209.3,132.7c6-2.7,12.1-5.3,18.1-7.9l18.2-7.7c6.1-2.5,12.4-4.7,19.1-5.8c6.6-1,13.3-1.1,19.9-1.2
			c13.2-0.1,26.4-0.2,39.6-0.3l19.8,0c6.6,0.1,13.2,0.1,19.8,0.3c-6.6,0.3-13.2,0.5-19.8,0.7l-19.8,0.5c-13.2,0.3-26.4,0.5-39.5,0.7
			c-6.6,0.1-13.2,0-19.6,1c-6.4,0.9-12.6,3.1-18.8,5.4l-18.4,7.2C221.7,128,215.5,130.4,209.3,132.7z"/>
	</g>
	<g>
		<path class="st3" d="M141.7,145.8c-8.5,5.2-18.5,8-28.4,9.4c-10,1.4-20.1,1.3-30,0.8c-9.9-0.6-19.8-1.5-29.6-2.2
			c-9.8-0.6-19.6-0.8-29.5,0c9.6-2.9,19.7-3.8,29.6-3.9c10-0.1,19.9,0.6,29.8,1.1c9.8,0.6,19.6,0.9,29.4,0.3
			C122.6,150.7,132.3,149.1,141.7,145.8z"/>
	</g>
	<g>
		<path class="st3" d="M427.3,97.3c-21.6,5.4-44.2,7.4-66.5,6.2c-11.2-0.5-22.2-1.4-33.2-1.3c-2.7,0-5.5,0.1-8.2,0.2
			c-2.7,0.1-5.5,0.4-8.2,0.6c-5.5,0.5-11,1.2-16.6,1.7c-11.2,0.9-22.4,1-33.6,0.9c-11.2-0.2-22.3-0.6-33.4-1
			c-22.1-0.6-44.4-0.5-66.2,4.3c10.6-3.4,21.7-5.4,32.8-6.6c11.1-1.2,22.3-1.5,33.5-1.6c11.2-0.1,22.3,0.2,33.4,0.1
			c11.1,0,22.1-0.2,33.1-1.1c5.5-0.4,11-1.1,16.6-1.6c5.6-0.5,11.3-0.8,16.9-0.7c11.3,0.2,22.4,1.3,33.4,2.2
			C383.1,101.5,405.3,100.7,427.3,97.3z"/>
	</g>
</g>
</svg>
