<?xml version="1.0" encoding="utf-8"?>
<!-- Generator: Adobe Illustrator 21.0.2, SVG Export Plug-In . SVG Version: 6.00 Build 0)  -->
<svg version="1.1" id="Layer_1" xmlns="http://www.w3.org/2000/svg" xmlns:xlink="http://www.w3.org/1999/xlink" x="0px" y="0px"
	 viewBox="0 0 1600 1120.4" style="enable-background:new 0 0 1600 1120.4;" xml:space="preserve">
<style type="text/css">
	.st0{fill:#C4B7B5;}
	.st1{fill:#00006C;}
	.st2{fill:none;}
	.st3{fill:#FFD773;}
	.st4{fill:none;stroke:#FFF7DF;stroke-miterlimit:10;}
	.st5{fill:#FFDC85;}
</style>
<g>
	<path class="st0" d="M1452.1,926.1c-49.2,0-139-28-173.8-28s-143.9,77.4-182.5,77.4c-78.5,0-4.8,6.6,0,6.6
		c40.6,0,145.3-51.9,179.1-51.9c1.5,0,36.6,5.9,38.4,6c-7.5,0.2-41.4,1-47,3c-22,7.8-95.6,50.9-119.6,59.5
		c-24,8.6-99.6,4.6-128.4,14.9c-28.8,10.3-40.8,17.4-13.3,7.6c27.5-9.8,140.5,2.2,165.2-6.6c24.7-8.8,65.8-39.7,100.8-52.1
		c30.5-10.9,112.1-10.1,115.9-13.7c30.1,4.3,82.7,8,95.8,8c30.9,0,49.4-30.7,90-30.7s40.6,0,40.6,0l5.8-23.5
		C1577.1,863.4,1501.3,926.1,1452.1,926.1z"/>
	<g>
		<path class="st1" d="M1596.8,916.2c-17.8-4.8-37-4.2-54.5,1.4c-4.4,1.4-8.7,3.1-12.8,5.2c-1,0.5-2.1,1-3.1,1.6c-1,0.6-2,1.1-3,1.7
			c-2,1.2-3.9,2.4-5.8,3.7c-3.8,2.6-7.6,5.2-11.6,7.7c-4,2.4-8.1,4.6-12.6,6c-8.9,3-18.4,3.5-27.7,2.9c-9.3-0.6-18.4-2.2-27.5-3.5
			c-18.2-2.6-36.6-4.2-55.1-4.3c-4.6-0.1-9.2,0-13.8,0c-4.6,0.2-9.2,0.2-13.8,0.5c-9.2,0.4-18.4,1.3-27.5,2.4
			c-9.2,1.1-18.2,2.6-27.3,4.2c-4.5,0.9-9,1.8-13.5,2.8c-4.5,1-9,2-13.4,3.3c-4.4,1.3-8.7,2.9-12.7,5.1c-4,2.2-7.8,4.8-11.6,7.4
			c-7.6,5.2-15.4,10.2-23.3,15c-15.9,9.5-32.3,18-49.2,25.4c16.7-7.8,33-16.5,48.7-26.2c7.9-4.8,15.6-9.9,23.1-15.2
			c3.8-2.6,7.6-5.3,11.7-7.6c4.1-2.3,8.5-4,12.9-5.3c17.9-5,36.1-8.4,54.5-10.7c9.2-1.1,18.4-2,27.6-2.5c4.6-0.3,9.2-0.4,13.9-0.6
			c4.6,0,9.3-0.2,13.9,0c18.5,0.2,37,1.8,55.3,4.5c9.1,1.4,18.2,3,27.4,3.6c9.1,0.6,18.4,0.2,27.1-2.6c4.3-1.4,8.4-3.4,12.4-5.8
			c3.9-2.3,7.7-5,11.6-7.5c1.9-1.3,3.9-2.5,5.9-3.7c1-0.6,2-1.1,3.1-1.7c1-0.6,2.1-1.1,3.1-1.6c4.2-2.1,8.5-3.7,13-5.1
			c8.9-2.7,18.1-4.1,27.4-4.2c4.6-0.1,9.3,0.3,13.8,0.8C1587.8,914,1592.3,915,1596.8,916.2z"/>
	</g>
	<g>
		<path class="st1" d="M1141.3,966c9.2-3.9,18.4-7.7,27.6-11.6l27.7-11.4c9.2-3.8,18.5-7.5,27.8-11.2l13.9-5.6
			c4.6-1.8,9.2-3.8,14-5.5c2.4-0.8,4.8-1.5,7.4-2c2.5-0.4,5.1-0.7,7.6-0.8c2.5,0,5.1,0.1,7.6,0.4c2.5,0.3,5,0.7,7.5,1.1
			c4.9,1,9.8,2.2,14.6,3.3c4.8,1.2,9.7,2.2,14.6,3.1c4.9,0.9,9.8,1.6,14.8,2.1c5,0.5,9.9,0.8,14.9,1c10,0.4,19.9,0.1,29.9-0.8
			c-4.9,0.7-9.9,1.1-14.9,1.4c-5,0.3-10,0.4-15,0.4c-10-0.2-20-1-29.9-2.6c-2.5-0.4-4.9-0.8-7.4-1.3c-2.5-0.5-4.9-1-7.3-1.6
			c-4.9-1.1-9.7-2.3-14.6-3.2c-2.4-0.5-4.9-0.8-7.3-1.1c-2.5-0.2-4.9-0.3-7.4-0.3c-2.4,0.1-4.9,0.3-7.3,0.8c-2.4,0.5-4.7,1.2-7.1,2
			c-4.7,1.6-9.3,3.6-13.9,5.4l-13.9,5.5c-9.3,3.7-18.6,7.4-27.9,11l-27.9,10.9C1159.9,958.8,1150.6,962.5,1141.3,966z"/>
	</g>
	<g>
		<path class="st1" d="M1078.5,1012.4c8.3,0.1,16.7,0.3,25,0.1c8.3-0.1,16.6-0.6,24.8-1.6c8.2-1.1,16.3-2.8,24.1-5.5
			c7.8-2.7,15.2-6.5,22-11.1c3.5-2.3,6.9-4.6,10.4-6.9c1.7-1.1,3.5-2.3,5.3-3.4c1.8-1.1,3.6-2.2,5.3-3.3c7.2-4.3,14.4-8.4,21.8-12.2
			c7.4-3.9,14.9-7.6,22.4-11.2c7.5-3.6,15.1-7.1,22.7-10.5l-22.2,11.4c-7.4,3.8-14.8,7.7-22.1,11.7c-7.3,4-14.5,8.1-21.6,12.4
			c-1.8,1.1-3.5,2.2-5.3,3.3c-1.8,1.1-3.5,2.2-5.2,3.4c-3.5,2.3-6.9,4.7-10.4,6.9c-7,4.6-14.6,8.5-22.5,11.1
			c-8,2.7-16.2,4.4-24.5,5.3c-8.3,0.9-16.7,1.2-25,1.1C1095.1,1013.4,1086.8,1013,1078.5,1012.4z"/>
	</g>
	<g>
		<path class="st1" d="M1444.7,932.9c4,0.9,7.9,1.5,11.9,1.8c4,0.3,7.9,0.3,11.9-0.1c4-0.3,7.9-1,11.7-2c3.9-1,7.6-2.3,11.4-3.8
			c-3.3,2.3-7.1,4.1-10.9,5.3c-3.9,1.3-7.9,2.1-12,2.5c-4.1,0.3-8.2,0.2-12.2-0.4C1452.3,935.6,1448.4,934.5,1444.7,932.9z"/>
	</g>
	<g>
		<path class="st3" d="M1356.9,911.1c-24.6-4.5-49.3-8-74.1-10.2c-3.1-0.3-6.1-0.4-9.1-0.2c-2.9,0.2-5.8,0.8-8.7,1.7
			c-5.8,1.8-11.7,4-17.4,6.4c-11.5,4.7-22.7,10.1-33.7,15.9c-11,5.7-21.9,11.8-32.9,17.8l-16.5,8.8c-5.5,3-11,5.9-16.6,8.7
			c-11.2,5.7-23.1,10.4-35.4,13.1c-12.3,2.6-25,3.4-37.5,2.9c12.5-0.6,24.9-2,36.9-5.3c12-3.2,23.3-8.2,34.2-14.2l32.7-18.3
			c10.9-6.1,21.8-12.2,32.9-18.1c11.1-5.8,22.5-11.3,34.2-15.9c5.9-2.3,11.8-4.4,17.9-6.2c3.1-0.9,6.4-1.5,9.7-1.6
			c3.3-0.1,6.5,0.1,9.7,0.5C1308.1,900,1332.8,904.6,1356.9,911.1z"/>
	</g>
	<g>
		<g>
			<g>
				<g>
					<g>
						<path class="st5" d="M1130.3,1002.8c0.1-0.1,0-0.3-0.2-0.2l-0.1,0.4L1130.3,1002.8z"/>
						<path class="st5" d="M1128.9,1002.5c-0.2,0.2-0.4,0.5-0.2,0.8c0.2-0.4,0.2-0.2,0.4-0.7c0.2-0.1,0.4,0,0.4,0.2
							c0.1-0.1,0.3,0,0.4-0.2c-0.3-0.2-0.6-0.1-0.9,0.1C1128.8,1002.6,1128.9,1002.5,1128.9,1002.5z"/>
						<path class="st5" d="M1109.7,1004.9l0.1,0C1109.8,1004.9,1109.7,1004.9,1109.7,1004.9z"/>
						<path class="st5" d="M1097.7,1005.5c0.1,0,0.1,0,0.1-0.1C1097.7,1005.4,1097.7,1005.5,1097.7,1005.5z"/>
						<path class="st5" d="M1095.6,1005.2c0,0,0.1,0,0.1,0C1095.7,1005.2,1095.7,1005.2,1095.6,1005.2z"/>
						<path class="st5" d="M1109.7,1004.9l-0.3-0.1C1109.3,1004.9,1109.5,1004.9,1109.7,1004.9z"/>
						<path class="st5" d="M1126.4,1003.8c0.1,0,0.1-0.1,0.2-0.1C1126.5,1003.7,1126.5,1003.7,1126.4,1003.8L1126.4,1003.8z"/>
						<path class="st5" d="M1114.9,1004L1114.9,1004c0.1-0.1,0.1-0.1,0.2-0.2L1114.9,1004z"/>
						<path class="st5" d="M1118.9,1003.4c-0.1,0-0.1,0.3-0.1,0.4c0-0.1,0.1-0.2,0.2-0.2C1119,1003.6,1118.9,1003.5,1118.9,1003.4z"
							/>
						<path class="st5" d="M1125.3,1002.9l0.1-0.1C1125.4,1002.8,1125.3,1002.8,1125.3,1002.9z"/>
						<path class="st5" d="M1112,1004.3C1112,1004.3,1112,1004.2,1112,1004.3C1112,1004.2,1112,1004.3,1112,1004.3z"/>
						<path class="st5" d="M1000.5,1021.2C1000.5,1021.1,1000.5,1021.1,1000.5,1021.2C1000.5,1021.1,1000.5,1021.2,1000.5,1021.2z"
							/>
						<path class="st5" d="M995.6,1021.4L995.6,1021.4c0-0.1,0-0.1,0-0.2L995.6,1021.4z"/>
						<path class="st5" d="M1091.9,1005C1091.9,1005,1091.9,1005,1091.9,1005C1092,1004.9,1091.9,1004.9,1091.9,1005z"/>
						<path class="st5" d="M1057.4,1006c0.4,0.2-0.6,0.4,0,0.6C1057.3,1006.5,1057.9,1006.2,1057.4,1006z"/>
						<path class="st5" d="M1126.3,1003.8c-0.1,0-0.1,0-0.2,0C1126.2,1003.8,1126.3,1003.8,1126.3,1003.8z"/>
						<path class="st5" d="M1057.4,1006.6L1057.4,1006.6L1057.4,1006.6C1057.4,1006.7,1057.4,1006.7,1057.4,1006.6z"/>
						<path class="st5" d="M1083.3,1005.3c0,0,0.1,0.1,0.1,0.1C1083.3,1005.4,1083.3,1005.4,1083.3,1005.3z"/>
						<path class="st5" d="M1089.7,1005.6l-0.2,0C1089.6,1005.6,1089.7,1005.6,1089.7,1005.6z"/>
						<path class="st5" d="M1079.9,1005.8c-0.1,0-0.1-0.1-0.2,0c0,0,0,0,0,0C1079.8,1005.8,1079.8,1005.7,1079.9,1005.8z"/>
						<path class="st5" d="M1076.4,1005.8C1076.5,1005.9,1076.5,1005.9,1076.4,1005.8c0.1,0.1,0.1,0,0.2,0L1076.4,1005.8z"/>
						<path class="st5" d="M1010.5,1017.6c-0.1-0.1-0.2-0.1-0.2-0.2C1010.4,1017.6,1009.9,1017.8,1010.5,1017.6z"/>
						<path class="st5" d="M1126.4,1003.6c0,0.1,0,0.1-0.1,0.1l0.1,0C1126.4,1003.7,1126.4,1003.7,1126.4,1003.6z"/>
						<path class="st5" d="M1079.8,1008l-0.6,0C1079.4,1008,1079.6,1008,1079.8,1008z"/>
						<path class="st5" d="M1034.4,1010.9l-0.1,0.1C1034.3,1011,1034.4,1011,1034.4,1010.9z"/>
						<path class="st5" d="M1077.6,1008c-0.1-0.1-0.2-0.2-0.3-0.2c0,0,0,0-0.1,0.1L1077.6,1008z"/>
						<path class="st5" d="M1010.3,1017.4L1010.3,1017.4L1010.3,1017.4z"/>
						<path class="st5" d="M1007,1019.2c0.5-0.2,0.1-0.4,0.2-0.7c0.6-0.3,0.4,0.2,0.6,0.3c0.3-0.2,0.5-0.6,0.8-0.7
							c0,0.1,0.1,0.1,0.1,0.1c0.3-0.4,1.2-0.4,1.5-0.9c0,0,0.1,0,0.1,0.1c-0.1-0.1-0.2-0.3-0.2-0.5c0.2-0.1,0.3-0.4,0.5-0.2
							c-0.1,0-0.1,0.1-0.2,0.2l0.2-0.2c0.3,0.3-0.3,0.2-0.2,0.5c0.4-0.3,0.9-0.7,1.2-0.7c0.2,0.3-0.8,0.4-0.2,0.5l-0.6,0.1
							c0.6,0.4-0.3,0.1,0.2,0.5c0.7-0.2,0.7-0.4,1.5-0.6c0.1-0.2-0.1-0.2,0-0.5c0.9-0.7,1.1,0.5,1.7-0.1c0.1-0.3,0.1-0.7,0.7-0.7
							l-0.1,0.4c0.7-0.2,0.2-0.7,1-0.7c-0.1,0.2-0.5,0.3-0.4,0.3c0.6,0.1,0.3-0.3,0.6-0.4l0.2,0.3c0.7-0.3,1.5-0.8,2.2-1.1
							c0,0.1-0.1,0.3,0.1,0.3c1-0.5,2.2-0.6,3.3-0.7l0.3-0.4c0.1,0,0.2,0.1,0.1,0.2c0.4,0,0-0.2,0.1-0.3c0.2-0.1,0.3,0.1,0.2,0.2
							c0.6-0.4,1.8-1.1,2.6-1l-0.1,0.1c0.6,0,0.5-0.7,1.1-0.6l-0.1,0.1c1.3-0.2,2.6-0.8,3.6-0.5c0.1-0.5,1.3-0.1,1.2-0.7
							c0.8,0.1,0.6,0.3,1.6,0.3c0.3,0,0.3-0.4,0.7-0.6l0.1,0.3l0.4-0.4l0.3,0.3l0.3-0.1c-0.1,0-0.3-0.1-0.3-0.2
							c0.5-0.2,1.2,0,1.3,0.1l1.1-0.5c0,0.1-0.2,0.2-0.3,0.3c0.6-0.4,0.2,0.3,0.7-0.1c-0.1-0.1,0-0.2,0-0.3c0.3,0.1,0.9,0,1.4-0.1
							l-0.1,0.2c0.9-0.1,1.8-0.3,2.8-0.5c-0.4-0.1-0.3-0.4-0.1-0.5l0.2,0.3c0.2-0.2-0.3-0.1,0-0.4c0.4,0,0.3,0.3,0.1,0.5l0.4-0.2
							c0,0.1-0.1,0.2-0.1,0.3c0.2-0.2,0.8,0.2,1-0.2l0,0.1c1-0.1,1.4-0.3,2.2-0.4c0-0.3,0.3-0.2,0.5-0.5c0.6,0,1.3,0.2,2,0.1
							c0.5-0.2,0.1-0.3,0.3-0.4c0.1,0.3,0.8,0.2,0.4,0.4c0.8-0.1,1.1-0.2,2.1-0.5c-0.1-0.1-0.3-0.1-0.2-0.2c0.2-0.1,0.4,0.1,0.4,0.2
							l0,0c1.2-0.5,2.8,0.5,3.7-0.1l-0.1,0l1-0.3c0.5,0-0.3,0.2,0.1,0.3c1-0.5,1.7,0,2.6-0.4c0.7,0.7,2.4-0.2,3.4,0.3l-0.1-0.2
							c0.2-0.2,0.3,0.1,0.5,0.1c0-0.1-0.3-0.1-0.1-0.3c2-0.3,4.2,0.1,6.2,0.2c0.8,0,0.4-0.9,1.4-0.5l-0.3,0.3
							c1.5-0.4,3.1-0.1,4.6-0.4c-0.1,0.1-0.1,0.2-0.2,0.2c0.3,0.2,1.2,0,1.2-0.2c0.2,0,0.1,0.2,0.2,0.3c0.3,0.1,0.8-0.3,1-0.1
							c0,0-0.1,0.1-0.1,0.1c0.2-0.1,1,0,0.8-0.3c0.6,0.1,1.1-0.1,1.5,0c0.3-0.3,1,0.1,1.1-0.3c0,0.5,1,0.3,1.3,0.1
							c-0.1,0.1,0.3,0.1,0.2,0.3c0.4,0,0.8-0.1,0.7-0.3c0.8,0.5,1.5-0.5,1.9,0.2c1.2-0.3,2.3-0.4,3.4-0.6c0,0.5-1.2,0.1-1.1,0.5
							c1-0.2,1.6-0.6,2.6-0.5c0.3,0.1-0.1,0.2-0.2,0.3c1-0.2,2,0,2.9-0.3c0,0-0.1,0.1-0.2,0.1c0.2,0,0.4,0.1,0.4-0.1l-0.2,0.1
							c-0.3-0.3,0.7-0.6,0.7-0.8c-0.3,0.6,0.9,0.1,0.4,0.9c0.1,0,0.3-0.1,0.2-0.3c0.2,0,0.2,0.1,0.1,0.3c0.6-0.1,0.4-0.3,1-0.4
							c0,0.1-0.1,0.1-0.2,0.3c0.3-0.2,0.6-0.4,1.1-0.3c0,0.1,0,0.1-0.1,0.1c0.9-0.1,1.4-0.6,2.4-0.4c-0.3,0.4,0.3,0.1,0.4,0.5
							l0.5-0.1l-0.2-0.2c0.4,0,0.8-0.3,1.2-0.2l-0.3,0.2l0.8-0.1l-0.5-0.1c0.4-0.2-0.1-0.5,0.5-0.4c-0.1,0,0.4,0,0.7,0.2l0,0
							c0.2-0.1,0.4-0.3,0.8-0.2c0.1,0.1,0,0.4,0,0.5c0.2-0.3,1-0.1,1.3-0.5c-0.1,0.1-0.1,0.3,0,0.3l0.2-0.3c0.2,0.1,0.2,0.1,0.2,0.3
							c0.6,0-0.2-0.5,0.5-0.3c-0.1,0,0,0.1-0.1,0.1c0.7,0.1,1.4-0.2,2.1-0.1c0.2,0.4-0.6,0.1-0.3,0.4c1-0.1,2-0.6,2.9-0.6l-0.2,0
							c0.1-0.5,0.7,0.2,1.2-0.1c-0.1,0-0.1,0.3-0.1,0.2c0.6,0,1.3-0.2,2.3-0.5l-0.1,0.1c0.4,0.1,1,0,1.4,0c0.1-0.1,0.3-0.2,0.2-0.3
							c1.3,0.6,2.3-0.7,3.5-0.2c-0.1,0-0.3,0.2-0.2,0.1l0.9-0.2c-0.1-0.2-0.1-0.1-0.4-0.3c0.1-0.1,0.4-0.3,0.6-0.3
							c-0.4,0.2,0,0.4,0.2,0.5c0-0.1,0-0.2,0-0.2c0.5,0.4,0-0.5,0.7-0.3l0,0.1c0.2-0.1,0.5-0.3,0.7-0.3c0.1,0.3-0.3,0.2-0.2,0.4
							c0.4-0.1,0.7-0.6,1.1-0.4c-0.2,0.1-0.4,0.1-0.5,0.2c0.4,0.3,0.5,0.2,0.7,0.2l0,0l0.7,0l-0.2-0.1c0.4-0.8,1-0.3,1.5-0.8
							c-0.6,0.5-0.1,0.3-0.1,0.6c0.2,0.1,0.4,0.1,0.4,0.2c0.3-0.3,0.5,0.1,0.9-0.3c0,0.1,0.3,0,0.3,0.2c0.4-0.1-0.1-0.2-0.1-0.3
							c0.6-0.4,1.5,0.2,2.3-0.4c0.7-0.3,0.8-0.7,1.5-1c0.3,0.1-0.1,0.4-0.1,0.4c0.4,0.1,0.7,0,1-0.2c-0.1,0.1,0,0.2,0.2,0.2
							c0.3-0.1,0.1-0.4,0.5-0.3c0,0.1-0.1,0.3-0.2,0.4c0.3-0.2,0.6-0.4,0.9-0.6c0.1,0.1-0.2,0.3-0.3,0.4c0.4-0.2,1-0.4,1-0.6l-0.3,0
							c0.1,0,0.1,0.2,0,0.3c-0.3,0.3-0.5,0-0.5-0.1l0.2-0.1c-0.4-0.5-1,0.3-1.5,0.4l0.1-0.5l-0.4,0.4c-0.1-0.1-0.2-0.3,0-0.4
							c-0.4-0.1-0.3,0.2-0.6,0c0,0,0-0.1,0-0.1l-0.3,0.2c0.1-0.1-0.1-0.3,0.1-0.3c-0.7-0.1-0.9,0.5-1.2,0.3l0,0
							c-0.8,0.3,0,0.3-0.6,0.8l-0.6-0.7l0,0.3c-0.1,0-0.3,0-0.3-0.1c-0.3,0.3,0.1,0.1-0.1,0.3c-0.5-0.2-1.2,0.3-1.4-0.1
							c-0.1,0.3,0.4,0.1,0,0.3c-0.2-0.5-0.5,0.2-1,0c0.1-0.3,0.5-0.2,0-0.4c-0.2,0.5-0.8,0-1.1,0.2c0,0.4-0.7,0.3-1.2,0.5
							c0-0.1-1.1,0-1.6-0.1l0-0.1c-0.1,0.4-0.6,0.4-1,0.5c0-0.2,0-0.3,0.3-0.4l-0.4,0c-0.1,0.1-0.2,0.2-0.4,0.3l0.1-0.3
							c-0.5,0.1-1,0.4-1.6,0.3c0,0.3,0.6,0.7-0.1,0.9c0-0.1-0.1-0.4,0.1-0.4c-0.1,0-0.2,0.1-0.3,0.1l0.2-0.3
							c-0.3-0.1-0.1,0.2-0.4,0.2c0-0.2-0.2-0.1-0.2-0.3c0.1,0,0.2,0.1,0.3,0c-0.3,0-0.6-0.1-0.7-0.2c0,0.1,0,0.3-0.2,0.3
							c-0.5,0.1-0.2-0.2-0.5-0.3c-0.1,0.2-0.4,0-0.4,0.3c-0.1,0-0.2-0.1-0.2-0.2c-0.2,0.2-1.2,0.1-0.9,0.4l0.1,0c0,0,0,0,0,0l0,0
							l0,0c-0.8,0.4-1.8,0-2.6,0.2l0-0.1c-0.5,0.2-1.1,0.2-1.4,0.4c-0.1,0-0.4-0.2-0.3-0.3c-0.4,0.1-0.4,0.2-1,0.1
							c0.4-0.2-0.1-0.1,0.4-0.2c-0.5,0-0.6-0.2-1.1,0.1c0.2-0.3-0.4-0.3-0.6-0.2l0.4,0.2c-0.3,0.1-0.5,0-0.7,0l0.1-0.3
							c-1-0.4-1.8,0.8-2.6,0.1c-0.3,0.2,0.6,0.1,0.3,0.4c-0.5,0-1-0.5-1.1-0.5c-0.6-0.2-0.6,0.5-1.2,0.4c0.1,0.1,0.2,0.4-0.3,0.6
							c-0.5,0-0.6-0.5-0.3-0.6c0.1,0,0.2,0,0.2,0.1c0.1-0.1,0.3-0.1,0.2-0.2l-0.1,0.1c-0.2-0.1-0.9-0.1-0.7-0.3
							c-0.3,0.1-0.1,0.2,0.1,0.3c-0.6-0.2-0.9,0-1.6-0.1c0.1,0.1,0.2,0.2,0.1,0.2c-0.9-0.1-0.4,0.2-1,0.3c-0.4-0.2,0.1-0.4-0.5-0.3
							c-0.4-0.1-0.1-0.3,0.1-0.4c-0.6,0.2-1.1-0.1-1.4-0.1l0.3-0.1c-0.2,0.1-0.3,0.1-0.5,0.1l0.2,0.2c-0.2,0-0.3,0-0.3-0.1
							c-0.2,0.2,0.1,0.4-0.2,0.6c-0.2-0.1-0.7,0.2-0.8-0.2c0.7,0.1-0.1-0.3,0.5-0.4c-0.1,0-0.3,0-0.4,0c0,0,0-0.1,0.1-0.1
							c-0.7-0.3-0.3,0.4-1,0.4c0.1-0.2-0.2-0.3-0.3-0.3c0.3,0,0.1,0.3-0.1,0.4c-0.5-0.1-0.5,0.1-0.7,0.1l0.3,0.1
							c-0.1,0.2-0.3,0.2-0.6,0.2c0-0.1,0.3-0.1,0.2-0.2c-0.4,0.3-0.8-0.3-1.3-0.1c-0.2-0.1,0-0.3-0.2-0.4c-0.6,0.2-0.6-0.2-1.2,0
							c0.2,0.2,0.2,0.2-0.2,0.4l1-0.2l-0.6,0.4c0.3,0,0.6-0.2,0.8-0.1c-0.3,0.2-0.3,0.1-0.1,0.3c-0.4-0.3-0.8,0.2-1.3,0l0-0.6
							c-0.7-0.2-1.2,0.3-2.1,0.2l0.3,0.1c-0.1,0.2-0.6,0-0.8,0.1c0-0.2-0.2-0.3-0.3-0.4c0,0.1-0.7,0-0.7,0.4l-0.4-0.3
							c-0.7-0.1-0.8,0.6-1.5,0.5c0.2-0.2-0.1-0.4,0.4-0.5c-0.2,0-0.4,0-0.4,0.1c-0.1-0.1-0.6,0.3-0.9,0.1c-0.1,0.1-0.1,0.3-0.4,0.3
							c0,0,0-0.1,0-0.1c0,0.1-0.4,0.1-0.2,0.4c-0.7-0.6-2,0.1-2.7-0.4c-0.5,0.1-1.1,0.2-1.6,0.2c0-0.1,0-0.1,0.1-0.1
							c-0.6-0.2-0.4,0.6-1.1,0.4c-0.4-0.3,0.4-0.2,0.1-0.3c-0.1-0.6-0.9,0.1-1.4-0.3l0.1,0c-0.4-0.2-0.9,0.3-1.5,0.2
							c0,0,0-0.1,0-0.1c-0.4,0.3-1.2,0.5-1.8,0.6c0.2-0.3,0.3-0.1,0.1-0.4c-0.3,0,0.1,0.4-0.4,0.5c-0.2-0.1-0.6-0.2-0.6-0.5l0.5,0
							c-0.3-0.3-0.6,0-0.9,0l0-0.2c-0.8,0.1-0.8,0.5-1.6,0.5l0.1,0.1c-0.4,0.4-0.4-0.2-0.8,0.1l-0.1-0.4c-0.3,0.1-1,0.4-1.6,0.5
							c0.3-0.3,0.9-0.5,1.3-0.7c-0.3,0-1,0.1-1.1,0.3c0.1,0,0.3-0.1,0.4-0.1c-0.3,0.3-0.8,0.5-1.4,0.5c0.1-0.8-1.5-0.1-2-0.7
							c-1,0.3-2.1,0-3.3,0.1c0.5,0.6-0.4,0-0.2,0.6c-0.3,0.1-0.4,0-0.4,0l-0.9-0.3c-0.2-0.2,0.3-0.2,0.2-0.3c-0.6,0-0.3-0.2-0.7-0.4
							c0.1,0.2-0.2,0.3-0.6,0.3l0.5,0.2c-0.8,0.4-0.8-0.5-1.6-0.1l0.3-0.2c-0.4,0.1-1.6,0.1-2,0.6c-0.1-0.1-0.2-0.2,0-0.3
							c-1.1,0-2.3,0.7-3.2,0.5l0.1-0.2c-0.2,0.1-0.3,0.3-0.6,0.2c0-0.1,0.1-0.2,0-0.2c-0.1,0.1-0.5,0.3-0.8,0.3l0.2-0.2
							c-1.1-0.1-1.5,0.6-2.4,0.7c0-0.4-0.9-0.5-1.3-0.5l0-0.1c-1.2,0.1-2,0.6-3.1,0.9c-0.8-0.4-2.4,0.1-3.5,0c0.2,0.1,0,0.3-0.2,0.4
							c-0.3-0.1-0.7,0.4-0.7,0l0.1,0c-0.3-0.4-0.8-0.2-1.2-0.1l0,0.5c-1.2-0.6-2.8,0.8-3.5,0.2c-0.2,0.2-0.6,0.2-0.8,0.4l0-0.3
							c-0.7,0.1-1.1,0.1-2,0.4l0.1-0.2c-0.5,0.1-0.5,0.9-0.9,1.1l-0.2-0.4c-0.9,0.2-1.8,0.1-2.6,0.6c0-0.1,0-0.2,0.1-0.2
							c-0.4,0.1-1.7,0.1-1.4,0.6c-0.1-0.4-0.9,0.2-1.3,0.5l0-0.3c-0.3,0.5-0.3,0.6-0.8,0.8c-0.1,0-0.2-0.2,0-0.2
							c-0.5,0-0.3,0.4-0.8,0.4l0.1-0.2c-0.5,0.1-0.4,0.2-0.6,0.5c-0.2,0.2-0.9,0.2-1,0c0,0.2-0.2,0.4-0.5,0.4
							c-0.1-0.1,0-0.2,0.1-0.2c-0.8,0-1,0.6-1.6,0.5c0-0.1-0.1-0.1-0.1-0.1c0.6-0.2,1.1-0.3,1-0.3c-0.1-0.2-0.6-0.1-0.3-0.6
							c-0.3,0.3-0.8,0.9-1.3,0.9c0,0-0.1,0-0.1-0.1l0,0c-0.1,0-0.2,0.1-0.3,0.1c-0.2,0-0.3,0-0.4,0c-0.1-0.2-0.6,0.1-0.8,0.1
							c0.1,0.3-0.2,0.3,0.1,0.4c0,0,0,0,0.2-0.1c0,0,0.1,0,0.1-0.1l0,0c0.2-0.1,0.4-0.1,0.6-0.2c-0.1,0.2-0.3,0.4-0.6,0.3
							c-0.1,0.2-0.1,0.4-0.2,0.5c-0.4-0.3-1.1-0.3-1.3-0.5c-0.7,0.4-1.7,0.7-1.9,1.3c-0.2,0.1-0.3-0.1-0.4-0.1
							c0.1-0.1,0.2-0.1,0.3-0.2c-0.4,0.3-1.2,0.5-1.2,0.8c-0.6,0,0.2-0.4-0.5-0.1l0.1-0.1c-1.6-0.1-1.9,1.7-3.7,1.5
							c0.1,0,0.2,0,0.2,0.1c-1.9,0.3-3.5,1.5-5.4,1.6c-0.5,0.1-0.5,0.3-0.7,0.6l-0.2-0.2l-0.4,0.5c-0.6,0.5-1.5-0.3-2.3,0.5l0.2,0.2
							c-0.3,0.1-1,0.5-1,0.2c0,0,0,0.2-0.2,0.2l-0.1-0.1l-0.7,0.5c-0.7,0.1-0.1-0.6-1-0.3c-0.3,0.2-0.8,0.8-0.7,0.8
							c0.1,0,0.4,0,0.4,0.1l-0.3,0.2c0.1,0.5,0,1,0.9,1l0.4-0.5l0.2,0.2l-0.4,0.2c0.3,0.1,0.4-0.1,0.6-0.3c0.1,0.1,0.2,0.2,0.3,0.2
							l0.4-0.6c0.1,0.2-0.1,0.4,0.3,0.4c0.2-0.3-0.4-0.3,0-0.6c0.3,0.1,0.3,0.3,0.5,0c0.1,0.1,0,0.2-0.1,0.3
							c0.2-0.2,0.7-0.3,0.7-0.6c0.3,0.2,0.9-0.4,1,0.1c0-0.1,0.4-0.5,0.6-0.6c-0.3,0.7,0.9-0.3,1,0.3c0.2-0.6,1.1-0.6,1.6-1.1
							c0,0-0.1,0.1-0.1,0.1c0.3-0.1,0.5,0,0.7,0c-0.1-0.4,0.4-0.6,0.6-1c0.5,0.2-0.1,0.5,0.1,0.8c-0.1-0.3,0.6-0.5,0.4-0.7
							c0.4,0.1,0.3,0,0.6,0.3c-0.1-0.5,0.3-0.2,0.4-0.5c0.5,0.1,0.3,0.4,0.7,0.1C1007.4,1018.9,1007,1019.2,1007,1019.2z
							 M1018.4,1014.5L1018.4,1014.5c-0.1,0-0.2,0.1-0.2,0.1C1018.2,1014.6,1018.3,1014.5,1018.4,1014.5z M1019.4,1014.2
							c-0.1,0-0.3,0.1-0.4,0.1c-0.1-0.1-0.1-0.2,0-0.2C1019,1014.2,1019.2,1014.2,1019.4,1014.2z M1016.7,1013
							c0.1-0.1,0.2-0.1,0.3,0c-0.1,0-0.2,0.1-0.3,0.1l0,0C1016.7,1013.1,1016.7,1013,1016.7,1013z"/>
						<path class="st5" d="M1016.6,1013.4C1016.5,1013.4,1016.5,1013.5,1016.6,1013.4C1016.5,1013.5,1016.6,1013.5,1016.6,1013.4
							L1016.6,1013.4L1016.6,1013.4z"/>
						<path class="st5" d="M1109.8,1004.9L1109.8,1004.9C1109.8,1004.9,1109.8,1004.9,1109.8,1004.9
							C1109.8,1004.9,1109.8,1004.9,1109.8,1004.9z"/>
						<polygon class="st5" points="1033.3,1011.3 1033.3,1011.2 1033.2,1011.3 						"/>
						<path class="st5" d="M1115.6,1005.2C1115.6,1005.3,1115.6,1005.3,1115.6,1005.2C1115.7,1005.3,1115.6,1005.3,1115.6,1005.2z"
							/>
						<path class="st5" d="M1118.1,1005l0.4,0C1118.3,1005,1118.1,1005,1118.1,1005z"/>
						<path class="st5" d="M1120,1004.8c0-0.1,0-0.1,0-0.1l0,0L1120,1004.8z"/>
						<path class="st5" d="M1089.9,1007.5C1089.9,1007.5,1089.8,1007.5,1089.9,1007.5C1089.6,1007.5,1089.7,1007.5,1089.9,1007.5z"
							/>
						<path class="st5" d="M1098.8,1006.5c-0.1,0.1-0.2,0.1-0.3,0.1C1098.7,1006.7,1098.8,1006.7,1098.8,1006.5z"/>
						<polygon class="st5" points="1079.9,1008 1079.9,1008 1079.8,1008 						"/>
						<path class="st5" d="M1098.1,1006.7c0.2,0,0.3,0,0.4,0C1098.4,1006.6,1098.3,1006.6,1098.1,1006.7z"/>
						<path class="st5" d="M1128.1,1003.5L1128.1,1003.5C1128.2,1003.5,1128.2,1003.4,1128.1,1003.5L1128.1,1003.5z"/>
						<path class="st5" d="M1128.2,1003.4L1128.2,1003.4C1128.2,1003.4,1128.2,1003.4,1128.2,1003.4z"/>
						<path class="st5" d="M1128.5,1003.3l-0.2,0.1C1128.4,1003.4,1128.4,1003.3,1128.5,1003.3z"/>
						<path class="st5" d="M1125.6,1003.9l0,0.1C1125.6,1003.9,1125.6,1003.9,1125.6,1003.9z"/>
						<path class="st5" d="M1124.9,1004c0.2,0,0.5,0.1,0.7,0l0-0.1C1125.5,1004.1,1125,1003.8,1124.9,1004z"/>
						<path class="st5" d="M1121.5,1003.3l0.6,0c-0.1-0.1-0.3-0.2,0-0.3C1121.3,1002.8,1122.3,1003.3,1121.5,1003.3z"/>
						<path class="st5" d="M1119.5,1003.5c0.3-0.1,0-0.2,0-0.2C1119.3,1003.4,1119.3,1003.4,1119.5,1003.5z"/>
						<path class="st5" d="M1105.4,1005l0-0.3C1105.1,1004.8,1105.4,1004.9,1105.4,1005z"/>
						<polygon class="st5" points="1102.7,1006.5 1103,1006.7 1103.1,1006.4 						"/>
						<polygon class="st5" points="1101,1004.8 1101.1,1004.8 1100.7,1004.9 						"/>
						<path class="st5" d="M1077,1005.6l0.1,0.3C1077.3,1005.8,1077.3,1005.5,1077,1005.6z"/>
						<path class="st5" d="M1066.7,1006.1c-0.1-0.2-0.4-0.2-0.6-0.1C1066.3,1006,1066.6,1006.2,1066.7,1006.1z"/>
						<polygon class="st5" points="1035.5,1008.3 1035.7,1008.1 1035.3,1008.3 						"/>
					</g>
				</g>
			</g>
		</g>
	</g>
</g>
<g>
	<path class="st0" d="M1635.2,456.5l-6.7-17.2c0,0,0,0-30.6,3.5c-30.6,3.5-66.4-16-89.8-13.3c-17.9,2-70.6,17.3-105.7,25.7
		c-17-1.4-31.7-2.8-39.9-4.6c-25-5.4-86.7-56.4-116.8-62.9c-30-6.5-42.9-5.4-14.3,0.8c18,3.9,89.1,60.7,125.5,79.2
		c-30.7-5.8-108.4-28.1-124.7-26.3c-30.6,3.5-35.4,8-6.3,4.7c29.2-3.3,124.5,42.1,150.8,39.1c7.8-0.9,34.1-4.1,33.7-4.3
		c27.4,0.1,57.2,0.3,76.9,4.5c36.5,7.9,81.1,66.6,119.4,44.3l0-18.3c0,0,0,0-30-6.5c-30-6.5-56.6-36.3-79.5-41.2
		c-5.2-1.1-13.7-2.1-23.9-3.1c12.2-3.5,23.8-6.3,33.4-7.4C1543.9,448.8,1607.3,489.7,1635.2,456.5z"/>
	<g>
		<path class="st1" d="M1320.6,434.4c7.7,7.8,17.1,13.8,27.2,18c5,2.1,10.2,3.8,15.5,5.2c5.3,1.3,10.7,2.3,16.1,2.9
			c10.9,1.3,21.8,1.5,32.8,1c5.5-0.2,10.9-0.7,16.4-1.2c5.5-0.5,10.8-1.2,16-2.9c5.2-1.6,10.2-3.8,15.4-5.7
			c5.2-1.9,10.4-3.7,15.7-5.1c5.3-1.5,10.8-2.5,16.3-3c5.5-0.5,11.1-0.3,16.6,0.2c5.5,0.5,10.9,1.1,16.4,1.7l16.4,1.8
			c10.9,1.3,21.8,2.4,32.7,3.7c-11-0.9-21.9-1.8-32.8-2.8c-10.9-1-21.9-2-32.8-2.9c-5.5-0.4-10.9-0.5-16.3,0
			c-5.4,0.5-10.8,1.6-16,3.1c-5.3,1.4-10.4,3.2-15.5,5.2c-5.1,1.9-10.2,4.1-15.5,5.8c-5.3,1.7-10.9,2.4-16.4,2.8
			c-5.5,0.5-11,0.9-16.5,1.1c-11,0.4-22.1,0.3-33-1.3c-5.5-0.8-10.9-1.8-16.2-3.2c-5.3-1.5-10.6-3.3-15.6-5.5
			C1337.4,448.8,1328,442.5,1320.6,434.4z"/>
	</g>
	<g>
		<path class="st1" d="M1415.3,474.4c8.5-0.6,17.1-1.1,25.6-1.7c8.5-0.5,17.1-1.1,25.6-1.5c8.6-0.4,17.3-0.1,25.7,2
			c8.4,2.1,16.4,5.7,23.8,10.1c14.9,8.8,27.7,20.2,42.3,29.1c7.3,4.4,14.9,8.3,23.1,10.7c4.1,1.2,8.2,2.2,12.5,2.6
			c4.2,0.4,8.5,0.3,12.8-0.2c-4.2,0.7-8.5,1-12.8,0.7c-4.3-0.3-8.5-1.1-12.7-2.2c-8.3-2.3-16.2-6-23.6-10.4
			c-7.5-4.3-14.4-9.4-21.3-14.4c-6.9-5-13.9-10-21.2-14.3c-7.3-4.3-15-7.9-23.2-10c-8.2-2.2-16.7-2.4-25.2-2.2
			c-8.5,0.2-17.1,0.6-25.6,0.9C1432.4,473.9,1423.8,474.3,1415.3,474.4z"/>
	</g>
	<g>
		<path class="st1" d="M1375,469.1c4.6,1.4,9.4,2,14.1,2c4.8-0.1,9.5-0.6,14.2-1.3c2.4-0.3,4.7-0.7,7.1-1.1c2.4-0.3,4.8-0.7,7.2-1
			c4.8-0.6,9.6-1.2,14.4-1.6c-4.7,1.2-9.4,2.2-14.2,3.1c-4.7,0.9-9.5,1.8-14.3,2.5c-4.8,0.7-9.7,1.1-14.6,0.9
			C1384.2,472.4,1379.3,471.3,1375,469.1z"/>
	</g>
	<g>
		<path class="st1" d="M1352.8,464.4c-10.2-5.6-20.2-11.8-29.9-18.2c-9.7-6.4-19.3-13.2-28.8-19.9c-9.5-6.7-19.1-13.4-28.8-19.8
			c-9.7-6.4-19.6-12.6-29.7-18.4c10.5,5.1,20.7,10.8,30.6,17.1c9.9,6.2,19.5,12.8,29.1,19.5l28.5,20.2
			C1333.3,451.5,1342.9,458.1,1352.8,464.4z"/>
	</g>
	<g>
		<path class="st3" d="M1359.8,448.1c-11.4-2.9-22.2-7.8-32.5-13.3c-10.4-5.6-20.2-11.9-30-18.2c-9.8-6.3-19.5-12.6-29.6-18.2
			c-10.1-5.6-20.6-10.5-31.7-14.2c11.6,1.7,22.9,5.6,33.5,10.7c10.7,5,20.7,11.2,30.6,17.5c9.8,6.3,19.4,12.9,29.3,19
			C1339.1,437.6,1349.1,443.3,1359.8,448.1z"/>
	</g>
	<g>
		<path class="st3" d="M1235.4,440.7c5.2-1.4,10.7-1.4,16-0.8c5.3,0.6,10.5,1.9,15.6,3.2c5.1,1.3,10.1,2.8,15.1,4.5
			c5,1.7,9.9,3.6,14.7,5.9c-5.3-0.3-10.6-1.2-15.7-2.1c-5.2-1-10.3-2.2-15.4-3.5c-5.1-1.3-10-2.9-15-4.2
			C1245.7,442.4,1240.7,441.4,1235.4,440.7z"/>
	</g>
	<g>
		<path class="st3" d="M1420,452.1c13.4-5.1,27-9.8,40.6-14.2c6.8-2.3,13.6-4.4,20.5-6.5c6.9-2,14-3.7,21.3-4.6
			c3.6-0.5,7.3-0.7,11-0.7c3.7,0,7.4,0.2,11.1,0.9c0.9,0.1,1.8,0.3,2.7,0.5l2.7,0.6c1.8,0.5,3.6,0.9,5.3,1.4c3.5,1,6.9,2.2,10.3,3.4
			c6.8,2.5,13.3,5.2,20.1,7.4c6.7,2.3,13.6,3.9,20.8,4.5c-7.2,0.5-14.5-0.5-21.5-2.2c-7-1.7-13.9-4-20.7-6.1
			c-6.8-2-13.6-4.1-20.5-4.9c-6.8-1-13.8-0.9-20.7,0.1c-6.9,0.8-13.8,2.4-20.7,4.2c-6.9,1.8-13.7,3.8-20.7,5.7
			C1447.9,445.3,1434,449,1420,452.1z"/>
	</g>
</g>
<g>
	<path class="st0" d="M513,735.1c-38.6,0-158.3-78.4-193-78.4s-124.6,28-173.8,28s-125-62.7-167-23.5l5.8,23.5c0,0,0,0,40.6,0
		c12.6,0,25.5,3,38.2,7.1c18.5,8.2,35.4,23.9,50.1,26.7c18.1,3.5,86.2,4.2,106,8s78.7,43.4,102.4,48c23.7,4.6,30.7,1.7,8.1-2.7
		c-22.1-4.3-81.3-60.9-102.5-66.8c36.1-5.2,72.5-18.6,89.4-18.6c33.8,0,144.8,53.2,185.4,53.2S551.7,735.1,513,735.1z"/>
	<g>
		<path class="st1" d="M93.6,691.1c6.2,3.4,12.3,6.9,18.8,9.6c6.4,2.8,13.2,4.6,20.1,5.8c13.8,2.5,27.9,2.5,42,2.8
			c7,0.2,14.1,0.6,21.2,1.3l5.3,0.7c1.8,0.3,3.5,0.6,5.2,0.9c1.8,0.3,3.5,0.7,5.2,1.1l2.6,0.6l2.5,0.8c6.8,2,13.3,5.1,19.3,8.9
			c5.9,3.9,11.4,8.5,16,13.8c-4.9-5-10.5-9.4-16.5-13c-6-3.6-12.5-6.4-19.2-8.2c-6.7-1.9-13.6-3.2-20.6-3.8c-7-0.7-14-1-21-1.1
			c-7-0.2-14.1-0.4-21.1-0.8c-7-0.4-14.1-1.1-21.1-2.5c-6.9-1.4-13.8-3.4-20.2-6.4C105.6,698.6,99.5,694.9,93.6,691.1z"/>
	</g>
	<g>
		<path class="st1" d="M171.9,700.1c8.8-1,17.5-2.9,26.1-5.5c8.5-2.5,16.9-5.5,25.2-8.6c8.3-3.1,16.7-6.2,25.1-9.1
			c8.5-2.8,17.1-5.3,25.9-7c17.6-3.3,35.7-3.6,53.4-1.1c8.8,1.3,17.6,3.3,26.1,6c8.5,2.8,16.8,6.2,24.6,10.4c-8-3.8-16.4-7-24.9-9.5
			c-8.5-2.5-17.2-4.3-26-5.4c-17.6-2.2-35.5-1.9-52.8,1.5c-8.7,1.6-17.2,4-25.7,6.8c-8.4,2.7-16.8,5.9-25.2,8.8
			c-8.4,2.9-16.9,5.8-25.5,8.1C189.6,697.8,180.8,699.5,171.9,700.1z"/>
	</g>
	<g>
		<path class="st1" d="M300.7,675.9c5.4-0.8,10.9-0.7,16.3-0.1c5.4,0.6,10.8,1.8,16.1,3.3c10.5,2.9,20.7,7,30.9,10.4
			c10.3,3.4,20.8,6.2,31.3,8.7c10.6,2.5,21.2,4.7,31.8,7c-10.8-1.6-21.5-3.3-32.2-5.5c-10.7-2.2-21.3-4.9-31.6-8.3
			c-10.3-3.5-20.4-7.6-30.7-10.8C322.3,677.4,311.6,675.1,300.7,675.9z"/>
	</g>
	<g>
		<path class="st3" d="M307.9,656.1c18.3,0.9,36.3,5.6,53.4,12.1c8.6,3.2,17,7,25.2,10.9c8.3,4,16.4,8.2,24.4,12.5
			c8,4.3,16,8.7,24.1,12.9c8,4.3,16.1,8.3,24.3,12.2c8.2,3.8,16.5,7.4,25.1,10.5c8.5,3.1,17.2,5.7,26.4,6.4
			c-9.2,0.3-18.3-1.6-27.1-4.1c-2.2-0.6-4.4-1.4-6.6-2c-2.2-0.7-4.3-1.5-6.5-2.2c-4.3-1.6-8.6-3.3-12.8-5
			c-8.5-3.5-16.7-7.5-24.9-11.6c-8.2-4.1-16.2-8.4-24.3-12.7c-8-4.3-16.1-8.6-24.2-12.6c-8.1-4.1-16.3-7.9-24.6-11.5
			C343.2,664.7,325.9,659.1,307.9,656.1z"/>
	</g>
</g>
<g>
	<path class="st0" d="M1557.4-105.2c0,0,0,0-54.1,20.7c-54.1,20.7-130.1,1.9-171.3,17.7C1290.8-51,1164.6,49,1119.5,66.3
		c-45.1,17.3-231.5-2.6-285.6,18.1c-54.1,20.7-53.5,27.7-2,8c9.3-3.6,40.7-0.7,57.2-1c-24,10.7-61,27.2-73.2,30.7
		c-19.7,5.6-93.2-2.6-116.8,4.2c-23.6,6.8-21.7,8.6,0.8,2.1c22.5-6.5,103,16.1,123.3,10.3c19.7-5.7,64.5-30.8,94.3-39.4
		c11.5-3.3,27.5-1.7,43.6-0.6c66.9,5.8,139.1,14.7,165.5,4.6C1173,85.5,1276.5,2.3,1342.2-22.9c65.7-25.1,203.6,19.9,236.7-54
		L1557.4-105.2z"/>
	<g>
		<path class="st1" d="M1540.7-71.3c-2.6,1.9-5.3,3.6-8.2,5.1c-2.9,1.4-5.8,2.7-8.9,3.7c-6.1,2.1-12.4,3.4-18.8,4.4
			c-6.4,1-12.8,1.6-19.2,2.3c-6.4,0.6-12.8,1.2-19.2,1.7c-25.7,2-51.4,3.3-77.1,3.7c-6.4,0.1-12.9,0.2-19.3,0.2l-9.7,0
			c-3.2,0-6.4-0.1-9.5,0.3c-3.1,0.3-6.1,1.2-9,2.5c-2.8,1.3-5.5,3.1-8.2,4.8l-16.3,10.4l-65.1,41.4l-65.2,41.3
			c-5.4,3.5-10.9,6.9-16.3,10.3L1154.2,71c-11,6.7-21.6,14-33.4,19.5c-5.9,2.7-12.1,4.9-18.6,5.8c-6.4,1-13,0.9-19.4,0.6l-38.5-2.2
			l-77.1-4.6l77.1,3.6l38.5,1.9c6.4,0.2,12.8,0.2,19.1-0.8c6.3-1,12.4-3.1,18.1-5.8c11.5-5.5,22.2-12.9,33.1-19.6l16.3-10.2
			c5.5-3.4,10.9-6.8,16.3-10.3l65.1-41.4l65.2-41.3l16.3-10.3c2.7-1.7,5.5-3.5,8.5-4.9c1.5-0.7,3-1.3,4.6-1.8
			c1.6-0.4,3.2-0.7,4.9-0.9c3.3-0.4,6.5-0.3,9.7-0.3l9.6,0.1c6.4,0,12.9,0,19.3,0c25.7-0.2,51.4-1.3,77.1-3.1
			c6.4-0.4,12.8-0.9,19.2-1.5c6.4-0.5,12.8-1.1,19.2-2c6.4-0.9,12.7-2.2,18.8-4.2c3.1-1,6-2.2,8.9-3.6
			C1535.3-67.7,1538-69.4,1540.7-71.3z"/>
	</g>
	<g>
		<path class="st1" d="M1213.4,39.1c9.2-5.5,18.5-10.9,27.8-16.3l27.9-16.1c9.3-5.4,18.6-10.8,27.8-16.3
			c9.2-5.5,18.4-11.1,27.6-16.7c-8.7,6.3-17.7,12.3-26.8,18c-9.1,5.8-18.3,11.3-27.6,16.7c-9.3,5.4-18.7,10.6-28.2,15.7
			C1232.6,29.3,1223,34.2,1213.4,39.1z"/>
	</g>
	<g>
		<path class="st1" d="M887.7,104.6c5.9-2.6,11.9-5.2,17.8-7.8l17.9-7.6c6-2.5,12.2-4.7,18.7-5.7c6.5-1,13-1.1,19.5-1.2
			c12.9-0.1,25.9-0.2,38.8-0.2l19.4,0c6.5,0.1,12.9,0.1,19.4,0.3c-6.5,0.3-12.9,0.5-19.4,0.7l-19.4,0.5c-12.9,0.3-25.9,0.5-38.8,0.7
			c-6.5,0.1-12.9,0-19.2,1c-6.3,0.9-12.4,3.1-18.4,5.3l-18.1,7C899.8,100,893.7,102.4,887.7,104.6z"/>
	</g>
	<g>
		<path class="st3" d="M821.3,117.4c-8.4,5.1-18.1,7.9-27.9,9.2c-9.8,1.4-19.7,1.3-29.5,0.8c-9.8-0.5-19.4-1.5-29-2.2
			c-9.6-0.6-19.3-0.8-29,0c9.4-2.9,19.3-3.8,29.1-3.9c9.8-0.1,19.6,0.5,29.2,1.1c9.6,0.5,19.2,0.9,28.8,0.3
			C802.6,122.2,812.1,120.7,821.3,117.4z"/>
	</g>
	<g>
		<path class="st3" d="M1101.6,69.9c-21.2,5.4-43.4,7.3-65.3,6.1c-10.9-0.4-21.8-1.4-32.6-1.3c-2.7,0-5.4,0.1-8.1,0.2
			c-2.7,0.1-5.4,0.4-8.1,0.6c-5.4,0.5-10.8,1.2-16.3,1.6c-11,0.9-22,1-32.9,0.8c-11-0.2-21.9-0.6-32.7-1c-21.7-0.6-43.6-0.5-65,4.2
			c10.4-3.4,21.3-5.3,32.2-6.5c10.9-1.1,21.9-1.5,32.8-1.6c10.9-0.1,21.9,0.2,32.7,0.1c10.9,0,21.7-0.2,32.5-1.1
			c5.4-0.4,10.8-1,16.3-1.5c5.5-0.5,11.1-0.8,16.6-0.7c11.1,0.2,22,1.3,32.8,2.2C1058.2,73.9,1080,73.2,1101.6,69.9z"/>
	</g>
</g>
<g>
	<path class="st0" d="M-18.7,360.4c27.9,33.2,91.2-7.7,128.4-3.4c37.2,4.2,105.5,23,131.8,26c26.2,3,111.7-38.3,140.9-35
		c29.2,3.3,25.9-0.4-4.7-3.9S265.2,367,239.7,364.1c-25.5-2.9-108.1-28.1-131.4-30.8s-59.1,16.8-89.8,13.3
		c-30.6-3.5-30.6-3.5-30.6-3.5L-18.7,360.4z"/>
	<g>
		<path class="st1" d="M94.1,349.1c8.6-2.1,17.4-4.1,26.4-4.4c4.5-0.1,9,0.2,13.4,1.2c4.4,1,8.6,2.7,12.7,4.4
			c4.1,1.7,8.2,3.4,12.4,4.7c4.2,1.4,8.5,2.5,12.8,3.6c8.6,2,17.4,3.6,26.2,5.3l26.2,5.1c8.7,1.7,17.5,3.6,26.3,4.4
			c4.4,0.4,8.8,0.3,13.2-0.2c4.4-0.5,8.7-1.5,13-2.8c8.5-2.4,16.7-6.1,24.9-9.6c-4,2-8,3.9-12.1,5.7c-4.1,1.8-8.2,3.5-12.5,4.9
			c-4.3,1.4-8.6,2.4-13.1,3.1c-4.5,0.6-9,0.8-13.5,0.5c-4.5-0.3-8.9-0.9-13.3-1.7c-4.4-0.8-8.8-1.6-13.1-2.4l-26.3-4.9
			c-8.7-1.7-17.5-3.4-26.2-5.5c-4.3-1.1-8.7-2.3-12.9-3.7c-2.1-0.7-4.2-1.5-6.3-2.3c-2.1-0.8-4.1-1.8-6.2-2.7
			c-4.1-1.8-8.1-3.6-12.4-4.6c-4.3-1.1-8.7-1.5-13.1-1.5C111.6,345.7,102.8,347.4,94.1,349.1z"/>
	</g>
	<g>
		<path class="st3" d="M192.7,353.2c13.4,4.9,27.3,7.8,41.4,8.7c14,0.9,28.1-0.3,41.7-3.7c6.8-1.6,13.7-3.6,20.7-5.2
			c7-1.6,13.9-3.2,21-4.5c14-2.7,28.2-4.8,42.4-5.9c-13.9,3.2-27.8,6.3-41.6,9.7c-6.9,1.7-13.8,3.4-20.6,5.3
			c-6.9,1.8-13.7,3.8-20.7,5.5c-7,1.6-14.3,2.8-21.5,3.3c-7.2,0.4-14.5,0.3-21.7-0.6C219.4,364.2,205.3,360,192.7,353.2z"/>
	</g>
</g>
</svg>
