<?xml version="1.0" encoding="utf-8"?>
<!-- Generator: Adobe Illustrator 21.0.2, SVG Export Plug-In . SVG Version: 6.00 Build 0)  -->
<svg version="1.1" id="Layer_1" xmlns="http://www.w3.org/2000/svg" xmlns:xlink="http://www.w3.org/1999/xlink" x="0px" y="0px"
	 viewBox="0 0 650 322.9" style="enable-background:new 0 0 650 322.9;" xml:space="preserve">
<style type="text/css">
	.st0{enable-background:new    ;}
	.st1{fill:#C4B7B5;}
	.st2{fill:#F9673D;}
</style>
<title>Asset 1</title>
<g id="Layer_2">
	<g id="Layer_1-2">
		<g class="st0">
			<path class="st1" d="M109.5,274.8c0-3.5,0.6-7,1.8-10.5c1.2-3.5,3-6.6,5.4-9.3s5.3-5,8.7-6.7c3.5-1.7,7.4-2.6,11.8-2.6
				c5.2,0,9.7,1.2,13.4,3.5c3.7,2.4,6.4,5.4,8.2,9.2l-4.5,2.8c-0.9-1.9-2.1-3.5-3.4-4.8c-1.3-1.3-2.8-2.4-4.3-3.2s-3.1-1.4-4.8-1.8
				c-1.6-0.4-3.3-0.5-4.8-0.5c-3.5,0-6.6,0.7-9.3,2.1c-2.7,1.4-4.9,3.3-6.8,5.6c-1.8,2.3-3.2,4.9-4.2,7.8c-0.9,2.9-1.4,5.8-1.4,8.8
				c0,3.2,0.6,6.3,1.7,9.3s2.7,5.6,4.6,7.8c1.9,2.3,4.2,4.1,6.9,5.4s5.5,2,8.7,2c1.6,0,3.3-0.2,5.1-0.6c1.7-0.4,3.4-1.1,5-2
				s3.1-2,4.5-3.4c1.4-1.3,2.5-3,3.5-4.9l4.8,2.5c-0.9,2.2-2.2,4.1-3.9,5.8c-1.7,1.7-3.6,3.1-5.7,4.2c-2.1,1.2-4.3,2-6.6,2.6
				s-4.6,0.9-6.9,0.9c-4,0-7.7-0.9-11-2.6c-3.3-1.8-6.2-4-8.6-6.9c-2.4-2.8-4.3-6-5.6-9.6C110.2,282.2,109.5,278.6,109.5,274.8z"/>
			<path class="st1" d="M176.4,304.4V246H201c2.5,0,4.8,0.5,6.9,1.6c2.1,1.1,3.9,2.5,5.5,4.2c1.5,1.7,2.7,3.7,3.6,5.9
				c0.8,2.2,1.3,4.4,1.3,6.7c0,2.1-0.3,4.2-0.9,6.1c-0.6,1.9-1.5,3.7-2.6,5.3c-1.1,1.6-2.5,2.9-4.1,3.9c-1.6,1.1-3.4,1.8-5.3,2.2
				l14.3,22.5h-6.5l-13.7-21.5h-17.3v21.5L176.4,304.4L176.4,304.4z M182.1,277.8h19.1c1.7,0,3.2-0.4,4.6-1.1c1.4-0.7,2.6-1.7,3.6-3
				s1.8-2.7,2.3-4.3c0.5-1.6,0.8-3.3,0.8-5c0-1.8-0.3-3.4-0.9-5.1c-0.6-1.6-1.5-3-2.5-4.2c-1.1-1.2-2.3-2.2-3.8-2.9s-3-1.1-4.6-1.1
				h-18.6L182.1,277.8L182.1,277.8z"/>
			<path class="st1" d="M275.8,299.3v5.1h-39.2V246h38.5v5.1h-32.7v21h28.5v4.8h-28.5v22.3h33.4V299.3z"/>
		</g>
		<g class="st0">
			<path class="st1" d="M310.8,246.1h4.8l24.2,58.4h-6.1l-7.6-18.2H300l-7.5,18.2h-6.2L310.8,246.1z M325,281.7l-11.8-28.8
				l-11.9,28.8H325z"/>
		</g>
		<g class="st0">
			<path class="st1" d="M390.3,251.2h-20.8v53.3h-5.8v-53.3H343v-5.1h47.3V251.2z"/>
			<path class="st1" d="M404.8,304.4V246h5.8v58.4H404.8z"/>
			<path class="st1" d="M430.7,246.1l20.9,51.2l20.8-51.2h6L454,304.4h-5L424.7,246h6V246.1z"/>
			<path class="st1" d="M531.7,299.3v5.1h-39.2V246H531v5.1h-32.7v21h28.5v4.8h-28.5v22.3h33.4V299.3z"/>
		</g>
		<path class="st2" d="M639.1,178.7c-11.4,11.4-14.9,40.9-11.9,56c-14.1-5.6-26.1-69.1,17.3-112.5c3.2-3.2,2-6-0.7-7.5l0,0
			c-2.4-1.3-5.2-1.5-7.8-0.7c-6.8-1.3-13.2-3.9-18.9-7.8c0.8-3.8,1.3-7.6,1.4-11.5c0-25.8-5.4-36.9-16.5-36.9
			c-9.1,0-11.8,12.7-11.8,18.9c0,13,7.4,24.8,16.4,33.6c-10.1,32.1-42.9,84.6-62.3,84.6c-0.6,0-1.2,0-1.8,0.1
			c-4.2-10.2-4.1-23.4-1.4-37.1c30.4-15.3,53.6-68.6,23.9-68.6l0,0c-4.2-0.5-9.2,0.2-11.5,2.5c-7.4,7.4-19,26.3-25.8,47.5
			c-11.9,9.5-25.4,38.1-28,61.2c-5.4-13.6-4.2-39.2,0.7-67.4c26-23.2,47.1-82.2,47.1-121.1c0-1-0.3-1.9-0.8-2.8
			c-0.7-4.7-14.5-5.9-18.8-1.5c-8.5,8.5-28.1,57-39.4,104.7c-2.8-10.2-7.8-17-13.4-19.8c-2.9-2.8-14.3-1.9-18.2,2
			c-8.3,8.3-17.4,25-23,43.1c-9.6,7-25.3,37.1-30.6,58.4c-2.7-15.2-1.1-37.4,3-61.2c18-13.2,45.6-81.6,45.6-123.6c0-0.2,0-0.4,0-0.6
			c1.4-5.6-13.8-7.4-18.3-2.7c-7.8,8.1-25,52.4-36.2,98.3c-14.5,11.3-39.6,58.7-46.7,85.2c-5-27.4,11.6-85.3,25.3-98.4
			c7-6.6-10.5-6.7-15.6-2.2c-2.3,2-5.4,8-8.7,16.2c-9.8,6-31.3,36-44.3,62.7c7.7-31.7,23.6-77.8,39.2-107.5
			c4.4-0.4,8.8-0.7,12.9-0.7c15.2,0,16.1,5.7,23.6,5.7S378.4,49,378.4,49c-7,0-16.9,2-27,4.6c3.1-5.5,6.8-10.6,11.1-15.2
			c4.8-4.8,4-25.3-2.8-18.5s-15.1,20.7-23.4,37.9c-11.6,3.4-20.9,6.6-22.4,6.6c-3.3,0-2.3,2.9,0,2.9c1.3,0,9.4-1.8,19.5-3.3
			c-16.7,36-33,83.7-38.5,113.4c-4.4-28.1-4.1-69.7,8.7-82.4c1.6-1.6-3.2-19.4-8-14.6c-15.5,15.5-41.2,67.9-52.4,99.2
			C242,131,270.8,30.7,286.3,15.2c6.8-6.8-10.6-9.4-15.4-4.7c-14.2,14.2-62.6,164.9-34.6,192.9c4,4,15.7,2.6,13.1,0
			c-7.2-7.2,20.2-71.9,36.4-99c-7.5,32.5-9.2,85.8,4.1,99c3.5,3.5,12.8,2.9,13.4,0.9l0,0c0.1-0.4-0.1-0.7-0.4-0.9
			c-0.1-0.1-0.3-0.3-0.4-0.4c-0.8-2.5-0.5-7.4,0.5-14.1c9.2-24.5,35.4-62.3,45.5-74.6c-10.5,29.2-20.6,75.9-8.1,88.4
			c4,4,17.5,3,14.9,0.4c0-28.4,26.4-69.9,39.3-86.6c-9.2,41.4-12.6,82,1.2,96.3c4.3,4.4,17,2.9,14.1,0c-1.5-1.6-2.8-3.4-3.7-5.4
			c0.5-19.3,16.1-47.6,24.6-59.8c-4.8,20.7-4.3,41.6,7.3,53.3c3.3,3.3,11.3,3.3,14,1.9c10.6-2.2,20.4-10.6,27.5-24.2
			c0.6,12.9,3.5,23.3,9.4,29.2c4,4,15.3,3.1,14.9,0.7c0-16.2,9.2-38.2,17.8-51.7c-0.1,1.3,0.1,2.6,0.7,3.8
			c-2.2,16.9,0.3,33.3,11.7,44.7c2.3,2.3,7,3,10.5,2.6c0.3,0,0.7,0.1,1.1,0.1c24.4,0,56.8-53.8,68.2-90.6c3.6,2.7,7.5,5,11.7,6.8
			c-40.3,49-38.3,126,9.8,126c3.9,0-9.5-49.5,14.3-73.3C650,176.7,647.1,170.7,639.1,178.7z M440,27.4
			c-4.1,34.7-18.8,74.4-31.2,93.3C416.1,85.4,428.2,48.8,440,27.4z M536.3,24.4c-2.7,40.7-17.2,76.2-33.6,96.2
			C510.4,84,523.4,45.5,536.3,24.4L536.3,24.4z M447.6,192.1c-8.1-20.6-2.8-61.9,22.2-90.4C488.2,104.9,475.8,190.8,447.6,192.1z
			 M567.3,100.4c6,3.7-6,31.2-23,44.7C549.7,127.5,558.5,110.7,567.3,100.4L567.3,100.4z M598.6,76.8c0-4.6,1-10.3,4.9-10.3
			c4.6,0,6,12.8,6,28.2c0,1.7-0.2,3.3-0.4,5C602.7,93.1,598.6,85,598.6,76.8L598.6,76.8z"/>
		<path class="st2" d="M177.6,137.8c0,25.2-24.1,57.2-40.1,57.2c-0.6,0-1.2,0-1.8,0.1c-4.1-10.1-4.1-23.2-1.5-36.7
			c30.6-14.8,53.9-69,23.9-69l0,0c-4.2-0.5-9.2,0.2-11.4,2.5c-8.5,8.5-22.5,32.3-28.5,57.2c-5.3,6.3-11.1,12.2-17.4,17.6
			c12.2-29.4,12.9-62.6,3.9-71.6c-2.1-2.1-6.3-2.9-10.2-2.6v-0.1c-17.7,0-38,20.1-49,40.4c0.9-4.5,1.9-9,3-13.6
			c22.6-34.8,42.3-82.6,42.3-111c0-0.1,0-0.2,0-0.3c3.4-6.5-13.3-10.7-18.1-5.8c-9.8,9.9-36,78.3-46.2,135.1
			c-9.4,10.6-18.3,17.6-25.1,19.3c-3,0.8-0.6,6.2,4,5.1c5.9-1.4,12.4-5.9,19.1-12.3c-4,28-3.1,51.6,6.8,61.5
			c4.3,4.3,17.2,2.9,14.3,0c-5.6-5.6-7.2-18.6-6.2-35.4c6.5,23.9,26.5,37.2,38.8,24.9c0.7-0.3,1.4-0.8,2-1.4
			c6.2-6.3,11.4-13.5,15.5-21.3c7.5-5.7,14.4-12.1,20.6-19.1c0,0.1,0,0.2,0.1,0.3c-2.6,17.4-0.3,34.5,11.4,46.3
			c2.3,2.3,7,3,10.5,2.6c0.4,0,0.7,0.1,1.1,0.1c22.9,0,46.6-38.2,46.6-61.5C185.9,139.7,177.6,133.4,177.6,137.8z M78.5,27.8
			c-3.7,23.6-12.9,47.7-24.2,68.7C61.6,69.9,70.5,44.6,78.5,27.8L78.5,27.8z M43.8,159.5c0-23.5,28.4-51.4,43.8-59.6
			c0.1,0.1,0.2,0.2,0.3,0.3c8.3,8.3,1.7,73.2-21,97.6C54,195.6,43.8,170.1,43.8,159.5z M160.5,100.4c6.2,3.8-5.9,32.2-23.2,45.4
			C142.7,127.9,151.7,110.8,160.5,100.4z"/>
	</g>
</g>
</svg>
